<?xml version="1.0" encoding="utf-8"?>
<!-- Generator: Adobe Illustrator 22.1.0, SVG Export Plug-In . SVG Version: 6.00 Build 0)  -->
<svg version="1.1" id="Layer_1" xmlns="http://www.w3.org/2000/svg" xmlns:xlink="http://www.w3.org/1999/xlink" x="0px" y="0px"
	 viewBox="0 0 300 300" style="enable-background:new 0 0 300 300;" xml:space="preserve">
<style type="text/css">
	.st0{fill:#D3AB68;}
	.st1{fill:#FFFFFF;}
	.st2{fill:#ED1C24;}
</style>
<g>
	<g>
		<path class="st0" d="M57.5,77.2h185v74.3c-0.3,13.9-2.2,27.9-6.1,41.3c-7.9,27.4-24.3,51-44.9,70.3c-12.8,12-27,22.1-41.5,31.9
			c-14.5-9.8-28.7-19.8-41.5-31.9c-20.6-19.3-37-42.9-44.9-70.3c-3.9-13.4-5.8-27.4-6.1-41.3V77.2z"/>
		<path class="st1" d="M62.8,82.5h174.4v68.8c-0.3,13.5-2.2,27-5.9,40c-7.6,26.5-23.5,49.2-43.4,67.9c-11.7,11-24.6,20.3-37.9,29.3
			c-13.3-9-26.2-18.3-37.9-29.3c-19.9-18.8-35.8-41.4-43.4-67.9c-3.7-13-5.6-26.5-5.9-40V82.5z"/>
		<path class="st2" d="M68.2,87.8h163.7v63.4c-0.3,13.9-2.3,26.8-5.7,38.7c-7.4,25.7-22.5,47.3-41.9,65.5
			c-10.6,10-22.2,18.6-34.2,26.8c-12.1-8.1-23.6-16.8-34.2-26.8c-19.4-18.2-34.5-39.8-41.9-65.5c-3.4-11.9-5.4-24.8-5.7-38.7V87.8z"
			/>
		<path class="st1" d="M73.5,93.2v58c0.3,13.4,2.2,25.9,5.5,37.3c1.3,4.5,2.8,8.8,4.6,13l38.7-28.8l-16.5,53.8l44.3-32.9l44.3,32.9
			l-16.6-53.8l43.5-33.1l-54-0.4l59.3-45.9H73.5z"/>
		<path class="st2" d="M97.8,128.5v2.8h-4.5v-2.8c-3.4-0.1-6.1-1.2-7.9-3.1c-3.1-3.2-2.9-9.5,0.3-12.7c1.6-1.6,4.1-2.5,7.6-2.7v-2.3
			h4.5v2.3c3.6,0.1,6.1,1.1,7.7,2.8c3,3.1,3.3,8.8,0.7,12.1C104.3,127.1,101.5,128.3,97.8,128.5L97.8,128.5z M97.8,124.2
			c1.2,0,2.2-0.2,3.1-0.6c0.9-0.4,1.5-1,1.8-1.7c0.4-0.7,0.5-1.4,0.5-2.8c0-3.4-1.8-4.9-5.5-4.9V124.2L97.8,124.2z M93.3,124.2v-10
			c-1.9,0-3.3,0.4-4.2,1.4c-0.9,0.9-1.3,2.1-1.3,3.9C87.8,122.8,89.7,124.2,93.3,124.2z"/>
		<polygon class="st2" points="112,131.2 112,109.2 116.5,109.2 116.5,118 125.1,109.2 131.2,109.2 121.9,118.4 131.3,131.2 
			125.4,131.2 118.6,121.5 116.5,123.6 116.5,131.2 		"/>
		<polygon class="st2" points="150,187.8 114.2,214.4 127.6,170.9 92.2,144 136.1,143.7 150,100.3 163.9,143.7 207.8,144 
			172.4,170.9 185.8,214.4 		"/>
	</g>
	<g>
		<polygon class="st0" points="105,60.1 91.4,70.2 96.5,53.7 83.1,43.5 99.7,43.4 105,26.9 110.3,43.4 126.9,43.5 113.5,53.7 
			118.5,70.2 		"/>
		<polygon class="st0" points="150,38.2 163.6,48.2 158.5,31.8 171.9,21.5 155.3,21.4 150,5 144.7,21.4 128.1,21.5 141.5,31.8 
			136.5,48.2 		"/>
		<polygon class="st0" points="195,60.1 208.6,70.2 203.5,53.7 216.9,43.5 200.3,43.4 195,26.9 189.7,43.4 173.1,43.5 186.5,53.7 
			181.5,70.2 		"/>
	</g>
</g>
</svg>
