<?xml version="1.0" encoding="utf-8"?>
<!-- Generator: Adobe Illustrator 22.1.0, SVG Export Plug-In . SVG Version: 6.00 Build 0)  -->
<svg version="1.1" id="Layer_1" xmlns="http://www.w3.org/2000/svg" xmlns:xlink="http://www.w3.org/1999/xlink" x="0px" y="0px"
	 viewBox="0 0 300 300" style="enable-background:new 0 0 300 300;" xml:space="preserve">
<style type="text/css">
	.st0{fill-rule:evenodd;clip-rule:evenodd;fill:#CEAF2E;}
	.st1{fill-rule:evenodd;clip-rule:evenodd;fill:#FFFFFF;}
	.st2{fill-rule:evenodd;clip-rule:evenodd;}
</style>
<g>
	<path class="st0" d="M51.4,5l-20,41.9c15.8,5.6,24,14.1,23.7,26.4C55,89.9,38.9,98,21.6,102.9c-2.9,32.9-4.9,65.9,10.2,94.3
		c13.9,25.8,39.7,47.9,72.7,69.3l44.2,28.5l44.9-25.2c49.6-28.8,87.2-65,86.9-107.8c0-25.4-13.8-51.8-18.7-66.8
		c-8.4-29.2-12.4-56.3-11.1-90.2H51.4L51.4,5z"/>
	<path class="st1" d="M93,233.3l157.9-110.4c6.7,12.5,9,25.4,9.1,37.9c-0.2,27.5-19.6,55.8-60.3,80.9l-51,29.9L93,233.3L93,233.3z"
		/>
	<path class="st1" d="M64.4,24.2l-6.5,15c10.7,6.5,17.6,18.3,17.2,36.3c0.2,18.3-15.9,34.8-34.8,41.3c-0.6,9.7-0.5,19.5,0.3,29.2
		L214.9,24.2H64.4L64.4,24.2z"/>
	<path class="st2" d="M43.7,168.9c3.6,18.2,14.4,35.3,32.2,51.3l168-117.5c-8-20-10.8-42.4-12.1-65.3L43.7,168.9L43.7,168.9z"/>
	<path class="st2" d="M98.1,37.8c-0.6-0.2-1.4-0.3-2.2-0.3v-1.9h-3.2v1.9c-0.8,0-1.5,0.2-2.2,0.3c-1.5,0.3-2.8,0.9-3.7,1.9
		c-1.2,1.2-1.9,2.9-1.9,5.1c0,2,0.6,3.7,1.7,5.1c0.9,0.9,2.2,1.5,3.9,1.9c0.6,0.2,1.4,0.3,2.2,0.3v2.2H96V52c0.8,0,1.5-0.2,2.2-0.3
		c1.7-0.3,2.9-0.9,3.9-1.9c1.1-1.4,1.7-3.1,1.7-5.1c0-2-0.6-3.7-1.9-5.1C101.1,38.7,99.8,38.1,98.1,37.8L98.1,37.8z M92.7,48.9
		c-0.9,0-1.5-0.2-2.2-0.5c-1.4-0.5-2.2-1.7-2.2-3.6c0-1.4,0.5-2.5,1.1-3.2c0.3-0.3,0.6-0.5,1.1-0.8c0.6-0.2,1.2-0.3,2.2-0.3V48.9
		L92.7,48.9z M99.8,47.1c-0.3,0.6-0.8,1.1-1.4,1.2c-0.2,0.2-0.2,0.2-0.3,0.2c-0.6,0.3-1.2,0.5-2.2,0.5v-8.4c0.9,0,1.5,0.2,2.2,0.5
		c1.4,0.5,2.2,1.7,2.2,3.6C100.3,45.7,100.1,46.6,99.8,47.1L99.8,47.1z"/>
	<path class="st2" d="M117.9,49.1c-0.6-1.2-1.2-2.3-1.7-2.9c-0.5-0.8-1.2-1.2-2-1.5c0.6-0.3,1.1-0.8,1.4-1.2
		c0.3-0.3,0.5-0.9,0.6-1.5c0.5-1.2,0.8-2,0.9-2.3c0.3-0.5,0.5-0.8,0.9-0.9c0.3-0.2,0.8-0.3,1.5-0.3h0.5v-2.8c-0.3,0-0.5,0-0.5,0
		c-1.7,0-2.8,0.3-3.6,0.8c-0.8,0.5-1.5,1.7-2.2,3.7c-0.6,1.7-1.1,2.6-1.4,2.9c-0.2,0.3-0.8,0.6-1.5,0.6v-7.9h-3.6v18.6h3.6v-8
		c0.6,0,1.1,0,1.4,0.3c0.3,0.2,0.6,0.8,1.1,1.7c0.2,0.5,0.3,0.8,0.5,0.8c0,0.2,0.2,0.3,0.2,0.5l2,4.8h4.2L117.9,49.1L117.9,49.1z"/>
	<path class="st2" d="M223.1,205.9c-0.5-0.8-1.1-1.1-1.9-1.2c-0.2-0.2-0.3-0.2-0.5-0.2c-0.5,0-1.1,0.2-1.4,0.5
		c-0.6,0.5-0.9,0.9-0.9,1.5c-0.6-0.9-0.8-1.5-0.8-1.9c0-0.5,0.2-0.8,0.5-1.1c0.2-0.2,0.5-0.2,0.6-0.2c0.3,0.2,0.5,0.2,0.8,0.5
		l1.2-1.1c-0.5-0.5-1.1-0.8-1.7-0.9c-0.5,0-1.1,0.2-1.5,0.5l-0.2,0.2c-0.8,0.5-1.2,1.2-1.2,2.2c-0.2,0.9,0.3,2.2,1.2,3.6l0.2,0.2
		c0.8,1.1,1.7,1.9,2.5,2c0.3,0.2,0.6,0.2,0.8,0.2c0.6,0,1.2-0.2,1.7-0.5c0.8-0.5,1.1-1.1,1.2-1.9
		C223.9,207.5,223.7,206.7,223.1,205.9L223.1,205.9z M222.2,208.1c0,0.3-0.2,0.6-0.5,0.8c-0.2,0.2-0.5,0.2-0.9,0.2
		c-0.3-0.2-0.8-0.5-1.1-0.8c-0.3-0.5-0.3-0.9-0.3-1.2c0-0.3,0.2-0.6,0.5-0.8c0.3-0.2,0.6-0.3,0.9-0.2c0.3,0.2,0.6,0.3,0.9,0.8
		C222.2,207.3,222.3,207.8,222.2,208.1L222.2,208.1z"/>
	<polygon class="st2" points="163.7,239.9 162.2,241 164.2,244 161.2,246 159.2,243 157.8,244.1 162.9,251.4 164.3,250.5 
		162.2,247.2 165.1,245.2 167.3,248.4 168.8,247.4 163.7,239.9 	"/>
	<path class="st2" d="M151.8,253.7c-0.9-1.1-1.9-1.9-2.9-2c-0.3-0.2-0.5-0.2-0.6-0.2c-0.9,0-1.9,0.3-2.6,0.9
		c-0.6,0.5-1.1,0.9-1.4,1.4c-0.3,0.3-0.5,0.8-0.6,1.4c0,0.5,0,0.9,0.2,1.4c0,0.8,0.5,1.4,0.9,2.2c0.8,1.2,1.7,1.9,2.8,2.2
		c0.3,0,0.5,0,0.8,0c0.8,0,1.7-0.3,2.6-0.9c0.5-0.3,0.9-0.8,1.2-1.4c0.3-0.5,0.5-0.9,0.6-1.4c0.2-0.9,0-1.9-0.6-2.8
		C152.1,254.3,152,254,151.8,253.7L151.8,253.7z M150.9,257.1c0,0.8-0.3,1.2-0.9,1.7c-0.5,0.5-1.1,0.5-1.7,0.5l-0.2-0.2
		c-0.6-0.2-1.4-0.6-1.9-1.4c-0.6-0.9-0.9-1.7-0.8-2.3c0-0.8,0.3-1.2,0.9-1.7c0.6-0.3,1.2-0.5,1.9-0.5h0.2c0.6,0.2,1.2,0.8,1.7,1.5
		C150.7,255.7,151,256.5,150.9,257.1L150.9,257.1z"/>
	<path class="st2" d="M159.1,250.5l-0.8,0.2c0.3,0.6,0.3,1.2,0.2,1.7c0,0.5-0.3,0.8-0.6,1.1c-0.6,0.3-1.2,0.5-1.9,0.3
		c-0.6-0.2-1.2-0.8-1.9-1.7c-0.6-0.9-0.9-1.7-0.8-2.3c0-0.6,0.3-1.1,0.9-1.4c0.3-0.3,0.8-0.5,1.2-0.5c0.5,0.2,0.8,0.3,1.1,0.6
		l1.2-1.4c-0.5-0.5-1.1-0.8-1.7-0.8c-0.9-0.2-1.9,0-2.8,0.6c-0.5,0.5-0.9,0.8-1.2,1.4c-0.2,0.3-0.5,0.9-0.5,1.4
		c-0.2,0.9,0,1.7,0.5,2.6c0.2,0.3,0.3,0.6,0.6,0.9c0.8,1.1,1.7,1.9,2.8,2c1.1,0.3,2.2,0,3.1-0.6c0.2-0.2,0.3-0.3,0.5-0.3
		c0.6-0.5,0.9-1.1,1.1-1.7c0.3-0.8,0.3-1.5-0.2-2.5L159.1,250.5L159.1,250.5z"/>
	<path class="st2" d="M174.4,237.5c-0.2-0.3-0.5-0.6-0.8-0.9c-0.6-0.5-1.2-0.6-1.9-0.8c-1.1-0.3-2.2,0-3.2,0.6l-0.2,0.2
		c-0.3,0.2-0.5,0.3-0.8,0.6c-0.2,0.2-0.5,0.5-0.6,0.8c-0.2,0.3-0.3,0.8-0.5,1.2c-0.2,0.6,0,1.1,0,1.5c0.2,0.6,0.5,1.4,0.9,2.2
		l0.2,0.2c0.3,0.3,0.6,0.6,0.9,0.9c0.6,0.5,1.2,0.8,1.9,0.9c1.1,0.3,2.2,0,3.2-0.6l0.2-0.2c0.3-0.2,0.5-0.3,0.6-0.6
		c0.6-0.6,1.1-1.4,1.2-2.2c0.2-1.2-0.2-2.3-0.9-3.6C174.5,237.8,174.5,237.6,174.4,237.5L174.4,237.5z M173.9,241.2
		c-0.2,0.3-0.2,0.6-0.3,0.9c-0.2,0.3-0.5,0.5-0.8,0.8c-0.6,0.3-1.2,0.5-1.9,0.3c-0.8-0.2-1.4-0.6-2-1.4c-0.2-0.3-0.3-0.6-0.5-0.9
		c-0.3-0.5-0.3-0.9-0.3-1.4c0-0.3,0.2-0.6,0.3-0.9c0.2-0.3,0.5-0.6,0.8-0.8c0.6-0.5,1.2-0.6,1.9-0.5c0.8,0.2,1.4,0.6,2,1.5
		c0.2,0.3,0.3,0.5,0.5,0.8C173.8,240.2,173.9,240.7,173.9,241.2L173.9,241.2z"/>
	<polygon class="st2" points="192,220.3 194,223.1 191.1,225.1 189.1,222.3 187.5,223.2 192.8,230.7 194.2,229.6 192,226.3 
		195,224.3 197.1,227.6 198.7,226.5 193.4,219.2 192,220.3 	"/>
	<path class="st2" d="M215.2,213c0-0.2,0-0.3,0-0.6c0-0.2,0.2-0.6,0.3-1.4c0.2-0.8,0.2-1.2,0.2-1.5c0.2-0.6,0-0.9,0-1.4
		c-0.2-0.3-0.3-0.6-0.5-1.1c-0.5-0.5-0.9-0.9-1.7-0.9c-0.6-0.2-1.4,0-2,0.6c-0.2,0-0.3,0.2-0.5,0.3c-0.5,0.3-0.8,0.8-0.9,1.2
		c-0.2,0.6,0,1.4,0.5,2.3l0.5-0.3l0.9-0.6c-0.2-0.5-0.3-0.8-0.3-1.1c0.2-0.3,0.3-0.5,0.6-0.8c0.3-0.2,0.6-0.2,0.8-0.2
		c0.3,0,0.6,0.2,0.8,0.5c0.3,0.3,0.3,0.8,0.3,1.1c0,0.3,0,0.9-0.3,2c-0.3,1.4-0.3,2.3-0.3,2.9c0,0.6,0.2,1.2,0.5,1.7l4.9-3.4
		L218,211L215.2,213L215.2,213z"/>
	<path class="st2" d="M183.8,225.9l-1.5,1.1l2.3,9.4l1.5-1.1l-0.6-2.2l2.9-2l1.9,1.2l1.5-1.1L183.8,225.9L183.8,225.9z M185.2,231.6
		l-0.9-3.4l2.9,2L185.2,231.6L185.2,231.6z"/>
	<path class="st2" d="M201.1,213.8l-1.1,0.8c0.2,0.6,0.2,1.2-0.2,1.9c-0.2,0.6-0.3,1.1-0.6,1.5l0.9,1.2c0.5-0.8,0.8-1.5,0.9-2.3
		l3.7,5.3l1.4-0.9L201.1,213.8L201.1,213.8z"/>
	<path class="st2" d="M210.7,212.7c-0.9-1.4-1.9-2.2-2.8-2.5c-0.6-0.2-1.2-0.2-1.9,0.2c-0.2,0.2-0.5,0.2-0.6,0.3l-0.2,0.2
		c-0.6,0.5-0.9,1.1-1.1,1.7c0,0.8,0.2,1.5,0.6,2.3c0.2,0.2,0.3,0.3,0.5,0.5c0.2,0.3,0.5,0.5,0.8,0.6c0.2,0.2,0.5,0.2,0.6,0.2
		c0.8,0.2,1.4,0.2,2-0.3c0.5-0.3,0.8-0.9,0.9-1.5c0.5,0.9,0.8,1.5,0.8,2c0,0.3-0.2,0.6-0.5,0.9c-0.3,0.2-0.5,0.2-0.8,0.2
		c-0.2,0-0.5-0.2-0.6-0.5l-1.2,1.1c0.5,0.6,1.1,0.9,1.5,0.9c0.6,0,1.2-0.2,1.7-0.5c0.2-0.2,0.3-0.3,0.5-0.3c0.6-0.6,0.9-1.2,0.9-2
		c0.2-0.8-0.3-1.9-0.9-2.9C210.9,213,210.7,212.9,210.7,212.7L210.7,212.7z M208.3,214.6c-0.3,0.2-0.6,0.3-0.9,0.2
		c-0.3,0-0.8-0.3-1.1-0.8c0-0.2-0.2-0.3-0.2-0.3c-0.2-0.5-0.3-0.6-0.3-0.9c0-0.3,0.2-0.5,0.3-0.6l0.2-0.2c0.3-0.2,0.6-0.3,1.1-0.2
		c0.3,0.2,0.6,0.5,0.9,0.9c0.3,0.3,0.5,0.8,0.5,1.1S208.6,214.4,208.3,214.6L208.3,214.6z"/>
	<path class="st2" d="M183,234.2l-0.2-0.2c-0.3-0.3-0.6-0.6-0.9-0.6c-0.5-0.2-1.1-0.2-1.5,0c0.2-0.3,0.3-0.8,0.3-1.2
		c0-0.3-0.2-0.8-0.5-1.1c-0.2-0.3-0.3-0.5-0.6-0.6l-0.2-0.2c-0.3-0.2-0.6-0.2-0.9-0.2h-0.2c-0.3,0-0.6,0.2-0.9,0.2l-0.2,0.2
		c-0.3,0.2-4,2.8-4,2.8l5.1,7.4l0,0c0,0,4-2.9,4.2-3.1c0.2-0.2,0.3-0.2,0.3-0.3c0.3-0.2,0.5-0.5,0.5-0.8c0.2-0.3,0.2-0.8,0.2-1.1
		C183.5,235,183.4,234.5,183,234.2L183,234.2z M176.7,235.3l-1.2-1.9l2.2-1.4c0.3-0.2,0.6-0.2,0.8-0.2l0,0c0.3,0,0.5,0.2,0.6,0.5
		c0.2,0.2,0.2,0.5,0.2,0.8c0,0.2-0.2,0.5-0.5,0.6L176.7,235.3L176.7,235.3z M181.3,236.7c-0.2,0.2-2.3,1.7-2.3,1.7l-1.4-2
		c0,0,1.9-1.2,2-1.4c0.3,0,0.5-0.2,0.6-0.2c0.2-0.2,0.5-0.2,0.6,0c0.3,0,0.5,0.2,0.6,0.5c0.2,0.2,0.2,0.5,0.2,0.6
		C181.7,236.2,181.5,236.5,181.3,236.7L181.3,236.7z"/>
	<g>
		<path class="st1" d="M116.2,164.7l3.1-2.2l-4.6-6.7c0.5-0.5,0.9-0.6,1.2-0.6c0.5,0,1.1,0.3,2,0.8c0.5,0.3,5.9,3.2,5.9,3.2l3.7-2.5
			l-5.1-2.8c-1.2-0.6-2.3-1.1-3.2-1.4c-0.8-0.3-1.7-0.3-2.5,0c0.3-0.8,0.5-1.4,0.5-1.9c0-0.5-0.2-1.1-0.3-1.7
			c-0.3-1.2-0.6-2.2-0.6-2.5c0-0.5,0-0.9,0.2-1.2c0.3-0.5,0.6-0.8,1.2-1.2l0.5-0.3l-1.5-2.3c-0.3,0.2-0.5,0.3-0.5,0.3
			c-1.4,1.1-2.3,2-2.6,2.8c-0.3,0.9-0.3,2.3,0.2,4.5c0.5,1.5,0.6,2.6,0.6,3.1c0,0.5-0.5,1.1-1.1,1.5l-4.5-6.5l-3.1,2.2L116.2,164.7
			L116.2,164.7z"/>
		<path class="st1" d="M146.8,143.2l3.1-2.2l-4-5.7l2-1.4c1.4-1.1,2.5-1.9,3.1-2.5c0.2-0.3,0.5-0.5,0.6-0.8c0.2-0.3,0.3-0.8,0.5-1.1
			c0.3-0.8,0.3-1.5,0.3-2.5c-0.2-0.8-0.3-1.4-0.8-2.2c-0.2-0.2-0.3-0.3-0.5-0.6c-0.8-1.1-1.9-1.9-2.9-2.3c-1.1-0.3-2.2-0.3-3.2,0.2
			h-0.2c-0.8,0.3-2,1.1-3.7,2.2l-4.9,3.6l8.7,12.4L146.8,143.2L146.8,143.2z M142.5,127.3c1.1-0.8,1.9-1.2,2.3-1.4l0,0
			c0.6-0.3,1.2-0.5,1.7-0.3c0.6,0.2,1.1,0.5,1.5,1.1c0.3,0.5,0.5,0.9,0.5,1.4c0,0.6-0.2,1.1-0.5,1.5c-0.3,0.5-1.1,1.1-2.3,1.9
			l-1.7,1.2l-2.9-4.3L142.5,127.3L142.5,127.3z"/>
		<path class="st1" d="M102.7,167.7c0.3,1.1,0.5,1.9,0.3,2.3c-0.2,0.5-0.6,0.9-1.2,1.4c-0.3,0.3-0.8,0.6-1.2,0.8l1.5,2.3
			c0.6-0.2,1.4-0.6,2.3-1.2c0.6-0.5,1.1-1.1,1.2-1.7c0.2-0.3,0.3-0.6,0.3-0.9c0.2-0.9,0-2.3-0.3-3.9l-2.9-15.5l-3.2,2.3l2.6,10.1
			l-9.3-5.4l-3.4,2.3L102.7,167.7L102.7,167.7z"/>
		<path class="st1" d="M192.6,111.2l3.1-2.2l-4.6-6.7c0.5-0.5,0.9-0.6,1.2-0.6c0.5,0,1.1,0.3,2,0.8c0.6,0.3,5.9,3.2,5.9,3.2l3.7-2.5
			l-5.1-2.8c-1.2-0.6-2.3-1.2-3.2-1.4c-0.8-0.3-1.7-0.3-2.5,0c0.3-0.8,0.5-1.4,0.5-1.9c0-0.5-0.2-1.1-0.3-1.7
			c-0.3-1.2-0.6-2.2-0.6-2.6c0-0.3,0-0.8,0.3-1.1c0.2-0.5,0.5-0.8,1.1-1.2l0.5-0.3l-1.5-2.3c-0.2,0.2-0.3,0.3-0.5,0.3
			c-1.4,1.1-2.3,2-2.6,2.8c-0.5,0.9-0.3,2.3,0.2,4.5c0.5,1.5,0.6,2.6,0.6,3.1c-0.2,0.5-0.5,0.9-1.1,1.5l-4.6-6.5l-2.9,2.2
			L192.6,111.2L192.6,111.2z"/>
		<polygon class="st1" points="208.1,100.4 211.2,98.2 210.4,84 217.4,93.9 220.3,91.9 209.5,76.6 206.4,78.8 207.3,93.3 
			200.2,83.1 197.2,85.1 208.1,100.4 		"/>
		<polygon class="st1" points="161.4,133 164.5,130.9 163.7,116.5 170.6,126.5 173.6,124.5 162.9,109.2 159.8,111.4 160.7,125.9 
			153.6,115.7 150.7,117.7 161.4,133 		"/>
		<path class="st1" d="M169.9,112c1.2,1.9,2.6,2.6,4.2,2.6c1.5,0,3.1-0.5,4.6-1.5c0.5-0.5,1.1-0.9,1.5-1.5c0.6-0.5,1.1-1.1,1.4-1.9
			l4.3,6.2l3.1-2.2l-10.7-15.3l-3.1,2.2l4.6,6.7c-0.2,0.5-0.5,1.1-0.9,1.5c-0.5,0.5-0.9,0.9-1.5,1.4c-0.9,0.6-1.7,0.9-2.3,0.9
			c-0.6,0-1.1-0.2-1.4-0.5c-0.5-0.3-1.1-1.1-1.9-2.3l-2-2.8l-0.5-0.8l-3.1,2.2L169.9,112L169.9,112L169.9,112z"/>
		<path class="st1" d="M94.2,180.1l3.1-2.2l-10.7-15.3l-3.1,2.2l4.6,6.7c-0.2,0.5-0.5,0.9-0.9,1.5c-0.3,0.5-0.9,0.9-1.5,1.4
			c-0.9,0.6-1.5,0.9-2.2,0.9c-0.8,0-1.2-0.2-1.5-0.5c-0.3-0.3-0.9-1.1-1.9-2.3l-2.5-3.6l-3.1,2.2l3.6,5.1c1.2,1.7,2.6,2.6,4.2,2.6
			c1.5,0,3.1-0.5,4.6-1.5c0.6-0.5,1.1-0.9,1.7-1.4c0.5-0.6,0.9-1.2,1.2-2L94.2,180.1L94.2,180.1z"/>
		<path class="st1" d="M131.7,148.7l6.2-4.3l3.7,2.6l3.4-2.3l-16.9-11l-3.2,2.2l4.8,19.5l3.2-2.3L131.7,148.7L131.7,148.7z
			 M129,138.3l6,4.2l-4.2,2.9L129,138.3L129,138.3z"/>
	</g>
</g>
</svg>
