<?xml version="1.0" encoding="utf-8"?>
<!-- Generator: Adobe Illustrator 22.1.0, SVG Export Plug-In . SVG Version: 6.00 Build 0)  -->
<svg version="1.1" id="Layer_1" xmlns="http://www.w3.org/2000/svg" xmlns:xlink="http://www.w3.org/1999/xlink" x="0px" y="0px"
	 viewBox="0 0 300 300" style="enable-background:new 0 0 300 300;" xml:space="preserve">
<style type="text/css">
	.st0{fill:#231F20;}
	.st1{fill:#FFFFFF;}
	.st2{fill:#EC1C24;}
	.st3{fill:#EC1C24;stroke:#FFFFFF;stroke-width:0.5836;stroke-miterlimit:10;}
	.st4{fill:#EC1C24;stroke:#EC1C24;stroke-width:0.5669;stroke-miterlimit:10;}
</style>
<path class="st0" d="M150,5c79.9,0,145,65.1,145,145c0,79.7-65.1,145-145,145C70.2,295,5,229.8,5,150C5,70.1,70.2,5,150,5L150,5z"/>
<path class="st1" d="M248.1,172.2c-10.1,44.7-50.3,78.3-98.1,78.3c-47.7,0-87.8-33.6-98-78.3H12c10.7,66.4,68.6,117.6,138,117.6
	s127.4-51.1,138-117.6L248.1,172.2L248.1,172.2z"/>
<path class="st1" d="M249.7,137c0.6,4.3,0.9,8.6,0.9,13c0,5.7-0.5,11.3-1.4,16.8h39.6c0.7-5.5,1-11.1,1-16.8c0-4.4-0.2-8.7-0.6-13
	H249.7L249.7,137z"/>
<path class="st1" d="M51.2,131.7C59.9,85,100.9,49.5,150,49.5c49.2,0,90.2,35.5,98.9,82.2h39.7C279.5,63.3,220.7,10.2,150,10.2
	S20.5,63.3,11.4,131.6L51.2,131.7L51.2,131.7z"/>
<path class="st1" d="M51,166.8c-0.9-5.5-1.4-11.1-1.4-16.8c0-4.4,0.3-8.8,0.9-13H10.8c-0.4,4.3-0.6,8.6-0.6,13
	c0,5.7,0.4,11.3,1,16.8H51L51,166.8z"/>
<path class="st1" d="M150,55c52.4,0,95.1,42.7,95.1,95.1c0,52.3-42.7,95-95.1,95s-95.1-42.7-95.1-95C54.9,97.7,97.6,55,150,55
	L150,55z"/>
<path class="st0" d="M205.6,56.8c13.2-0.2,25.7,4.6,37.7,16.8c-0.3-9-2.8-18.1-6.7-27.1c7.7,4.3,12.7,11.8,16.7,20.6
	c1.2,6.7,1.5,13.1,0.7,20.5c-7.5-7.2-14.4-9.8-21.6-11c-6.3-2.2-12-5.5-16.8-10.8C212.3,62.8,210.2,60,205.6,56.8L205.6,56.8z"/>
<path class="st0" d="M255.5,65.6c5.8,3.2,9.9,12.6,12.7,26.3c-1.3,7-2,14.6-2.1,22.7c-3.4-5.5-10.6-11.9-21-17.8
	c-3.3-2.6-5.8-5.1-7.8-8.6c-2.2-3.6-5.4-6.9-9.9-10.1c9.8,0.3,19.1,4.6,28.1,13.9C257.1,82.8,256.9,74,255.5,65.6L255.5,65.6z"/>
<path class="st0" d="M240.2,66.8c-6.8-3.5-13.1-9.2-17.2-18.3c-2.7-6.7-6.2-12.7-10.9-17.8C226,34,238.2,49.2,240.2,66.8L240.2,66.8
	z"/>
<path class="st0" d="M178.3,45.1c7.2-7.7,22.5-3.8,41.7,5.2c1.7,2.7,3.6,5.1,5.5,7.2c-6.2-2-13.4-3.4-21.9-3.4
	c-5-1.2-9.8-2.6-14.2-5.1C186.2,47.3,182.5,45.9,178.3,45.1L178.3,45.1z"/>
<path class="st0" d="M181.8,19.7c5.2,3.4,8.5,8.7,12.7,12.9c6.5,6.8,15.2,11.6,22.8,14C213.9,30.5,201.6,21.9,181.8,19.7L181.8,19.7
	z"/>
<path class="st0" d="M153,27.7c6-10.7,31.2-7.5,42.8,11.5c-8.2,1-16.3-0.6-24.4-5.1C166.3,30.6,159.8,27.4,153,27.7L153,27.7z"/>
<path class="st0" d="M44.5,65.6c-5.8,3.2-9.9,12.6-12.7,26.3c1.3,7,2,14.6,2.2,22.7c3.4-5.5,10.5-11.9,20.9-17.8
	c3.3-2.6,5.8-5.1,7.9-8.6c2.1-3.6,5.4-6.9,9.8-10.1c-9.7,0.3-19.1,4.6-28.1,13.9C42.9,82.8,43.1,74,44.5,65.6L44.5,65.6z"/>
<path class="st0" d="M94.4,56.8c-13.2-0.2-25.7,4.6-37.7,16.8c0.3-9,2.8-18.1,6.7-27.1c-7.7,4.3-12.7,11.8-16.7,20.6
	c-1.2,6.7-1.5,13.1-0.7,20.5c7.5-7.2,14.4-9.8,21.6-11c6.3-2.2,12-5.5,16.8-10.8C87.7,62.8,89.7,60,94.4,56.8L94.4,56.8z"/>
<path class="st0" d="M59.9,66.8c6.8-3.5,13-9.2,17.2-18.3c2.7-6.7,6.1-12.7,10.8-17.8C74.1,34,61.8,49.2,59.9,66.8L59.9,66.8z"/>
<path class="st0" d="M121.7,45.1c-7.2-7.7-22.5-3.8-41.7,5.2c-1.7,2.7-3.5,5.1-5.4,7.2c6.1-2,13.3-3.4,21.8-3.4
	c5.1-1.2,9.8-2.6,14.2-5.1C113.8,47.3,117.6,45.9,121.7,45.1L121.7,45.1z"/>
<path class="st0" d="M118.2,19.7c-5.1,3.4-8.4,8.7-12.7,12.9c-6.5,6.8-15.1,11.6-22.8,14C86.1,30.5,98.4,21.9,118.2,19.7L118.2,19.7
	z"/>
<path class="st0" d="M147,27.7c-6-10.7-31.2-7.5-42.7,11.5c8.1,1,16.2-0.6,24.3-5.1C133.7,30.6,140.2,27.4,147,27.7L147,27.7z"/>
<path class="st0" d="M262,131.7h16.8c2.8-12.3,1.2-25.1-7.8-38.7c-1.7,9.2-2.8,18.4-3.1,27.2c-7.4-11-19.9-20.7-25-19.5
	c2.9,4.5,5.3,9.3,7.4,14.2C252.6,120.9,255.9,126.2,262,131.7L262,131.7z"/>
<path class="st0" d="M38.1,131.7c6-5.4,9.4-10.8,11.6-16.8c2.2-4.9,4.6-9.7,7.4-14.2c-5.1-1.3-17.6,8.5-25,19.5
	c-0.3-8.8-1.3-18-3-27.2c-9.1,13.6-10.6,26.5-7.9,38.7H38.1L38.1,131.7z"/>
<path class="st2" d="M273.1,148l-2.9-0.7c1-3.2,3.1-4.7,6.4-4.7c1.9,0,3.4,0.5,4.4,1.4c1.1,1,1.7,2.3,1.7,3.9c0,2.1-1.1,3.6-3.3,4.4
	c2.5,0.6,3.8,2.2,3.8,4.7c0,1.9-0.6,3.3-1.9,4.3c-1.2,1-2.9,1.5-4.8,1.5c-1.8,0-3.3-0.4-4.5-1.2s-2-2.2-2.3-4.1l2.9-0.6
	c0.6,2.2,1.8,3.4,3.8,3.4c0.9,0,1.7-0.3,2.4-0.9c0.6-0.6,1-1.5,1-2.7c0-1-0.3-1.7-0.9-2.4c-0.6-0.6-1.7-0.9-3.4-0.9h-1.3V151h1.3
	c0.9,0,1.6-0.1,2.1-0.2c0.5-0.2,0.9-0.5,1.2-1c0.4-0.5,0.6-1.1,0.6-1.9c0-0.9-0.3-1.7-0.8-2.2c-0.5-0.6-1.2-0.9-2.1-0.9
	C274.8,145,273.7,146,273.1,148L273.1,148z"/>
<polygon class="st2" points="119.6,67.7 126.3,67.7 126.3,99.8 119.6,99.8 "/>
<polygon class="st2" points="133.9,67.7 133.9,99.8 139.9,99.8 139.9,78.5 144.4,99.8 148,99.8 153,78.1 153,99.8 159,99.8 
	159,67.7 149.6,67.7 146.4,79.7 143.3,67.7 "/>
<polygon class="st2" points="162.3,67.7 180.5,67.7 180.5,73.3 174.2,73.3 174.2,99.8 167.7,99.8 167.7,73.3 162.3,73.3 "/>
<path class="st0" d="M270.5,198.3c-0.6-0.9-1.4-1.6-2.5-2.2c-1.6-0.9-3-1.1-4.3-0.8c-0.4,0.1-0.7,0.3-1.1,0.4
	c-0.9,0.5-1.6,1.2-2.3,2.2c0.3-1.5,0.3-2.7,0-3.7c-0.4-0.9-1.2-1.7-2.4-2.4c-0.9-0.5-1.8-0.7-2.8-0.7c-0.2,0-0.5,0-0.7,0.1
	c-0.7,0.1-1.3,0.3-1.9,0.7c-0.7,0.5-1.4,1.2-2.1,2c-0.6,0.9-1.6,2.5-2.8,4.7l-3.1,5.6l9.8,5.2l8.1,4.3l2.6,1.4l3.2-5.7
	c1.2-2.4,2.1-4.1,2.5-5.2c0.4-1.1,0.6-2.1,0.6-3C271.4,200.2,271.1,199.2,270.5,198.3L270.5,198.3L270.5,198.3z M256.3,202.3
	l-0.6,1.2l-1.2-0.7l-3-1.6l0.7-1.2c0.8-1.4,1.4-2.2,2-2.6c0.1,0,0.2-0.1,0.3-0.1c0.5-0.2,1.1-0.1,1.7,0.3c0.8,0.4,1.2,0.9,1.2,1.6
	C257.4,199.9,257.1,201,256.3,202.3L256.3,202.3L256.3,202.3z M264.9,205.9l-1.1,2l-1.2-0.7l-3.3-1.7l1.1-2.1
	c0.8-1.4,1.4-2.2,2.1-2.6h0.1c0.6-0.3,1.3-0.2,2.1,0.3c0.8,0.4,1.2,1,1.2,1.7C265.9,203.5,265.6,204.6,264.9,205.9L264.9,205.9z"/>
<path class="st0" d="M230.5,223.9l3.6-5.2l9.3,6.5c1.4,0.9,2.4,1.6,3.1,2c0.6,0.3,1.2,0.5,1.7,0.6c0.6,0.2,1.3,0.1,1.9-0.2
	c0.6-0.3,1.1-0.9,1.6-1.6c0.5-0.7,0.8-1.4,0.9-2.1c0.1-0.6,0-1.3-0.4-1.8c-0.2-0.5-0.7-0.9-1.2-1.4c-0.6-0.5-1.5-1.2-2.9-2.2
	l-1.3-0.9l-8-5.6l3.7-5.1l10.1,7c2.1,1.5,3.6,2.7,4.3,3.7c0.8,1,1.4,2,1.6,3.1c0.4,1.2,0.3,2.5-0.1,3.9c-0.4,1.5-1.2,3-2.3,4.5
	c-1.2,1.7-2.4,2.9-3.6,3.8c-1.1,0.9-2.4,1.4-3.6,1.5c-1.1,0.1-2.3-0.1-3.5-0.5c-1.2-0.5-2.8-1.4-4.8-2.9l-2-1.4L230.5,223.9
	L230.5,223.9z"/>
<polygon class="st0" points="238.2,249.3 221.8,232.8 226.4,228.4 238.9,241.1 244.5,235.5 248.3,239.4 "/>
<polygon class="st0" points="217.9,264.6 204.2,245.7 209.3,242 215.5,250.6 215.3,237.7 221.2,233.4 220.9,247.7 235.5,251.8 
	229.1,256.5 216.9,252.4 222.9,260.9 "/>
<polygon class="st0" points="185.3,278.3 179.7,255.8 186,254.3 191.5,276.8 "/>
<path class="st0" d="M101.5,248.2c-0.4-0.7-1-1.4-1.9-2.1c-0.8-0.7-2.4-1.7-4.6-3l-2-1.1l-3.5-2.1l-0.6,1l-11,19.1l5.6,3.4
	c2.4,1.3,4.1,2.2,5.1,2.6c0.1,0.1,0.2,0.1,0.3,0.1c1,0.4,1.9,0.6,2.7,0.6c0.5,0,1,0,1.4-0.1c0.6-0.1,1.2-0.4,1.7-0.7
	c0.9-0.5,1.7-1.4,2.3-2.4c0.9-1.5,1.2-3,0.9-4.3c-0.3-1.3-1.1-2.5-2.5-3.4c1.5,0.3,2.7,0.4,3.7,0c1-0.3,1.8-1.1,2.5-2.2
	c0.5-0.9,0.8-1.9,0.8-2.8C102.3,249.9,102.1,249.1,101.5,248.2L101.5,248.2L101.5,248.2z M92.1,259.9c-0.5,0.8-1.1,1.2-1.8,1.2
	c-0.4,0-0.9-0.1-1.4-0.3c-0.5-0.2-1.1-0.5-1.7-0.8l-1.9-1.1l2.5-4.4l1.1,0.6l0.9,0.6c1.4,0.8,2.2,1.5,2.5,2.1
	C92.6,258.3,92.5,259.1,92.1,259.9L92.1,259.9L92.1,259.9z M95.8,251.6c-0.5,0.7-1,1.1-1.7,1.1c-0.3,0-0.6-0.1-1.1-0.2
	c-0.5-0.2-1.2-0.5-2-1l-1.1-0.6l2.4-4l0.7,0.4l0.5,0.3c1.4,0.8,2.2,1.5,2.5,2.1C96.2,250.1,96.1,250.8,95.8,251.6L95.8,251.6z"/>
<polygon class="st0" points="160.6,281.5 158,258.4 164.2,257.7 165.4,268.2 171.5,257 178.9,256.2 171.5,268.3 182.1,279.2 
	174.3,280 165.6,270.5 166.8,280.8 "/>
<path class="st0" d="M143.1,275.5c1.1,0.9,2.2,1.6,3.1,2c1,0.4,2,0.6,2.9,0.5c0.8-0.1,1.5-0.4,2-1c0.5-0.5,0.7-1.1,0.6-1.8
	c-0.1-0.8-0.4-1.3-0.9-1.7c-0.5-0.4-1.7-0.7-3.4-0.9c-2.4-0.3-4.1-0.9-5-1.8c-1.1-0.9-1.7-2.2-2-3.9c-0.2-2.2,0.3-4.1,1.6-5.6
	c1.3-1.6,3.2-2.6,5.5-2.9c1.2-0.1,2.5-0.1,3.7,0.1s2.3,0.6,3.5,1.2l-1.5,4.7c-0.8-0.5-1.6-0.9-2.4-1.1c-0.8-0.3-1.5-0.3-2.3-0.2
	c-0.8,0.1-1.4,0.3-1.8,0.8c-0.4,0.4-0.6,0.9-0.5,1.4c0,0.6,0.3,1.1,0.8,1.4c0.4,0.3,1.3,0.5,2.5,0.7c0.1,0,0.2,0,0.3,0
	c2.7,0.4,4.4,1,5.3,1.7c0.6,0.5,1.2,1.1,1.5,1.9c0.4,0.8,0.7,1.7,0.8,2.6c0.3,2.5-0.3,4.5-1.7,6.2s-3.5,2.7-6.1,3.1
	c-1.7,0.2-3.2,0.1-4.5-0.3c-1.4-0.4-2.8-1.1-4.1-2.1L143.1,275.5L143.1,275.5z"/>
<polygon class="st0" points="123.9,280.1 127.4,257.2 133.6,258 130.9,275.7 138.7,276.8 137.9,282.3 "/>
<path class="st0" d="M112.6,251.2l-0.9,1l-15.4,17.6l6.2,2.4l2.8-3.4l6.4,2.5l2.5,0.9l-0.4,4.3l6.2,2.4l0.5-24.7L112.6,251.2
	L112.6,251.2L112.6,251.2z M114.9,258.2c-0.1,0.6-0.1,1-0.1,1.2l-0.4,8.1l-2.8-1.1l-3.5-1.4l3.5-4.2l1.6-2c0.3-0.4,0.6-0.8,0.9-1.3
	c0.4-0.4,0.7-0.9,1.1-1.3C115.1,257.1,115,257.7,114.9,258.2L114.9,258.2z"/>
<path class="st0" d="M83.3,237.8c-0.3-1.4-0.9-2.7-1.8-3.9c-1-1.3-2.8-3.1-5.5-5.4l-3.6-3.2l-1,1.1l-14.3,16.4l3.7,3.3l0.8,0.7
	c2.3,2,4.2,3.3,5.4,4c1.3,0.7,2.7,1.2,4,1.3c0.2,0,0.4,0,0.5,0c1.6,0.1,3.2-0.1,4.6-0.8c1.7-0.7,3.2-1.8,4.4-3.4
	c1.4-1.6,2.3-3.2,2.8-4.9C83.8,241.2,83.8,239.6,83.3,237.8L83.3,237.8L83.3,237.8z M75.7,243.6c-1.4,1.6-2.8,2.5-4.2,2.6
	c-0.1,0-0.2,0-0.2,0c-1.6,0-3.3-0.8-5.1-2.5l-0.8-0.7l6.1-7.1l2.3-2.6l0.8,0.7c1.9,1.7,3,3.3,3.1,4.7
	C77.8,240.4,77.2,241.9,75.7,243.6L75.7,243.6z"/>
<path class="st0" d="M56.3,207l3.9,5l-8.9,6.9c-1.4,1-2.3,1.7-2.8,2.3c-0.6,0.5-1,1-1.2,1.4c-0.3,0.6-0.4,1.2-0.3,1.9
	c0.1,0.7,0.4,1.3,1,2c0.5,0.7,1.1,1.2,1.7,1.5c0.6,0.3,1.2,0.4,1.9,0.2c0.5-0.1,1.1-0.4,1.7-0.8c0.6-0.4,1.6-1.1,2.9-2.1l1.3-1
	l7.7-5.9l3.9,5l-9.8,7.5c-2,1.5-3.6,2.6-4.7,3.1c-1.1,0.5-2.3,0.7-3.4,0.7c-1.3-0.1-2.5-0.5-3.7-1.4c-1.3-0.8-2.5-2-3.7-3.6
	s-2.1-3.1-2.6-4.4c-0.4-1.4-0.6-2.7-0.3-3.9c0.2-1.1,0.8-2.1,1.5-3.1c0.8-1,2.2-2.3,4.2-3.9l1.9-1.5L56.3,207L56.3,207z"/>
<polygon class="st0" points="28.7,201.9 49.7,192 55.7,204.9 51.1,207.1 47.6,199.7 44,201.4 47.2,208.3 42.8,210.4 39.5,203.6 
	31.2,207.5 "/>
<path class="st0" d="M112.4,159.4c2.7,0,5.4,0.4,7.9,1.1l-1.9,7.5c2.2,0.4,4.1,1.2,5.8,2.6l4.5-6.4c3.4,2.2,6.4,4.9,8.7,8.3l-6,4.2
	c1.4,1.7,2.4,3.5,2.9,5.6l7.4-1.9c1.1,3.1,1.6,6.4,1.6,9.9c0,17.1-13.9,31-30.9,31c-13.6,0-25.2-8.8-29.3-20.9l7.1-2.4
	c-0.8-2-1.2-4.1-1-6.2l-7.8-0.4c0-0.4,0-0.7,0-1.1c0-4.2,0.8-8.1,2.3-11.7l7.1,2.9c0.7-2.1,1.7-4,3.3-5.5l-5.7-5.1
	c3-3.6,6.6-6.4,10.9-8.5l3.3,7.1c2-1.1,4-1.8,6.1-1.9l-0.6-7.8C109.4,159.5,110.8,159.4,112.4,159.4L112.4,159.4z"/>
<path class="st1" d="M112.4,175.7c8,0,14.6,6.6,14.6,14.6c0,8.1-6.6,14.6-14.6,14.6c-8.1,0-14.7-6.5-14.7-14.6
	C97.6,182.4,104.3,175.7,112.4,175.7L112.4,175.7z"/>
<path class="st2" d="M112.4,177.3c7.1,0,12.9,5.9,12.9,13c0,7.2-5.8,13-12.9,13c-7.2,0-13-5.8-13-13
	C99.3,183.2,105.1,177.3,112.4,177.3L112.4,177.3z"/>
<path class="st0" d="M173.8,182.8c10.6,0,19.3,8.6,19.3,19.2c0,10.6-8.7,19.3-19.3,19.3c-10.5,0-19.2-8.7-19.2-19.3
	C154.6,191.3,163.3,182.8,173.8,182.8L173.8,182.8z"/>
<path class="st1" d="M173.8,191.3c5.8,0,10.7,4.7,10.7,10.6c0,5.8-4.8,10.6-10.7,10.6c-5.7,0-10.6-4.7-10.6-10.6
	C163.2,196.1,168.1,191.3,173.8,191.3L173.8,191.3z"/>
<path class="st2" d="M173.8,192.8c5,0,9.2,4.2,9.2,9.1c0,5-4.1,9.1-9.2,9.1c-4.9,0-9.1-4-9.1-9.1C164.7,197,168.9,192.8,173.8,192.8
	L173.8,192.8z"/>
<path class="st0" d="M142.8,113.8c-1.1,12.1-13.9,14.4-36.8,4.6c-7.8-2.8-14.9-5.3-20.2-5.4c-4.7-0.1-9.5,4.4-9.8,8.8
	c-0.1,11,10.2,21,26.5,21.1c12.6,0.2,26.2-7,41.4-16c23-15.9,33.9-15.6,48.4-1.2l22.5,22.5c5.8,5.3,11.7,5.6,17.7-0.2
	c1.9,4-0.2,8.1-5.6,12.5c-1.7,1.1-2.4,2.4-2,3.9c0.5,5.3-3,9.9-10,12.2c-7,12-12.5,15.1-16.8,9.5c-1.2,1.2-2.6,2.2-4.2,2.7h-0.1
	c-5.2-7-12.7-11.2-21.9-11.2c-8.5,0-17.7,7.3-20.7,16.2c-1.3,3.7-2.3,5.7-3.4,7.1h-0.1c-0.6,0.7-1.4,0.1-1.3-1.2
	c0.8-3,1.2-6,1.2-9.3c0-19.7-15.9-35.8-35.4-35.8c-19.2,0-34.9,15.5-35.5,34.6l-0.5-0.1c-4-3.6-3.2-17-1.2-24.7
	c3.3-10.3,1.5-19.4-5.1-27.6c-2.3-2.5-4.1-10.9-3.3-16.7c1.6-8.7,6.3-14.7,16.6-14.6c6.7-0.1,14.8,4.3,25.5,7.9
	c8.3,2.8,15.5,3.2,21-0.1C136.1,109.9,142.8,110.7,142.8,113.8L142.8,113.8z"/>
<path class="st1" d="M212.2,154.1c-4.7,1.5-8,4.1-8.6,8.8c3.1-1.3,5.5-2.2,7.2-2.1c2.7,0,4.3-0.5,4.6-3.5
	C215.8,155.4,213.6,153.8,212.2,154.1L212.2,154.1z"/>
<path class="st1" d="M208.9,167.3c1.2-0.5,2.4-0.3,2.7,0.3s-0.4,1.5-1.6,1.9c-1.2,0.5-2.4,0.4-2.7-0.2
	C207,168.6,207.7,167.7,208.9,167.3L208.9,167.3z"/>
<polygon class="st3" points="183.5,142.6 183.5,156.8 190.1,156.8 190.1,169.6 156,169.6 156,156.8 179.1,156.8 179.1,142.6 
	176.3,142.6 176.3,139.5 181.3,136.9 186.5,139.5 186.5,142.6 "/>
<path class="st2" d="M255.7,142.9h10.8l-0.3,2.9h-7.9l-0.3,5.4c1-1.3,2.3-1.9,3.9-1.9c1.7,0,3.1,0.6,4.2,1.8c1,1.1,1.6,2.7,1.6,4.7
	c0,2.2-0.7,4-1.9,5.1c-1.3,1.2-3,1.8-5,1.8c-1.6,0-3-0.4-4.1-1.2c-1.2-0.9-2-2.2-2.3-3.9l3.1-0.7c0.5,2.1,1.6,3.1,3.5,3.1
	c2.3,0,3.5-1.4,3.5-4.1c0-1.2-0.3-2.2-0.9-2.9c-0.5-0.7-1.4-1.1-2.5-1.1c-1.5,0-2.6,0.7-3.3,2.2l-2.6-0.5L255.7,142.9L255.7,142.9z"
	/>
<g>
	<path class="st4" d="M25.6,163h-2.5v-15.7c-0.6,0.6-1.4,1.1-2.3,1.7c-1,0.6-1.8,1-2.6,1.3v-2.4c1.4-0.6,2.6-1.4,3.6-2.4
		c1-0.9,1.8-1.8,2.2-2.7h1.6V163z"/>
	<path class="st4" d="M32.2,158.4l2.4-0.2c0.2,1.1,0.6,1.9,1.1,2.4c0.6,0.5,1.3,0.8,2.2,0.8c0.8,0,1.4-0.2,2-0.5
		c0.6-0.3,1-0.8,1.4-1.4c0.4-0.6,0.7-1.4,0.9-2.3s0.4-2,0.4-3c0-0.1,0-0.3,0-0.5c-0.5,0.8-1.2,1.4-2,1.9c-0.9,0.5-1.8,0.7-2.8,0.7
		c-1.7,0-3.1-0.6-4.2-1.8s-1.7-2.8-1.7-4.8c0-2,0.6-3.7,1.8-4.9c1.2-1.2,2.7-1.9,4.5-1.9c1.3,0,2.5,0.4,3.6,1.1s1.9,1.7,2.5,3
		s0.8,3.2,0.8,5.6c0,2.6-0.3,4.6-0.8,6.1c-0.6,1.5-1.4,2.7-2.5,3.5c-1.1,0.8-2.4,1.2-3.9,1.2c-1.6,0-2.8-0.4-3.8-1.3
		C33,161.2,32.4,160,32.2,158.4z M42.3,149.5c0-1.4-0.4-2.5-1.1-3.4s-1.7-1.2-2.7-1.2c-1.1,0-2,0.4-2.9,1.3
		c-0.8,0.9-1.2,2.1-1.2,3.5c0,1.3,0.4,2.3,1.2,3.1c0.8,0.8,1.7,1.2,2.9,1.2c1.1,0,2.1-0.4,2.8-1.2C41.9,152.1,42.3,151,42.3,149.5z"
		/>
</g>
</svg>
