<?xml version="1.0" encoding="utf-8"?>
<!-- Generator: Adobe Illustrator 22.1.0, SVG Export Plug-In . SVG Version: 6.00 Build 0)  -->
<svg version="1.1" id="Layer_1" xmlns="http://www.w3.org/2000/svg" xmlns:xlink="http://www.w3.org/1999/xlink" x="0px" y="0px"
	 viewBox="0 0 300 300" style="enable-background:new 0 0 300 300;" xml:space="preserve">
<style type="text/css">
	.st0{fill-rule:evenodd;clip-rule:evenodd;fill:#FFFFFF;}
	.st1{fill:none;stroke:#231F20;stroke-width:0.349;stroke-miterlimit:22.9256;}
	.st2{fill-rule:evenodd;clip-rule:evenodd;fill:#EC1C24;}
	.st3{fill:#FFFFFF;}
	.st4{fill:#EC1C24;}
</style>
<g>
	<polygon class="st0" points="12.7,5.6 289.2,5 288.8,27.8 288.5,38.2 288.1,48.4 287.4,58.5 286.6,68.5 285.6,78.4 284.4,88.1 
		283,97.7 281.4,107.2 279.6,116.5 277.6,125.7 275.3,134.8 272.8,143.7 270,152.6 267,161.3 263.7,169.8 260.1,178.3 256.3,186.6 
		252.2,194.8 247.8,202.9 243.1,210.8 238,218.6 232.7,226.3 227.1,233.8 221.1,241.3 214.8,248.5 208.2,255.7 201.2,262.7 
		193.9,269.6 186.2,276.4 178.2,283.1 169.8,289.6 169,290.2 168.1,290.9 167.1,291.4 166.2,292 165.2,292.5 164.2,292.9 
		163.2,293.3 162.1,293.7 161.1,294 160.1,294.3 159,294.5 157.9,294.7 156.9,294.9 155.8,295 154.7,295 153.7,295 152.6,295 
		151.6,294.9 150.6,294.7 149.5,294.6 148.5,294.4 147.5,294.1 146.6,293.9 145.6,293.6 144.6,293.2 143.7,292.9 142.8,292.5 
		141.9,292 141,291.6 140.2,291.1 139.3,290.6 138.4,290.1 129.3,283.8 120.4,277.2 112,270.1 103.9,262.8 96.2,255.1 88.9,247.1 
		81.9,238.9 75.3,230.5 69.1,221.8 63.2,213 57.7,204 52.4,194.8 47.6,185.6 43,176.2 38.8,166.8 34.9,157.3 31.3,147.8 28,138.3 
		25,128.8 22.3,119.3 19.9,109.9 17.8,100.6 16,91.4 14.5,82.3 13.2,73.4 12.2,64.6 11.5,56 11,47.6 10.8,39.4 10.9,31.5 11.3,23.8 
			"/>
	<polygon class="st1" points="12.7,5.6 289.2,5 288.8,27.8 288.5,38.2 288.1,48.4 287.4,58.5 286.6,68.5 285.6,78.4 284.4,88.1 
		283,97.7 281.4,107.2 279.6,116.5 277.6,125.7 275.3,134.8 272.8,143.7 270,152.6 267,161.3 263.7,169.8 260.1,178.3 256.3,186.6 
		252.2,194.8 247.8,202.9 243.1,210.8 238,218.6 232.7,226.3 227.1,233.8 221.1,241.3 214.8,248.5 208.2,255.7 201.2,262.7 
		193.9,269.6 186.2,276.4 178.2,283.1 169.8,289.6 169,290.2 168.1,290.9 167.1,291.4 166.2,292 165.2,292.5 164.2,292.9 
		163.2,293.3 162.1,293.7 161.1,294 160.1,294.3 159,294.5 157.9,294.7 156.9,294.9 155.8,295 154.7,295 153.7,295 152.6,295 
		151.6,294.9 150.6,294.7 149.5,294.6 148.5,294.4 147.5,294.1 146.6,293.9 145.6,293.6 144.6,293.2 143.7,292.9 142.8,292.5 
		141.9,292 141,291.6 140.2,291.1 139.3,290.6 138.4,290.1 129.3,283.8 120.4,277.2 112,270.1 103.9,262.8 96.2,255.1 88.9,247.1 
		81.9,238.9 75.3,230.5 69.1,221.8 63.2,213 57.7,204 52.4,194.8 47.6,185.6 43,176.2 38.8,166.8 34.9,157.3 31.3,147.8 28,138.3 
		25,128.8 22.3,119.3 19.9,109.9 17.8,100.6 16,91.4 14.5,82.3 13.2,73.4 12.2,64.6 11.5,56 11,47.6 10.8,39.4 10.9,31.5 11.3,23.8 
			"/>
	<polygon class="st2" points="17.3,10.6 284.1,10 283.8,27.6 283.5,37.9 283.1,48.1 282.4,58.2 281.6,68.1 280.7,77.8 279.5,87.4 
		278.1,96.9 276.5,106.3 274.7,115.5 272.7,124.6 270.5,133.5 268,142.3 265.3,151 262.3,159.6 259.1,168 255.6,176.3 251.8,184.4 
		247.8,192.5 243.4,200.4 238.8,208.2 233.9,215.8 228.6,223.4 223.1,230.8 217.2,238.1 211.1,245.2 204.6,252.2 197.7,259.2 
		190.5,265.9 183,272.6 175.1,279.2 166.8,285.6 166.1,286.1 165.3,286.6 164.6,287.1 163.8,287.6 163,288 162.2,288.3 161.4,288.7 
		160.6,289 159.7,289.2 158.9,289.4 158,289.6 157.2,289.8 156.3,289.9 155.5,290 154.6,290 153.8,290 152.9,290 152.1,289.9 
		151.3,289.8 150.4,289.7 149.6,289.5 148.8,289.3 148,289.1 147.2,288.8 146.4,288.5 145.6,288.2 144.9,287.9 144.1,287.6 
		143.4,287.2 142.6,286.8 141.9,286.3 141.2,285.9 132.2,279.8 123.5,273.2 115.3,266.4 107.4,259.1 99.8,251.6 92.6,243.8 
		85.8,235.8 79.3,227.5 73.2,219 67.4,210.3 62,201.4 56.8,192.4 52,183.3 47.5,174.1 43.4,164.8 39.5,155.5 36,146.1 32.7,136.7 
		29.8,127.3 27.1,118 24.8,108.8 22.7,99.6 20.9,90.5 19.4,81.5 18.1,72.7 17.2,64.1 16.5,55.6 16,47.4 15.8,39.4 15.9,31.6 
		16.2,24.1 	"/>
	<polygon class="st0" points="22.4,13.3 279,12.7 278.7,29.4 278.5,39.2 278,48.8 277.4,58.3 276.6,67.7 275.7,76.9 274.5,86 
		273.2,95 271.7,103.8 270,112.5 268,121.1 265.9,129.6 263.5,137.9 260.9,146.1 258,154.2 254.9,162.2 251.6,170 247.9,177.7 
		244,185.4 239.9,192.8 235.4,200.2 230.7,207.4 225.7,214.6 220.3,221.6 214.7,228.5 208.7,235.2 202.5,241.9 195.9,248.4 
		189,254.8 181.7,261.2 174.1,267.4 166.2,273.4 165.5,274 164.8,274.4 164,274.9 163.3,275.3 162.5,275.7 161.7,276 160.9,276.3 
		160.2,276.6 159.3,276.9 158.5,277.1 157.7,277.2 156.9,277.4 156.1,277.5 155.3,277.6 154.5,277.6 153.6,277.6 152.8,277.6 
		152,277.5 151.2,277.4 150.4,277.3 149.6,277.1 148.8,276.9 148.1,276.7 147.3,276.5 146.5,276.2 145.8,275.9 145.1,275.6 
		144.3,275.3 143.6,274.9 142.9,274.5 142.2,274.1 141.5,273.7 132.9,267.9 124.6,261.7 116.6,255.2 109,248.4 101.7,241.3 
		94.8,233.9 88.3,226.3 82,218.5 76.1,210.4 70.6,202.2 65.3,193.8 60.4,185.3 55.7,176.7 51.4,167.9 47.4,159.2 43.7,150.3 
		40.3,141.5 37.2,132.6 34.4,123.7 31.8,114.9 29.5,106.1 27.5,97.5 25.8,88.9 24.4,80.4 23.2,72.1 22.2,63.9 21.5,55.9 21.1,48.1 
		20.9,40.5 21,33.2 21.3,26.1 	"/>
	<path class="st2" d="M28.5,20l243.7-0.5c-0.8,105.5-25.2,185.6-110,248.7c-5.4,4-11.5,3.6-17.1,0C53.6,210,21.6,88.2,28.5,20"/>
	<path class="st3" d="M70.4,47V32.4H73v6.4l5.1-6.4h3.4l-4.7,5.7l5,8.9h-3.3l-3.5-6.8L73,42.6V47H70.4z M60.4,42.8v-6.5
		c-1.1,0-1.8,0.3-2.3,0.8c-0.5,0.6-0.7,1.4-0.7,2.5C57.4,41.8,58.4,42.8,60.4,42.8z M62.9,42.8c0.7,0,1.2-0.1,1.7-0.4
		c0.5-0.3,0.8-0.6,1-1c0.2-0.4,0.3-1.1,0.3-1.9c0-2.1-1-3.2-3-3.2V42.8z M62.9,45.3V47h-2.5v-1.7c-1,0-1.8-0.1-2.5-0.4
		c-0.7-0.3-1.3-0.7-1.7-1.3c-0.8-1.1-1.2-2.4-1.2-4c0-1.7,0.4-3,1.3-4c0.4-0.5,1-0.9,1.7-1.2c0.7-0.3,1.6-0.4,2.5-0.4v-1.4h2.5v1.4
		c1,0,1.8,0.1,2.5,0.4c0.7,0.3,1.3,0.7,1.7,1.3c0.8,1.1,1.3,2.4,1.3,4c0,1.6-0.4,2.9-1.2,4c-0.4,0.5-1,1-1.7,1.3
		C64.7,45.1,63.9,45.3,62.9,45.3z"/>
	<path class="st3" d="M197.2,39.9c0,1.6,0.3,2.9,1,3.7c0.7,0.8,1.5,1.3,2.6,1.3c1,0,1.9-0.4,2.6-1.3c0.7-0.8,1-2.1,1-3.8
		c0-1.7-0.3-2.9-1-3.7c-0.7-0.8-1.5-1.2-2.6-1.2c-1.1,0-2,0.4-2.6,1.2C197.5,37,197.2,38.3,197.2,39.9 M194.5,40
		c0-1.5,0.2-2.7,0.6-3.7c0.3-0.7,0.7-1.4,1.2-2c0.5-0.6,1.1-1,1.7-1.3c0.8-0.4,1.8-0.6,2.8-0.6c1.9,0,3.4,0.7,4.6,2
		c1.2,1.3,1.7,3.2,1.7,5.5c0,2.3-0.6,4.2-1.7,5.5c-1.1,1.3-2.7,2-4.6,2c-1.9,0-3.5-0.7-4.6-2C195,44.2,194.5,42.3,194.5,40z
		 M184.5,40.9v3.9h2.4c0.9,0,1.5,0,1.8-0.1c0.4-0.1,0.7-0.3,1-0.6c0.2-0.3,0.4-0.7,0.4-1.2c0-0.4-0.1-0.8-0.3-1.1
		c-0.2-0.3-0.5-0.5-0.8-0.7c-0.4-0.1-1.1-0.2-2.3-0.2H184.5z M184.5,35.1v3.3h1.7h0.4h0.3h0.2h0.2h0.1h0.1c0.3,0,0.5,0,0.6-0.1
		c0.4-0.1,0.8-0.2,1-0.5c0.3-0.3,0.4-0.7,0.4-1.1c0-0.4-0.1-0.8-0.3-1.1c-0.2-0.3-0.6-0.4-1-0.5c-0.3,0-1-0.1-2.2-0.1H184.5z
		 M181.8,32.7h5.2c1,0,1.8,0,2.3,0.1c0.5,0.1,1,0.3,1.4,0.6c0.4,0.3,0.7,0.7,1,1.2c0.3,0.5,0.4,1.1,0.4,1.7c0,0.7-0.2,1.3-0.5,1.9
		c-0.3,0.6-0.8,1-1.3,1.3c0.8,0.3,1.4,0.7,1.8,1.3c0.4,0.6,0.7,1.3,0.7,2.2c0,0.7-0.1,1.3-0.4,1.9c-0.3,0.6-0.6,1.1-1.1,1.5
		c-0.5,0.4-1.1,0.6-1.8,0.7c-0.2,0-0.6,0-1.1,0.1c-0.5,0-1.2,0-2,0h-4.4V32.7z M173.6,47.2V35.1h-3.9v-2.5h10.4v2.5h-3.9v12.1H173.6
		z M165.9,41.9l2.6,0.9c-0.4,1.6-1,2.8-2,3.5c-0.9,0.8-2.1,1.2-3.5,1.2c-1.7,0-3.1-0.7-4.3-2c-1.1-1.3-1.7-3.1-1.7-5.4
		c0-2.4,0.6-4.3,1.7-5.6c1.1-1.3,2.6-2,4.4-2c1.6,0,2.9,0.5,3.9,1.6c0.6,0.6,1,1.5,1.3,2.7l-2.6,0.7c-0.2-0.8-0.5-1.3-1-1.8
		c-0.5-0.4-1.1-0.7-1.8-0.7c-1,0-1.7,0.4-2.3,1.2c-0.6,0.8-0.9,2-0.9,3.7c0,1.8,0.3,3.1,0.9,3.9c0.6,0.8,1.4,1.2,2.3,1.2
		c0.7,0,1.3-0.2,1.8-0.7C165.3,43.7,165.7,42.9,165.9,41.9z M144.4,47.2V32.7h2.6v5.7h5.1v-5.7h2.6v14.5h-2.6v-6.4H147v6.4H144.4z
		 M131.3,32.7h2.5v9.7l5.3-9.7h2.6v14.5h-2.5v-9.5l-5.3,9.5h-2.6V32.7z M121.9,35.1c0,4.4-0.4,7.6-1.1,9.7h5v-9.7H121.9z
		 M119.4,32.7h9v12.1h1.1v5.6h-2.2v-3.2h-8.2v3.2h-2.2v-5.6h1.1c0.5-1.2,0.9-2.7,1.1-4.3c0.2-1.7,0.3-3.7,0.3-6.2V32.7z M106.2,47.2
		V32.7h9.7v2.5h-7v3.2h6.5v2.4h-6.5v4h7.3v2.4H106.2z M100.7,32.7h2.6v9.2c0,1.2-0.1,2.1-0.3,2.8c-0.2,0.8-0.7,1.5-1.4,2
		c-0.7,0.5-1.6,0.8-2.7,0.8c-1.3,0-2.3-0.4-3-1.2c-0.7-0.8-1.1-2-1.1-3.5l2.5-0.3c0,0.4,0,0.8,0.1,1c0.1,0.3,0.1,0.5,0.2,0.7
		c0.1,0.3,0.3,0.4,0.5,0.6c0.2,0.1,0.5,0.2,0.8,0.2c0.6,0,1-0.2,1.2-0.6c0.2-0.4,0.4-1.1,0.4-2.3V32.7z"/>
	<path class="st3" d="M236.6,44.5h2.6c0.8,0,1.4,0,1.8-0.1c0.3-0.1,0.6-0.3,0.9-0.6c0.3-0.3,0.4-0.7,0.4-1.2c0-0.7-0.2-1.2-0.7-1.5
		c-0.4-0.3-1.2-0.5-2.2-0.5h-2.7V44.5z M233.9,32.4h10v2.4h-7.3v3.4h3.6c1,0,1.8,0.1,2.5,0.4c0.7,0.3,1.2,0.8,1.7,1.5
		c0.5,0.7,0.7,1.6,0.7,2.5c0,1-0.2,1.8-0.7,2.5c-0.5,0.7-1,1.2-1.6,1.4c-0.6,0.3-1.5,0.4-2.6,0.4h-6.3V32.4z M220.9,32.4h3L227,40
		l2.7-7.5h2.8l-4.5,11c-0.5,1.2-1,2.1-1.5,2.7c-0.5,0.6-1.2,0.9-2,0.9c-0.4,0-0.7,0-1.1,0c-0.3,0-0.6-0.1-0.8-0.1v-2.2l1,0
		c0.6,0,1.1-0.1,1.3-0.4c0.3-0.2,0.5-0.8,0.8-1.6L220.9,32.4z"/>
	<path class="st0" d="M88.2,37.3c1.4,0,2.6,1.1,2.6,2.6c0,1.4-1.1,2.6-2.6,2.6s-2.6-1.1-2.6-2.6C85.7,38.5,86.8,37.3,88.2,37.3"/>
	<path class="st0" d="M213.8,37.3c1.4,0,2.6,1.1,2.6,2.6c0,1.4-1.1,2.6-2.6,2.6c-1.4,0-2.6-1.1-2.6-2.6
		C211.2,38.5,212.4,37.3,213.8,37.3"/>
	<path class="st0" d="M151.2,226.8L151.2,226.8l0.4-0.2l0.4-0.2l0.5-0.3l0.5-0.4l4.9-3.5l4.6-3.6l4.4-3.7l4.2-3.8l4-3.9l3.8-4
		l3.6-4.1l3.4-4.1l3.3-4.2l3.1-4.3l2.9-4.4l2.7-4.5l2.6-4.6l2.4-4.6l2.2-4.7l2.1-4.8l1.9-4.9l1.8-4.9l1.6-5l1.5-5.1l1.4-5.2l1.2-5.2
		l1.1-5.3l1-5.3l0.8-5.4l0.7-5.5l0.6-5.5l0.5-5.6l0.4-5.6l0.3-5.7l0.2-5.7l0-2.7l-58.6,0.1l-0.3-17.5L60.3,59.1l-0.2,1.7l-0.2,4.9
		l-0.1,5.2l0.1,5.4l0.3,5.6l0.5,5.8l0.7,6l0.9,6.2l1.1,6.3l1.2,6.4l1.5,6.5l1.7,6.6l1.9,6.6l2.1,6.6l2.3,6.7l2.5,6.7l2.7,6.6l3,6.6
		l3.2,6.5l3.4,6.4l3.6,6.4l3.9,6.2l4.1,6.1l4.4,5.9l3.2,4l9.9-8.1l3.1,3.6l4.1,4.4l4.4,4.2l4.6,4l4.8,3.8l5,3.5l5.2,3.3l0.6,0.4
		l0.5,0.3l0.4,0.2l0.3,0.2L151.2,226.8L151.2,226.8z M57.3,55.8l185.4-0.4c-0.6,76.8-20.5,144.3-86.7,190.2c-4.2,2.9-4.6,2.6-9,0
		C75.6,203.3,51.8,105.5,57.3,55.8z M53.4,51.8l193.1-0.4c-0.6,80-21.4,150.3-90.4,198.2c-4.4,3-4.8,2.7-9.3,0
		C72.5,205.5,47.8,103.5,53.4,51.8z"/>
	<path class="st4" d="M118.3,132.5c0,0.1,0,0.1,0,0.1c0,0,0,0.1,0,0.1c0,0.3,0,0.7,0,1.1c0,0.4,0,0.8,0.1,1.2
		c0.1,0.9,0.3,1.8,0.6,2.5c0.3,0.8,0.9,1.1,1.6,1.1c0.8,0,1.3-0.4,1.6-1.1c0.3-0.8,0.5-1.6,0.6-2.5c0-0.4,0-0.8,0.1-1.2
		c0-0.4,0-0.8,0-1.1c0,0,0,0,0-0.1c0,0,0-0.1,0-0.1c0,0,0,0,0-0.1c0,0,0-0.1,0-0.1c0-0.3,0-0.7,0-1.1c0-0.4,0-0.8-0.1-1.2
		c-0.1-0.9-0.3-1.7-0.6-2.5c-0.3-0.8-0.8-1.1-1.6-1.1c-0.8,0-1.3,0.4-1.6,1.1c-0.3,0.8-0.5,1.6-0.6,2.5c0,0.4,0,0.8-0.1,1.2
		c0,0.4,0,0.8,0,1.1C118.3,132.3,118.3,132.4,118.3,132.5C118.3,132.4,118.3,132.5,118.3,132.5L118.3,132.5z M114.2,132.5
		c0-2.6,0.5-4.9,1.5-6.9c1-1.9,2.6-2.9,5-2.9c2.3,0,4,1,5,2.9c1,1.9,1.5,4.2,1.5,6.9c0,2.6-0.5,4.9-1.5,6.9c-1,1.9-2.6,2.9-5,2.9
		c-2.3,0-4-1-5-2.9C114.7,137.5,114.2,135.2,114.2,132.5L114.2,132.5z M100.2,142v-3.9c0.4-0.4,0.9-0.8,1.6-1.4
		c0.6-0.6,1.3-1.2,2-1.8c0.5-0.5,0.9-0.9,1.4-1.4c0.4-0.5,0.9-1,1.3-1.5c0.4-0.6,0.8-1.2,1.1-1.8c0.3-0.6,0.5-1.1,0.5-1.7
		c0,0,0-0.1,0-0.1c0,0,0,0,0-0.1c0,0,0,0,0-0.1c0,0,0,0,0-0.1c0-0.6-0.2-1.1-0.5-1.4c-0.3-0.3-0.7-0.5-1.1-0.5
		c-0.4,0-0.8,0.2-1.2,0.5c-0.4,0.3-0.5,0.9-0.6,1.6l-4.2,0c0.1-1.1,0.3-2.1,0.7-3c0.4-0.9,1.1-1.5,1.9-2c0.5-0.2,1-0.4,1.6-0.5
		c0.6-0.1,1.2-0.2,1.8-0.2c0,0,0.1,0,0.1,0c0,0,0.1,0,0.1,0c0.7,0,1.4,0.1,2.1,0.3c0.7,0.2,1.3,0.5,1.8,1c0.6,0.5,1,1.1,1.2,1.8
		c0.3,0.7,0.4,1.4,0.4,2.1c0,0.1,0,0.2,0,0.3c0,0.1,0,0.2,0,0.4c0,0.5-0.1,0.9-0.3,1.4c-0.1,0.5-0.3,0.9-0.5,1.3
		c-0.5,1.1-1.2,2.1-2,3c-0.8,0.9-1.6,1.7-2.5,2.5c-0.3,0.3-0.6,0.5-0.8,0.7c-0.3,0.2-0.5,0.5-0.8,0.7l7,0v3.7H100.2z M89.6,129.1
		c0,0.9,0.3,1.7,0.7,2.1c0.5,0.5,1,0.7,1.5,0.7c0,0,0,0,0,0c0,0,0,0,0,0c0.6,0,1.1-0.2,1.6-0.7c0.5-0.5,0.7-1.2,0.7-2.1c0,0,0,0,0,0
		c0,0,0,0,0,0c0-1-0.2-1.7-0.7-2.2c-0.5-0.5-1-0.7-1.5-0.7c0,0,0,0,0,0c0,0,0,0,0,0c-0.6,0-1.1,0.3-1.6,0.8
		C89.8,127.4,89.6,128.1,89.6,129.1L89.6,129.1z M89.9,137.2c0.1,0.6,0.3,1,0.7,1.3c0.4,0.3,0.8,0.4,1.2,0.4c0.1,0,0.3,0,0.4,0
		c0.1,0,0.3-0.1,0.4-0.1c0.7-0.3,1.1-0.7,1.3-1.5c0.2-0.7,0.4-1.5,0.4-2.3c0-0.3,0-0.5,0-0.8c0-0.3,0-0.5,0-0.8c0-0.1,0-0.1,0-0.1
		s0-0.1,0-0.1c-0.5,0.6-1,1.1-1.7,1.5c-0.6,0.3-1.2,0.5-1.9,0.6c0,0-0.1,0-0.1,0c0,0-0.1,0-0.1,0c-1.2,0-2.3-0.5-3.3-1.6
		c-1-1-1.5-2.5-1.5-4.4c0-1.8,0.4-3.2,1.3-4.4c0.9-1.1,2-1.8,3.4-2.1c0.3-0.1,0.5-0.1,0.8-0.1c0.3,0,0.5,0,0.8,0
		c1.1,0,2.2,0.3,3.1,0.9c1,0.6,1.7,1.5,2.3,2.9c0.3,0.9,0.6,1.8,0.8,2.7c0.2,1,0.3,2,0.3,3c0,0.1,0,0.1,0,0.2c0,0.1,0,0.2,0,0.2
		c0,0.1,0,0.3,0,0.4c0,0.1,0,0.3,0,0.4c0,0.4,0,0.8-0.1,1.3c0,0.4-0.1,0.8-0.2,1.3c-0.3,1.7-0.9,3.1-1.7,4.2c-0.8,1.1-2,1.7-3.4,2
		c-0.2,0.1-0.5,0.1-0.8,0.1c-0.3,0-0.5,0-0.8,0c-0.1,0-0.3,0-0.4,0c-0.1,0-0.2,0-0.4,0c-0.4-0.1-0.9-0.1-1.3-0.3
		c-0.4-0.1-0.9-0.3-1.2-0.5c-0.8-0.4-1.4-1-1.7-1.7c-0.3-0.7-0.5-1.6-0.6-2.6L89.9,137.2z M77.2,142v-14c-0.6,0.5-1.1,0.9-1.7,1.3
		c-0.6,0.4-1.2,0.7-1.8,1v-4.2c0.8-0.3,1.5-0.7,2.3-1.3c0.7-0.5,1.4-1.1,2.1-1.7l3.3,0v19H77.2z"/>
	<path class="st2" d="M95.7,73.3c11.4,0,20.6,9.2,20.6,20.6c0,11.4-9.2,20.6-20.6,20.6c-11.4,0-20.6-9.2-20.6-20.6
		C75.1,82.5,84.4,73.3,95.7,73.3"/>
	<path class="st0" d="M80,86.6c1.8-1.2,3.7-2.1,6-2.3c1.1,1.4,2.2,2.8,3.7,4.2c-0.6,2.8-1,5.6-1.3,8.4c-2.2,1.3-4,2.1-6.1,3
		c-2-1.2-3.2-2.9-4.3-4.8C78.2,91.9,78.8,89.1,80,86.6 M76.3,97.9c0.4-1.1,0.7-2.1,1.2-2.9c0-3.1,0.6-6,2-8.6
		c-0.3-1.2-0.3-2.4-0.1-3.6c-2.2,3.2-3.5,7-3.5,11.2C75.9,95.2,76,96.6,76.3,97.9z M99.3,74.4c-1,0.4-2,0.9-2.9,1.4
		c-2.3-0.1-4.7,0.4-7.2,1.2c-0.8-0.1-2.1-0.3-3.1-0.4c2.9-1.6,6.1-2.5,9.6-2.5C97,74,98.2,74.1,99.3,74.4z M89.5,77.6
		c-1.1,1.6-1.9,3.5-2.8,6.3c1.1,1.4,2.3,2.7,3.6,4.1c2.9-0.8,5.3-1.1,8-1.2c1.4-2.1,2.2-4,3-5.9c-1.4-2.2-2.9-3.5-4.9-4.5
		C94.1,76.5,91.8,76.9,89.5,77.6z M102.1,81c-0.7,2.2-1.8,4.2-3.1,6.1c2,2.6,2.9,4.9,3.8,7.5c2.2,0.4,4.3,0.9,6.5,1.3
		c1.7-1.6,2.5-3.3,3.2-5.6c-1.1-3.1-2.2-5.9-3.8-8.2C106.5,81.3,104.3,81,102.1,81z M109.3,79.4c0,0.7,0.1,1.5,0.1,2.2
		c1.8,2.5,2.8,5.4,3.9,8.4c0.8,1.1,1.4,2.1,2.2,3.2C115.4,87.8,113,82.9,109.3,79.4z M88.8,97.6c-2,1.3-4,2.3-6.1,3
		c0.2,2.3,0.6,4.5,1.3,6.9c1.5,1.6,3,2.5,4.5,3.2c1.8,0.9,2.8,1.2,4.5,0.5c1.4-0.6,3.1-1.5,4.4-2.9c-0.8-2.3-1.4-4.7-1.5-7.1
		C93.4,100.1,91.2,99.1,88.8,97.6z M96.8,101.2c2.2-1.7,4.3-3.5,6-5.7c2.2,0.4,4.4,0.8,6.5,1.3c0.9,2.4,1.6,4.7,1.6,7.1
		c-1.5,2.2-3.5,4.3-6.3,6c-2.2-0.3-4.3-0.9-6.5-1.9C97.3,105.8,96.9,103.6,96.8,101.2z M104.4,111.7c0.2-0.4,0.3-0.8,0.5-1.2
		c2.9-1.6,5.1-3.7,6.7-6.5c0.6-0.2,1.2-0.5,1.7-0.9C111.3,106.8,108.2,109.8,104.4,111.7z M81.6,107.8c0.6,0.1,1.3,0.1,2,0.1
		c1.8,2.1,4.1,3.6,7.3,4.4c0.5,0.4,0.9,0.7,1.4,1.1C88.1,112.7,84.5,110.7,81.6,107.8z"/>
</g>
</svg>
