<?xml version="1.0" encoding="utf-8"?>
<!-- Generator: Adobe Illustrator 22.1.0, SVG Export Plug-In . SVG Version: 6.00 Build 0)  -->
<svg version="1.1" id="Layer_1" xmlns="http://www.w3.org/2000/svg" xmlns:xlink="http://www.w3.org/1999/xlink" x="0px" y="0px"
	 viewBox="0 0 300 300" style="enable-background:new 0 0 300 300;" xml:space="preserve">
<style type="text/css">
	.st0{fill:#FFFFFF;}
	.st1{fill:#00AEEF;}
	.st2{fill:none;stroke:#00AEEF;stroke-width:3.138439e-02;stroke-miterlimit:2.613;}
	.st3{fill-rule:evenodd;clip-rule:evenodd;}
	.st4{fill-rule:evenodd;clip-rule:evenodd;fill:#00AEEF;}
	.st5{fill:none;stroke:#000000;stroke-width:0.2906;stroke-miterlimit:2.613;}
	.st6{fill-rule:evenodd;clip-rule:evenodd;fill:#FFFFFF;}
	.st7{fill:none;stroke:#000000;stroke-width:1.4281;stroke-miterlimit:2.613;}
	.st8{fill:none;stroke:#000000;stroke-width:1.4276;stroke-miterlimit:2.613;}
	.st9{fill:none;stroke:#000000;stroke-width:1.698;stroke-miterlimit:2.613;}
	.st10{fill:none;stroke:#000000;stroke-width:3.138439e-02;stroke-miterlimit:2.613;}
	.st11{fill:none;stroke:#000000;stroke-width:7.264905e-02;stroke-miterlimit:2.613;}
</style>
<g>
	<path class="st0" d="M150,289c-1.1-3.1-8.1-8.5-18.9-9.7c-23.8-2.7-41.8-9-61.9-23c-16.9-11.8-28.2-28.5-38.6-48.2
		c23.4-54.5,24.9-109.8,0-166.3l34.8-34C93.6,19,121.8,25.3,150,24.5c28.2,0.9,56.4-5.4,84.7-16.6l34.8,34
		c-24.9,56.5-23.4,111.8,0,166.3c-10.4,19.6-21.8,36.4-38.6,48.2c-20.1,14.1-38.2,20.4-61.9,23C158.1,280.5,151.1,285.9,150,289z
		 M123.1,274.2l-2-0.3l-2-0.4l-2-0.4l-2-0.4l-1.9-0.4l-1.9-0.5l-1.9-0.5l-1.9-0.5l-1.9-0.6l-1.8-0.6L102,269l-1.8-0.6l-1.8-0.7
		l-1.8-0.7l-1.8-0.7l-1.8-0.8l-1.8-0.8l-1.8-0.9l-1.8-0.9l-1.8-0.9l-1.8-1l-1.8-1l-1.8-1l-1.8-1.1l-1.8-1.1l-1.8-1.2l-1.8-1.2
		l-1.8-1.3l-1.5-1.1l-1.5-1.1l-1.4-1.1l-1.4-1.2l-1.4-1.2l-1.4-1.2l-1.3-1.2l-1.3-1.3l-1.3-1.3l-1.3-1.3l-1.2-1.3l-1.2-1.4l-1.2-1.4
		l-1.2-1.4l-1.2-1.4l-1.1-1.5l-1.1-1.5l-1.1-1.5l-1.1-1.5l-1.1-1.6l-1.1-1.6l-1.1-1.6l-1-1.6l-1-1.6l-1-1.7l-1-1.7l-1-1.7l-1-1.7
		l-1-1.7l-1-1.8l-1-1.8l-0.1-0.1l1.4-3.4l2-5.2l1.9-5.2l1.8-5.2l1.6-5.2l1.5-5.2l1.4-5.2l1.2-5.2l1.1-5.3l1-5.3l0.8-5.3l0.7-5.3
		l0.5-5.3l0.4-5.3l0.3-5.3l0.1-5.3l0-5.3l-0.2-5.3l-0.3-5.3l-0.5-5.3l-0.6-5.3l-0.8-5.3l-0.9-5.3l-1.1-5.3l-1.2-5.4l-1.4-5.4
		l-1.5-5.4l-1.7-5.4l-1.8-5.4l-2-5.4l-2.1-5.4l-1.2-2.8l30.9-30.3l0.2,0.1l2.7,1l2.7,1l2.7,1l2.7,0.9l2.7,0.9l2.7,0.9l2.7,0.8L88,20
		l2.7,0.8l2.7,0.7l2.7,0.7l2.7,0.7l2.7,0.6l2.7,0.6l2.7,0.6l2.7,0.5l2.7,0.5l2.7,0.5l2.7,0.4l2.7,0.4l2.7,0.3l2.7,0.3l2.7,0.3
		l2.7,0.2l2.7,0.2l2.7,0.1l2.7,0.1l2.7,0.1l2.7,0l2.7,0l2.6-0.1l2.6,0.1l2.7,0l2.7,0l2.7-0.1l2.7-0.1l2.7-0.1l2.7-0.2l2.7-0.2
		l2.7-0.3l2.7-0.3l2.7-0.3l2.7-0.4l2.7-0.4l2.7-0.5l2.7-0.5l2.7-0.5l2.7-0.6l2.7-0.6l2.7-0.6l2.7-0.7l2.7-0.7l2.7-0.7L212,20
		l2.7-0.8l2.7-0.8l2.7-0.9l2.7-0.9l2.7-0.9l2.7-1l2.7-1l2.7-1l0.2-0.1l30.9,30.3l-1.2,2.8l-2.1,5.4l-2,5.4l-1.8,5.4l-1.7,5.4
		l-1.5,5.4l-1.4,5.4l-1.2,5.4l-1.1,5.3l-0.9,5.3l-0.8,5.3l-0.6,5.3l-0.5,5.3l-0.3,5.3l-0.2,5.3l0,5.3l0.1,5.3l0.3,5.3l0.4,5.3
		l0.5,5.3l0.7,5.3l0.8,5.3l1,5.3l1.1,5.3l1.2,5.2l1.4,5.2l1.5,5.2l1.6,5.2l1.8,5.2l1.9,5.2l2,5.2l1.4,3.4l-0.1,0.1l-1,1.8l-1,1.8
		l-1,1.7l-1,1.7l-1,1.7l-1,1.7l-1,1.7l-1,1.6l-1,1.6l-1.1,1.6l-1.1,1.6l-1.1,1.6l-1.1,1.5l-1.1,1.5l-1.1,1.5l-1.1,1.5l-1.2,1.4
		l-1.2,1.4l-1.2,1.4l-1.2,1.4l-1.2,1.3l-1.3,1.3l-1.3,1.3l-1.3,1.3l-1.3,1.2l-1.4,1.2l-1.4,1.2l-1.4,1.2l-1.4,1.1l-1.5,1.1l-1.5,1.1
		l-1.8,1.3l-1.8,1.2l-1.8,1.2l-1.8,1.1l-1.8,1.1l-1.8,1l-1.8,1l-1.8,1l-1.8,0.9l-1.8,0.9l-1.8,0.9l-1.8,0.8l-1.8,0.8l-1.8,0.7
		l-1.8,0.7l-1.8,0.7L198,269l-1.8,0.6l-1.8,0.6l-1.9,0.6l-1.9,0.5l-1.9,0.5l-1.9,0.5l-1.9,0.4l-2,0.4l-2,0.4l-2,0.4l-2,0.3l-2.1,0.3
		l-2.1,0.3l-2.1,0.3l-2.2,0.3l-2.1,0.3l-2.1,0.4l-2,0.5l-1.9,0.6l-1.8,0.6l-1.7,0.7l-1.6,0.8l-1.5,0.8l-1.3,0.8l-1.2,0.9l-1.1,0.9
		l-0.1,0.1l-0.1-0.1l-1.1-0.9l-1.2-0.9l-1.4-0.8l-1.5-0.8l-1.6-0.8l-1.7-0.7l-1.8-0.6l-1.9-0.6l-2-0.5l-2.1-0.4l-2.1-0.3l-2.2-0.3
		l-2.1-0.3l-2.1-0.3L123.1,274.2z"/>
	<path class="st1" d="M50.8,152.2l-0.8,5.3l-1,5.3l-1.1,5.3l-1.2,5.2l-1.4,5.2l-1.5,5.2l-1.6,5.2l-1.8,5.2l-1.9,5.2l-0.1,0.2
		l62.2,68.9l1.4,0.5l1.8,0.6l1.8,0.6l1.9,0.6l1.9,0.5l1.9,0.5l1.9,0.5l1.9,0.4l2,0.4l2,0.4l2,0.4l2,0.3l2.1,0.3l2.1,0.3l2.1,0.3
		l2.2,0.3l2.1,0.3l2.1,0.4l2,0.5l1.9,0.6l1.8,0.6l1.7,0.7l1.6,0.8l1.5,0.8l1.4,0.8l1.2,0.9l1.1,0.9l0.1,0.1l0.1-0.1l1.1-0.9l1.2-0.9
		l1.4-0.8l1.5-0.8l1.6-0.8l1.7-0.7l1.8-0.6l1.9-0.6l2-0.5l1.7-0.3L51.2,149.3L50.8,152.2z M195.8,24.1l-2.7,0.6l-2.7,0.5l-2.7,0.5
		l-2.7,0.5l-2.7,0.4l-2.7,0.4l-2.7,0.3l-2.7,0.3l-2.7,0.3l-2.7,0.2l-2.7,0.2l-2.7,0.1l-2.7,0.1l-2.7,0.1l-2.7,0l-2.7,0l-2.6-0.1
		l-2.6,0.1l-2.7,0l-0.9,0l104.5,115.7l-0.3-2.6l-0.4-5.3l-0.3-5.3l-0.1-5.3l0-5.3l0.2-5.3l0.3-5.3l0.5-5.3l0.6-5.3l0.8-5.3l0.9-5.3
		l1.1-5.3l0.1-0.6l-54.1-58.9L195.8,24.1z M35.4,42.8l1.2,2.8l2.1,5.4l2,5.4l0.9,2.7l179,199.1l0.6-0.4l1.8-1.1l1.8-1.2l1.8-1.2
		l1.8-1.3l1.5-1.1l1.5-1.1l1.4-1.1l1.4-1.2l1.4-1.2l1.4-1.2l1.3-1.2l1.3-1.3l1.3-1.3l1.3-1.3l1.2-1.3l1.2-1.4l1.2-1.4l1.2-1.4
		l1.2-1.4l1.1-1.5l1.1-1.5l1.1-1.5l1.1-1.5l0.3-0.4L61.8,16.9L35.4,42.8z"/>
	<polygon class="st2" points="123.1,274.2 121.1,273.8 119.1,273.5 117.1,273.1 115.1,272.6 113.2,272.2 111.3,271.7 109.4,271.2 
		107.5,270.7 105.7,270.2 103.8,269.6 102,269 100.2,268.3 98.4,267.6 96.6,266.9 94.8,266.2 93,265.4 91.3,264.6 89.5,263.7 
		87.7,262.8 85.9,261.9 84.2,260.9 82.4,259.9 80.6,258.9 78.8,257.8 77,256.7 75.2,255.5 73.4,254.3 71.5,253 70,251.9 68.6,250.8 
		67.1,249.7 65.7,248.6 64.3,247.4 63,246.2 61.7,244.9 60.4,243.7 59.1,242.4 57.8,241.1 56.6,239.8 55.4,238.4 54.2,237 53,235.6 
		51.8,234.2 50.7,232.7 49.5,231.2 48.4,229.7 47.3,228.2 46.3,226.6 45.2,225 44.1,223.4 43.1,221.8 42.1,220.2 41,218.5 40,216.8 
		39,215.1 38,213.4 37.1,211.6 36.1,209.9 35.1,208.1 35,207.9 36.4,204.6 38.5,199.4 40.4,194.2 42.2,189 43.8,183.7 45.3,178.5 
		46.7,173.3 47.9,168 49,162.8 50,157.5 50.8,152.2 51.5,147 52,141.7 52.4,136.4 52.6,131.1 52.8,125.8 52.7,120.5 52.5,115.2 
		52.2,109.8 51.7,104.5 51.1,99.2 50.3,93.8 49.4,88.5 48.3,83.2 47.1,77.8 45.7,72.4 44.2,67.1 42.5,61.7 40.7,56.4 38.7,51 
		36.6,45.6 35.4,42.8 66.3,12.6 66.5,12.6 69.2,13.7 71.9,14.7 74.6,15.6 77.3,16.6 79.9,17.5 82.6,18.3 85.3,19.2 88,20 90.7,20.7 
		93.4,21.5 96.1,22.2 98.8,22.9 101.5,23.5 104.2,24.1 106.9,24.7 109.6,25.2 112.3,25.7 115,26.1 117.7,26.6 120.4,26.9 
		123.1,27.3 125.8,27.6 128.5,27.8 131.2,28.1 133.9,28.3 136.6,28.4 139.3,28.5 142,28.6 144.7,28.6 147.4,28.6 150,28.5 
		152.6,28.6 155.3,28.6 158,28.6 160.7,28.5 163.4,28.4 166.1,28.3 168.8,28.1 171.5,27.8 174.2,27.6 176.9,27.3 179.6,26.9 
		182.3,26.6 185,26.1 187.7,25.7 190.4,25.2 193.1,24.7 195.8,24.1 198.5,23.5 201.2,22.9 203.9,22.2 206.6,21.5 209.3,20.7 212,20 
		214.7,19.2 217.4,18.3 220.1,17.5 222.7,16.6 225.4,15.6 228.1,14.7 230.8,13.7 233.5,12.6 233.7,12.6 264.6,42.8 263.4,45.6 
		261.3,51 259.3,56.4 257.5,61.7 255.8,67.1 254.3,72.4 252.9,77.8 251.7,83.2 250.6,88.5 249.7,93.8 248.9,99.2 248.3,104.5 
		247.8,109.8 247.5,115.2 247.3,120.5 247.3,125.8 247.4,131.1 247.6,136.4 248,141.7 248.5,147 249.2,152.2 250,157.5 251,162.8 
		252.1,168 253.3,173.3 254.7,178.5 256.2,183.7 257.8,189 259.6,194.2 261.5,199.4 263.6,204.6 265,207.9 264.9,208.1 263.9,209.9 
		263,211.6 262,213.4 261,215.1 260,216.8 259,218.5 257.9,220.2 256.9,221.8 255.9,223.4 254.8,225 253.7,226.6 252.7,228.2 
		251.6,229.7 250.5,231.2 249.3,232.7 248.2,234.2 247,235.6 245.8,237 244.6,238.4 243.4,239.8 242.2,241.1 240.9,242.4 
		239.6,243.7 238.3,244.9 237,246.2 235.7,247.4 234.3,248.6 232.9,249.7 231.4,250.8 230,251.9 228.5,253 226.6,254.3 224.8,255.5 
		223,256.7 221.2,257.8 219.4,258.9 217.6,259.9 215.8,260.9 214.1,261.9 212.3,262.8 210.5,263.7 208.7,264.6 207,265.4 
		205.2,266.2 203.4,266.9 201.6,267.6 199.8,268.3 198,269 196.2,269.6 194.3,270.2 192.5,270.7 190.6,271.2 188.7,271.7 
		186.8,272.2 184.9,272.6 182.9,273.1 180.9,273.5 178.9,273.8 176.9,274.2 174.8,274.5 172.7,274.8 170.6,275.1 168.4,275.3 
		166.2,275.6 164.1,276 162.2,276.5 160.3,277.1 158.5,277.7 156.8,278.4 155.2,279.2 153.8,280 152.4,280.8 151.2,281.7 
		150.1,282.6 150,282.6 149.9,282.6 148.8,281.7 147.6,280.8 146.2,280 144.8,279.2 143.2,278.4 141.5,277.7 139.7,277.1 
		137.8,276.5 135.9,276 133.8,275.6 131.6,275.3 129.4,275.1 127.3,274.8 125.2,274.5 	"/>
	<path class="st3" d="M150,289c-1.1-3.1-8.1-8.5-18.9-9.7c-23.8-2.7-41.8-9-61.9-23c-16.9-11.8-28.2-28.5-38.6-48.2
		c23.4-54.5,24.9-109.8,0-166.3l34.8-34C93.6,19,121.8,25.3,150,24.5c28.2,0.9,56.4-5.4,84.7-16.6l34.8,34
		c-24.9,56.5-23.4,111.8,0,166.3c-10.4,19.6-21.8,36.4-38.6,48.2c-20.1,14.1-38.2,20.4-61.9,23C158.1,280.5,151.1,285.9,150,289
		 M150,295l-2.4-5.4l-0.2-0.4l-0.4-0.5l-0.5-0.6l-0.7-0.6l-0.8-0.6l-0.9-0.6l-1-0.6l-1.2-0.6l-1.3-0.6l-1.4-0.6l-1.5-0.5l-1.6-0.5
		l-1.7-0.4l-1.8-0.3l-1.9-0.3l-2.2-0.3l-2.2-0.3l-2.2-0.3l-2.2-0.3l-2.1-0.4l-2.1-0.4l-2.1-0.4l-2.1-0.4l-2-0.5l-2-0.5l-2-0.5
		l-2-0.6l-2-0.6l-1.9-0.6l-1.9-0.7l-1.9-0.7l-1.9-0.7l-1.9-0.8l-1.9-0.8l-1.9-0.8l-1.9-0.9l-1.9-0.9l-1.9-0.9l-1.9-1l-1.9-1
		l-1.9-1.1l-1.9-1.1l-1.9-1.1l-1.9-1.2l-1.9-1.2l-1.9-1.3l-1.9-1.3l-1.6-1.1l-1.6-1.2l-1.5-1.2l-1.5-1.2l-1.5-1.3l-1.5-1.3l-1.4-1.3
		l-1.4-1.3l-1.4-1.4l-1.3-1.4l-1.3-1.4l-1.3-1.4l-1.3-1.5l-1.2-1.5l-1.2-1.5l-1.2-1.5l-1.2-1.6l-1.2-1.6l-1.1-1.6l-1.1-1.6l-1.1-1.6
		l-1.1-1.7l-1.1-1.7l-1.1-1.7l-1.1-1.7l-1-1.7l-1-1.8l-1-1.8l-1-1.8l-1-1.8l-1-1.8l-1.5-2.9l2.6-6.1l2-5.1l1.9-5.1l1.7-5.1l1.6-5.1
		l1.5-5.1l1.3-5.1l1.2-5.1l1.1-5.1l0.9-5.1l0.8-5.1l0.7-5.1l0.5-5.1l0.4-5.1l0.2-5.1l0.1-5.1l0-5.1l-0.2-5.1l-0.3-5.1l-0.5-5.1
		l-0.6-5.2l-0.7-5.2L43,89.7l-1-5.2l-1.2-5.2l-1.3-5.2L38,68.9l-1.6-5.2l-1.8-5.2l-1.9-5.2l-2.1-5.2l-2.9-6.8L64.8,5l4.1,1.6l2.6,1
		l2.6,1l2.6,0.9l2.6,0.9l2.6,0.9l2.6,0.8l2.6,0.8l2.6,0.8l2.6,0.8l2.6,0.7l2.6,0.7l2.6,0.7l2.6,0.6l2.6,0.6l2.6,0.5l2.6,0.5l2.6,0.5
		l2.6,0.4l2.6,0.4l2.6,0.4l2.6,0.3l2.6,0.3l2.6,0.3l2.6,0.2l2.6,0.2l2.6,0.1l2.6,0.1l2.6,0.1l2.6,0l2.6,0L150,22l2.7,0.1l2.6,0
		l2.6,0l2.6-0.1l2.6-0.1l2.6-0.1l2.6-0.2l2.6-0.2l2.6-0.3l2.6-0.3l2.6-0.3l2.6-0.4l2.6-0.4l2.6-0.4l2.6-0.5l2.6-0.5l2.6-0.5l2.6-0.6
		l2.6-0.6l2.6-0.7l2.6-0.7l2.6-0.7l2.6-0.8l2.6-0.8l2.6-0.8l2.6-0.8l2.6-0.9l2.6-0.9l2.6-0.9l2.6-1l2.6-1l4.1-1.6l37.1,36.3
		l-2.9,6.8l-2.1,5.2l-1.9,5.2l-1.8,5.2l-1.6,5.2l-1.5,5.2l-1.3,5.2l-1.2,5.2l-1,5.2l-0.9,5.2l-0.7,5.2l-0.6,5.2l-0.5,5.1l-0.3,5.1
		l-0.2,5.1l0,5.1l0.1,5.1l0.2,5.1l0.4,5.1l0.5,5.1l0.7,5.1l0.8,5.1l0.9,5.1l1.1,5.1l1.2,5.1l1.3,5.1l1.5,5.1l1.6,5.1l1.7,5.1
		l1.9,5.1l2,5.1l2.6,6.1l-1.5,2.9l-1,1.8l-1,1.8l-1,1.8l-1,1.8l-1,1.8l-1,1.7l-1.1,1.7l-1.1,1.7l-1.1,1.7l-1.1,1.7l-1.1,1.6
		l-1.1,1.6l-1.1,1.6l-1.2,1.6l-1.2,1.6l-1.2,1.5l-1.2,1.5l-1.2,1.5l-1.3,1.5l-1.3,1.4l-1.3,1.4l-1.3,1.4l-1.4,1.4l-1.4,1.3l-1.4,1.3
		l-1.5,1.3l-1.5,1.3l-1.5,1.2l-1.5,1.2l-1.6,1.2l-1.6,1.1l-1.9,1.3l-1.9,1.3l-1.9,1.2l-1.9,1.2l-1.9,1.1l-1.9,1.1l-1.9,1.1l-1.9,1
		l-1.9,1l-1.9,0.9l-1.9,0.9l-1.9,0.9l-1.9,0.8l-1.9,0.8l-1.9,0.8l-1.9,0.7l-1.9,0.7l-1.9,0.7l-1.9,0.6l-2,0.6l-2,0.6l-2,0.5l-2,0.5
		l-2,0.5l-2.1,0.4l-2.1,0.4l-2.1,0.4l-2.1,0.4l-2.2,0.3l-2.2,0.3l-2.2,0.3l-2.2,0.3l-1.9,0.3l-1.8,0.3l-1.7,0.4l-1.6,0.5l-1.5,0.5
		l-1.4,0.6l-1.3,0.6l-1.2,0.6l-1,0.6l-0.9,0.6l-0.8,0.6l-0.7,0.6l-0.5,0.6l-0.4,0.5l-0.2,0.4L150,295z"/>
	<path class="st4" d="M150,289c-1.1-3.1-8.1-8.5-18.9-9.7c-23.8-2.7-41.8-9-61.9-23c-16.9-11.8-28.2-28.5-38.6-48.2
		c23.4-54.5,24.9-109.8,0-166.3l34.8-34C93.6,19,121.8,25.3,150,24.5c28.2,0.9,56.4-5.4,84.7-16.6l34.8,34
		c-24.9,56.5-23.4,111.8,0,166.3c-10.4,19.6-21.8,36.4-38.6,48.2c-20.1,14.1-38.2,20.4-61.9,23C158.1,280.5,151.1,285.9,150,289
		 M123.1,274.2l-2-0.3l-2-0.4l-2-0.4l-2-0.4l-1.9-0.4l-1.9-0.5l-1.9-0.5l-1.9-0.5l-1.9-0.6l-1.8-0.6L102,269l-1.8-0.6l-1.8-0.7
		l-1.8-0.7l-1.8-0.7l-1.8-0.8l-1.8-0.8l-1.8-0.9l-1.8-0.9l-1.8-0.9l-1.8-1l-1.8-1l-1.8-1l-1.8-1.1l-1.8-1.1l-1.8-1.2l-1.8-1.2
		l-1.8-1.3l-1.5-1.1l-1.5-1.1l-1.4-1.1l-1.4-1.2l-1.4-1.2l-1.4-1.2l-1.3-1.2l-1.3-1.3l-1.3-1.3l-1.3-1.3l-1.2-1.3l-1.2-1.4l-1.2-1.4
		l-1.2-1.4l-1.2-1.4l-1.1-1.5l-1.1-1.5l-1.1-1.5l-1.1-1.5l-1.1-1.6l-1.1-1.6l-1.1-1.6l-1-1.6l-1-1.6l-1-1.7l-1-1.7l-1-1.7l-1-1.7
		l-1-1.7l-1-1.8l-1-1.8l-0.1-0.1l1.4-3.4l2-5.2l1.9-5.2l1.8-5.2l1.6-5.2l1.5-5.2l1.4-5.2l1.2-5.2l1.1-5.3l1-5.3l0.8-5.3l0.7-5.3
		l0.5-5.3l0.4-5.3l0.3-5.3l0.1-5.3l0-5.3l-0.2-5.3l-0.3-5.3l-0.5-5.3l-0.6-5.3l-0.8-5.3l-0.9-5.3l-1.1-5.3l-1.2-5.4l-1.4-5.4
		l-1.5-5.4l-1.7-5.4l-1.8-5.4l-2-5.4l-2.1-5.4l-1.2-2.8l30.9-30.3l0.2,0.1l2.7,1l2.7,1l2.7,1l2.7,0.9l2.7,0.9l2.7,0.9l2.7,0.8L88,20
		l2.7,0.8l2.7,0.7l2.7,0.7l2.7,0.7l2.7,0.6l2.7,0.6l2.7,0.6l2.7,0.5l2.7,0.5l2.7,0.5l2.7,0.4l2.7,0.4l2.7,0.3l2.7,0.3l2.7,0.3
		l2.7,0.2l2.7,0.2l2.7,0.1l2.7,0.1l2.7,0.1l2.7,0l2.7,0l2.6-0.1l2.6,0.1l2.7,0l2.7,0l2.7-0.1l2.7-0.1l2.7-0.1l2.7-0.2l2.7-0.2
		l2.7-0.3l2.7-0.3l2.7-0.3l2.7-0.4l2.7-0.4l2.7-0.5l2.7-0.5l2.7-0.5l2.7-0.6l2.7-0.6l2.7-0.6l2.7-0.7l2.7-0.7l2.7-0.7L212,20
		l2.7-0.8l2.7-0.8l2.7-0.9l2.7-0.9l2.7-0.9l2.7-1l2.7-1l2.7-1l0.2-0.1l30.9,30.3l-1.2,2.8l-2.1,5.4l-2,5.4l-1.8,5.4l-1.7,5.4
		l-1.5,5.4l-1.4,5.4l-1.2,5.4l-1.1,5.3l-0.9,5.3l-0.8,5.3l-0.6,5.3l-0.5,5.3l-0.3,5.3l-0.2,5.3l0,5.3l0.1,5.3l0.3,5.3l0.4,5.3
		l0.5,5.3l0.7,5.3l0.8,5.3l1,5.3l1.1,5.3l1.2,5.2l1.4,5.2l1.5,5.2l1.6,5.2l1.8,5.2l1.9,5.2l2,5.2l1.4,3.4l-0.1,0.1l-1,1.8l-1,1.8
		l-1,1.7l-1,1.7l-1,1.7l-1,1.7l-1,1.7l-1,1.6l-1,1.6l-1.1,1.6l-1.1,1.6l-1.1,1.6l-1.1,1.5l-1.1,1.5l-1.1,1.5l-1.1,1.5l-1.2,1.4
		l-1.2,1.4l-1.2,1.4l-1.2,1.4l-1.2,1.3l-1.3,1.3l-1.3,1.3l-1.3,1.3l-1.3,1.2l-1.4,1.2l-1.4,1.2l-1.4,1.2l-1.4,1.1l-1.5,1.1l-1.5,1.1
		l-1.8,1.3l-1.8,1.2l-1.8,1.2l-1.8,1.1l-1.8,1.1l-1.8,1l-1.8,1l-1.8,1l-1.8,0.9l-1.8,0.9l-1.8,0.9l-1.8,0.8l-1.8,0.8l-1.8,0.7
		l-1.8,0.7l-1.8,0.7L198,269l-1.8,0.6l-1.8,0.6l-1.9,0.6l-1.9,0.5l-1.9,0.5l-1.9,0.5l-1.9,0.4l-2,0.4l-2,0.4l-2,0.4l-2,0.3l-2.1,0.3
		l-2.1,0.3l-2.1,0.3l-2.2,0.3l-2.1,0.3l-2.1,0.4l-2,0.5l-1.9,0.6l-1.8,0.6l-1.7,0.7l-1.6,0.8l-1.5,0.8l-1.3,0.8l-1.2,0.9l-1.1,0.9
		l-0.1,0.1l-0.1-0.1l-1.1-0.9l-1.2-0.9l-1.4-0.8l-1.5-0.8l-1.6-0.8l-1.7-0.7l-1.8-0.6l-1.9-0.6l-2-0.5l-2.1-0.4l-2.1-0.3l-2.2-0.3
		l-2.1-0.3l-2.1-0.3L123.1,274.2z"/>
	<path class="st5" d="M150,289c-1.1-3.1-8.1-8.5-18.9-9.7c-23.8-2.7-41.8-9-61.9-23c-16.9-11.8-28.2-28.5-38.6-48.2
		c23.4-54.5,24.9-109.8,0-166.3l34.8-34C93.6,19,121.8,25.3,150,24.5c28.2,0.9,56.4-5.4,84.7-16.6l34.8,34
		c-24.9,56.5-23.4,111.8,0,166.3c-10.4,19.6-21.8,36.4-38.6,48.2c-20.1,14.1-38.2,20.4-61.9,23C158.1,280.5,151.1,285.9,150,289z
		 M123.1,274.2l-2-0.3l-2-0.4l-2-0.4l-2-0.4l-1.9-0.4l-1.9-0.5l-1.9-0.5l-1.9-0.5l-1.9-0.6l-1.8-0.6L102,269l-1.8-0.6l-1.8-0.7
		l-1.8-0.7l-1.8-0.7l-1.8-0.8l-1.8-0.8l-1.8-0.9l-1.8-0.9l-1.8-0.9l-1.8-1l-1.8-1l-1.8-1l-1.8-1.1l-1.8-1.1l-1.8-1.2l-1.8-1.2
		l-1.8-1.3l-1.5-1.1l-1.5-1.1l-1.4-1.1l-1.4-1.2l-1.4-1.2l-1.4-1.2l-1.3-1.2l-1.3-1.3l-1.3-1.3l-1.3-1.3l-1.2-1.3l-1.2-1.4l-1.2-1.4
		l-1.2-1.4l-1.2-1.4l-1.1-1.5l-1.1-1.5l-1.1-1.5l-1.1-1.5l-1.1-1.6l-1.1-1.6l-1.1-1.6l-1-1.6l-1-1.6l-1-1.7l-1-1.7l-1-1.7l-1-1.7
		l-1-1.7l-1-1.8l-1-1.8l-0.1-0.1l1.4-3.4l2-5.2l1.9-5.2l1.8-5.2l1.6-5.2l1.5-5.2l1.4-5.2l1.2-5.2l1.1-5.3l1-5.3l0.8-5.3l0.7-5.3
		l0.5-5.3l0.4-5.3l0.3-5.3l0.1-5.3l0-5.3l-0.2-5.3l-0.3-5.3l-0.5-5.3l-0.6-5.3l-0.8-5.3l-0.9-5.3l-1.1-5.3l-1.2-5.4l-1.4-5.4
		l-1.5-5.4l-1.7-5.4l-1.8-5.4l-2-5.4l-2.1-5.4l-1.2-2.8l30.9-30.3l0.2,0.1l2.7,1l2.7,1l2.7,1l2.7,0.9l2.7,0.9l2.7,0.9l2.7,0.8L88,20
		l2.7,0.8l2.7,0.7l2.7,0.7l2.7,0.7l2.7,0.6l2.7,0.6l2.7,0.6l2.7,0.5l2.7,0.5l2.7,0.5l2.7,0.4l2.7,0.4l2.7,0.3l2.7,0.3l2.7,0.3
		l2.7,0.2l2.7,0.2l2.7,0.1l2.7,0.1l2.7,0.1l2.7,0l2.7,0l2.6-0.1l2.6,0.1l2.7,0l2.7,0l2.7-0.1l2.7-0.1l2.7-0.1l2.7-0.2l2.7-0.2
		l2.7-0.3l2.7-0.3l2.7-0.3l2.7-0.4l2.7-0.4l2.7-0.5l2.7-0.5l2.7-0.5l2.7-0.6l2.7-0.6l2.7-0.6l2.7-0.7l2.7-0.7l2.7-0.7L212,20
		l2.7-0.8l2.7-0.8l2.7-0.9l2.7-0.9l2.7-0.9l2.7-1l2.7-1l2.7-1l0.2-0.1l30.9,30.3l-1.2,2.8l-2.1,5.4l-2,5.4l-1.8,5.4l-1.7,5.4
		l-1.5,5.4l-1.4,5.4l-1.2,5.4l-1.1,5.3l-0.9,5.3l-0.8,5.3l-0.6,5.3l-0.5,5.3l-0.3,5.3l-0.2,5.3l0,5.3l0.1,5.3l0.3,5.3l0.4,5.3
		l0.5,5.3l0.7,5.3l0.8,5.3l1,5.3l1.1,5.3l1.2,5.2l1.4,5.2l1.5,5.2l1.6,5.2l1.8,5.2l1.9,5.2l2,5.2l1.4,3.4l-0.1,0.1l-1,1.8l-1,1.8
		l-1,1.7l-1,1.7l-1,1.7l-1,1.7l-1,1.7l-1,1.6l-1,1.6l-1.1,1.6l-1.1,1.6l-1.1,1.6l-1.1,1.5l-1.1,1.5l-1.1,1.5l-1.1,1.5l-1.2,1.4
		l-1.2,1.4l-1.2,1.4l-1.2,1.4l-1.2,1.3l-1.3,1.3l-1.3,1.3l-1.3,1.3l-1.3,1.2l-1.4,1.2l-1.4,1.2l-1.4,1.2l-1.4,1.1l-1.5,1.1l-1.5,1.1
		l-1.8,1.3l-1.8,1.2l-1.8,1.2l-1.8,1.1l-1.8,1.1l-1.8,1l-1.8,1l-1.8,1l-1.8,0.9l-1.8,0.9l-1.8,0.9l-1.8,0.8l-1.8,0.8l-1.8,0.7
		l-1.8,0.7l-1.8,0.7L198,269l-1.8,0.6l-1.8,0.6l-1.9,0.6l-1.9,0.5l-1.9,0.5l-1.9,0.5l-1.9,0.4l-2,0.4l-2,0.4l-2,0.4l-2,0.3l-2.1,0.3
		l-2.1,0.3l-2.1,0.3l-2.2,0.3l-2.1,0.3l-2.1,0.4l-2,0.5l-1.9,0.6l-1.8,0.6l-1.7,0.7l-1.6,0.8l-1.5,0.8l-1.3,0.8l-1.2,0.9l-1.1,0.9
		l-0.1,0.1l-0.1-0.1l-1.1-0.9l-1.2-0.9l-1.4-0.8l-1.5-0.8l-1.6-0.8l-1.7-0.7l-1.8-0.6l-1.9-0.6l-2-0.5l-2.1-0.4l-2.1-0.3l-2.2-0.3
		l-2.1-0.3l-2.1-0.3L123.1,274.2z"/>
	<path class="st6" d="M58,48.5c0.9,0,1.5-0.3,1.9-0.8c0.3-0.6,0.5-1.4,0.5-2.5v-3.9c0-0.9-0.2-1.7-0.5-2.3c-0.4-0.5-1-0.8-1.9-0.8
		c-1.2,0-1.9,0.6-2.4,1.7c-0.2,0.6-0.3,1.2-0.5,1.7c0,0.2-0.1,0.5-0.1,0.9c0,0.3,0,0.6,0,0.9c0,1.7,0.3,3,0.8,3.8
		C56.3,48.1,57.1,48.5,58,48.5 M67.1,38.3L67.1,38.3c-0.9,0-1.5,0.3-1.9,0.8c-0.4,0.5-0.6,1.3-0.6,2.2v3.9c0,1,0.2,1.9,0.5,2.4
		c0.2,0.3,0.4,0.5,0.7,0.6c0.3,0.1,0.7,0.2,1.2,0.2c0.9,0,1.6-0.4,2.2-1.2c0.6-0.8,0.9-2,0.9-3.8c0-0.6,0-1.2-0.1-1.8
		c-0.1-0.3-0.1-0.6-0.2-0.9c-0.1-0.2-0.2-0.5-0.3-0.9C69.1,38.8,68.3,38.3,67.1,38.3 M60.3,50c-0.4,0.6-0.9,1.1-1.5,1.5
		c-0.3,0.2-0.7,0.4-1,0.5c-0.4,0.1-0.8,0.2-1.2,0.2c-1.7,0-3.1-0.8-4.2-2.4c-0.6-0.8-1-1.7-1.3-2.8c-0.3-1.1-0.5-2.3-0.5-3.7
		c0-3.1,0.6-5.3,1.9-6.7c1.3-1.4,2.7-2,4.2-2c0.6,0,1.3,0.1,1.8,0.4c0.6,0.3,1.1,0.8,1.7,1.7l0-7.4h4.3v7.4c0.6-0.8,1.2-1.3,1.8-1.7
		c0.6-0.3,1.2-0.5,1.8-0.5c1.5,0,3,0.7,4.2,2c1.3,1.3,1.9,3.6,1.9,6.7c0,2.8-0.6,4.9-1.7,6.5c-1.2,1.6-2.6,2.4-4.2,2.4
		c-0.9,0-1.6-0.2-2.2-0.6c-0.6-0.4-1.1-0.9-1.5-1.5l-0.1,8h-4.3V50z"/>
	<polygon class="st3" points="162.2,59.9 161.8,59.9 161.4,59.9 161,59.9 160.6,59.9 160.2,59.9 159.8,59.8 159.3,59.8 158.9,59.8 
		158.5,59.8 155.8,59.6 157.1,57.3 157.3,57 157.4,56.8 157.6,56.5 157.7,56.2 157.8,56 158,55.7 158.1,55.4 158.3,55.1 158.4,54.9 
		158.5,54.6 158.7,54.3 158.8,54 158.9,53.8 159,53.5 159.2,53.2 159.3,52.9 159.4,52.7 159.6,52.4 159.7,52.1 159.8,51.8 160,51.5 
		160.1,51.2 160.2,50.9 160.4,50.7 160.5,50.4 160.7,50.1 160.8,49.8 161,49.5 161.2,49.2 161.3,48.9 162,47.8 163.8,48 164.7,48.1 
		165.6,48.1 166.5,48.2 167.4,48.3 168.3,48.3 169.2,48.3 170.2,48.4 171.1,48.4 172,48.4 172.9,48.4 173.8,48.4 174.7,48.4 
		175.6,48.4 176.5,48.3 177.4,48.3 178.3,48.2 179.2,48.2 180.1,48.1 181,48 181.9,47.9 182.8,47.7 183.7,47.6 184.6,47.5 
		185.4,47.3 186.3,47.1 187.2,46.9 188.1,46.7 189,46.5 189.9,46.2 190.8,45.9 194.2,44.9 192.5,51.9 191.3,56.6 190,61.4 
		188.7,66.2 187.4,71.2 186,76.2 184.7,81.2 183.3,86.3 182,91.4 180.7,96.6 179.5,101.7 178.3,106.9 177.2,112 176.2,117.2 
		175.3,122.3 174.5,127.3 173.9,132.3 173.4,137.2 173.1,142 173,146.8 173,151.4 173.3,155.9 173.8,160.4 174.5,164.6 175.5,168.7 
		176.7,172.7 178.2,176.5 180,180.1 182.1,183.6 184.5,186.8 187.2,189.8 192.8,194.9 187.5,195.5 185.4,195.4 183.4,195.1 
		181.5,194.6 179.7,193.8 178,192.7 176.5,191.4 175,189.9 173.7,188.1 172.4,186.2 171.3,184 170.3,181.5 169.4,178.9 168.5,176 
		167.8,173 167.2,169.7 166.7,166.1 166.2,162.4 165.9,158.4 165.6,154.2 165.4,149.8 165.4,145.1 165.4,140.2 165.5,135.1 
		165.7,129.8 166,124.2 166.4,118.4 166.8,112.4 167.4,106.2 168,100 167.8,100.5 166.7,104 165.7,107.4 164.6,110.9 163.6,114.3 
		162.6,117.7 161.6,121.1 160.6,124.6 159.7,128 158.7,131.4 157.9,134.8 157,138.2 156.1,141.5 155.3,144.9 154.5,148.3 
		153.7,151.7 153,155 152.3,158.4 151.6,161.7 150.9,165.1 150.2,168.4 149.6,171.7 149,175 148.4,178.3 147.9,181.6 147.4,184.9 
		146.9,188.2 146.4,191.5 145.8,196.4 144.1,196 143.9,195.9 143.7,195.9 143.5,195.9 143.3,195.8 143.1,195.8 142.9,195.7 
		142.7,195.7 142.6,195.6 142.2,195.6 142,195.5 141.4,195.4 141.2,195.3 141,195.3 140.3,195.1 139.7,195 139.5,195 139,194.8 
		138.8,194.8 137.2,194.4 136.5,189.9 135.9,186.2 135.3,182.6 134.7,179 134.2,175.3 133.7,171.7 133.2,168.1 132.7,164.4 
		132.3,160.8 131.9,157.2 131.5,153.5 131.1,149.9 130.7,146.3 130.4,142.6 130.1,139 129.8,135.4 129.5,131.8 129.3,128.1 
		129.1,124.5 128.9,120.9 128.7,117.2 128.6,113.6 128.5,110 128.4,106.3 128.4,102.7 128.3,99.1 128.3,95.4 128.4,91.8 128.4,88.1 
		128.4,86.9 127.9,88.6 127.1,91.4 126.3,94.2 125.5,97.1 124.7,100 124,102.9 123.3,105.8 122.6,108.7 122,111.7 121.3,114.7 
		120.7,117.6 120.1,120.6 119.5,123.6 118.9,126.6 118.3,129.6 117.7,132.6 117.1,135.6 116.5,138.5 116,141.5 115.4,144.4 
		114.8,147.3 114.2,150.2 113.6,153.1 113,155.9 112.3,158.7 111.7,161.5 111,164.2 110.3,166.9 109.6,169.6 109,172 108.3,174.3 
		107.6,176.6 106.9,178.8 106.2,181 105.4,183.1 104.6,185.1 103.9,187.1 103.1,189 102.2,190.9 101.4,192.7 100.5,194.4 
		99.6,196.1 98.7,197.7 97.8,199.2 96.8,200.7 95.9,202.1 94.9,203.4 93.8,204.7 92.8,205.8 91.7,206.9 90.6,208 89.4,208.9 
		88.3,209.8 87.1,210.5 85.8,211.2 84.6,211.8 83.3,212.3 82,212.7 80.7,213.1 79.3,213.3 77.9,213.4 76.8,213.4 75.7,213.4 
		74.7,213.3 73.7,213.1 72.8,212.9 72,212.7 71.2,212.3 70.4,212 69.7,211.5 69.1,211.1 68.5,210.6 67.9,210 67.4,209.5 67,208.9 
		66.6,208.3 66.2,207.6 65.9,207 65.6,206.3 65.3,205.6 65.1,205 65,204.3 64.8,203.6 64.7,202.9 64.6,202.3 64.5,201.6 64.4,200.9 
		64.4,200.3 64.3,199.6 64.3,199 64.3,198.4 64.3,197.8 64.3,196.6 67.5,197.7 67.8,198.6 68.5,200.1 69.2,201.5 70,202.7 
		70.8,203.7 71.7,204.5 72.5,205.2 73.4,205.7 74.3,206.1 75.2,206.4 76.1,206.5 77,206.6 77.9,206.5 78.9,206.2 79.8,205.9 
		80.8,205.4 81.8,204.8 82.8,204.1 83.8,203.2 84.8,202.3 85.7,201.2 86.6,199.9 87.5,198.6 88.4,197.2 89.2,195.6 90,194 
		90.7,192.2 91.4,190.3 92,188.4 92.5,186.3 92.9,184.2 93.3,181.9 93.9,177.8 94.5,173.7 95.1,169.7 95.7,165.8 96.3,161.9 
		96.8,158.1 97.4,154.3 98,150.5 98.7,146.8 99.3,143.1 100,139.4 100.6,135.8 101.4,132.2 102.1,128.6 102.9,125 103.7,121.4 
		104.6,117.8 105.5,114.2 106.5,110.5 107.5,106.9 108.6,103.3 109.7,99.6 110.9,95.9 112.2,92.1 113.6,88.4 115,84.5 116.5,80.7 
		118.1,76.7 119.7,72.8 121.5,68.7 123.3,64.6 124.4,62.4 124.3,62.4 123.8,62.4 123.2,62.4 122.7,62.4 122.1,62.3 121.6,62.3 
		121.1,62.3 120.5,62.3 120,62.2 119.4,62.2 118.9,62.2 118.3,62.2 117.8,62.1 117.2,62.1 116.1,62.1 115.6,62 115,62 113.9,62 
		113.4,61.9 112.8,61.9 111.8,61.9 111.2,61.8 110.7,61.8 107.7,61.7 107.6,60.1 107.6,59.8 107.6,59.5 107.6,59.3 107.6,59 
		107.6,58.7 107.7,58.4 107.7,58.1 107.7,57.9 107.8,57.6 107.8,57.3 107.9,57 108,56.7 108,56.5 108.1,56.2 108.2,55.9 108.3,55.6 
		108.4,55.3 108.5,55.1 108.6,54.8 108.7,54.5 108.9,54.2 109,54 109.1,53.7 109.3,53.4 109.4,53.2 109.6,52.9 109.7,52.6 
		109.9,52.3 110.1,52.1 110.3,51.8 110.9,50.9 112.6,50.9 118.7,51 119.7,51 122.7,51 123.8,51 124.8,51 125.8,51 126.8,51 
		127.8,51 128.8,51 129.8,51 130.8,51 131.8,51 132.8,51 133.9,51 134.9,51 135.9,51 136.9,51 137.9,51.1 138.9,51.1 139.9,51.1 
		140.9,51.1 145.6,51.1 145,56.4 144.7,60.2 144.3,63.9 144,67.6 143.7,71.3 143.4,75.1 143.1,78.8 142.8,82.5 142.6,86.2 
		142.3,89.9 142.1,93.6 141.9,97.3 141.7,101 141.6,104.7 141.5,108.3 141.4,112 141.3,115.7 141.2,119.3 141.2,123 141.2,126.6 
		141.2,130.3 141.3,133.9 141.4,137.5 141.5,141.1 141.6,144.7 141.8,148.3 142,151.9 142.2,155.5 142.2,155.9 142.3,155.8 
		142.8,152.3 143.4,148.7 144.1,145.1 144.8,141.5 145.5,137.9 146.3,134.3 147.1,130.7 148,127.1 148.9,123.5 149.8,119.9 
		150.8,116.3 151.8,112.7 152.8,109.1 153.8,105.6 154.9,102 156,98.5 157.1,95 158.2,91.5 159.4,88 160.5,84.6 161.7,81.2 
		162.8,77.8 164,74.5 165.1,71.2 166.3,68 167.5,64.8 168.6,61.7 169.1,60.3 169,60.3 168.6,60.3 168.2,60.3 167.8,60.2 167.4,60.2 
		167,60.2 166.6,60.2 166.2,60.1 165.8,60.1 165.4,60.1 165,60.1 164.6,60.1 164.2,60 163.8,60 163.4,60 163,60 162.6,60 	"/>
	<path class="st6" d="M142.1,169.9c3.1-36.3,16.9-78.2,29.1-110.8c-4.3-0.5-8.6-0.5-12.9-0.8c1.8-3,2.8-6,4.5-8.9
		c9.8,0.9,19.6,0.9,29.4-2.3c-11.2,47.9-38.7,116.7-2.8,146.8c-21.6,3.3-27.7-32.5-18.3-107.6c-12.7,37.1-22,73.3-26.5,108.4
		c-2-0.5-4-0.9-6.1-1.4c-6.6-38.6-9.9-77.3-8.3-115.9c-10.6,28.1-14.4,64-22,91.9c-6.9,25.5-16.5,42.1-30.4,42.7
		c-11.4,0.5-12.2-9-12-14.6c6.9,20.3,25.4,9.8,29-15.2c6.4-44.5,10.6-76.3,31.8-121.1c-5.8-0.3-11.7-0.5-17.5-0.8
		c-0.2-2.6,0.7-5.3,2.5-7.9c10.8,0,21.5,0.1,32.3,0.1C139.9,92.5,137.9,132,142.1,169.9"/>
	<path class="st6" d="M206.4,145.5c16.7,0,30.2,13.5,30.2,30.2c0,16.7-13.5,30.2-30.2,30.2c-16.7,0-30.2-13.5-30.2-30.2
		C176.1,159.1,189.7,145.5,206.4,145.5"/>
	
		<ellipse transform="matrix(0.4871 -0.8734 0.8734 0.4871 -47.6615 270.3903)" class="st7" cx="206.4" cy="175.8" rx="30.2" ry="30.2"/>
	<path class="st6" d="M184.8,158.2L184.8,158.2c2.1,0,3.8,1.7,3.8,3.8v29.8c0,2.1-1.7,3.8-3.8,3.8h0c-2.1,0-3-1.9-3.8-3.8
		c-2.1-5.1-2.7-10.3-2.7-15.6c0-4.7,0.8-9.4,2.7-14.2C181.8,160.1,182.7,158.2,184.8,158.2"/>
	<path class="st8" d="M184.8,158.2L184.8,158.2c2.1,0,3.8,1.7,3.8,3.8v29.8c0,2.1-1.7,3.8-3.8,3.8h0c-2.1,0-3-1.9-3.8-3.8
		c-2.1-5.1-2.7-10.3-2.7-15.6c0-4.7,0.8-9.4,2.7-14.2C181.8,160.1,182.7,158.2,184.8,158.2z"/>
	<path class="st6" d="M229.8,157.8c-1.3-1-2,2.2-2,4.3v29.8c0,1.6,0.4,4.8,2,3.1c0.1-0.1,1.6-1.5,2.2-3.4c2.5-7.1,4.3-18.8,0.9-29.3
		C232.3,160.3,231.5,159.1,229.8,157.8"/>
	<path class="st9" d="M229.8,157.8c-1.3-1-2,2.2-2,4.3v29.8c0,1.6,0.4,4.8,2,3.1c0.1-0.1,1.6-1.5,2.2-3.4c2.5-7.1,4.3-18.8,0.9-29.3
		C232.3,160.3,231.5,159.1,229.8,157.8z"/>
	<path class="st6" d="M192.1,166.6h30.8c3.6,0,6.5,2.9,6.5,6.5v3.3c0,3.6-2.9,6.5-6.5,6.5h-30.8c-3.6,0-6.5-2.9-6.5-6.5v-3.3
		C185.6,169.5,188.6,166.6,192.1,166.6"/>
	<path class="st8" d="M192.1,166.6h30.8c3.6,0,6.5,2.9,6.5,6.5v3.3c0,3.6-2.9,6.5-6.5,6.5h-30.8c-3.6,0-6.5-2.9-6.5-6.5v-3.3
		C185.6,169.5,188.6,166.6,192.1,166.6z"/>
	<path class="st6" d="M191.7,157.8c11.5,1.3,21.9,1.2,31.5,0c2.4-0.3,4.4,2,4.4,4.4c0,2.8-1.2,4.3-4.2,5.1c-5.1,1.4-10.6,2.2-16,2.2
		c-5.2,0-10.4-0.9-15.3-2.4c-3.9-1.2-4.9-1.7-4.9-4.9C187.3,159.8,189.2,157.5,191.7,157.8"/>
	<path class="st8" d="M191.7,157.8c11.5,1.3,21.9,1.2,31.5,0c2.4-0.3,4.4,2,4.4,4.4c0,2.8-1.2,4.3-4.2,5.1c-5.1,1.4-10.6,2.2-16,2.2
		c-5.2,0-10.4-0.9-15.3-2.4c-3.9-1.2-4.9-1.7-4.9-4.9C187.3,159.8,189.2,157.5,191.7,157.8z"/>
	<path class="st6" d="M197,147.3c2.5,0.2,4.2,0.7,4.2,2.1v6.7c-1.4,2.3-3.1,3.4-5.1,3.3c-3.2-0.2-5.2-1.5-6-4.2v-3.5
		C192.3,148.5,194.7,148,197,147.3"/>
	<path class="st8" d="M197,147.3c2.5,0.2,4.2,0.7,4.2,2.1v6.7c-1.4,2.3-3.1,3.4-5.1,3.3c-3.2-0.2-5.2-1.5-6-4.2v-3.5
		C192.3,148.5,194.7,148,197,147.3z"/>
	<path class="st6" d="M217.4,147.8c-2.5,0.2-3.5,0.2-3.5,1.6v6.7c1.4,2.3,3.1,3.4,5.1,3.3c3.2-0.2,5.2-1.5,6-4.2
		c0-1.3-0.7-1.7-0.7-3C221.6,149.8,219.4,148.9,217.4,147.8"/>
	<path class="st8" d="M217.4,147.8c-2.5,0.2-3.5,0.2-3.5,1.6v6.7c1.4,2.3,3.1,3.4,5.1,3.3c3.2-0.2,5.2-1.5,6-4.2
		c0-1.3-0.7-1.7-0.7-3C221.6,149.8,219.4,148.9,217.4,147.8z"/>
	<path class="st6" d="M204.9,146.2h4.9c2.2,0,3.9,2.2,3.9,4.4v4.2c0,2.2-1.8,4.9-3.9,4.9h-4.9c-2.2,0-3.9-2.7-3.9-4.9v-4.2
		C200.9,148.4,202.7,146.2,204.9,146.2"/>
	<path class="st8" d="M204.9,146.2h4.9c2.2,0,3.9,2.2,3.9,4.4v4.2c0,2.2-1.8,4.9-3.9,4.9h-4.9c-2.2,0-3.9-2.7-3.9-4.9v-4.2
		C200.9,148.4,202.7,146.2,204.9,146.2z"/>
	<path class="st6" d="M191.7,181.9c11.5,1.3,21.9,1.2,31.5,0c2.4-0.3,4.4,2,4.4,4.4c0,2.8-1.2,4.3-4.2,5.1c-5.1,1.4-10.6,2.2-16,2.2
		c-5.2,0-10.4-0.9-15.3-2.4c-3.9-1.2-4.9-1.7-4.9-4.9C187.3,183.9,189.2,181.7,191.7,181.9"/>
	<path class="st8" d="M191.7,181.9c11.5,1.3,21.9,1.2,31.5,0c2.4-0.3,4.4,2,4.4,4.4c0,2.8-1.2,4.3-4.2,5.1c-5.1,1.4-10.6,2.2-16,2.2
		c-5.2,0-10.4-0.9-15.3-2.4c-3.9-1.2-4.9-1.7-4.9-4.9C187.3,183.9,189.2,181.7,191.7,181.9z"/>
	<path class="st6" d="M197,204c2.5-0.2,4.2-0.7,4.2-2.1v-6.7c-1.4-2.3-3.1-3.4-5.1-3.3c-3.2,0.2-5.2,1.5-6,4.2v3.5
		C192.3,202.8,194.7,203.3,197,204"/>
	<path class="st8" d="M197,204c2.5-0.2,4.2-0.7,4.2-2.1v-6.7c-1.4-2.3-3.1-3.4-5.1-3.3c-3.2,0.2-5.2,1.5-6,4.2v3.5
		C192.3,202.8,194.7,203.3,197,204z"/>
	<path class="st6" d="M217.4,203.5c-2.5-0.2-3.5-0.2-3.5-1.6v-6.7c1.4-2.3,3.1-3.4,5.1-3.3c3.2,0.2,5.2,1.5,6,4.2
		c0,1.3-0.7,1.7-0.7,3C221.6,201.6,219.4,202.4,217.4,203.5"/>
	<path class="st8" d="M217.4,203.5c-2.5-0.2-3.5-0.2-3.5-1.6v-6.7c1.4-2.3,3.1-3.4,5.1-3.3c3.2,0.2,5.2,1.5,6,4.2
		c0,1.3-0.7,1.7-0.7,3C221.6,201.6,219.4,202.4,217.4,203.5z"/>
	<path class="st6" d="M204.9,205.2h4.9c2.2,0,3.9-2.2,3.9-4.4v-4.2c0-2.2-1.8-4.9-3.9-4.9h-4.9c-2.2,0-3.9,2.7-3.9,4.9v4.2
		C200.9,202.9,202.7,205.2,204.9,205.2"/>
	<path class="st8" d="M204.9,205.2h4.9c2.2,0,3.9-2.2,3.9-4.4v-4.2c0-2.2-1.8-4.9-3.9-4.9h-4.9c-2.2,0-3.9,2.7-3.9,4.9v4.2
		C200.9,202.9,202.7,205.2,204.9,205.2z"/>
	<path class="st3" d="M222.6,180.3h-5.8c0-0.6,0.1-1.1,0.3-1.5c0.2-0.5,0.5-0.9,1-1.3c0.4-0.3,0.9-0.6,1.4-1c0.5-0.4,0.8-0.7,1.1-1
		c0.2-0.3,0.4-0.6,0.4-1.1c0-0.5-0.1-0.8-0.3-1c-0.2-0.2-0.5-0.3-0.8-0.3c-0.4,0-0.6,0.1-0.9,0.4c-0.2,0.2-0.3,0.6-0.3,1.1v0.3H217
		c0-1,0.2-1.8,0.7-2.3c0.5-0.5,1.2-0.8,2.1-0.8c1,0,1.7,0.2,2.2,0.7c0.5,0.5,0.7,1.1,0.7,1.8c0,0.6-0.1,1.1-0.3,1.5
		c-0.2,0.4-0.6,0.8-1.1,1.2c-0.5,0.4-1,0.8-1.4,1.1c-0.4,0.3-0.7,0.6-0.8,0.9h3.6V180.3z M209.7,178.1c0,0.3,0.1,0.6,0.3,0.8
		c0.2,0.2,0.5,0.3,1,0.3c0.4,0,0.8-0.2,1-0.5c0.2-0.3,0.3-0.7,0.3-1.1c0-0.5-0.1-0.9-0.3-1.1c-0.2-0.2-0.3-0.4-0.5-0.4
		c-0.2-0.1-0.4-0.1-0.6-0.1c-0.5,0-0.9,0.2-1.1,0.6h-1.5l0.8-4.7h4.5v1.5h-3.5l-0.3,1.7c0.1-0.1,0.3-0.2,0.4-0.2
		c0.1-0.1,0.3-0.1,0.4-0.2c0.1,0,0.2-0.1,0.3-0.1c0.1,0,0.2,0,0.3,0c0.1,0,0.3,0,0.4,0c0.1,0,0.4,0.1,0.8,0.2c0.4,0.1,0.7,0.5,1,1
		c0.3,0.5,0.4,1.1,0.4,1.7c0,0.7-0.1,1.2-0.4,1.7c-0.3,0.5-0.6,0.8-1.1,1.1c-0.4,0.2-1,0.4-1.6,0.4c-0.5,0-0.9-0.1-1.1-0.2
		c-0.2-0.1-0.5-0.3-0.8-0.5c-0.3-0.2-0.5-0.5-0.7-0.8c-0.1-0.3-0.2-0.6-0.2-1H209.7z M203,175.7c0.2-0.3,0.4-0.6,0.4-0.9
		c0-0.3,0-0.6-0.1-0.8c-0.1-0.3-0.2-0.5-0.3-0.6c-0.1-0.1-0.3-0.2-0.4-0.3c-0.2-0.1-0.3-0.1-0.5-0.1c-0.4,0-0.6,0.1-0.8,0.3
		c-0.2,0.2-0.3,0.4-0.4,0.6c-0.1,0.2-0.1,0.4-0.1,0.6c0,0.2,0,0.4,0.1,0.6c0.1,0.2,0.2,0.4,0.4,0.6c0.2,0.2,0.5,0.3,0.9,0.3
		C202.4,176.1,202.8,176,203,175.7 M201,178.3c0,0.2,0,0.4,0.2,0.6c0.2,0.2,0.5,0.3,0.9,0.3c0.2,0,0.5-0.1,0.6-0.2
		c0.2-0.2,0.3-0.3,0.4-0.5c0.1-0.2,0.1-0.4,0.2-0.6c0.1-0.2,0.1-0.4,0.1-0.6c0-0.2,0-0.3-0.1-0.4c-0.2,0.3-0.5,0.5-0.7,0.6
		c-0.2,0.1-0.4,0.1-0.5,0.1c-0.1,0-0.2,0-0.3,0h-0.4c-0.1,0-0.3-0.1-0.5-0.1c-0.2,0-0.5-0.2-0.8-0.4c-0.3-0.2-0.6-0.6-0.7-1
		c-0.2-0.4-0.3-0.9-0.3-1.3c0-0.3,0-0.6,0.1-0.9c0.1-0.3,0.2-0.6,0.4-0.9c0.2-0.3,0.5-0.6,0.9-0.9c0.4-0.3,0.9-0.4,1.4-0.4
		c1.2,0,2.1,0.4,2.5,1.3c0.4,0.9,0.6,1.8,0.6,2.7c0,0.7-0.1,1.3-0.2,2c-0.1,0.6-0.3,1.2-0.6,1.7c-0.3,0.5-0.6,0.8-1.1,1
		c-0.5,0.2-0.9,0.3-1.4,0.3c-0.9,0-1.5-0.3-2-0.8c-0.4-0.6-0.6-1-0.6-1.4H201z M194.6,180.3H193v-5.9h-2v-1.1c0.4,0,0.7,0,1-0.1
		c0.3-0.1,0.6-0.2,0.8-0.3c0.2-0.1,0.4-0.3,0.5-0.5c0.1-0.2,0.2-0.4,0.2-0.6h1.1V180.3z"/>
	<polygon class="st3" points="235.1,40.3 232.1,44.9 231.8,45.4 231.5,45.9 231.1,46.4 230.8,46.8 230.5,47.3 230.1,47.8 
		229.8,48.3 229.4,48.7 229,49.2 228.7,49.7 228.3,50.1 227.9,50.6 227.5,51 227,51.5 226.6,51.9 226.2,52.3 225.7,52.8 225.3,53.2 
		224.8,53.6 224.3,54 223.8,54.4 223.3,54.8 222.8,55.2 222.2,55.6 221.7,55.9 221.1,56.3 220.5,56.7 219.9,57 219.3,57.3 
		218.7,57.7 218,58 64.6,129.2 64.4,196.7 67.7,198.1 67.5,197.7 67.7,196.7 68,195.8 68.3,194.8 68.6,193.8 69,192.8 69.4,191.7 
		69.9,190.7 70.3,189.6 70.8,188.5 71.4,187.4 71.9,186.4 72.5,185.3 73.1,184.2 73.7,183.2 74.3,182.1 74.9,181.1 75.5,180.1 
		76.1,179.1 76.8,178.2 77.4,177.3 78,176.4 78.7,175.6 79.3,174.8 79.9,174.1 80.5,173.4 81.1,172.8 81.7,172.2 82.2,171.7 
		82.7,171.3 83.2,170.9 83.6,170.7 84,170.4 235.1,103.9 	"/>
	<path class="st4" d="M233.6,45.2c-3.4,5.2-7.6,10.6-15,14.1L66.1,130.2l-0.2,67.1c2.3-10,12.3-25.8,17.6-28.2l150.2-66.2V45.2z"/>
	<path class="st10" d="M233.6,45.2c-3.4,5.2-7.6,10.6-15,14.1L66.1,130.2l-0.2,67.1c2.3-10,12.3-25.8,17.6-28.2l150.2-66.2V45.2z"/>
	<polygon class="st6" points="63.5,59.5 67.8,59.5 67.8,65.7 74,59.5 79.7,59.5 72.9,66.3 80,76 74.4,76 69.6,69.4 67.8,71.2 
		67.8,76 63.5,76 	"/>
	<path class="st3" d="M179.8,244.7l-0.2,0.4l-0.1,0.4l-0.1,0.4l-0.1,0.4l-0.1,0.4l-0.1,0.4l0,0.5l0,0.5l0,0.5l0,0.5l0,0.5l0,0.5
		l0,0.5l0,0.5l0,0.5l0.1,0.5l0.1,0.5l0.1,0.4l0.1,0.4l0.1,0.4l0.1,0.4l0.1,0.4l0.1,0.4l0.1,0.4l0.1,0.3l0.1,0.3l0.1,0.3l0.1,0.3
		l0.1,0.3l0.1,0.3l0.2,0.2l0.2,0.2l0.2,0.2l0.2,0.2l0.2,0.2l0.2,0.2l0.2,0.2l0.2,0.2l0.2,0.2l0.2,0.2l0.2,0.2l0.2,0.2l0.2,0.2
		l0.2,0.2l0.2,0.2l0.2,0.2l0.2,0.2l0.2,0.1l0.2,0.1l0.2,0.1l0.3,0.1l0.3,0.1l0.3,0.1l0.3,0.1l0.3,0.1l0.3,0.1l0.3,0.1l0.3,0.1
		l0.4,0.1l0.5,0.1l0.5,0.1l0.5,0.1l0.5,0l0.5,0l0.5,0l0.5,0l0.5,0l0.5,0l0.5-0.1l0.5-0.1l0.5-0.1l0.5-0.1l0.6-0.1l0.6-0.1l0.6-0.2
		l0.6-0.2l0.6-0.2l0.6-0.2l0.6-0.2l0.6-0.2l0.6-0.2l0.6-0.3l0.6-0.3l0.7-0.3l0.7-0.3l0.7-0.3l0.7-0.3l0.7-0.4l0.7-0.4l0.7-0.4
		l0.8-0.5l0.8-0.5l0.8-0.5l0.8-0.5l0.8-0.5l0.8-0.5l0.8-0.5l0.7-0.6l0.7-0.6l0.7-0.6l0.7-0.6l0.7-0.6l0.7-0.6l0.7-0.6l0.7-0.6
		l0.6-0.6l0.6-0.6l0.6-0.6l0.6-0.7l0.6-0.7l0.6-0.7l0.6-0.7l0.5-0.7l0.5-0.7l0.5-0.7l0.5-0.7l0.5-0.7l0.5-0.7l0.4-0.7l0.4-0.7
		l0.4-0.7l3.1-5.4l-5.1,3l-0.5,0.3l-0.5,0.3l-0.5,0.3l-0.5,0.3l-0.5,0.2l-0.5,0.2l-0.5,0.2l-0.5,0.2l-0.5,0.2l-0.4,0.2l-0.4,0.2
		l-0.4,0.2l-0.4,0.2l-0.4,0.2L216,239l-0.4,0.1l-0.4,0.1l-0.4,0.1l-0.4,0.1l-0.4,0.1l-0.4,0.1l-0.4,0.1l-0.4,0.1l-0.4,0l-0.4,0
		l-0.3,0l0.2-0.4l0.2-0.5l0.2-0.5l0.2-0.5l0.2-0.5l0.2-0.5l0.2-0.5l0.2-0.5l0.2-0.5l0.2-0.5l0.2-0.5l0.1-0.5l0.1-0.5l0.1-0.5
		l0.1-0.5l0.1-0.4l0.1-0.4l0.1-0.4l0.1-0.4l0.1-0.4l0.1-0.4l0.1-0.4l0.1-0.4l0.1-0.4l0.1-0.4l0.1-0.4l0.1-0.4l0.7-6.7l-3.8,6.1
		l-0.5,0.7l-0.5,0.7l-0.5,0.8l-0.5,0.8l-0.5,0.8l-0.6,0.8l-0.6,0.8l-0.6,0.8l-0.6,0.8l-0.6,0.8l-0.6,0.7l-0.6,0.7l-0.6,0.7l-0.6,0.7
		l-0.6,0.6l-0.6,0.6l-0.6,0.6l-0.6,0.5l-0.6,0.5l-0.5,0.4l-0.5,0.4l-0.5,0.3l-0.5,0.3l-0.4,0.2l-0.4,0.2l-0.4,0.1l-0.3,0.1l-0.3,0
		l-0.2,0l-0.2-0.1l-0.2-0.1l-0.2-0.2l-0.1-0.1l-0.1-0.1l0-0.1l0-0.1l0-0.2l0-0.2l0.1-0.3l0.1-0.3l0.1-0.3l0.2-0.4l0.2-0.4l0.3-0.4
		l0.3-0.5l0.3-0.5l0.3-0.5l0.4-0.5l0.4-0.5l0.4-0.5l0.4-0.5l0.4-0.5l0.4-0.6l0.3-0.6l0.3-0.6l0.3-0.6l0.3-0.6l0.2-0.6l0.2-0.6
		l0.1-0.7l0-0.7l0-0.7l-0.1-0.7l-0.2-0.5l-0.2-0.5l-0.2-0.5l-0.3-0.4L201,226l-0.3-0.4l-0.3-0.4l-0.4-0.4l-0.4-0.3l-0.4-0.3
		l-0.4-0.3l-0.4-0.3l-0.4-0.3l-0.5-0.2l-0.5-0.2l-0.5-0.2l-0.5-0.2l-0.5-0.2l-0.5-0.1l-0.5-0.1l-0.5-0.1l-0.5-0.1l-0.5-0.1l-0.5,0
		l-0.5,0l-0.5,0l-0.5,0l-0.5,0l-0.5,0.1l-0.5,0.1l-0.5,0.1l-1.7,0.4l0.2,1.8l0,0.5l0,0.4l0,0.4l0,0.4l-0.1,0.4l-0.1,0.4l-0.1,0.4
		l-0.1,0.4l-0.1,0.4l-0.1,0.4l-0.2,0.4l-0.2,0.4l-0.2,0.4l-0.2,0.5l-0.2,0.5l-0.2,0.5l-0.2,0.5l-0.2,0.5l-0.2,0.5l-0.2,0.5l-0.2,0.5
		l-0.2,0.5l-0.1,0.5l-0.1,0.5l-0.1,0.5l-0.1,0.6l-0.1,0.6l0,0.6l0,0.6l0,0.6l0.1,0.6l0.1,0.3l0.1,0.3l0.1,0.3l0.1,0.3l0.1,0.2
		l0.1,0.2l0.1,0.2l0.2,0.2l0.2,0.2l0.2,0.2l0.2,0.2l0.1,0.2l0.1,0.2l0.1,0.2l0.1,0.1l-0.1-0.1l-0.2-0.1l-0.2-0.1l-0.2-0.1l-0.2-0.1
		l-0.2-0.1l-0.3-0.1l-0.3-0.1l-0.3,0l-0.3,0l-0.3,0l-0.3,0l-0.3,0.1l-0.3,0.1l-0.3,0.1l-0.3,0.2l-0.4,0.2l-0.4,0.2l-0.3,0.3
		l-0.3,0.3l-0.2,0.4l-0.2,0.4L179.8,244.7z M99,245l-0.4-0.2l-0.5-0.2l-0.5-0.3l-0.5-0.3l-0.5-0.4l-0.6-0.4l-0.6-0.5l-0.6-0.5
		l-0.6-0.6l-0.6-0.6l-0.6-0.6l-0.6-0.7l-0.6-0.7l-0.6-0.7l-0.6-0.7l-0.6-0.7l-0.6-0.8l-0.6-0.8l-0.6-0.8l-0.6-0.8l-0.5-0.8l-0.5-0.8
		l-0.5-0.8l-0.5-0.7l-0.5-0.7l-3.8-6l0.7,6.7l0.1,0.4l0.1,0.4l0.1,0.4l0.1,0.4l0.1,0.4l0.1,0.4l0.1,0.4l0.1,0.4l0.1,0.4l0.1,0.4
		l0.1,0.4L83,236l0.1,0.5l0.1,0.5l0.1,0.5l0.1,0.5l0.2,0.5l0.2,0.5l0.2,0.5l0.2,0.5l0.2,0.5l0.2,0.5l0.2,0.5l0.2,0.5l0.2,0.5
		l0.2,0.5l0.2,0.4l-0.3,0l-0.4,0l-0.4,0l-0.4-0.1l-0.4-0.1l-0.4-0.1l-0.4-0.1l-0.4-0.1l-0.4-0.1l-0.4-0.1l-0.4-0.1l-0.4-0.2
		l-0.4-0.2l-0.4-0.2l-0.4-0.2l-0.4-0.2l-0.4-0.2l-0.5-0.2l-0.5-0.2l-0.5-0.2l-0.5-0.2l-0.5-0.2l-0.5-0.3l-0.5-0.3l-0.5-0.3l-0.5-0.3
		l-5.1-3l3.1,5.4l0.4,0.7l0.4,0.7l0.4,0.7l0.5,0.7l0.5,0.7L75,245l0.5,0.7l0.5,0.7l0.5,0.7l0.6,0.7l0.6,0.7l0.6,0.7l0.6,0.7l0.6,0.6
		l0.6,0.6l0.6,0.6l0.7,0.6l0.7,0.6l0.7,0.6l0.7,0.6l0.7,0.6l0.7,0.6l0.7,0.6l0.7,0.6l0.8,0.5l0.8,0.5l0.8,0.5l0.8,0.5l0.8,0.5
		l0.8,0.5l0.8,0.5l0.7,0.4l0.7,0.4l0.7,0.4l0.7,0.3l0.7,0.3l0.7,0.3l0.7,0.3l0.6,0.3l0.6,0.3l0.6,0.2l0.6,0.2l0.6,0.2l0.6,0.2
		l0.6,0.2l0.6,0.2l0.6,0.2l0.6,0.1l0.6,0.1l0.5,0.1l0.5,0.1l0.5,0.1l0.5,0.1l0.5,0l0.5,0l0.5,0l0.5,0l0.5,0l0.5,0l0.5-0.1l0.5-0.1
		l0.5-0.1l0.4-0.1l0.3-0.1l0.3-0.1l0.3-0.1l0.3-0.1l0.3-0.1l0.3-0.1l0.3-0.1l0.3-0.1l0.2-0.1l0.2-0.1l0.2-0.1l0.2-0.2l0.2-0.2
		l0.2-0.2l0.2-0.2l0.2-0.2l0.2-0.2l0.2-0.2l0.2-0.2l0.2-0.2l0.2-0.2l0.2-0.2l0.2-0.2l0.2-0.2l0.2-0.2l0.2-0.2l0.2-0.2l0.2-0.2
		l0.1-0.3l0.1-0.3l0.1-0.3l0.1-0.3l0.1-0.3l0.1-0.3l0.1-0.4l0.1-0.4l0.1-0.4l0.1-0.4l0.1-0.4l0.1-0.4l0.1-0.4l0.1-0.4l0.1-0.5l0-0.5
		l0-0.5l0-0.5l0-0.5l0-0.5l0-0.5l0-0.5l0-0.5l0-0.5l-0.1-0.4l-0.1-0.4l-0.1-0.4l-0.1-0.4l-0.1-0.4l-0.2-0.4l-0.2-0.4l-0.2-0.4
		l-0.2-0.4l-0.3-0.3l-0.3-0.3l-0.3-0.2l-0.3-0.2l-0.3-0.1l-0.2-0.1l-0.2-0.1l-0.2-0.1l-0.2-0.1l-0.2-0.1l-0.2-0.1l-0.2-0.1l-0.2,0
		l-0.2,0l-0.2,0l-0.2,0l-0.1,0l-0.1,0l-0.1,0l-0.1,0l0,0l-0.1,0l-0.1,0l-0.1-0.1l-0.1-0.1l0-0.1l0.1-0.2l0.1-0.2l0.1-0.2l0.1-0.2
		l0.1-0.2l0.1-0.2l0.1-0.2l0.1-0.3l0-0.3l0.1-0.6l0-0.6l0-0.6l0-0.6l-0.1-0.6l-0.1-0.6l-0.1-0.6l-0.1-0.6l-0.2-0.6l-0.2-0.6
		l-0.2-0.6l-0.2-0.6l-0.2-0.6l-0.2-0.6l-0.2-0.6l-0.2-0.6l-0.2-0.6l-0.2-0.6l-0.2-0.6l-0.2-0.6l-0.2-0.6l-0.2-0.6l-0.2-0.5l-0.1-0.5
		l-0.1-0.5l-0.1-0.5l-0.1-0.5l-0.1-0.5l0-0.5l0-0.5l0-0.5l0.2-2.4l-2.2,0.3l-0.4,0.1l-0.4,0.1l-0.4,0.1l-0.4,0.1l-0.4,0.1l-0.4,0.1
		l-0.5,0.1l-0.5,0.1l-0.5,0.1l-0.5,0.2l-0.5,0.2l-0.5,0.2l-0.5,0.2l-0.5,0.2l-0.5,0.2l-0.5,0.2l-0.4,0.2l-0.4,0.3l-0.4,0.3l-0.4,0.3
		l-0.4,0.3l-0.4,0.3l-0.4,0.3l-0.4,0.4l-0.3,0.4l-0.3,0.4l-0.3,0.4l-0.3,0.4l-0.2,0.5l-0.2,0.5l-0.2,0.5l-0.1,0.7l0,0.7l0,0.7
		l0.1,0.7l0.2,0.7l0.2,0.6l0.3,0.6l0.3,0.6l0.3,0.6l0.3,0.6l0.4,0.6l0.4,0.6l0.4,0.6l0.4,0.6l0.4,0.5l0.4,0.5l0.4,0.5l0.3,0.5
		l0.3,0.5l0.3,0.5l0.2,0.4l0.2,0.4l0.2,0.4l0.1,0.3l0.1,0.3l0,0.2l0,0.2l0,0.1l0,0.1l-0.1,0.1l-0.1,0.1l-0.2,0.2l-0.2,0.1l-0.2,0.1
		l-0.2,0l-0.3,0l-0.3,0L99,245z"/>
	<path class="st4" d="M188.6,223.6c4.5-1.2,11,0.9,12,5.1c1.3,5.4-9.2,11.8-4.6,14.9c4.1,2.7,12.9-8.7,17.6-16.3
		c-0.5,4.4-1.5,9-4.7,14c5,0.9,10-1.6,15-4.5c-3.8,6.9-10.9,14.3-19.3,18.9c-7.6,4.2-13.1,5.6-17.3,4.5c-2.3-0.6-4.8-2.5-5.8-4.9
		c-1.2-2.7-1.7-9.9,0.7-11.4c2.9-1.7,3.3,1.5,5.2,0.1c1.9-1.3-1.7-2.9-1.9-4.9C184.8,233.3,189.4,229.4,188.6,223.6 M107.7,223.7
		c-3.8,0.5-10.3,2.6-11.3,6.8c-1.3,5.4,9.6,12.6,4.9,15.6c-4.1,2.8-13.2-8.4-17.9-16c0.5,4.4,1.5,9,4.7,14c-5,0.9-10-1.6-15-4.5
		c3.8,6.9,10.9,14.3,19.3,18.9c7.6,4.2,13.1,5.6,17.3,4.5c2.3-0.6,4.8-2.5,5.8-4.9c1.2-2.7,1.7-9.9-0.7-11.4
		c-2.9-1.7-1.8-0.2-3.7-1.5c-1.9-1.3,0.1-1.3,0.4-3.2C112.4,236.2,107,229.6,107.7,223.7"/>
	<path class="st11" d="M188.6,223.6c4.5-1.2,11,0.9,12,5.1c1.3,5.4-9.2,11.8-4.6,14.9c4.1,2.7,12.9-8.7,17.6-16.3
		c-0.5,4.4-1.5,9-4.7,14c5,0.9,10-1.6,15-4.5c-3.8,6.9-10.9,14.3-19.3,18.9c-7.6,4.2-13.1,5.6-17.3,4.5c-2.3-0.6-4.8-2.5-5.8-4.9
		c-1.2-2.7-1.7-9.9,0.7-11.4c2.9-1.7,3.3,1.5,5.2,0.1c1.9-1.3-1.7-2.9-1.9-4.9C184.8,233.3,189.4,229.4,188.6,223.6z M107.7,223.7
		c-3.8,0.5-10.3,2.6-11.3,6.8c-1.3,5.4,9.6,12.6,4.9,15.6c-4.1,2.8-13.2-8.4-17.9-16c0.5,4.4,1.5,9,4.7,14c-5,0.9-10-1.6-15-4.5
		c3.8,6.9,10.9,14.3,19.3,18.9c7.6,4.2,13.1,5.6,17.3,4.5c2.3-0.6,4.8-2.5,5.8-4.9c1.2-2.7,1.7-9.9-0.7-11.4
		c-2.9-1.7-1.8-0.2-3.7-1.5c-1.9-1.3,0.1-1.3,0.4-3.2C112.4,236.2,107,229.6,107.7,223.7z"/>
	<polygon class="st3" points="113.4,222.2 114.8,222.3 116.1,222.6 117.4,222.9 118.7,223.2 119.9,223.6 121.2,224 122.4,224.4 
		123.6,224.8 124.8,225.3 126,225.8 127.2,226.3 128.4,226.8 129.6,227.3 130.7,227.9 131.9,228.4 133,228.9 134.2,229.4 
		135.3,229.9 136.4,230.4 137.5,230.9 138.6,231.3 139.7,231.7 140.8,232.1 141.9,232.5 143,232.8 144.1,233.1 145.2,233.3 
		146.3,233.6 147.4,233.7 148.4,233.8 149.5,233.9 150.6,233.9 151.5,233.9 152.4,233.8 153.3,233.7 154.2,233.5 155.1,233.3 
		156.1,233.1 157,232.9 158,232.6 159,232.3 160,232 161,231.7 162,231.3 163,230.9 164.1,230.5 165.1,230.1 166.2,229.7 
		167.3,229.3 168.4,228.8 169.5,228.4 170.6,227.9 171.8,227.4 172.9,227 174.1,226.5 175.3,226 176.5,225.6 177.7,225.1 
		178.9,224.7 180.1,224.2 181.4,223.8 182.7,223.4 184,223 185.3,222.6 187,222.2 188.6,221.9 190.2,221.7 191.6,221.7 193,221.7 
		194.2,222 195.4,222.3 196.5,222.8 197.5,223.3 198.3,224 199.1,224.8 199.7,225.7 200.2,226.6 200.5,227.6 200.7,228.7 
		200.8,229.8 200.8,230.9 200.6,232 200.3,233.2 199.9,234.3 199.4,235.5 198.8,236.7 198,237.8 197.2,238.9 196.2,240 195.1,241.1 
		193.9,242.1 192.6,243.1 191.2,244.1 189.6,245 188,245.8 186.2,246.6 185.2,247 184.2,247.4 183.1,247.9 182.1,248.3 181,248.7 
		179.9,249.2 178.8,249.6 177.6,250.1 176.5,250.5 175.4,251 174.2,251.4 173,251.8 171.8,252.2 170.7,252.7 169.5,253.1 
		168.3,253.5 167.1,253.9 165.9,254.2 164.7,254.6 163.5,254.9 162.2,255.3 161,255.6 159.8,255.8 158.6,256.1 157.4,256.4 
		156.2,256.6 155.1,256.8 153.9,256.9 152.7,257.1 151.5,257.2 150.4,257.2 149.2,257.3 147.9,257.3 146.7,257.2 145.4,257.2 
		144.2,257.1 142.9,256.9 141.7,256.7 140.5,256.5 139.3,256.3 138.1,256 136.9,255.8 135.7,255.4 134.5,255.1 133.3,254.8 
		132.1,254.4 131,254 129.8,253.6 128.7,253.2 127.5,252.8 126.4,252.3 125.2,251.9 124.1,251.4 123,251 121.8,250.5 120.7,250.1 
		119.6,249.6 118.4,249.2 117.3,248.7 116.2,248.3 115,247.9 113.9,247.4 112.8,247 111.6,246.6 109.7,245.9 108,245.2 106.4,244.4 
		105,243.5 103.7,242.6 102.5,241.6 101.5,240.6 100.6,239.6 99.8,238.5 99.2,237.5 98.7,236.4 98.3,235.2 98.1,234.1 98,233 
		98,231.9 98.2,230.8 98.4,229.8 98.8,228.8 99.3,227.8 99.9,226.9 100.6,226.1 101.4,225.3 102.3,224.6 103.3,224 104.3,223.4 
		105.4,222.9 106.6,222.6 107.9,222.3 109.2,222.1 110.6,222 112,222 	"/>
	<path class="st4" d="M113.3,223.6c13.6,1.7,25,12,37.4,11.7c10-0.2,21.3-7.4,35-11.4c17.9-5.2,18.7,13.6,0,21.3
		c-10.6,4.4-24.8,10.3-36.5,10.6c-13.2,0.3-24.8-6.3-37.1-10.6C92,238.4,98.4,221.7,113.3,223.6"/>
	<path class="st11" d="M113.3,223.6c13.6,1.7,25,12,37.4,11.7c10-0.2,21.3-7.4,35-11.4c17.9-5.2,18.7,13.6,0,21.3
		c-10.6,4.4-24.8,10.3-36.5,10.6c-13.2,0.3-24.8-6.3-37.1-10.6C92,238.4,98.4,221.7,113.3,223.6z"/>
	<path class="st3" d="M129,237.5l-2.7-1l-0.8,2.5l-0.4,1.1l-0.3,1l-0.1,0.2l0,0.2l-0.2,0.5c-0.1,0.2-0.1,0.3-0.2,0.4
		c-0.3,0.8-0.8,1.3-1.3,1.6c-0.5,0.3-1.1,0.3-1.8,0.1l-0.4-0.1l-0.2-0.1l-0.3-0.2l-0.3-0.3l0.5-1.7l0.3,0.3c0.1,0.1,0.3,0.2,0.4,0.2
		c0.3,0.1,0.5,0.1,0.7-0.1c0.1-0.1,0.2-0.3,0.3-0.5l0.3-0.8l0.5-1.5l0.3-0.9l0.7-2.3l0.7-2.1l6.6,2.4l-3.2,10l-2-0.7L129,237.5z
		 M132.1,245.1l0.5,0.4l0.3,0.2l0.2,0.1c0.3,0.1,0.5,0.1,0.8,0c0.2-0.1,0.4-0.3,0.4-0.5c0-0.1,0.1-0.3,0-0.5l0-0.3
		c0-0.1,0-0.3-0.1-0.5l-1.2-7.1l2.3,0.7l0.8,6.1l3.3-4.9l2.2,0.6l-5,6.6c-0.7,0.9-1.3,1.5-1.9,1.9c-0.6,0.3-1.2,0.4-1.9,0.1
		c-0.2-0.1-0.5-0.2-0.7-0.3l-0.4-0.3L132.1,245.1z M147.6,245.8l-1.4,0.2l-1.3,0.1c-1.3-0.1-2.1-0.3-2.5-0.9c-0.4-0.5-0.5-1.2-0.5-2
		l0.1-3.9l2,0.1l-0.1,3.3c0,0.6,0.1,1,0.4,1.3c0.3,0.2,0.7,0.4,1.4,0.4l0.4,0l0.3,0l0.3,0l0.5-0.1l0.4-0.1l0.1-4.7l2.1,0.1
		l-0.2,10.5l-2.1-0.1L147.6,245.8z M153.1,246l2.5-0.2l-1.5-4.1L153.1,246z M152.8,239.5l2.4-0.2l4.2,10.2l-2.3,0.2l-0.8-2.1
		l-3.7,0.3l-0.6,2.2l-2.2,0.2L152.8,239.5z M157.5,238.8l2-0.5l0.9,3.9l3.8-1l-0.9-3.9l2-0.5l2.3,10.2l-2,0.5l-1-4.6l-3.8,1l1,4.6
		l-2,0.5L157.5,238.8z M166.8,236.2l1.9-0.7l2.1,6.8l1.7-8.1l2-0.7l3.1,10l-1.9,0.7l-2.1-6.8l-1.7,8.1l-2,0.7L166.8,236.2z"/>
	<path class="st3" d="M101.7,246.4c-4.1,2.8-13.2-8-17.9-15.6c0.5,4.4,1.5,9,4.7,14c-5,0.9-10-1.6-15-4.5
		c3.8,6.9,11.1,13.5,19.5,18.1c-3.4-6-5.4-2-4.3-8.8C89.9,243.1,96.1,251.3,101.7,246.4"/>
	<path class="st3" d="M112.1,245.3c-5.1-2.3-8.9-5-10.8-7.7c-5.7-8,2.2-15.9,14.7-13.2c-2.7,2.5-5.9,2.7-7.5,4.4
		c-1.6,1.7-2.5,3.8-2.5,5.3c0,1.5,9,3.9,9.5,5.1C116.6,241.3,105.3,239.5,112.1,245.3 M177,227.5c12.2-6,22.2-4.4,22.2,0.9
		c0,5-3.5,13.5-17.1,18.4c6.3-3.1,8-9.5,7.9-14C189.9,228,181.2,225.8,177,227.5"/>
	<path class="st3" d="M195.4,243.5c4.9,3.2,13.6-7.7,17.9-15.6c-0.5,4.4-1.5,9-4.7,14c5,0.9,10-1.6,15-4.5
		c-3.8,6.9-11.1,13.5-19.5,18.1c3.4-6,5.4-2,4.3-8.8C207.2,240.3,201.1,248.4,195.4,243.5"/>
	<path class="st3" d="M74.3,142.5c1.4,0,2.4,1.3,2.1,3c-0.3,1.7-1.7,3-3.1,3c-1.4,0-2.4-1.3-2.1-3C71.5,143.8,72.9,142.5,74.3,142.5
		"/>
	<path class="st3" d="M224.6,80c1.5,0,2.7,1.3,2.6,3c-0.1,1.7-1.4,3-2.9,3c-1.5,0-2.7-1.3-2.6-3C221.8,81.3,223.1,80,224.6,80"/>
	<path class="st3" d="M212.5,79.1c0.1,0.6,0.2,1.2,0.2,1.8c0,1.4,0,2.8,0,4.2c0,1.8,0.1,3.5,0.1,5.3c0,0.9,0.1,1.9,0,2.8
		c0,0.8-0.1,1.5-0.1,2.3c0,0.6,0,1.3-0.1,1.9c-0.1,0.4-0.2,0.9-0.3,1.3c0,0.2,0,0.5,0,0.7c0.1,0.3,0.1,0.7,0.3,1
		c0.2,0.3,0.6,0.6,1,0.7c0.5,0.2,1,0.3,1.5,0.2c0.6-0.1,1.2-0.4,1.8-0.7c0.7-0.4,1.3-0.8,1.9-1.3c0.4-0.4,0.8-0.8,1.1-1.2
		c0.3-0.4,0.4-0.9,0.5-1.4c0.1-0.4,0.1-0.9,0-1.3c-0.1-0.4-0.3-0.7-0.4-1.1c-0.2-0.3-0.4-0.6-0.6-1c-0.2-0.4-0.4-0.8-0.5-1.2
		c-0.2-0.7-0.3-1.3-0.3-2c-0.2-3.5-0.2-7-0.3-10.6c0-0.5-0.1-0.9-0.1-1.4c-0.1-0.4-0.2-0.9-0.2-1.3c0-0.3-0.1-0.6,0-0.8
		c0-0.3,0.1-0.6,0.2-0.9c0.1-0.3,0.3-0.5,0.6-0.6c0.3-0.2,0.7-0.4,1.1-0.5c0.5-0.2,1.1-0.3,1.6-0.6c0.4-0.2,0.7-0.5,0.9-0.8
		c0.3-0.3,0.5-0.6,0.6-1c0.1-0.3,0.1-0.6,0.1-1c0-0.3,0-0.6-0.1-0.9c-0.1-0.3-0.3-0.5-0.5-0.7c-0.3-0.2-0.6-0.4-0.9-0.5
		c-0.4-0.1-0.8-0.1-1.2-0.1c-0.4,0-0.8,0.1-1.2,0.3c-0.5,0.2-0.9,0.5-1.4,0.8c-0.5,0.3-1,0.7-1.5,1c-0.5,0.3-1.1,0.5-1.7,0.7
		c-0.6,0.3-1.2,0.6-1.8,0.9c-0.5,0.2-1,0.4-1.5,0.5c-0.5,0.2-1.1,0.3-1.6,0.5c-0.5,0.2-1.1,0.2-1.6,0.4c-0.4,0.2-0.7,0.4-1,0.6
		c-0.3,0.3-0.6,0.7-0.8,1.1c-0.2,0.3-0.4,0.7-0.4,1c-0.1,0.4-0.1,0.8,0,1.2c0.1,0.3,0.3,0.7,0.6,0.9c0.3,0.3,0.8,0.4,1.2,0.5
		c0.4,0.1,0.8,0.1,1.3,0c0.5-0.1,0.9-0.2,1.3-0.4c0.2-0.1,0.4-0.4,0.6-0.6c0.2-0.1,0.4-0.2,0.6-0.2c0.2,0,0.4,0,0.6,0.1
		c0.2,0.1,0.3,0.2,0.4,0.4C212.5,78.6,212.4,78.8,212.5,79.1 M198.6,103.8c0.2,0.1,0.5,0.3,0.7,0.3c0.3,0.1,0.6,0.1,0.9,0
		c0.4-0.2,0.7-0.5,1-0.9c0.3-0.3,0.6-0.7,0.8-1.1c0.2-0.3,0.5-0.7,0.6-1.1c0.2-0.4,0.2-0.9,0.3-1.3c0.1-0.4,0.2-0.9,0.4-1.3
		c0.2-0.3,0.5-0.5,0.7-0.7c0.3-0.2,0.6-0.4,1-0.6c0.3-0.1,0.6-0.3,0.9-0.3c0.3,0,0.7,0,1,0.1c0.2,0.1,0.3,0.2,0.5,0.3
		c0.2,0.2,0.3,0.4,0.4,0.6c0.1,0.3,0.1,0.5,0.1,0.8c0,0.3,0,0.6-0.1,0.9c-0.1,0.3-0.2,0.5-0.4,0.8c-0.3,0.3-0.7,0.6-0.9,0.9
		c-0.4,0.5-0.7,1.1-1.1,1.6c-0.3,0.4-0.5,0.8-0.8,1.2c-0.2,0.4-0.3,0.8-0.5,1.2c-0.1,0.3-0.2,0.6-0.4,0.9c-0.3,0.4-0.6,0.7-0.9,1
		c-0.3,0.3-0.6,0.7-1,1c-0.2,0.2-0.5,0.3-0.8,0.5c-0.3,0.2-0.7,0.3-1,0.4c-0.4,0.1-0.8,0.1-1.2,0.1c-0.4,0-0.7,0-1.1-0.1
		c-0.4-0.1-0.8-0.2-1.1-0.3c-0.4-0.2-0.9-0.4-1.3-0.7c-0.5-0.3-1-0.7-1.5-1.2c-0.4-0.3-0.7-0.7-0.9-1.1c-0.3-0.5-0.5-1-0.7-1.5
		c-0.2-0.7-0.4-1.3-0.5-2c-0.1-0.5-0.2-1-0.3-1.5c-0.1-1.1-0.2-2.3-0.1-3.4c0-1.1,0.1-2.2,0.3-3.3c0.1-0.8,0.3-1.5,0.5-2.2
		c0.2-0.9,0.4-1.9,0.6-2.8c0.2-1,0.4-2,0.6-2.9c0.2-0.8,0.5-1.7,0.9-2.4c0.4-0.6,1-1,1.5-1.6c0.4-0.4,0.7-1,1.1-1.4
		c0.3-0.3,0.6-0.4,1-0.6c0.3-0.1,0.6-0.1,0.9-0.3c0.2-0.1,0.4-0.2,0.6-0.3c0.3-0.2,0.5-0.5,0.8-0.7c0.3-0.2,0.6-0.3,0.9-0.4
		c0.3-0.1,0.7-0.1,1-0.1c0.4,0,0.8,0.1,1.1,0.3c0.5,0.3,0.9,0.7,1.3,1.1c0.4,0.3,0.8,0.7,1.1,1.1c0.3,0.4,0.6,0.9,0.8,1.3
		c0.2,0.5,0.3,1,0.4,1.5c0.1,0.6,0.2,1.1,0.2,1.7c0,0.5,0,1.1-0.1,1.6c-0.1,0.7-0.3,1.4-0.5,2c-0.2,0.6-0.4,1.2-0.7,1.7
		c-0.2,0.4-0.4,0.8-0.7,1.2c-0.3,0.4-0.7,0.7-1,1c-0.2,0.2-0.4,0.6-0.7,0.7c-0.3,0.2-0.7,0.3-1,0.3c-0.3,0-0.6-0.2-0.9-0.5
		c-0.3-0.3-0.4-0.8-0.6-1.2c-0.1-0.4-0.2-0.8-0.2-1.2c-0.1-0.4-0.1-0.8-0.1-1.2c0-0.5,0.2-1,0.3-1.4c0.1-0.4,0.4-0.8,0.6-1.2
		c0.2-0.3,0.4-0.6,0.5-0.9c0.1-0.3,0.2-0.6,0.2-0.9c0-0.3,0-0.6-0.1-0.9c-0.1-0.3-0.3-0.6-0.5-0.8c-0.2-0.2-0.5-0.3-0.7-0.3
		c-0.2,0-0.5,0-0.7,0c-0.2,0.1-0.5,0.2-0.6,0.3c-0.2,0.2-0.5,0.4-0.6,0.6c-0.2,0.3-0.3,0.6-0.4,1c-0.1,0.8-0.1,1.5-0.1,2.3
		c0,0.5-0.1,0.9-0.2,1.4c-0.1,0.7-0.3,1.4-0.5,2.2c-0.1,0.6-0.3,1.1-0.3,1.7c-0.1,1.1-0.1,2.2-0.2,3.2c0,0.9,0,1.8,0,2.7
		c0,0.6,0.2,1.3,0.3,1.9c0.1,0.5,0.2,1,0.3,1.5c0.1,0.5,0.3,1,0.5,1.4C198.1,103.5,198.4,103.6,198.6,103.8 M177.6,93.8
		c-0.3,0.3-0.6,0.5-0.9,0.8c-0.3,0.3-0.6,0.6-0.9,1c-0.3,0.5-0.5,1-0.7,1.5c-0.2,0.6-0.4,1.3-0.5,2c-0.1,0.7-0.2,1.5-0.3,2.3
		c-0.1,1-0.1,2-0.1,2.9c0,0.6,0,1.2,0,1.8c0,0.2,0.1,0.5,0.1,0.7c0.1,0.3,0.2,0.5,0.4,0.7c0.1,0.2,0.3,0.3,0.4,0.5
		c0.1,0.2,0.2,0.5,0.2,0.7c0.1,0.5,0.1,1,0.1,1.5c0,0.4,0,0.8,0.1,1.2c0.1,0.5,0.2,0.9,0.4,1.4c0.1,0.2,0.3,0.4,0.5,0.5
		c0.3,0.2,0.6,0.3,0.9,0.3c0.4,0.1,0.7,0.1,1.1,0c0.4-0.1,0.7-0.2,1-0.4c0.4-0.2,0.7-0.4,1-0.8c0.4-0.5,0.6-1.1,0.8-1.6
		c0.2-0.5,0.4-0.9,0.5-1.4c0.1-0.6,0.2-1.3,0.3-2c0.1-0.9,0.2-1.8,0.2-2.7c0-1.1-0.1-2.3-0.1-3.4c0-1,0.1-2,0-3.1
		c0-0.3-0.2-0.5-0.3-0.8c-0.1-0.3-0.3-0.5-0.4-0.8c-0.1-0.5,0-1.1-0.1-1.6c0-0.3,0-0.6-0.1-0.8c-0.1-0.3-0.2-0.5-0.4-0.7
		c-0.2-0.2-0.4-0.3-0.6-0.4c-0.4-0.1-0.7-0.1-1.1-0.1c-0.3,0-0.6,0.2-0.9,0.3C178,93.5,177.8,93.7,177.6,93.8 M179.8,88.2
		c-0.3,0-0.7,0-1,0.1c-0.5,0.1-1,0.2-1.5,0.3c-0.5,0.2-0.9,0.4-1.4,0.6c-0.5,0.3-1,0.6-1.5,1c-0.4,0.4-0.8,0.7-1.2,1.2
		c-0.4,0.5-0.9,0.9-1.2,1.5c-0.4,0.6-0.8,1.2-1.2,1.9c-0.4,0.9-0.8,1.8-1,2.8c-0.2,0.9-0.4,1.8-0.5,2.7c-0.2,1-0.3,1.9-0.5,2.9
		c-0.1,0.9-0.3,1.8-0.4,2.7c0,0.8,0,1.7,0.1,2.5c0.1,0.9,0.1,1.7,0.3,2.6c0.2,0.8,0.4,1.5,0.7,2.3c0.2,0.5,0.5,1,0.8,1.5
		c0.2,0.3,0.5,0.6,0.8,0.9c0.4,0.4,0.8,0.8,1.3,1.1c0.5,0.4,1.1,0.7,1.7,0.9c0.6,0.2,1.2,0.3,1.8,0.4c0.5,0.1,1,0.2,1.6,0.2
		c0.5,0,1,0,1.5-0.1c0.6-0.1,1.2-0.1,1.8-0.4c0.7-0.3,1.4-0.7,2-1.2c0.6-0.5,1.1-1.2,1.6-1.8c0.5-0.6,1-1.3,1.4-2
		c0.4-0.7,0.6-1.4,0.9-2.2c0.3-0.6,0.6-1.2,0.8-1.9c0.2-0.8,0.2-1.6,0.2-2.4c0-1.4,0.1-2.8,0-4.3c0-1-0.2-2.1-0.3-3.1
		c-0.1-1.1-0.1-2.1-0.4-3.2c-0.2-0.8-0.5-1.6-0.8-2.4c-0.3-0.7-0.5-1.4-0.9-2c-0.3-0.5-0.8-0.8-1.2-1.2c-0.4-0.4-0.9-0.8-1.4-1.2
		c-0.3-0.2-0.7-0.3-1.1-0.4C180.9,88.2,180.3,88.2,179.8,88.2 M153.1,120.7c0,0.5,0,0.9,0,1.4c0,0.3,0.1,0.7,0.1,1
		c0.1,0.3,0.1,0.6,0.3,0.8c0.2,0.2,0.5,0.3,0.8,0.3c0.3,0,0.6,0,0.9-0.1c0.4-0.1,0.8-0.2,1.1-0.4c0.3-0.2,0.6-0.5,0.9-0.8
		c0.3-0.3,0.5-0.7,0.7-1c0.1-0.3,0.1-0.7,0.1-1.1c0-0.6,0-1.1,0-1.7c-0.1-0.6-0.3-1.2-0.3-1.8c-0.1-1.1-0.2-2.3-0.2-3.4
		c0-1.5,0-3,0-4.5c0-0.7,0.1-1.4,0.1-2.1c0-0.8,0.1-1.6,0.1-2.3c0-0.6,0.1-1.2,0-1.8c0-0.2,0-0.5-0.1-0.6c-0.1-0.1-0.3-0.2-0.5-0.2
		c-0.3-0.1-0.6-0.1-0.9,0c-0.2,0-0.5,0.1-0.7,0.2c-0.3,0.2-0.5,0.5-0.8,0.8c-0.2,0.3-0.5,0.6-0.6,1c-0.2,0.6-0.3,1.3-0.5,1.9
		c-0.1,0.5-0.2,1-0.3,1.4c-0.1,0.8-0.2,1.6-0.2,2.3c-0.1,0.6-0.1,1.2-0.1,1.8C153,114.6,153.1,117.6,153.1,120.7 M132.7,121.5
		c-0.3,0-0.5,0-0.8,0c-0.2,0-0.3-0.1-0.4-0.3c-0.1-0.2-0.2-0.4-0.2-0.6c-0.1-1.7,0-3.3,0-5c0-0.1,0.1-0.2,0.1-0.3
		c0.1-0.1,0.1-0.2,0.2-0.3c0.1-0.1,0.3-0.2,0.4-0.3c0.1-0.1,0.3-0.1,0.5-0.1c0.3,0,0.5-0.1,0.8-0.1c0.2,0,0.4,0,0.6,0
		c0.1,0,0.2,0,0.3,0.1c0.1,0.1,0.1,0.1,0.1,0.2c0,0.4,0.1,0.8,0.1,1.1c0,1.2,0,2.4,0,3.7c0,0.3,0,0.6,0,0.9c0,0.1,0,0.3-0.1,0.4
		c-0.1,0.1-0.2,0.2-0.2,0.3c-0.1,0.1-0.2,0.2-0.4,0.2c-0.1,0-0.3,0-0.4,0C133,121.5,132.8,121.5,132.7,121.5 M126.7,132.3
		c-0.4,0.1-0.8-0.1-1.2,0.1c-0.4,0.1-0.9,0.4-1.2,0.7c-0.3,0.3-0.6,0.7-0.8,1.1c-0.2,0.6-0.4,1.2-0.4,1.9c0,0.5,0,1.1,0.1,1.6
		c0.2,0.5,0.5,0.9,0.8,1.3c0.3,0.3,0.6,0.7,1,0.9c0.3,0.2,0.7,0.4,1.1,0.5c0.5,0.1,1.1,0.3,1.6,0.2c0.6-0.1,1.1-0.4,1.6-0.7
		c0.5-0.3,0.9-0.8,1.3-1.2c0.3-0.4,0.6-0.8,0.8-1.2c0.2-0.6,0.3-1.2,0.3-1.8c0-2-0.1-4-0.2-6c0-0.8-0.1-1.5-0.1-2.3
		c0-0.4,0-0.8,0.1-1.2c0.2-0.4,0.5-0.7,0.8-0.9c0.3-0.2,0.7-0.2,1.1-0.2c0.4,0,0.8,0,1.1,0.2c0.3,0.2,0.5,0.5,0.7,0.8
		c0.2,0.4,0.2,0.8,0.2,1.2c0.1,0.5,0.2,1,0.2,1.5c0.1,0.6,0.1,1.3,0.2,1.9c0,0.5,0,0.9,0.1,1.4c0.1,0.5,0.3,1,0.6,1.5
		c0.2,0.4,0.6,0.6,1,0.8c0.4,0.3,0.8,0.5,1.3,0.6c0.5,0.1,1,0.2,1.5,0.2c0.5,0,1-0.1,1.5-0.4c0.4-0.2,0.7-0.5,1-0.8
		c0.4-0.3,0.7-0.7,1-1c0.4-0.3,0.7-0.7,1.1-1c0.2-0.2,0.5-0.3,0.7-0.4c0.2-0.1,0.4-0.1,0.5-0.1c0.3,0.1,0.5,0.3,0.7,0.4
		c0.3,0.2,0.6,0.5,1,0.7c0.3,0.2,0.7,0.3,1,0.3c0.4,0,0.9-0.1,1.2-0.4c0.3-0.3,0.4-0.8,0.5-1.2c0.2-0.4,0.4-0.9,0.6-1.3
		c0.2-0.4,0.3-0.7,0.6-1c0.2-0.2,0.5-0.4,0.8-0.5c0.5-0.1,1-0.1,1.5-0.2c0.6-0.1,1.3-0.2,1.9-0.4c0.6-0.2,1.2-0.4,1.7-0.6
		c0.3-0.2,0.6-0.4,0.9-0.6c0.3-0.3,0.6-0.6,0.9-0.8c0.2-0.1,0.3-0.3,0.5-0.4c0.1-0.1,0.3-0.2,0.5-0.2c0.2,0,0.4,0,0.5,0.1
		c0.4,0.1,0.7,0.3,1,0.5c0.4,0.2,0.8,0.4,1.2,0.5c0.3,0.1,0.6,0.2,1,0.2c0.4,0.1,0.8,0.2,1.2,0.1c0.4-0.1,0.8-0.2,1.1-0.5
		c0.3-0.3,0.5-0.6,0.7-1c0.2-0.3,0.2-0.7,0.3-1.1c0.1-0.4,0.1-0.9,0.1-1.3c0-0.3-0.1-0.5-0.3-0.7c-0.2-0.3-0.5-0.6-0.8-0.8
		c-0.3-0.2-0.6-0.3-1-0.4c-0.3-0.1-0.7-0.1-1-0.2c-0.3-0.1-0.5-0.2-0.7-0.4c-0.2-0.2-0.5-0.4-0.6-0.7c-0.2-0.6-0.2-1.2-0.2-1.8
		c-0.1-1.7-0.2-3.4-0.2-5c0-1.3-0.1-2.5-0.1-3.8c0-1.5,0.1-3,0.1-4.5c0-0.9,0.1-1.7,0.2-2.5c0.1-0.9,0.2-1.7,0.4-2.6
		c0.1-0.4,0.1-0.9,0.2-1.3c0-0.3,0-0.6,0-0.8c0-0.2,0-0.5-0.1-0.7c-0.1-0.2-0.3-0.5-0.5-0.6c-0.4-0.2-0.8-0.1-1.2-0.1
		c-0.5,0-0.9,0.1-1.3,0.3c-3.3,1.4-6.6,2.9-9.8,4.4c-0.4,0.2-0.7,0.4-1,0.7c-0.2,0.2-0.4,0.5-0.5,0.8c-0.1,0.3-0.1,0.6-0.1,1
		c0,0.3,0,0.6,0.1,1c0.1,1.1,0.3,2.3,0.4,3.4c0,0.5,0,1.1,0,1.6c0,0.8-0.2,1.5-0.2,2.2c-0.1,0.9-0.1,1.8-0.1,2.7
		c0,1.2-0.1,2.3-0.1,3.5c0,1.1,0.1,2.2,0.1,3.3c0,0.5,0.2,1,0.2,1.6c0,0.8,0.1,1.7,0,2.5c0,0.3-0.2,0.7-0.4,1
		c-0.2,0.4-0.5,0.8-0.8,1.3c-0.3,0.4-0.6,0.8-0.8,1.3c-0.1,0.1,0,0.3-0.1,0.4c-0.1,0.2-0.1,0.4-0.2,0.5c-0.2,0.1-0.5,0.1-0.8,0.1
		c-0.2,0-0.4-0.1-0.6-0.2c-0.2-0.2-0.4-0.4-0.6-0.6c-0.2-0.1-0.4-0.2-0.5-0.2c-0.3,0-0.5,0.1-0.7,0.2c-0.2,0.1-0.3,0.3-0.4,0.4
		c-0.2,0.2-0.4,0.4-0.6,0.6c-0.1,0.1-0.3,0.2-0.5,0.2c-0.3,0-0.6-0.1-0.7-0.2c-0.2-0.2-0.3-0.6-0.4-0.9c-0.2-1.4-0.3-2.9-0.4-4.3
		c-0.1-1.5-0.1-2.9-0.1-4.4c0-1.4,0-2.7,0.1-4.1c0-1.1,0.1-2.1,0.2-3.2c0.1-0.9,0.1-1.8,0.2-2.7c0.1-0.7,0.3-1.4,0.3-2.1
		c0-0.4,0-0.9-0.1-1.3c-0.1-0.3-0.3-0.7-0.6-0.8c-0.4-0.2-1-0.3-1.5-0.3c-0.6,0-1.2,0.2-1.8,0.5c-0.8,0.4-1.5,0.9-2.2,1.4
		c-0.5,0.3-1,0.7-1.5,1c-0.7,0.4-1.4,0.6-2.2,0.9c-0.5,0.2-1,0.3-1.5,0.5c-0.5,0.2-1,0.4-1.5,0.6c-0.3,0.2-0.5,0.4-0.7,0.6
		c-0.2,0.3-0.5,0.6-0.5,0.9c-0.1,0.2,0,0.5,0.1,0.7c0.1,0.4,0.3,0.9,0.5,1.3c0.2,0.4,0.3,0.7,0.5,1.1c0.1,0.3,0.3,0.6,0.4,1
		c0.1,0.2,0.1,0.4,0.1,0.7c0,0.2-0.2,0.4-0.2,0.7c-0.1,0.5-0.2,1-0.3,1.5c-0.1,0.4-0.2,0.9-0.2,1.3c0,0.4,0,0.9,0,1.3
		c0,0.3,0,0.6-0.1,0.9c-0.1,0.2-0.2,0.4-0.4,0.5c-0.2,0.2-0.3,0.5-0.5,0.7c-0.3,0.2-0.8,0.4-1.2,0.5c-0.3,0.1-0.7,0.1-1,0.3
		c-0.3,0.1-0.5,0.4-0.7,0.6c-0.2,0.2-0.4,0.4-0.4,0.7c-0.1,0.3-0.1,0.5,0,0.8c0,0.2,0.2,0.5,0.3,0.7c0.2,0.2,0.4,0.4,0.6,0.5
		c0.3,0.1,0.6,0.2,0.8,0.2c0.3,0.1,0.6,0.2,0.9,0.3c0.3,0.1,0.7,0.3,0.8,0.5c0.2,0.3,0.3,0.8,0.4,1.2c0.1,0.5,0.1,0.9,0.1,1.4
		c0,0.3-0.1,0.7-0.2,1C127.3,132.1,127,132.2,126.7,132.3 M76.3,158.8c0-0.4,0-0.8,0.2-1.1c0.2-0.4,0.7-0.7,1-1
		c0.4-0.5,1-0.9,1.2-1.5c0.2-0.6,0.2-1.3,0.1-2c0-0.4-0.1-0.9-0.3-1.2c-0.1-0.2-0.3-0.3-0.6-0.4c-0.4-0.1-0.9-0.3-1.3-0.2
		c-0.5,0.1-1,0.3-1.4,0.6c-0.5,0.4-1,0.8-1.3,1.3c-0.4,0.5-0.7,1.1-0.9,1.7c-0.3,0.9-0.3,1.8-0.4,2.7c0,0.6,0,1.2,0.1,1.8
		c0.1,0.6,0.1,1.2,0.4,1.7c0.2,0.6,0.6,1.1,1,1.5c0.4,0.5,0.8,0.9,1.3,1.2c0.4,0.2,0.8,0.3,1.3,0.4c0.5,0,1.1,0,1.6-0.1
		c0.4-0.1,0.9-0.4,1.2-0.7c0.7-0.6,1.4-1.2,2-1.9c0.7-0.8,1.4-1.8,1.9-2.7c0.4-0.6,0.4-1.4,0.6-2.1c0.1-0.7,0.2-1.5,0.2-2.3
		c0-1.1-0.1-2.1-0.1-3.2c0-1.2-0.1-2.3,0.1-3.5c0-0.4,0.2-0.7,0.4-1c0.2-0.2,0.5-0.4,0.8-0.5c0.3-0.1,0.7-0.1,1,0.1
		c0.3,0.2,0.4,0.5,0.5,0.9c0.1,0.3,0,0.7,0.1,1c0.1,0.4,0.1,0.7,0.3,1c0.2,0.3,0.4,0.5,0.7,0.6c0.3,0.2,0.7,0.3,1.1,0.3
		c0.4,0,0.8-0.1,1.1-0.3c0.3-0.2,0.4-0.7,0.6-1c0.1-0.2,0.2-0.4,0.4-0.6c0.1-0.1,0.3-0.2,0.5-0.2c0.1,0,0.3,0,0.4,0.1
		c0.2,0.1,0.2,0.4,0.3,0.6c0.1,0.5,0.2,1,0.3,1.5c0.1,0.3,0.1,0.7,0.2,1c0.2,0.3,0.4,0.7,0.7,0.9c0.3,0.3,0.6,0.4,0.9,0.6
		c0.3,0.1,0.5,0.2,0.8,0.3c0.4,0.1,0.8,0.2,1.2,0.2c0.4,0,0.8-0.2,1.2-0.4c0.4-0.2,0.7-0.3,1-0.6c0.3-0.4,0.5-0.8,0.7-1.3
		c0.2-0.3,0.3-0.7,0.4-1c0.1-0.3,0.1-0.6,0.2-0.9c0.1-0.2,0.2-0.4,0.4-0.5c0.2-0.1,0.4-0.2,0.6-0.2c0.2,0,0.4,0.1,0.6,0.2
		c0.3,0.2,0.5,0.5,0.7,0.8c0.2,0.2,0.4,0.4,0.7,0.6c0.3,0.2,0.7,0.3,1,0.4c0.4,0,0.9-0.1,1.3-0.2c0.5-0.2,0.9-0.5,1.3-0.8
		c0.5-0.4,0.9-1,1.2-1.5c0.4-0.8,0.7-1.6,0.9-2.5c0.3-0.9,0.6-1.7,0.6-2.6c0.2-4.5,0.1-9,0.2-13.5c0-1,0.1-1.9,0.2-2.9
		c0.1-0.6,0.1-1.2,0.3-1.8c0.1-0.5,0.3-1,0.6-1.3c0.3-0.4,0.6-0.7,1-0.9c0.3-0.2,0.7-0.3,1.1-0.4c0.2,0,0.5,0.1,0.7,0.2
		c0.2,0.1,0.3,0.3,0.3,0.6c0.1,0.3,0,0.6,0,0.9c-0.1,0.4-0.2,0.8-0.3,1.2c-0.2,0.6-0.4,1.2-0.6,1.8c-0.2,0.8-0.2,1.6-0.3,2.3
		c-0.1,1-0.1,2-0.2,3c-0.1,1.2-0.1,2.3-0.1,3.5c0,0.9,0,1.8,0,2.8c0,0.9,0.1,1.7,0.2,2.6c0.1,0.5,0.3,1.1,0.6,1.5
		c0.3,0.6,0.8,1.1,1.3,1.5c0.4,0.3,0.9,0.6,1.4,0.8c0.3,0.1,0.7,0,1,0c0.4,0,0.8,0,1.2-0.2c0.5-0.2,1-0.6,1.4-0.9
		c0.4-0.3,0.8-0.7,1.1-1.2c0.3-0.4,0.6-0.9,0.7-1.4c0.2-0.5,0.3-0.9,0.3-1.4c0-0.4-0.1-0.8-0.2-1.2c-0.1-0.3-0.3-0.6-0.5-0.9
		c-0.2-0.2-0.4-0.2-0.6-0.2c-0.2-0.1-0.5-0.1-0.7-0.1c-0.2,0-0.4,0.2-0.6,0.3c-0.1,0.1-0.1,0.4-0.2,0.5c-0.1,0.1-0.3,0.1-0.5,0
		c-0.2-0.1-0.3-0.2-0.4-0.3c-0.1-0.2-0.2-0.5-0.2-0.7c0.1-2.3,0.2-4.5,0.4-6.8c0.1-1,0.1-2.1,0.2-3.1c0.1-1,0.4-1.9,0.6-2.9
		c0.2-1.1,0.4-2.3,0.6-3.4c0.1-0.7,0.2-1.3,0.2-2c0-0.5,0.1-1.1-0.1-1.6c-0.1-0.4-0.3-0.9-0.6-1.2c-0.2-0.3-0.6-0.5-1-0.6
		c-0.5-0.1-1.1-0.1-1.7,0.1c-1.6,0.6-3.2,1.5-4.7,2.3c-1.3,0.7-2.6,1.3-3.9,2.1c-0.3,0.2-0.6,0.4-0.9,0.7c-0.2,0.3-0.5,0.5-0.6,0.9
		c-0.1,0.3-0.2,0.6-0.2,0.9c0,0.3,0,0.5,0,0.8c0.1,0.4,0.3,0.8,0.4,1.2c0.1,1.2,0.2,2.4,0.2,3.6c0,1.1-0.3,2.2-0.4,3.4
		c-0.1,1.1-0.3,2.3-0.4,3.4c-0.1,0.9-0.3,1.8-0.4,2.6c-0.1,0.5-0.1,0.9-0.1,1.4c0,0.5,0.2,0.9,0.2,1.4c0,0.5,0,1.1,0,1.6
		c0,0.2-0.1,0.4-0.2,0.6c-0.1,0.2-0.3,0.4-0.6,0.6c-0.2,0.2-0.5,0.4-0.8,0.5c-0.3,0.1-0.6,0-0.9,0.1c-0.3,0.1-0.5,0.3-0.7,0.4
		c-0.3,0.2-0.5,0.5-0.7,0.8c-0.2,0.3-0.4,0.6-0.6,0.9c-0.2,0.2-0.3,0.5-0.6,0.7c-0.2,0.1-0.4,0.2-0.6,0.2c-0.3,0-0.6,0-0.9-0.1
		c-0.3,0-0.6-0.1-0.8-0.2c-0.3-0.1-0.5-0.3-0.7-0.6c-0.2-0.2-0.4-0.5-0.6-0.8c-0.2-0.4-0.3-0.8-0.2-1.2c0.1-2.2,0.2-4.4,0.5-6.6
		c0.1-0.9,0.4-1.7,0.6-2.6c0.2-0.9,0.4-1.8,0.5-2.7c0.1-0.9,0.2-1.8,0.2-2.8c0-0.6,0.1-1.2-0.1-1.8c-0.1-0.4-0.3-0.7-0.6-1
		c-0.2-0.3-0.5-0.5-0.8-0.6c-0.3-0.1-0.7-0.2-1.1-0.1c-0.5,0-1,0.2-1.4,0.4c-0.5,0.2-0.9,0.5-1.4,0.7c-0.4,0.2-0.9,0.4-1.3,0.6
		c-0.4,0.2-0.9,0.2-1.3,0.4c-0.3,0.2-0.6,0.5-0.9,0.8c-0.2,0.3-0.3,0.7-0.4,1c-0.1,0.3-0.1,0.7-0.1,1c0.1,0.3,0.3,0.6,0.4,0.9
		c0.2,0.3,0.5,0.5,0.7,0.9c0.2,0.3,0.4,0.7,0.4,1c0.1,0.8,0.1,1.6,0.1,2.5c0,0.4-0.1,0.8-0.2,1.1c-0.1,0.2-0.3,0.4-0.5,0.6
		c-0.2,0.2-0.4,0.3-0.7,0.4c-0.2,0.1-0.3,0-0.5-0.1c-0.2-0.1-0.4-0.3-0.5-0.5c-0.2-0.3-0.3-0.7-0.3-1c-0.1-1.3,0-2.7-0.1-4
		c0-0.2,0-0.5-0.1-0.7c-0.1-0.2-0.2-0.5-0.4-0.6c-0.2-0.2-0.4-0.3-0.6-0.3c-0.5-0.1-0.9,0-1.4,0.1c-0.7,0.1-1.5,0.2-2.2,0.4
		c-0.6,0.2-1.2,0.4-1.8,0.6c-0.4,0.2-0.9,0.3-1.3,0.6c-0.3,0.2-0.5,0.5-0.7,0.7c-0.1,0.2-0.2,0.4-0.3,0.7c-0.1,0.4-0.2,0.7-0.1,1.1
		c0,0.3,0.2,0.7,0.4,1c0.1,0.3,0.2,0.6,0.4,0.9c0.1,0.3,0.4,0.5,0.5,0.7c0.1,0.4,0.2,0.9,0.2,1.3c0,0.9-0.2,1.8-0.4,2.6
		c-0.1,0.7-0.3,1.4-0.4,2.1c-0.1,0.9-0.3,1.7-0.3,2.6c-0.1,1-0.1,2-0.1,2.9c0,0.7,0,1.4,0,2c0,0.4,0.1,0.9,0.1,1.3
		c0,0.4,0.1,0.8,0.2,1.2c0.1,0.4,0.1,0.8,0.2,1.2c0,0.3,0.1,0.7,0.1,1c0,0.3-0.2,0.5-0.2,0.7c-0.2,0.6-0.3,1.2-0.6,1.8
		c-0.1,0.3-0.3,0.6-0.4,0.9c-0.2,0.3-0.3,0.6-0.6,0.8c-0.2,0.1-0.5,0.2-0.7,0.2c-0.2,0-0.5,0-0.7-0.1
		C76.3,159.3,76.3,159.1,76.3,158.8"/>
	<path class="st3" d="M123.1,274.2l-2-0.3l-2-0.4l-2-0.4l-2-0.4l-1.9-0.4l-1.9-0.5l-1.9-0.5l-1.9-0.5l-1.9-0.6l-1.8-0.6L102,269
		l-1.8-0.6l-1.8-0.7l-1.8-0.7l-1.8-0.7l-1.8-0.8l-1.8-0.8l-1.8-0.9l-1.8-0.9l-1.8-0.9l-1.8-1l-1.8-1l-1.8-1l-1.8-1.1l-1.8-1.1
		l-1.8-1.2l-1.8-1.2l-1.8-1.3l-1.5-1.1l-1.5-1.1l-1.4-1.1l-1.4-1.2l-1.4-1.2l-1.4-1.2l-1.3-1.2l-1.3-1.3l-1.3-1.3l-1.3-1.3l-1.2-1.3
		l-1.2-1.4l-1.2-1.4l-1.2-1.4l-1.2-1.4l-1.1-1.5l-1.1-1.5l-1.1-1.5l-1.1-1.5l-1.1-1.6l-1.1-1.6l-1.1-1.6l-1-1.6l-1-1.6l-1-1.7
		l-1-1.7l-1-1.7l-1-1.7l-1-1.7l-1-1.8l-1-1.8l-0.1-0.1l1.4-3.4l2-5.2l1.9-5.2l1.8-5.2l1.6-5.2l1.5-5.2l1.4-5.2l1.2-5.2l1.1-5.3
		l1-5.3l0.8-5.3l0.7-5.3l0.5-5.3l0.4-5.3l0.3-5.3l0.1-5.3l0-5.3l-0.2-5.3l-0.3-5.3l-0.5-5.3l-0.6-5.3l-0.8-5.3l-0.9-5.3l-1.1-5.3
		l-1.2-5.4l-1.4-5.4l-1.5-5.4l-1.7-5.4l-1.8-5.4l-2-5.4l-2.1-5.4l-1.2-2.8l30.9-30.3l0.2,0.1l2.7,1l2.7,1l2.7,1l2.7,0.9l2.7,0.9
		l2.7,0.9l2.7,0.8L88,20l2.7,0.8l2.7,0.7l2.7,0.7l2.7,0.7l2.7,0.6l2.7,0.6l2.7,0.6l2.7,0.5l2.7,0.5l2.7,0.5l2.7,0.4l2.7,0.4l2.7,0.3
		l2.7,0.3l2.7,0.3l2.7,0.2l2.7,0.2l2.7,0.1l2.7,0.1l2.7,0.1l2.7,0l2.7,0l2.6-0.1l2.6,0.1l2.7,0l2.7,0l2.7-0.1l2.7-0.1l2.7-0.1
		l2.7-0.2l2.7-0.2l2.7-0.3l2.7-0.3l2.7-0.3l2.7-0.4l2.7-0.4l2.7-0.5l2.7-0.5l2.7-0.5l2.7-0.6l2.7-0.6l2.7-0.6l2.7-0.7l2.7-0.7
		l2.7-0.7L212,20l2.7-0.8l2.7-0.8l2.7-0.9l2.7-0.9l2.7-0.9l2.7-1l2.7-1l2.7-1l0.2-0.1l30.9,30.3l-1.2,2.8l-2.1,5.4l-2,5.4l-1.8,5.4
		l-1.7,5.4l-1.5,5.4l-1.4,5.4l-1.2,5.4l-1.1,5.3l-0.9,5.3l-0.8,5.3l-0.6,5.3l-0.5,5.3l-0.3,5.3l-0.2,5.3l0,5.3l0.1,5.3l0.3,5.3
		l0.4,5.3l0.5,5.3l0.7,5.3l0.8,5.3l1,5.3l1.1,5.3l1.2,5.2l1.4,5.2l1.5,5.2l1.6,5.2l1.8,5.2l1.9,5.2l2,5.2l1.4,3.4l-0.1,0.1l-1,1.8
		l-1,1.8l-1,1.7l-1,1.7l-1,1.7l-1,1.7l-1,1.7l-1,1.6l-1,1.6l-1.1,1.6l-1.1,1.6l-1.1,1.6l-1.1,1.5l-1.1,1.5l-1.1,1.5l-1.1,1.5
		l-1.2,1.4l-1.2,1.4l-1.2,1.4l-1.2,1.4l-1.2,1.3l-1.3,1.3l-1.3,1.3l-1.3,1.3l-1.3,1.2l-1.4,1.2l-1.4,1.2l-1.4,1.2l-1.4,1.1l-1.5,1.1
		l-1.5,1.1l-1.8,1.3l-1.8,1.2l-1.8,1.2l-1.8,1.1l-1.8,1.1l-1.8,1l-1.8,1l-1.8,1l-1.8,0.9l-1.8,0.9l-1.8,0.9l-1.8,0.8l-1.8,0.8
		l-1.8,0.7l-1.8,0.7l-1.8,0.7L198,269l-1.8,0.6l-1.8,0.6l-1.9,0.6l-1.9,0.5l-1.9,0.5l-1.9,0.5l-1.9,0.4l-2,0.4l-2,0.4l-2,0.4l-2,0.3
		l-2.1,0.3l-2.1,0.3l-2.1,0.3l-2.2,0.3l-2.1,0.3l-2.1,0.4l-2,0.5l-1.9,0.6l-1.8,0.6l-1.7,0.7l-1.6,0.8l-1.5,0.8l-1.3,0.8l-1.2,0.9
		l-1.1,0.9l-0.1,0.1l-0.1-0.1l-1.1-0.9l-1.2-0.9l-1.4-0.8l-1.5-0.8l-1.6-0.8l-1.7-0.7l-1.8-0.6l-1.9-0.6l-2-0.5l-2.1-0.4l-2.1-0.3
		l-2.2-0.3l-2.1-0.3l-2.1-0.3L123.1,274.2z M123,275l-2-0.3l-2-0.4l-2-0.4l-2-0.4L113,273l-1.9-0.5l-1.9-0.5l-1.9-0.5l-1.9-0.6
		l-1.9-0.6l-1.8-0.6l-1.8-0.7l-1.8-0.7l-1.8-0.7l-1.8-0.8l-1.8-0.8l-1.8-0.8l-1.8-0.9l-1.8-0.9l-1.8-0.9l-1.8-1l-1.8-1l-1.8-1.1
		l-1.8-1.1l-1.8-1.1l-1.8-1.2l-1.8-1.2l-1.8-1.3l-1.5-1.1l-1.5-1.1l-1.4-1.1l-1.4-1.2l-1.4-1.2l-1.4-1.2l-1.3-1.2l-1.3-1.3l-1.3-1.3
		l-1.3-1.3l-1.2-1.3l-1.2-1.4l-1.2-1.4l-1.2-1.4l-1.2-1.4l-1.2-1.5l-1.1-1.5l-1.1-1.5l-1.1-1.5l-1.1-1.6l-1.1-1.6l-1.1-1.6l-1-1.6
		l-1-1.7l-1-1.7l-1-1.7l-1-1.7l-1-1.7l-1-1.8l-1-1.8l-1-1.8l-0.3-0.5l1.6-3.7l2-5.2l1.9-5.2l1.8-5.2l1.6-5.2l1.5-5.2l1.4-5.2
		l1.2-5.2l1.1-5.2l1-5.2l0.8-5.2l0.7-5.3l0.5-5.3l0.4-5.3l0.3-5.3l0.1-5.3l0-5.3l-0.2-5.3l-0.3-5.3l-0.5-5.3l-0.6-5.3L49.5,94
		l-0.9-5.3l-1.1-5.3L46.3,78l-1.4-5.3l-1.5-5.3L41.7,62l-1.8-5.3l-2-5.4l-2.1-5.4l-1.4-3.3l31.7-31l0.7,0.3l2.7,1l2.7,1l2.7,1
		l2.7,0.9l2.7,0.9l2.7,0.9l2.7,0.8l2.7,0.8l2.7,0.8l2.7,0.7l2.7,0.7L99,22l2.7,0.6l2.7,0.6l2.7,0.6l2.7,0.5l2.7,0.5l2.7,0.5l2.7,0.4
		l2.7,0.4l2.7,0.3l2.7,0.3l2.7,0.3l2.7,0.2l2.7,0.2l2.7,0.1l2.7,0.1l2.7,0.1l2.7,0l2.7,0l2.6-0.1l2.6,0.1l2.7,0l2.7,0l2.7-0.1
		l2.7-0.1l2.7-0.1l2.7-0.2l2.7-0.2l2.7-0.3l2.7-0.3l2.7-0.3l2.7-0.4l2.7-0.4l2.7-0.5l2.7-0.5l2.7-0.5l2.7-0.6l2.7-0.6L201,22
		l2.7-0.7l2.7-0.7l2.7-0.7l2.7-0.8l2.7-0.8l2.7-0.8l2.7-0.9l2.7-0.9l2.7-0.9l2.7-1l2.7-1l2.7-1l0.7-0.3l31.7,31l-1.4,3.3l-2.1,5.4
		l-2,5.4l-1.8,5.3l-1.7,5.3l-1.5,5.3l-1.4,5.3l-1.2,5.3l-1.1,5.3l-0.9,5.3l-0.8,5.3l-0.6,5.3l-0.5,5.3l-0.3,5.3l-0.2,5.3l0,5.3
		l0.1,5.3l0.3,5.3l0.4,5.3l0.5,5.3l0.7,5.3l0.8,5.2l1,5.2l1.1,5.2l1.2,5.2l1.4,5.2l1.5,5.2l1.6,5.2l1.8,5.2l1.9,5.2l2,5.2l1.6,3.7
		l-0.3,0.5l-1,1.8l-1,1.8l-1,1.8l-1,1.7l-1,1.7l-1,1.7l-1,1.7l-1,1.7l-1,1.6l-1.1,1.6l-1.1,1.6l-1.1,1.6l-1.1,1.5l-1.1,1.5l-1.1,1.5
		l-1.2,1.5l-1.2,1.4l-1.2,1.4l-1.2,1.4l-1.2,1.4l-1.2,1.3l-1.3,1.3l-1.3,1.3l-1.3,1.3l-1.3,1.2l-1.4,1.2l-1.4,1.2l-1.4,1.2l-1.4,1.1
		l-1.5,1.1l-1.5,1.1l-1.8,1.3l-1.8,1.2l-1.8,1.2l-1.8,1.1l-1.8,1.1l-1.8,1.1l-1.8,1l-1.8,1l-1.8,0.9l-1.8,0.9l-1.8,0.9l-1.8,0.8
		l-1.8,0.8l-1.8,0.8l-1.8,0.7l-1.8,0.7l-1.8,0.7l-1.8,0.6l-1.9,0.6l-1.9,0.6l-1.9,0.5l-1.9,0.5L187,273l-1.9,0.4l-2,0.4l-2,0.4
		l-2,0.4l-2,0.3l-2.1,0.3l-2.1,0.3l-2.1,0.3l-2.2,0.3l-2.1,0.3l-2,0.4l-1.9,0.5l-1.9,0.6l-1.7,0.6l-1.6,0.7l-1.5,0.7l-1.4,0.8
		l-1.3,0.8l-1.2,0.8l-1.1,0.9l-0.6,0.5l-0.6-0.5l-1.1-0.9l-1.2-0.8l-1.3-0.8l-1.4-0.8l-1.5-0.7l-1.6-0.7l-1.7-0.6l-1.8-0.6l-1.9-0.5
		l-2-0.4l-2.1-0.3l-2.2-0.3l-2.1-0.3l-2.1-0.3L123,275z"/>
</g>
</svg>
