<?xml version="1.0" encoding="UTF-8" standalone="no"?>
<svg
   xmlns:dc="http://purl.org/dc/elements/1.1/"
   xmlns:cc="http://creativecommons.org/ns#"
   xmlns:rdf="http://www.w3.org/1999/02/22-rdf-syntax-ns#"
   xmlns:svg="http://www.w3.org/2000/svg"
   xmlns="http://www.w3.org/2000/svg"
   xmlns:sodipodi="http://sodipodi.sourceforge.net/DTD/sodipodi-0.dtd"
   xmlns:inkscape="http://www.inkscape.org/namespaces/inkscape"
   version="1.1"
   id="svg2"
   xml:space="preserve"
   width="400"
   height="400"
   viewBox="0 0 400 400"
   sodipodi:docname="napredak.ai"><metadata
     id="metadata8"><rdf:RDF><cc:Work
         rdf:about=""><dc:format>image/svg+xml</dc:format><dc:type
           rdf:resource="http://purl.org/dc/dcmitype/StillImage" /></cc:Work></rdf:RDF></metadata><defs
     id="defs6"><clipPath
       clipPathUnits="userSpaceOnUse"
       id="clipPath26"><path
         d="M 0,300 H 300 V 0 H 0 Z"
         id="path24" /></clipPath><clipPath
       clipPathUnits="userSpaceOnUse"
       id="clipPath54"><path
         d="m 123.94,189.774 c -2.718,-1.448 -5.263,-3.096 -7.636,-4.911 v 0 c -9.362,-7.157 -15.952,-16.945 -19.261,-27.727 v 0 c -2.891,-9.437 -3.259,-19.644 -0.76,-29.525 v 0 c 1.073,-4.229 2.673,-8.405 4.825,-12.433 v 0 c 7.149,-13.37 19.017,-22.53 32.438,-26.6 v 0 c 10.787,-3.268 22.579,-3.244 33.731,0.536 v 0 c 2.898,0.99 5.754,2.225 8.541,3.723 v 0 c 13.34,7.187 22.576,19.091 26.691,32.562 v 0 c 4.116,13.473 3.106,28.507 -4.077,41.931 v 0 c -2.111,3.948 -4.636,7.528 -7.496,10.727 v 0 c -6.793,7.59 -15.46,12.98 -24.9,15.846 v 0 c -5.19,1.577 -10.616,2.391 -16.092,2.391 v 0 c -8.794,0 -17.718,-2.101 -26.004,-6.52"
         id="path52" /></clipPath><clipPath
       clipPathUnits="userSpaceOnUse"
       id="clipPath86"><path
         d="M 0,300 H 300 V 0 H 0 Z"
         id="path84" /></clipPath></defs><sodipodi:namedview
     pagecolor="#ffffff"
     bordercolor="#666666"
     borderopacity="1"
     objecttolerance="10"
     gridtolerance="10"
     guidetolerance="10"
     inkscape:pageopacity="0"
     inkscape:pageshadow="2"
     inkscape:window-width="640"
     inkscape:window-height="480"
     id="namedview4" /><g
     id="g10"
     inkscape:groupmode="layer"
     inkscape:label="napredak"
     transform="matrix(1.3333333,0,0,-1.3333333,0,400)"><g
       id="g12"
       transform="translate(197.4551,292.7017)"><path
         d="m 0,0 -7.427,-27.707 h -5.196 l 7.046,27.166 z"
         style="fill:#d2b753;fill-opacity:1;fill-rule:nonzero;stroke:none"
         id="path14" /></g><g
       id="g16"
       transform="translate(112.1255,264.7285)"><path
         d="M 0,0 -6.901,27.433 -0.838,26.801 5.311,-0.028 Z"
         style="fill:#d2b753;fill-opacity:1;fill-rule:nonzero;stroke:none"
         id="path18" /></g><g
       id="g20"><g
         id="g22"
         clip-path="url(#clipPath26)"><g
           id="g28"
           transform="translate(216.4658,286.9014)"><path
             d="m 0,0 c -0.105,0.297 -0.32,0.592 -0.637,0.884 -0.315,0.293 -0.739,0.584 -1.267,0.87 -0.531,0.288 -1.164,0.572 -1.9,0.847 -0.192,0.07 -0.388,0.143 -0.594,0.214 -0.206,0.07 -0.416,0.142 -0.635,0.211 -0.221,0.072 -0.447,0.142 -0.678,0.212 -0.235,0.069 -0.476,0.137 -0.72,0.207 -0.192,0.053 -0.387,0.106 -0.586,0.159 -0.198,0.051 -0.402,0.103 -0.61,0.155 -0.206,0.053 -0.416,0.106 -0.635,0.158 -0.214,0.051 -0.433,0.103 -0.656,0.152 -0.193,0.047 -0.389,0.088 -0.587,0.132 -0.2,0.044 -0.4,0.087 -0.61,0.131 -0.2,0.042 -0.412,0.085 -0.62,0.128 -0.212,0.042 -0.426,0.083 -0.645,0.126 -0.198,0.039 -0.395,0.076 -0.599,0.114 -0.205,0.039 -0.409,0.077 -0.619,0.115 -0.208,0.039 -0.418,0.075 -0.631,0.113 -0.216,0.035 -0.429,0.074 -0.644,0.109 -0.207,0.035 -0.412,0.07 -0.62,0.102 -0.213,0.035 -0.421,0.068 -0.635,0.101 -0.216,0.036 -0.426,0.07 -0.644,0.103 -0.215,0.031 -0.438,0.065 -0.66,0.098 -0.206,0.031 -0.417,0.061 -0.626,0.093 -0.213,0.029 -0.424,0.059 -0.64,0.087 -0.216,0.033 -0.432,0.062 -0.65,0.091 -0.218,0.03 -0.44,0.059 -0.663,0.088 l -7.426,-27.706 c 0.189,-0.017 0.377,-0.027 0.566,-0.041 0.188,-0.014 0.372,-0.031 0.554,-0.043 0.188,-0.015 0.371,-0.03 0.55,-0.044 0.184,-0.014 0.36,-0.029 0.538,-0.044 0.194,-0.015 0.382,-0.032 0.567,-0.048 0.187,-0.016 0.371,-0.031 0.558,-0.047 0.181,-0.016 0.359,-0.033 0.541,-0.049 0.182,-0.016 0.361,-0.03 0.535,-0.052 0.189,-0.016 0.371,-0.033 0.555,-0.052 0.187,-0.015 0.369,-0.036 0.548,-0.056 0.181,-0.015 0.359,-0.033 0.535,-0.052 0.173,-0.019 0.347,-0.036 0.52,-0.056 0.188,-0.02 0.372,-0.04 0.556,-0.059 0.183,-0.022 0.364,-0.044 0.542,-0.064 0.177,-0.021 0.353,-0.041 0.526,-0.062 0.176,-0.024 0.343,-0.043 0.514,-0.065 0.194,-0.023 0.385,-0.048 0.573,-0.073 0.189,-0.024 0.375,-0.051 0.557,-0.076 0.18,-0.025 0.356,-0.051 0.534,-0.077 0.172,-0.023 0.344,-0.05 0.514,-0.076 0.216,-0.034 0.428,-0.068 0.634,-0.1 0.207,-0.036 0.404,-0.068 0.597,-0.104 0.195,-0.031 0.385,-0.068 0.565,-0.101 0.185,-0.035 0.362,-0.071 0.532,-0.106 0.661,-0.133 1.235,-0.274 1.723,-0.413 0.482,-0.137 0.882,-0.28 1.188,-0.426 0.306,-0.143 0.526,-0.285 0.652,-0.433 0.132,-0.149 0.166,-0.295 0.114,-0.445 L 0,-0.897 c 0.104,0.3 0.103,0.6 0,0.897 m -43.707,7.749 c -0.258,0.011 -0.516,0.022 -0.778,0.031 -0.259,0.012 -0.521,0.02 -0.781,0.029 -0.246,0.009 -0.494,0.019 -0.74,0.027 -0.248,0.009 -0.498,0.017 -0.743,0.025 -0.249,0.008 -0.498,0.017 -0.745,0.024 -0.256,0.008 -0.502,0.016 -0.754,0.022 -0.246,0.008 -0.49,0.016 -0.739,0.021 -0.247,0.007 -0.495,0.014 -0.742,0.019 -0.249,0.008 -0.495,0.014 -0.747,0.021 -0.248,0.006 -0.5,0.011 -0.751,0.016 -0.235,0.006 -0.467,0.01 -0.704,0.015 -0.236,0.005 -0.471,0.01 -0.706,0.015 -0.238,0.005 -0.477,0.007 -0.716,0.011 -0.234,0.006 -0.473,0.009 -0.71,0.014 -0.24,0.004 -0.475,0.006 -0.716,0.011 -0.24,0.004 -0.48,0.006 -0.72,0.009 -0.237,0.005 -0.48,0.006 -0.722,0.01 -0.238,0.003 -0.478,0.005 -0.722,0.006 -0.237,0.002 -0.478,0.005 -0.716,0.007 -0.239,0.003 -0.481,0.005 -0.72,0.007 -0.24,0 -0.48,0.002 -0.721,0.004 -0.239,10e-4 -0.479,10e-4 -0.72,0.003 -0.243,0 -0.488,0.003 -0.727,0.003 h -0.73 -0.731 -0.727 -0.046 -0.048 -0.041 -0.046 c -0.266,0 -0.536,-0.003 -0.806,-0.005 -0.268,0 -0.538,-10e-4 -0.809,-0.003 -0.267,-0.002 -0.534,-0.002 -0.803,-0.004 -0.268,-0.003 -0.536,-0.006 -0.802,-0.007 -0.302,-0.005 -0.602,-0.006 -0.906,-0.01 -0.302,-0.005 -0.602,-0.006 -0.898,-0.011 -0.303,-0.003 -0.604,-0.007 -0.903,-0.011 -0.299,-0.005 -0.598,-0.011 -0.894,-0.016 -0.484,-0.008 -0.967,-0.015 -1.444,-0.026 -0.48,-0.008 -0.958,-0.017 -1.432,-0.027 -0.478,-0.013 -0.954,-0.024 -1.43,-0.035 -0.473,-0.014 -0.944,-0.026 -1.416,-0.039 -0.617,-0.017 -1.226,-0.037 -1.84,-0.056 -0.609,-0.021 -1.219,-0.04 -1.825,-0.062 -0.604,-0.022 -1.207,-0.047 -1.809,-0.072 -0.595,-0.022 -1.191,-0.049 -1.785,-0.074 -0.591,-0.025 -1.18,-0.055 -1.766,-0.082 -0.589,-0.029 -1.168,-0.057 -1.75,-0.087 -0.579,-0.032 -1.151,-0.061 -1.725,-0.095 -0.57,-0.033 -1.139,-0.066 -1.704,-0.1 l 3.646,-28.483 c 0.476,0.016 0.955,0.033 1.436,0.049 0.485,0.018 0.969,0.031 1.459,0.047 0.487,0.012 0.979,0.028 1.47,0.041 0.494,0.015 0.993,0.028 1.489,0.04 0.499,0.012 1.001,0.023 1.504,0.036 0.506,0.012 1.013,0.024 1.519,0.032 0.511,0.012 1.023,0.02 1.537,0.032 0.512,0.008 1.03,0.017 1.548,0.025 0.397,0.006 0.793,0.014 1.192,0.019 0.395,0.007 0.797,0.012 1.198,0.017 0.4,0.003 0.803,0.011 1.204,0.013 0.402,0.006 0.806,0.009 1.213,0.014 0.249,0.001 0.501,0.005 0.752,0.006 0.252,0.002 0.504,0.002 0.756,0.005 0.252,0.005 0.504,0.005 0.758,0.005 0.252,0.003 0.505,0.003 0.757,0.003 0.227,0.003 0.449,0.005 0.675,0.005 0.226,0.002 0.452,0.002 0.674,0.004 h 0.681 c 0.227,0 0.451,10e-4 0.679,10e-4 h 0.035 0.038 0.036 0.035 c 0.209,0.003 0.412,0.003 0.618,0.003 h 0.612 c 0.206,0 0.407,0 0.615,-0.003 0.202,0 0.401,0 0.608,-10e-4 h 0.607 c 0.201,0 0.405,0 0.607,-0.002 0.199,0 0.401,-0.002 0.604,-0.002 0.198,-0.002 0.4,-0.002 0.602,-0.005 0.199,0 0.403,0 0.606,-0.003 0.2,0 0.407,0 0.606,-0.002 0.2,-0.003 0.401,-0.006 0.604,-0.006 0.201,0 0.399,-0.003 0.6,-0.003 0.2,-0.004 0.401,-0.005 0.601,-0.01 0.202,0 0.4,-0.001 0.598,-0.003 0.197,-0.004 0.4,-0.004 0.595,-0.006 0.199,-0.002 0.396,-0.006 0.595,-0.01 0.208,-0.003 0.42,-0.003 0.628,-0.008 0.208,0 0.418,-0.005 0.628,-0.008 0.209,-0.002 0.415,-0.009 0.625,-0.009 0.205,-0.003 0.415,-0.008 0.619,-0.009 0.214,-0.005 0.423,-0.009 0.634,-0.011 0.21,-0.004 0.422,-0.007 0.628,-0.011 0.212,-0.004 0.417,-0.008 0.626,-0.012 0.208,-0.004 0.417,-0.008 0.619,-0.013 0.223,-0.003 0.443,-0.009 0.661,-0.015 0.22,-0.005 0.438,-0.008 0.657,-0.012 0.218,-0.005 0.435,-0.013 0.649,-0.016 0.216,-0.006 0.433,-0.01 0.647,-0.017 l 3.906,28.692 c -0.258,0.01 -0.513,0.023 -0.771,0.033 -0.252,0.01 -0.511,0.02 -0.769,0.03 m -68.394,-2.605 c -0.286,-0.04 -0.566,-0.08 -0.849,-0.12 -0.276,-0.04 -0.556,-0.081 -0.828,-0.122 -0.272,-0.039 -0.539,-0.08 -0.812,-0.12 -0.252,-0.039 -0.496,-0.078 -0.744,-0.116 -0.249,-0.04 -0.488,-0.079 -0.732,-0.116 -0.241,-0.041 -0.48,-0.081 -0.716,-0.119 -0.236,-0.04 -0.472,-0.078 -0.703,-0.119 -0.218,-0.038 -0.433,-0.075 -0.65,-0.113 -0.215,-0.038 -0.428,-0.076 -0.639,-0.115 -0.205,-0.037 -0.417,-0.078 -0.62,-0.116 -0.209,-0.038 -0.409,-0.078 -0.613,-0.116 -0.188,-0.036 -0.372,-0.073 -0.556,-0.108 -0.179,-0.037 -0.364,-0.075 -0.544,-0.11 -0.18,-0.038 -0.355,-0.074 -0.531,-0.111 -0.177,-0.038 -0.349,-0.074 -0.525,-0.11 -0.164,-0.038 -0.328,-0.073 -0.492,-0.108 -0.165,-0.037 -0.324,-0.073 -0.485,-0.108 -0.155,-0.04 -0.315,-0.074 -0.471,-0.113 -0.156,-0.035 -0.308,-0.073 -0.461,-0.109 -0.147,-0.035 -0.295,-0.072 -0.439,-0.108 -0.148,-0.036 -0.289,-0.071 -0.428,-0.108 -0.144,-0.036 -0.28,-0.071 -0.42,-0.109 -0.141,-0.037 -0.276,-0.073 -0.407,-0.109 -0.13,-0.035 -0.261,-0.07 -0.385,-0.106 -0.129,-0.035 -0.252,-0.071 -0.376,-0.107 -0.125,-0.035 -0.248,-0.071 -0.364,-0.107 -0.121,-0.036 -0.24,-0.072 -0.356,-0.107 -0.117,-0.034 -0.232,-0.071 -0.34,-0.107 -0.116,-0.035 -0.229,-0.07 -0.337,-0.107 -0.112,-0.036 -0.22,-0.072 -0.324,-0.108 -0.107,-0.036 -0.212,-0.071 -0.315,-0.107 -0.105,-0.037 -0.205,-0.072 -0.304,-0.109 -0.096,-0.034 -0.196,-0.07 -0.292,-0.108 -0.098,-0.035 -0.192,-0.069 -0.285,-0.107 -0.091,-0.035 -0.184,-0.071 -0.272,-0.11 -0.092,-0.036 -0.181,-0.07 -0.264,-0.108 -0.088,-0.037 -0.172,-0.073 -0.26,-0.108 -0.08,-0.038 -0.164,-0.073 -0.244,-0.111 -0.079,-0.035 -0.159,-0.073 -0.24,-0.11 -0.072,-0.036 -0.148,-0.073 -0.224,-0.111 -0.072,-0.036 -0.149,-0.075 -0.219,-0.11 -0.07,-0.036 -0.138,-0.074 -0.206,-0.11 -0.067,-0.038 -0.134,-0.076 -0.2,-0.111 -0.067,-0.039 -0.131,-0.079 -0.193,-0.115 -0.061,-0.038 -0.126,-0.079 -0.187,-0.116 -0.055,-0.04 -0.116,-0.077 -0.171,-0.116 -0.057,-0.04 -0.112,-0.078 -0.163,-0.117 -0.056,-0.039 -0.106,-0.079 -0.157,-0.115 -0.05,-0.043 -0.099,-0.083 -0.146,-0.122 -0.045,-0.039 -0.091,-0.078 -0.136,-0.119 -0.038,-0.039 -0.079,-0.079 -0.122,-0.117 -0.038,-0.043 -0.077,-0.085 -0.113,-0.125 -0.038,-0.043 -0.072,-0.082 -0.106,-0.124 -0.034,-0.043 -0.064,-0.083 -0.092,-0.123 -0.028,-0.043 -0.056,-0.084 -0.081,-0.124 -0.027,-0.048 -0.051,-0.092 -0.072,-0.138 -0.022,-0.045 -0.043,-0.089 -0.061,-0.136 -0.021,-0.044 -0.032,-0.09 -0.044,-0.135 -0.015,-0.042 -0.021,-0.09 -0.033,-0.135 -0.007,-0.048 -0.013,-0.099 -0.015,-0.147 -0.005,-0.05 -0.005,-0.099 0,-0.148 0,-0.048 0.006,-0.099 0.015,-0.148 0.006,-0.049 0.018,-0.098 0.033,-0.147 0.001,-0.007 0.003,-0.016 0.006,-0.024 0.001,-0.006 0.006,-0.014 0.006,-0.022 0.005,-0.008 0.006,-0.014 0.009,-0.022 0.002,-0.006 0.002,-0.014 0.007,-0.022 l 9.374,-23.569 c 0,10e-4 0,0.005 -0.004,0.008 v 0.012 c -0.004,0.001 -0.004,0.004 -0.008,0.008 -0.003,0.026 -0.003,0.05 -0.003,0.075 -0.005,0.023 0,0.049 0,0.073 0.003,0.024 0.011,0.049 0.019,0.076 0.011,0.021 0.021,0.046 0.036,0.071 0.013,0.023 0.028,0.045 0.043,0.065 0.016,0.024 0.033,0.048 0.053,0.07 0.025,0.022 0.045,0.044 0.071,0.066 0.025,0.024 0.053,0.044 0.081,0.068 0.028,0.02 0.055,0.039 0.085,0.062 0.027,0.022 0.063,0.04 0.095,0.062 0.036,0.017 0.068,0.04 0.104,0.06 0.04,0.02 0.076,0.039 0.121,0.059 0.035,0.02 0.074,0.042 0.114,0.061 0.045,0.021 0.085,0.04 0.133,0.059 0.043,0.022 0.089,0.04 0.136,0.059 0.048,0.017 0.1,0.038 0.147,0.058 0.054,0.021 0.105,0.04 0.157,0.057 0.056,0.019 0.108,0.04 0.165,0.057 0.055,0.018 0.111,0.039 0.171,0.058 0.056,0.018 0.119,0.036 0.181,0.056 0.055,0.018 0.119,0.035 0.184,0.054 0.063,0.019 0.126,0.039 0.191,0.054 0.064,0.02 0.132,0.036 0.197,0.056 0.067,0.018 0.136,0.036 0.207,0.055 0.073,0.017 0.144,0.035 0.215,0.054 0.074,0.017 0.15,0.035 0.225,0.052 0.076,0.019 0.152,0.035 0.233,0.055 0.08,0.016 0.155,0.034 0.235,0.052 0.083,0.017 0.165,0.037 0.248,0.055 0.088,0.017 0.169,0.035 0.252,0.053 0.089,0.016 0.177,0.037 0.264,0.053 0.088,0.015 0.177,0.034 0.268,0.052 0.096,0.015 0.188,0.034 0.285,0.051 0.095,0.02 0.192,0.037 0.287,0.055 0.097,0.017 0.197,0.033 0.297,0.052 0.099,0.018 0.204,0.033 0.307,0.054 0.101,0.015 0.205,0.031 0.316,0.051 0.102,0.017 0.209,0.035 0.317,0.052 0.108,0.016 0.219,0.035 0.336,0.052 0.108,0.016 0.224,0.037 0.336,0.051 0.116,0.017 0.239,0.038 0.359,0.054 0.121,0.017 0.244,0.035 0.369,0.052 0.124,0.017 0.248,0.034 0.376,0.051 0.124,0.02 0.256,0.037 0.385,0.057 0.136,0.015 0.267,0.033 0.404,0.051 0.135,0.016 0.271,0.037 0.412,0.053 0.139,0.018 0.28,0.035 0.419,0.053 0.144,0.016 0.289,0.034 0.431,0.053 0.154,0.018 0.305,0.037 0.456,0.053 0.154,0.02 0.309,0.037 0.465,0.055 0.156,0.018 0.313,0.033 0.472,0.053 0.161,0.017 0.32,0.036 0.484,0.053 0.173,0.019 0.352,0.038 0.528,0.056 0.177,0.019 0.356,0.038 0.541,0.055 0.18,0.02 0.363,0.038 0.551,0.056 0.184,0.02 0.369,0.036 0.561,0.055 0.2,0.018 0.399,0.037 0.607,0.057 0.201,0.019 0.409,0.038 0.618,0.057 0.205,0.019 0.417,0.039 0.629,0.056 0.21,0.019 0.424,0.039 0.641,0.056 0.229,0.02 0.461,0.04 0.697,0.059 0.236,0.02 0.472,0.04 0.709,0.06 0.241,0.018 0.483,0.036 0.725,0.057 0.244,0.02 0.488,0.035 0.739,0.056 l -6.902,27.433 c -0.287,-0.039 -0.576,-0.077 -0.859,-0.116 m -11.914,-31.001 v 0.003 l 0.004,-0.016 c 0,0.003 0,0.008 -0.004,0.013"
             style="fill:#d2b753;fill-opacity:1;fill-rule:nonzero;stroke:none"
             id="path30" /></g><g
           id="g32"
           transform="translate(214.6201,228.6255)"><path
             d="M 0,0 C 0.05,0 0.107,0 0.157,-0.002 0.842,-0.005 1.374,-0.011 1.762,-0.014 1.825,-0.014 1.9,-0.016 1.96,-0.017 2.31,-0.022 2.5,-0.03 2.5,-0.034 2.359,14.105 2.222,18.584 2.082,32.724 c -0.002,0.09 -0.028,0.179 -0.07,0.266 -0.014,0.033 -0.046,0.067 -0.068,0.1 -0.028,0.048 -0.053,0.096 -0.098,0.144 -0.006,0.009 -0.021,0.014 -0.027,0.022 -0.035,0.038 -0.086,0.076 -0.13,0.114 -0.057,0.05 -0.117,0.1 -0.187,0.153 -0.052,0.035 -0.12,0.073 -0.181,0.109 -0.055,0.035 -0.103,0.07 -0.166,0.106 -0.029,0.016 -0.066,0.03 -0.097,0.044 -0.074,0.04 -0.161,0.08 -0.243,0.115 -0.097,0.048 -0.204,0.095 -0.314,0.141 -0.096,0.04 -0.201,0.08 -0.31,0.12 -0.063,0.024 -0.12,0.05 -0.189,0.074 -0.061,0.019 -0.127,0.04 -0.187,0.06 -0.12,0.04 -0.24,0.082 -0.363,0.118 -0.142,0.048 -0.291,0.09 -0.444,0.136 -0.138,0.038 -0.275,0.079 -0.423,0.116 -0.065,0.018 -0.124,0.034 -0.192,0.055 -0.17,0.041 -0.35,0.088 -0.532,0.132 -0.177,0.043 -0.368,0.085 -0.561,0.13 -0.195,0.043 -0.395,0.086 -0.597,0.13 -0.012,0 -0.022,0.006 -0.032,0.006 -0.014,0.003 -0.029,0.006 -0.042,0.007 -0.185,0.041 -0.37,0.076 -0.563,0.116 -0.17,0.033 -0.341,0.066 -0.515,0.098 -0.05,0.01 -0.096,0.019 -0.147,0.026 -0.014,0.005 -0.031,0.008 -0.047,0.008 -0.115,0.023 -0.228,0.045 -0.344,0.065 -0.184,0.031 -0.369,0.066 -0.56,0.096 -0.142,0.023 -0.288,0.05 -0.432,0.073 -0.02,0.005 -0.037,0.006 -0.056,0.008 -0.029,0.007 -0.058,0.01 -0.092,0.016 -0.17,0.026 -0.344,0.054 -0.52,0.082 -0.174,0.028 -0.352,0.055 -0.535,0.083 -0.103,0.013 -0.207,0.03 -0.313,0.045 -0.03,0.004 -0.058,0.008 -0.088,0.013 -0.052,0.006 -0.099,0.016 -0.15,0.023 -0.187,0.028 -0.376,0.055 -0.567,0.081 -0.174,0.024 -0.353,0.046 -0.532,0.071 -0.114,0.016 -0.228,0.03 -0.341,0.045 -0.007,0 -0.015,0.004 -0.018,0.004 -0.061,0.007 -0.122,0.017 -0.187,0.023 -0.182,0.025 -0.367,0.049 -0.556,0.073 -0.188,0.023 -0.378,0.047 -0.567,0.071 -0.135,0.017 -0.269,0.033 -0.405,0.047 -0.03,10e-4 -0.064,0.008 -0.094,0.011 -0.01,0.002 -0.016,0.002 -0.026,0.004 -0.173,0.02 -0.354,0.041 -0.532,0.063 -0.179,0.019 -0.358,0.039 -0.544,0.059 -0.182,0.022 -0.366,0.042 -0.551,0.063 -0.175,0.018 -0.357,0.038 -0.541,0.057 -0.182,0.019 -0.362,0.037 -0.55,0.056 -0.183,0.02 -0.368,0.041 -0.556,0.058 -0.186,0.018 -0.379,0.038 -0.566,0.056 -0.185,0.017 -0.368,0.037 -0.554,0.05 -0.184,0.021 -0.37,0.037 -0.557,0.055 -0.19,0.018 -0.379,0.034 -0.568,0.053 -0.189,0.017 -0.382,0.032 -0.576,0.05 -0.184,0.014 -0.369,0.03 -0.558,0.047 -0.184,0.016 -0.372,0.031 -0.562,0.047 -0.188,0.017 -0.38,0.033 -0.572,0.048 -0.192,0.016 -0.385,0.03 -0.58,0.044 -0.19,0.016 -0.381,0.031 -0.576,0.049 -0.192,0.012 -0.387,0.028 -0.585,0.042 -0.195,0.014 -0.391,0.029 -0.587,0.046 -0.198,0.012 -0.396,0.023 -0.596,0.042 -0.193,0.014 -0.388,0.026 -0.578,0.039 -0.197,0.015 -0.39,0.026 -0.586,0.038 -0.196,0.017 -0.397,0.029 -0.592,0.042 -0.18,0.012 -0.362,0.022 -0.542,0.035 -0.054,0.003 -0.104,0.008 -0.158,0.01 -0.164,0.009 -0.33,0.021 -0.498,0.031 -0.199,0.013 -0.403,0.022 -0.605,0.037 -0.202,0.014 -0.406,0.026 -0.61,0.038 -0.203,0.011 -0.409,0.023 -0.615,0.035 -0.056,0.003 -0.109,0.007 -0.165,0.01 -0.001,0 -0.005,0.003 -0.011,0.003 -0.139,0.003 -0.273,0.012 -0.417,0.019 -0.194,0.012 -0.392,0.024 -0.59,0.034 -0.198,0.01 -0.399,0.022 -0.598,0.033 -0.198,0.01 -0.4,0.022 -0.6,0.032 -0.204,0.011 -0.404,0.02 -0.604,0.034 -0.206,0.007 -0.41,0.018 -0.612,0.027 -0.204,0.01 -0.41,0.02 -0.616,0.03 -0.204,0.008 -0.412,0.018 -0.619,0.03 -0.186,0.008 -0.37,0.016 -0.554,0.025 -0.187,0.008 -0.369,0.018 -0.555,0.024 -0.188,0.007 -0.374,0.017 -0.56,0.026 -0.188,0.008 -0.378,0.016 -0.566,0.022 -0.183,0.008 -0.373,0.015 -0.559,0.024 -0.184,0.008 -0.372,0.014 -0.56,0.022 -0.187,0.009 -0.373,0.016 -0.562,0.022 -0.185,0.007 -0.379,0.015 -0.566,0.022 -0.168,0.005 -0.336,0.013 -0.502,0.018 -0.166,0.008 -0.338,0.013 -0.506,0.019 -0.168,0.006 -0.336,0.013 -0.51,0.016 -0.166,0.008 -0.335,0.013 -0.504,0.018 -0.15,0.007 -0.294,0.01 -0.442,0.017 -0.146,0.002 -0.295,0.01 -0.442,0.014 -0.146,0.004 -0.292,0.008 -0.445,0.012 -0.145,0.005 -0.292,0.01 -0.443,0.015 -0.146,0.005 -0.299,0.008 -0.444,0.012 -0.152,0.004 -0.3,0.012 -0.448,0.013 -0.153,0.005 -0.302,0.008 -0.455,0.013 h -0.003 c -0.058,0.003 -0.121,0.005 -0.176,0.007 -0.091,0 -0.178,0.003 -0.269,0.007 -0.139,0.003 -0.272,0.006 -0.404,0.011 -0.137,0.004 -0.272,0.005 -0.409,0.009 -0.134,0.005 -0.271,0.009 -0.409,0.012 -0.136,0.003 -0.272,0.004 -0.406,0.009 -0.108,0.003 -0.212,0.005 -0.319,0.008 -0.104,0.004 -0.208,0.006 -0.314,0.008 -0.107,0.004 -0.212,0.004 -0.317,0.007 -0.105,0.005 -0.212,0.005 -0.316,0.009 -0.106,0 -0.214,0.003 -0.321,0.006 -0.103,0.002 -0.211,0.003 -0.315,0.007 -0.108,0.002 -0.212,0.005 -0.322,0.007 -0.104,0.004 -0.213,0.004 -0.319,0.008 -0.107,0 -0.213,0.003 -0.321,0.003 -0.108,0.005 -0.216,0.005 -0.32,0.009 -0.11,0.001 -0.216,0.005 -0.323,0.006 -0.109,0.001 -0.217,0.003 -0.323,0.006 -0.11,0.001 -0.217,0.004 -0.326,0.006 -0.052,0 -0.108,10e-4 -0.162,10e-4 -0.07,0.003 -0.136,0.003 -0.205,0.005 -0.094,0 -0.186,10e-4 -0.28,0.003 -0.111,0.002 -0.217,0.004 -0.328,0.009 -0.085,0 -0.171,0.002 -0.259,0.003 -0.082,0 -0.17,0 -0.256,0.004 -0.086,0 -0.173,0 -0.261,0.005 -0.085,0 -0.171,0.002 -0.256,0.004 -0.075,0.001 -0.157,0.001 -0.238,0.004 -0.075,0 -0.153,0 -0.232,0.003 h -0.235 c -0.081,0.003 -0.159,0.004 -0.238,0.004 -0.08,0 -0.156,0 -0.237,0.005 -0.08,0 -0.16,10e-4 -0.238,0.004 h -0.059 -0.111 -0.066 c -0.079,0.004 -0.16,0.004 -0.237,0.004 -0.082,0.003 -0.159,0.003 -0.239,0.003 -0.08,0 -0.162,0 -0.236,0.002 -0.082,0.003 -0.16,0.003 -0.239,0.005 -0.082,0 -0.16,0.002 -0.242,0.002 -0.079,0 -0.157,0 -0.237,0.002 -0.08,0 -0.158,10e-4 -0.24,10e-4 -0.082,0.003 -0.159,0.004 -0.241,0.004 h -0.241 c -0.078,0 -0.158,0 -0.24,0.002 -0.081,0.002 -0.16,0.002 -0.24,0.002 -0.082,0 -0.16,0.003 -0.24,0.003 -0.08,0.002 -0.159,0.002 -0.241,0.002 h -0.043 c -0.03,0.002 -0.058,0.002 -0.088,0.002 -0.034,0 -0.068,10e-4 -0.1,10e-4 h -0.23 c -0.078,0 -0.155,0.004 -0.232,0.005 h -0.228 c -0.07,0 -0.138,0 -0.208,0.002 -0.07,0 -0.136,10e-4 -0.205,10e-4 h -0.209 -0.208 c -0.067,0 -0.134,0.003 -0.206,0.003 -0.069,0 -0.138,0.002 -0.207,0.002 h -0.206 -0.209 -0.209 c -0.068,0 -0.137,10e-4 -0.208,10e-4 h -0.208 c -0.068,0 -0.14,0 -0.208,0.003 h -0.085 -0.143 c -0.061,0.002 -0.127,0.002 -0.191,0.002 h -0.207 -0.212 -0.207 c -0.071,0.002 -0.14,0.002 -0.212,0.002 h -0.211 -0.207 -0.212 -0.207 -0.211 -0.214 -0.211 -0.21 -0.214 -0.21 -0.046 c -0.015,0 -0.032,-0.002 -0.048,-0.002 h -0.046 -0.046 -0.19 -0.183 -0.191 c -0.06,0 -0.122,0 -0.183,-0.002 -0.082,0 -0.163,0 -0.243,-0.003 h -0.238 -0.242 c -0.08,-10e-4 -0.161,-10e-4 -0.24,-10e-4 h -0.24 -0.238 c -0.08,0 -0.16,-0.002 -0.24,-0.002 -0.08,0 -0.158,-0.003 -0.238,-0.003 h -0.24 -0.238 c -0.083,-10e-4 -0.161,-0.003 -0.236,-0.003 h -0.242 c -0.033,0 -0.062,0 -0.095,-10e-4 -0.041,0 -0.082,-0.004 -0.128,-0.004 h -0.016 -0.237 c -0.081,0 -0.159,-10e-4 -0.241,-0.003 -0.075,0 -0.155,0 -0.238,-0.002 -0.076,0 -0.158,0 -0.236,-0.003 h -0.238 c -0.079,-0.002 -0.158,-0.002 -0.238,-0.004 h -0.235 c -0.091,0 -0.182,0 -0.272,-0.004 -0.091,0 -0.181,0 -0.271,-10e-4 -0.092,0 -0.183,-0.002 -0.271,-0.002 -0.093,0 -0.183,-0.002 -0.271,-0.004 -0.164,-0.003 -0.326,-0.005 -0.488,-0.005 -0.119,0 -0.231,-0.003 -0.35,-0.003 h -0.049 c -0.027,0 -0.057,-0.004 -0.089,-0.004 -0.164,0 -0.326,-0.003 -0.486,-0.004 -0.162,-0.005 -0.326,-0.005 -0.487,-0.009 -0.162,0 -0.324,-0.003 -0.485,-0.003 -0.16,-0.004 -0.322,-0.006 -0.482,-0.008 -0.164,-0.005 -0.324,-0.007 -0.486,-0.009 -0.159,-0.003 -0.322,-0.003 -0.48,-0.008 -0.16,-0.002 -0.322,-0.006 -0.482,-0.007 -0.16,-0.002 -0.32,-0.006 -0.48,-0.008 -0.161,-0.004 -0.32,-0.007 -0.478,-0.009 -0.16,-0.002 -0.32,-0.006 -0.481,-0.011 h -0.128 c -0.043,0 -0.088,0 -0.129,-0.005 -0.047,0 -0.088,0 -0.131,-0.002 -0.043,-0.001 -0.083,-0.001 -0.128,-0.001 -0.399,-0.008 -0.799,-0.017 -1.195,-0.025 -0.145,-0.003 -0.281,-0.007 -0.418,-0.007 -0.14,-0.006 -0.27,-0.008 -0.407,-0.012 -0.124,-0.002 -0.246,-0.004 -0.369,-0.008 -0.393,-0.008 -0.786,-0.017 -1.181,-0.029 -0.392,-0.007 -0.786,-0.017 -1.176,-0.029 -0.134,-0.005 -0.267,-0.01 -0.398,-0.011 -0.128,-0.004 -0.255,-0.007 -0.384,-0.012 -0.057,0 -0.11,-0.004 -0.164,-0.004 -0.158,-0.004 -0.314,-0.008 -0.47,-0.013 -0.159,-0.004 -0.317,-0.008 -0.472,-0.014 -0.099,-0.002 -0.2,-0.004 -0.299,-0.008 -0.097,-0.003 -0.197,-0.006 -0.298,-0.008 -0.097,-0.004 -0.197,-0.007 -0.295,-0.011 -0.098,-0.003 -0.199,-0.005 -0.298,-0.01 -0.098,-0.003 -0.197,-0.003 -0.296,-0.01 -0.099,-10e-4 -0.196,-0.005 -0.292,-0.007 -0.101,-0.003 -0.195,-0.006 -0.293,-0.011 -0.064,-0.002 -0.128,-0.003 -0.194,-0.003 -0.035,-0.003 -0.072,-0.003 -0.108,-0.003 v -0.004 0.004 c -0.096,-0.006 -0.194,-0.01 -0.292,-0.013 -0.098,-0.003 -0.193,-0.004 -0.292,-0.008 -0.102,-0.004 -0.194,-0.008 -0.293,-0.013 -0.099,-0.002 -0.197,-0.005 -0.292,-0.008 -0.101,-0.003 -0.195,-0.008 -0.291,-0.012 -0.097,-0.001 -0.193,-0.005 -0.292,-0.008 -0.094,-0.005 -0.193,-0.01 -0.289,-0.012 -0.097,-0.004 -0.194,-0.008 -0.289,-0.011 -0.081,-0.003 -0.16,-0.006 -0.239,-0.009 -0.082,-10e-4 -0.16,-0.006 -0.239,-0.008 -0.08,-0.003 -0.157,-0.008 -0.236,-0.01 -0.08,-0.001 -0.158,-0.006 -0.238,-0.01 -0.076,-0.003 -0.152,-0.003 -0.229,-0.007 -0.075,-0.003 -0.15,-0.004 -0.222,-0.008 -0.077,-0.005 -0.156,-0.006 -0.228,-0.009 -0.077,-0.004 -0.153,-0.007 -0.228,-0.011 -0.077,0 -0.151,-0.005 -0.227,-0.008 -0.073,-0.003 -0.151,-0.005 -0.222,-0.008 -0.078,-0.005 -0.152,-0.007 -0.228,-0.011 -0.076,-10e-4 -0.149,-0.006 -0.225,-0.007 -0.072,-0.006 -0.151,-0.009 -0.223,-0.01 -0.077,-0.005 -0.151,-0.008 -0.224,-0.01 -0.076,-0.002 -0.148,-0.007 -0.224,-0.011 -0.076,-0.002 -0.148,-0.004 -0.227,-0.007 -0.071,-0.005 -0.146,-0.006 -0.219,-0.012 -0.074,-0.002 -0.151,-0.005 -0.223,-0.008 -0.074,-0.004 -0.147,-0.009 -0.223,-0.009 -0.071,-0.003 -0.146,-0.007 -0.218,-0.011 -0.079,-0.005 -0.149,-0.009 -0.223,-0.009 -0.073,-0.003 -0.146,-0.008 -0.219,-0.012 -0.073,-0.004 -0.15,-0.007 -0.223,-0.009 -0.069,-0.003 -0.146,-0.007 -0.22,-0.01 -0.078,-0.005 -0.155,-0.008 -0.236,-0.01 -0.076,-0.002 -0.155,-0.011 -0.233,-0.012 -0.078,-0.004 -0.158,-0.006 -0.234,-0.01 -0.083,-0.005 -0.159,-0.008 -0.237,-0.013 -0.086,-0.003 -0.165,-0.008 -0.246,-0.011 -0.081,-0.005 -0.164,-0.009 -0.247,-0.012 -0.081,-0.005 -0.16,-0.008 -0.243,-0.012 -0.08,-0.004 -0.162,-0.009 -0.246,-0.012 -0.08,-0.004 -0.162,-0.009 -0.24,-0.012 -0.081,-0.005 -0.163,-0.009 -0.244,-0.012 -0.082,-0.005 -0.164,-0.009 -0.244,-0.012 -0.08,-0.005 -0.157,-0.008 -0.242,-0.013 -0.08,-0.004 -0.16,-0.01 -0.24,-0.011 -0.078,-0.004 -0.162,-0.011 -0.24,-0.012 -0.078,-0.006 -0.16,-0.01 -0.238,-0.015 -0.08,-0.005 -0.162,-0.007 -0.24,-0.013 -0.08,-0.005 -0.162,-0.006 -0.241,-0.012 -0.076,-0.004 -0.156,-0.008 -0.235,-0.011 -0.08,-0.006 -0.16,-0.009 -0.238,-0.015 -0.082,-0.003 -0.158,-0.008 -0.238,-0.012 -0.081,-0.007 -0.16,-0.01 -0.244,-0.015 -0.082,-0.003 -0.162,-0.008 -0.242,-0.014 -0.081,-0.003 -0.164,-0.005 -0.242,-0.014 -0.083,-0.004 -0.164,-0.007 -0.244,-0.012 -0.109,-0.007 -0.218,-0.012 -0.326,-0.02 -0.113,-0.003 -0.221,-0.011 -0.329,-0.019 -0.109,-0.005 -0.217,-0.012 -0.327,-0.017 -0.109,-0.007 -0.214,-0.015 -0.323,-0.02 -0.109,-0.007 -0.215,-0.013 -0.323,-0.022 -0.108,-0.004 -0.214,-0.012 -0.323,-0.017 -0.11,-0.008 -0.214,-0.016 -0.322,-0.021 -0.108,-0.008 -0.209,-0.013 -0.32,-0.02 -0.106,-0.008 -0.207,-0.011 -0.319,-0.02 -0.102,-0.008 -0.209,-0.014 -0.315,-0.02 -0.103,-0.008 -0.208,-0.011 -0.316,-0.019 -0.106,-0.009 -0.208,-0.012 -0.314,-0.02 -0.112,-0.009 -0.224,-0.017 -0.338,-0.024 -0.112,-0.009 -0.224,-0.014 -0.336,-0.023 -0.11,-0.005 -0.223,-0.014 -0.334,-0.021 -0.111,-0.008 -0.224,-0.015 -0.334,-0.025 -0.153,-0.008 -0.312,-0.02 -0.468,-0.032 -0.156,-0.01 -0.312,-0.02 -0.465,-0.032 -0.157,-0.012 -0.311,-0.022 -0.464,-0.031 -0.154,-0.012 -0.307,-0.025 -0.458,-0.034 -0.153,-0.011 -0.303,-0.022 -0.456,-0.034 -0.151,-0.012 -0.302,-0.021 -0.451,-0.033 -0.053,-0.005 -0.106,-0.01 -0.161,-0.012 -0.096,-0.008 -0.193,-0.016 -0.29,-0.022 -0.149,-0.012 -0.298,-0.025 -0.448,-0.036 -0.182,-0.015 -0.359,-0.027 -0.539,-0.044 -0.184,-0.014 -0.362,-0.027 -0.541,-0.042 -0.18,-0.016 -0.357,-0.029 -0.534,-0.044 -0.177,-0.015 -0.354,-0.028 -0.53,-0.043 -0.197,-0.019 -0.398,-0.036 -0.594,-0.053 -0.197,-0.015 -0.395,-0.032 -0.588,-0.048 -0.196,-0.02 -0.391,-0.036 -0.584,-0.052 -0.192,-0.017 -0.384,-0.035 -0.576,-0.053 -0.213,-0.019 -0.416,-0.042 -0.628,-0.059 -0.208,-0.019 -0.412,-0.04 -0.616,-0.059 -0.209,-0.021 -0.412,-0.038 -0.612,-0.059 -0.204,-0.017 -0.4,-0.04 -0.604,-0.06 -0.203,-0.022 -0.409,-0.042 -0.612,-0.062 -0.204,-0.021 -0.404,-0.044 -0.604,-0.064 -0.2,-0.019 -0.397,-0.042 -0.592,-0.063 -0.157,-0.017 -0.309,-0.033 -0.461,-0.052 -0.019,0 -0.036,0 -0.052,-0.005 -0.023,-10e-4 -0.051,-0.004 -0.075,-0.007 -0.193,-0.023 -0.381,-0.042 -0.565,-0.065 -0.187,-0.019 -0.376,-0.04 -0.56,-0.064 -0.183,-0.02 -0.364,-0.044 -0.548,-0.064 -0.184,-0.022 -0.363,-0.045 -0.539,-0.067 -0.173,-0.019 -0.345,-0.041 -0.517,-0.063 -0.167,-0.022 -0.34,-0.043 -0.504,-0.066 -0.172,-0.02 -0.337,-0.04 -0.5,-0.062 -0.1,-0.012 -0.204,-0.026 -0.304,-0.042 h -0.02 c -0.057,-0.008 -0.113,-0.016 -0.164,-0.024 -0.156,-0.019 -0.312,-0.042 -0.468,-0.064 -0.153,-0.018 -0.303,-0.04 -0.456,-0.063 -0.148,-0.021 -0.3,-0.04 -0.444,-0.063 -0.149,-0.022 -0.296,-0.044 -0.441,-0.066 -0.14,-0.019 -0.28,-0.04 -0.416,-0.064 -0.138,-0.02 -0.271,-0.04 -0.407,-0.059 -0.133,-0.02 -0.264,-0.04 -0.399,-0.063 -0.125,-0.022 -0.249,-0.042 -0.369,-0.062 -0.04,-0.004 -0.076,-0.011 -0.112,-0.016 -0.096,-0.018 -0.193,-0.032 -0.289,-0.049 -0.123,-0.019 -0.247,-0.041 -0.368,-0.061 -0.123,-0.021 -0.239,-0.041 -0.363,-0.065 -0.121,-0.021 -0.24,-0.041 -0.352,-0.063 -0.053,-0.008 -0.093,-0.018 -0.14,-0.025 -0.02,-0.004 -0.04,-0.008 -0.06,-0.011 -0.045,-0.008 -0.092,-0.018 -0.14,-0.027 -0.113,-0.019 -0.221,-0.039 -0.329,-0.059 -0.108,-0.02 -0.219,-0.043 -0.32,-0.065 -0.107,-0.019 -0.212,-0.038 -0.315,-0.059 -0.105,-0.02 -0.208,-0.044 -0.309,-0.062 -0.1,-0.021 -0.2,-0.041 -0.296,-0.061 -0.101,-0.023 -0.2,-0.045 -0.292,-0.065 -0.1,-0.022 -0.191,-0.04 -0.284,-0.062 -0.092,-0.023 -0.184,-0.042 -0.277,-0.064 -0.055,-0.015 -0.115,-0.027 -0.175,-0.04 0,-0.001 -0.008,-0.001 -0.008,-0.001 h -0.005 c -0.023,-0.009 -0.051,-0.012 -0.076,-0.02 -0.091,-0.021 -0.175,-0.045 -0.263,-0.062 -0.08,-0.021 -0.168,-0.043 -0.252,-0.063 -0.08,-0.02 -0.163,-0.043 -0.24,-0.064 -0.084,-0.02 -0.165,-0.04 -0.244,-0.06 -0.076,-0.025 -0.152,-0.044 -0.228,-0.063 -0.076,-0.021 -0.153,-0.043 -0.224,-0.065 -0.076,-0.02 -0.147,-0.039 -0.215,-0.064 -0.077,-0.02 -0.145,-0.042 -0.213,-0.064 -0.056,-0.014 -0.101,-0.03 -0.152,-0.046 -0.004,0 -0.004,-10e-4 -0.004,-10e-4 -0.019,-0.005 -0.033,-0.012 -0.049,-0.017 -0.068,-0.02 -0.131,-0.04 -0.196,-0.063 -0.068,-0.021 -0.131,-0.043 -0.192,-0.065 -0.064,-0.02 -0.124,-0.044 -0.184,-0.064 -0.059,-0.022 -0.119,-0.043 -0.174,-0.066 -0.01,-0.004 -0.02,-0.006 -0.029,-0.011 -0.011,-0.003 -0.025,-0.009 -0.036,-0.013 -0.035,-0.014 -0.071,-0.027 -0.103,-0.04 -0.059,-0.021 -0.114,-0.046 -0.166,-0.066 -0.056,-0.025 -0.107,-0.046 -0.159,-0.068 -0.051,-0.025 -0.101,-0.044 -0.149,-0.068 -0.032,-0.016 -0.063,-0.028 -0.092,-0.043 -0.006,-10e-4 -0.009,-0.003 -0.016,-0.005 -0.01,-0.006 -0.025,-0.015 -0.036,-0.018 -0.046,-0.023 -0.095,-0.045 -0.138,-0.07 -0.045,-0.022 -0.086,-0.047 -0.124,-0.068 -0.045,-0.024 -0.083,-0.047 -0.123,-0.068 -0.04,-0.022 -0.075,-0.046 -0.112,-0.068 -0.003,-0.005 -0.003,-0.005 -0.007,-0.007 -0.034,-0.021 -0.071,-0.044 -0.102,-0.065 -0.037,-0.024 -0.067,-0.052 -0.101,-0.072 -0.03,-0.026 -0.061,-0.05 -0.089,-0.075 -0.03,-0.023 -0.059,-0.049 -0.085,-0.071 -0.001,-0.002 -0.004,-0.007 -0.008,-0.01 -0.003,-0.002 -0.003,-0.004 -0.007,-0.007 -0.019,-0.02 -0.04,-0.039 -0.058,-0.061 -0.023,-0.024 -0.049,-0.05 -0.066,-0.076 -0.022,-0.024 -0.038,-0.049 -0.058,-0.077 -0.017,-0.023 -0.034,-0.049 -0.046,-0.075 -0.002,0 -0.002,-0.004 -0.002,-0.006 0,-0.002 -0.002,-0.002 -0.002,-0.007 -0.016,-0.019 -0.026,-0.043 -0.036,-0.063 -0.009,-0.028 -0.019,-0.054 -0.025,-0.081 -0.007,-0.026 -0.012,-0.051 -0.017,-0.078 -0.003,-0.026 -0.005,-0.05 -0.005,-0.078 -0.041,-13.84 -0.086,-18.023 -0.127,-31.861 0,0 0.031,0.003 0.068,0.006 h 0.018 0.02 c 0.045,0.004 0.108,0.006 0.188,0.006 h 0.035 c 0.027,0.002 0.055,0.002 0.08,0.002 0.042,0 0.09,0 0.14,0.004 h 0.054 0.113 c 0.026,0 0.056,0 0.084,0.004 h 0.057 0.09 0.129 c 0.01,0 0.021,0 0.032,0.002 0.047,0 0.086,0.002 0.135,0.002 h 0.113 0.113 0.068 c 0.04,0 0.084,0.001 0.129,0.001 0.053,0.002 0.11,0.002 0.163,0.006 0.057,0.001 0.112,0.001 0.171,0.001 h 0.177 0.083 0.182 c 0.037,0.002 0.073,0.002 0.108,0.002 0.056,0.002 0.121,0.002 0.177,0.002 h 0.032 0.196 c 0.056,0 0.12,0 0.18,0.001 h 0.064 c 0.059,0 0.123,0.002 0.187,0.002 0.073,0 0.149,0 0.225,0.004 h 0.232 c 0.071,0 0.153,0 0.232,10e-4 h 0.012 0.24 c 0.076,0 0.152,0 0.227,0.004 h 0.045 0.24 c 0.087,0.002 0.176,0.004 0.269,0.004 h 0.547 0.012 c 0.096,0.002 0.196,0.002 0.292,0.002 0.1,0 0.201,0.002 0.3,0.002 h 0.116 0.425 0.084 c 0.028,0 0.055,0 0.086,0.002 0.154,0 0.297,0.002 0.453,0.002 h 0.113 c 0.052,0 0.104,10e-4 0.156,10e-4 0.119,0 0.259,0.003 0.384,0.003 h 0.151 0.189 0.316 0.232 c 0.124,0.005 0.248,0.005 0.368,0.005 0.248,0.001 0.52,0.003 0.776,0.003 h 0.031 0.04 0.628 0.157 c 0.088,0.003 0.172,0.003 0.26,0.003 h 0.328 0.304 0.455 c 0.157,0.002 0.314,0.002 0.468,0.002 0.166,0.004 0.329,0.004 0.489,0.004 0.105,0.001 0.207,0.001 0.304,0.001 0.388,0.002 0.768,0.002 1.164,0.002 h 0.06 c 0.052,0 0.097,0 0.145,0.002 0.219,0 0.451,0.002 0.679,0.002 h 0.271 c 0.15,0 0.302,0 0.453,0.002 0.356,0 0.708,0.002 1.073,0.002 h 0.192 c 0.096,0.002 0.191,0.002 0.287,0.002 0.481,10e-4 0.957,10e-4 1.453,10e-4 h 0.079 0.105 c 0.3,0 0.616,0.004 0.924,0.005 h 0.188 0.256 c 0.212,0 0.416,0.002 0.631,0.002 h 0.369 c 0.096,0 0.196,0.002 0.296,0.002 h 0.8 0.064 c 0.196,0.004 0.392,0.004 0.593,0.004 h 0.397 0.956 0.312 0.538 c 0.184,0.002 0.366,0.002 0.55,0.002 0.148,0.002 0.297,0.002 0.447,0.002 0.152,0.002 0.3,0.002 0.452,0.002 0.151,0.002 0.302,0.002 0.452,0.002 h 0.326 c 0.734,0 1.47,0.002 2.222,0.002 h 0.108 0.168 c 0.275,0.002 0.558,0.002 0.838,0.002 h 0.01 0.012 0.534 0.087 0.115 c 0.12,0.002 0.234,0.002 0.354,0.002 h 0.168 0.224 0.183 0.235 c 0.095,0.002 0.184,0.002 0.272,0.002 h 0.096 0.28 c 0.108,0.002 0.221,0.002 0.329,0.002 h 0.002 c 0.2,0 0.4,0.002 0.6,0.002 h 0.054 0.064 0.485 0.02 0.246 0.179 0.182 0.132 0.236 0.207 0.081 0.191 c 0.035,0 0.072,0 0.107,10e-4 h 0.358 0.014 0.24 0.146 0.258 0.079 0.243 0.189 0.149 0.15 0.245 c 0.075,0.003 0.149,0.003 0.221,0.003 h 0.065 0.205 0.111 0.377 0.004 0.239 0.234 c 0.079,0.005 0.157,0.005 0.235,0.005 h 0.239 0.117 0.323 0.223 0.222 0.211 0.039 0.195 0.225 0.148 0.275 0.026 0.223 0.222 c 0.059,0 0.121,0 0.179,0.001 h 0.187 0.087 0.229 0.115 0.408 0.155 0.228 0.229 c 0.075,0.002 0.153,0.002 0.227,0.002 h 0.241 0.238 0.158 0.31 0.01 0.29 0.29 0.266 0.092 0.228 0.102 c 0.206,0.002 0.41,0.002 0.617,0.002 h 0.165 0.295 c 0.068,0 0.136,0 0.207,0.002 h 0.314 0.071 0.296 0.149 0.525 0.219 0.3 0.209 0.307 0.255 c 0.071,0.004 0.144,0 0.215,0.004 h 0.569 0.163 0.112 c 1.541,0 3.105,0 4.677,0.002 h 0.459 0.045 c 0.292,0 0.587,0.002 0.878,0.002 h 0.075 0.038 1.368 0.044 0.482 0.225 0.887 0.351 0.145 1.201 0.119 0.49 0.089 c 0.479,0.002 0.957,0.002 1.437,0.002 h 0.041 0.237 0.034 c 0.683,0.002 1.369,0.002 2.05,0.002 h 0.071 0.242 0.03 2.408 0.046 0.048 0.048 0.044 0.014 3.283 0.084 0.21 0.212 0.206 0.21 0.208 0.034 c 3.554,0.004 7.012,0.004 10.361,0 h 0.092 0.32 0.324 0.32 0.318 0.322 0.098 2.757 0.052 0.35 1.776 0.122 0.446 0.124 c 0.584,0 1.157,-0.002 1.732,-0.002 h 0.052 0.12 c 0.447,0 0.894,-0.002 1.33,-0.002 h 0.128 0.256 1.322 0.114 0.213 1.408 0.065 0.091 0.888 0.202 0.22 c 0.246,0 0.498,-0.002 0.742,-0.002 h 0.266 0.268 c 0.282,0 0.55,0 0.83,-0.002 h 0.114 0.6 0.505 0.212 0.471 0.283 1.049 c 0.17,0 0.342,0 0.508,-0.004 h 0.244 1.435 0.116 c 0.197,0 0.39,0 0.584,-0.002 h 0.216 c 0.824,-0.002 1.632,-0.002 2.42,-0.004 h 0.305 0.579 c 0.194,0 0.384,0 0.575,-0.001 h 0.567 0.559 0.136 c 0.315,0 0.617,0 0.931,-0.005 h 0.078 0.561 c 0.185,0 0.37,0 0.554,-0.003 h 0.442 c 0.688,0 1.354,-10e-4 2.004,-10e-4 h 0.332 c 0.184,0 0.362,0 0.544,-0.002 0.124,0 0.249,-0.002 0.372,-0.002 0.374,-0.002 0.73,-0.002 1.092,-0.002 0.054,0 0.112,-0.002 0.164,-0.002 h 0.214 0.606 c 0.095,0 0.192,-0.002 0.288,-0.002 h 0.187 c 0.336,0 0.672,-0.002 0.991,-0.002 h 0.477 c 0.182,0 0.36,-0.002 0.538,-0.004 0.086,0 0.17,0 0.257,-0.002 0.607,-0.002 1.193,-0.002 1.737,-0.002 0.068,0 0.138,-0.004 0.204,-0.004 h 0.522 c 0.216,-0.002 0.428,-0.002 0.636,-0.004 h 0.265 C -2.326,0.013 -2.039,0.009 -1.771,0.009 -1.103,0.006 -0.517,0.004 0,0"
             style="fill:#d2b753;fill-opacity:1;fill-rule:nonzero;stroke:none"
             id="path34" /></g><g
           id="g36"
           transform="translate(150.0234,17.4053)"><path
             d="m 0,0 -104.087,61.699 c 0,0 37.044,29.572 37.044,73.487 0,22.214 -9.65,43.854 -24.124,58.498 -0.384,0.392 -0.768,0.785 -1.16,1.166 l 13.922,29.97 c 0,0 25.801,-12.114 78.405,-12.114"
             style="fill:#be202e;fill-opacity:1;fill-rule:nonzero;stroke:none"
             id="path38" /></g><g
           id="g40"
           transform="translate(150.0234,230.1113)"><path
             d="m 0,0 c 52.603,0 78.404,12.114 78.404,12.114 l 13.921,-29.97 c -0.393,-0.381 -0.777,-0.774 -1.164,-1.166 -14.472,-14.644 -24.119,-36.284 -24.119,-58.499 0,-43.914 37.041,-73.486 37.041,-73.486 L 0,-212.706"
             style="fill:#ffffff;fill-opacity:1;fill-rule:nonzero;stroke:none"
             id="path42" /></g><g
           id="g44"
           transform="translate(150.0215,230.7026)"><path
             d="m 0,0 c 6.641,0.411 13.25,1.018 19.823,1.839 6.565,0.855 13.099,1.766 19.562,3.011 6.463,1.222 12.847,2.75 19.115,4.517 3.132,0.884 6.23,1.847 9.267,2.918 1.517,0.533 3.018,1.098 4.488,1.69 l 2.175,0.912 c 0.679,0.303 1.471,0.663 1.962,0.926 l 4.018,2.142 9.89,-19.126 c 2.552,-4.888 4.992,-9.827 7.492,-14.738 l 1.839,-3.612 -3.111,-3.252 c -8.029,-8.399 -14.007,-18.775 -17.575,-29.756 -3.569,-11.002 -4.856,-22.576 -3.175,-33.759 1.595,-11.208 5.968,-21.968 12.038,-31.782 3.009,-4.928 6.466,-9.625 10.259,-14.037 1.901,-2.206 3.886,-4.341 5.938,-6.377 1.024,-1.016 2.068,-2.013 3.121,-2.969 l 1.576,-1.395 0.78,-0.656 0.647,-0.525 10.726,-8.648 -37.619,-23.067 c -8.6,-5.269 -17.284,-10.394 -25.922,-15.598 l -51.889,-31.108 -5.421,-3.253 -57.323,34.353 -25.929,15.582 -37.65,23.091 10.752,8.669 0.648,0.521 0.778,0.658 1.576,1.396 c 1.052,0.956 2.096,1.95 3.121,2.966 2.054,2.036 4.041,4.167 5.938,6.373 3.796,4.411 7.253,9.108 10.261,14.034 6.042,9.823 10.434,20.569 12.027,31.775 0.4,2.763 0.653,5.693 0.709,8.365 0.005,0.748 0.033,1.668 0.015,2.275 -0.011,0.665 -0.01,1.321 -0.048,2.045 -0.046,1.418 -0.151,2.837 -0.289,4.255 -0.521,5.676 -1.827,11.299 -3.567,16.804 -3.565,10.983 -9.529,21.342 -17.568,29.758 l -3.113,3.258 1.846,3.626 c 2.501,4.911 4.945,9.848 7.493,14.738 l 7.598,14.687 2.309,4.461 4.032,-2.156 c 0.487,-0.26 1.285,-0.624 1.963,-0.924 l 2.17,-0.912 c 1.472,-0.597 2.972,-1.156 4.49,-1.693 3.033,-1.072 6.133,-2.035 9.267,-2.918 6.264,-1.762 12.646,-3.298 19.111,-4.519 6.462,-1.249 12.997,-2.16 19.563,-3.02 C -13.247,1.023 -6.637,0.413 0.002,0 L 0.036,-0.002 C 0.365,-0.021 0.612,-0.304 0.59,-0.627 0.572,-0.939 0.31,-1.181 0.002,-1.183 c -13.319,-0.012 -26.65,0.728 -39.867,2.515 -6.604,0.897 -13.181,2.062 -19.682,3.578 -6.495,1.553 -12.924,3.312 -19.158,5.968 l 0.95,0.345 -13.88,-29.992 -0.159,0.867 c 9.14,-8.881 16.073,-19.921 20.461,-31.857 4.375,-11.952 6.128,-24.895 4.624,-37.587 -1.451,-12.688 -5.981,-24.889 -12.425,-35.831 -3.22,-5.485 -6.908,-10.684 -10.967,-15.573 -4.08,-4.88 -8.439,-9.479 -13.362,-13.625 l -0.115,1.633 104.182,-61.54 h -1.202 l 104.178,61.536 -0.115,-1.628 c -4.923,4.145 -9.281,8.746 -13.362,13.626 -4.058,4.889 -7.747,10.088 -10.967,15.571 -6.444,10.944 -10.972,23.143 -12.419,35.831 -1.509,12.674 0.245,25.647 4.618,37.587 4.387,11.936 11.317,22.976 20.463,31.857 l -0.163,-0.867 -13.877,29.992 0.95,-0.345 C 72.475,8.224 66.046,6.465 59.548,4.912 53.049,3.396 46.474,2.231 39.867,1.332 26.655,-0.455 13.32,-1.195 0.004,-1.183 c -0.328,0 -0.592,0.266 -0.592,0.592 0,0.314 0.247,0.572 0.556,0.589 L 0,0"
             style="fill:#d2b753;fill-opacity:1;fill-rule:nonzero;stroke:none"
             id="path46" /></g></g></g><g
       id="g48"><g
         id="g50"
         clip-path="url(#clipPath54)"><g
           id="g56"><g
             id="g58"
             transform="scale(0.8489859,-0.8489859)"><g
               id="g60"><path
                 d="m 157.30018,-104.34137 c 12.70449,3.8482 26.59487,3.82002 39.72863,-0.63306 -10.53432,-14.52561 -22.33692,-33.41107 -33.63005,-54.5556 -16.45947,8.82811 -31.64849,17.01231 -44.30528,23.85886 8.42052,15.7462 22.39763,26.53635 38.2067,31.3298 z"
                 style="fill:#d2b753;fill-opacity:1;fill-rule:nonzero;stroke:none"
                 id="path62" /><path
                 d="m 197.02881,-104.97443 c 3.4146,-1.16421 6.77717,-2.61894 10.05953,-4.3837 -8.53326,-15.93047 -19.16297,-35.78287 -30.64471,-57.17021 -4.41405,2.3718 -8.76957,4.70674 -13.04487,6.99831 11.29313,21.14453 23.09573,40.02999 33.63005,54.5556 z"
                 style="fill:#d2b753;fill-opacity:1;fill-rule:nonzero;stroke:none"
                 id="path64" /><path
                 d="m 207.08834,-109.35813 c 15.71151,-8.46388 26.59271,-22.48868 31.43819,-38.35195 4.84765,-15.86977 3.65959,-33.57801 -4.80212,-49.38925 -15.99118,8.47472 -35.9303,19.09576 -57.28078,30.57099 11.48174,21.38734 22.11145,41.23974 30.64471,57.17021 z"
                 style="fill:#d2b753;fill-opacity:1;fill-rule:nonzero;stroke:none"
                 id="path66" /><path
                 d="m 119.09348,-135.67117 c 12.65679,-6.84655 27.84581,-15.03075 44.30528,-23.85886 -3.38425,-6.33707 -6.5647,-12.60909 -9.5262,-18.74237 -15.72234,9.17065 -29.5607,18.84644 -40.46141,27.95421 1.26177,4.98207 3.14577,9.90127 5.68233,14.64702 z"
                 style="fill:#d2b753;fill-opacity:1;fill-rule:nonzero;stroke:none"
                 id="path68" /><path
                 d="m 163.39876,-159.53003 c 4.2753,-2.29157 8.63082,-4.62651 13.04487,-6.99831 -3.43195,-6.39994 -6.78368,-12.6698 -10.01833,-18.74671 -4.29048,2.29375 -8.47906,4.63302 -12.55274,7.00265 2.9615,6.13328 6.14195,12.4053 9.5262,18.74237 z"
                 style="fill:#d2b753;fill-opacity:1;fill-rule:nonzero;stroke:none"
                 id="path70" /><path
                 d="m 176.44363,-166.52834 c 21.35048,-11.47523 41.2896,-22.09627 57.28078,-30.57099 -2.4867,-4.65036 -5.4612,-8.86713 -8.83027,-12.63511 -17.15757,4.98206 -37.62568,13.32237 -58.46884,24.45939 3.23465,6.07691 6.58638,12.34677 10.01833,18.74671 z"
                 style="fill:#d2b753;fill-opacity:1;fill-rule:nonzero;stroke:none"
                 id="path72" /><path
                 d="m 113.41115,-150.31819 c 10.90071,-9.10777 24.73907,-18.78356 40.46141,-27.95421 -6.89424,-14.25678 -12.60909,-27.72658 -16.88223,-39.47715 -11.02645,8.42919 -18.7879,19.95863 -22.6838,32.65661 -3.4081,11.11535 -3.83953,23.13692 -0.89538,34.77475 z"
                 style="fill:#d2b753;fill-opacity:1;fill-rule:nonzero;stroke:none"
                 id="path74" /><path
                 d="m 153.87256,-178.2724 c 4.07368,-2.36963 8.26226,-4.7089 12.55274,-7.00265 -7.55116,-14.1332 -14.51478,-27.16723 -20.44209,-38.26089 -3.19781,1.70621 -6.19832,3.64658 -8.99288,5.78639 4.27314,11.75057 9.98799,25.22037 16.88223,39.47715 z"
                 style="fill:#d2b753;fill-opacity:1;fill-rule:nonzero;stroke:none"
                 id="path76" /><path
                 d="m 166.4253,-185.27505 c 20.84316,-11.13702 41.31127,-19.47733 58.46884,-24.45939 -7.99993,-8.93868 -18.20905,-15.28659 -29.32656,-18.66433 -15.93048,-4.83898 -33.74495,-3.58371 -49.58437,4.86283 5.92731,11.09366 12.89093,24.12769 20.44209,38.26089 z"
                 style="fill:#d2b753;fill-opacity:1;fill-rule:nonzero;stroke:none"
                 id="path78" /></g></g></g></g></g><g
       id="g80"><g
         id="g82"
         clip-path="url(#clipPath86)"><g
           id="g88"
           transform="translate(180.0254,111.7256)"><path
             d="m 0,0 c -0.086,0.3 2.683,6.416 3.45,12.207 0,0 -2.874,-5.298 -3.7,-7.123 C -0.576,4.36 -0.9,3.736 -1.19,3.22 L -1.234,3.364 -2.215,2.231 c -2.596,-2.972 -5.292,-4.95 -7.763,-6.264 -2.461,-1.313 -4.669,-1.964 -6.252,-2.288 -1.59,-0.325 -2.514,-0.318 -2.514,-0.318 l -0.351,-0.007 c -0.749,0.384 -1.78,0.941 -2.897,1.611 -2.005,1.222 -4.232,2.87 -5.35,4.41 0.857,1.789 4.318,9.085 5.404,14.37 1.485,0.42 4.301,1.392 8.139,3.442 1.405,0.743 2.938,1.637 4.582,2.699 0,0 -13.506,-4.548 -14.606,-3.838 -0.834,0.477 -2.412,1.431 -5.537,3.408 -3.536,2.201 -6.692,4.228 -7.687,5.494 -0.013,0.998 -1.749,13.566 -1.749,13.566 -0.627,-5.352 -0.633,-10.605 -0.595,-12.845 -1.7,-1.28 -8.799,-6.579 -11.745,-8.147 -0.226,-0.123 -0.424,-0.211 -0.574,-0.274 -0.187,0.093 -0.925,-7.218 2.28,-13.226 0.612,-1.153 1.372,-2.38 2.232,-3.66 0,0 11.672,-4.177 18.562,-2.005 2.128,-2.841 6.44,-5.271 8.661,-6.402 -0.744,-1.267 -1.772,-2.371 -2.724,-3.159 -0.996,-0.832 -1.852,-1.334 -2.075,-1.468 l 1.706,-1.621 c 1.451,0.238 2.901,0.543 4.332,0.928 3.412,0.835 6.743,2.229 9.587,3.745 2.207,1.174 4.108,2.404 5.543,3.516 0.73,0.579 1.332,1.081 1.806,1.569 C 7.021,2.816 12.338,13.009 13.764,23.745 13.764,23.745 7.277,6.478 0,0 m -18.34,70.414 c 0.164,-0.363 0.442,-0.96 0.78,-1.599 0.07,-0.104 0.124,-0.212 0.175,-0.313 -0.095,-0.018 0.891,-1.559 1.075,-1.544 0.18,-0.176 0.388,-0.332 0.634,-0.451 4.38,-1.696 8.573,-4.384 11.627,-6.641 3.076,-2.241 5.013,-4.042 5.021,-4.052 l 0.294,-0.272 0.169,0.028 c 1.419,-3.172 3.708,-8.805 3.708,-8.805 0.02,2.116 -0.354,5.225 -2.006,9.046 0.471,-0.593 0.931,-1.205 1.366,-1.814 1.023,-1.458 1.93,-2.976 2.754,-4.512 3.59,-6.736 6.038,-14.181 5.798,-21.458 l -2.329,0.498 c 0.391,4.298 -0.808,8.015 -2.287,10.724 -1.344,2.52 -2.87,4.244 -3.558,4.961 0.031,0.139 -1.561,0.639 -1.574,0.579 -0.659,-0.044 -1.381,-0.241 -2.205,-0.491 -2.581,-0.829 -5.909,-2.423 -7.405,-3.166 -0.204,0.262 -0.37,-10.278 -0.805,-13.555 -0.33,-2.474 -0.822,-4.275 -1.021,-5.008 -0.07,-0.043 1.9,-1.823 2.771,-2.423 2.656,-1.756 7.344,-5.96 7.344,-6.01 0,0 1.673,0.272 1.683,0.402 4.118,4.34 6.123,8.526 6.828,12.329 l 1.645,-0.484 v -0.032 l 1.848,-0.488 c 0.705,8.288 -0.906,16.813 -5.016,24.533 -0.849,1.597 -1.823,3.165 -2.887,4.674 -0.566,0.807 -1.26,1.454 -1.874,2.204 l -0.023,0.04 c -0.053,0.075 -0.114,0.126 -0.164,0.193 -1.569,1.917 -3.238,3.701 -5.044,5.291 -1.072,0.962 -2.154,1.839 -3.227,2.615 -0.721,0.532 -1.423,1.071 -2.18,1.545 -1.967,1.257 -3.782,2.19 -5.388,2.943 -0.444,0.196 -0.861,0.404 -1.289,0.583 -1.351,0.576 -2.464,0.973 -3.201,1.225 -0.683,-0.438 -1.435,-0.914 -2.046,-1.295 0.003,0 0.003,0.004 0.009,0 M -47.089,-9.817 c -0.851,0.79 -1.919,2.515 -2.857,4.276 -0.212,0.407 1.632,4.78 1.632,4.78 -0.824,-0.74 -1.575,-1.351 -2.19,-1.813 -0.371,-0.281 -0.69,-0.506 -0.94,-0.667 -1.229,0.072 -9.396,2.711 -14.424,12.013 -1.458,2.701 -2.917,6.505 -2.94,10.616 l 0.073,0.024 0.145,0.25 c 0,0 0.461,0.678 1.268,1.573 0.762,0.855 1.861,1.879 3.1,2.554 2.536,-2.915 6.945,-5.507 9.715,-6.963 l -8.403,8.253 c 0.012,0.004 -0.461,3.128 -0.598,7.049 -0.164,3.896 0.048,8.603 1.268,11.515 l 0.006,0.021 c 0.507,0.45 1.18,1.045 2.009,1.725 1.772,1.452 7.276,6.705 7.276,6.705 -0.492,-0.227 -0.982,-0.46 -1.47,-0.716 -3.731,-1.993 -7.186,-4.937 -8.853,-6.424 -0.46,0.183 -1.146,0.464 -1.872,0.803 -0.912,0.385 -1.9,0.949 -2.44,1.34 0.07,0.524 0.152,1.174 0.251,1.849 0.18,1.437 0.537,3.134 0.674,3.364 l 0.015,0.003 h -0.015 c 2.939,4.637 6.802,8.774 11.578,12.118 1.451,1.027 2.957,1.949 4.488,2.764 0.576,0.307 1.143,0.593 1.721,0.86 2.982,-0.163 4.595,-1.755 5.242,-2.597 -4.941,-4.6 -7.01,-10.911 -7.518,-12.67 -0.046,-0.007 -0.09,-0.03 -0.134,-0.05 0,0 7.415,-6.193 9.544,-8.311 1.693,-1.698 2.806,-3.063 3.259,-3.615 -0.041,-0.219 5.971,3.516 8.485,4.862 2.189,1.164 4.335,2.059 5.94,2.652 1.599,0.6 2.678,0.902 2.678,0.902 l 0.483,0.155 0.008,0.062 c 4.484,-1.516 12.59,-6.437 12.59,-6.437 -2.49,2.381 -7.058,6.35 -12.321,8.082 0.552,5.113 -1.665,10.017 -2.921,12.398 -0.155,0.292 -0.29,0.539 -0.412,0.751 0.185,0.108 5.587,3.868 5.587,3.868 -1.985,-0.547 -4.525,-1.424 -5.751,-2.076 -0.428,-0.22 -0.782,-0.422 -1.03,-0.56 -5.111,2.3 -14.61,1.071 -16.978,0.74 -0.558,0.789 -1.844,2.229 -4.074,3.009 10.262,4.626 26.743,3.326 26.743,3.326 -9.588,2.403 -19.848,1.553 -29.204,-2.724 -0.098,0.01 -0.17,0.05 -0.274,0.047 l 0.011,-0.157 c -0.731,-0.339 -1.497,-0.545 -2.209,-0.92 -1.595,-0.848 -3.146,-1.815 -4.656,-2.876 -4.995,-3.501 -8.962,-7.875 -12.016,-12.734 l -0.064,0.035 c -0.048,-0.081 -0.065,-0.255 -0.099,-0.345 -1.688,-2.73 -2.832,-5.23 -3.826,-7.918 -0.378,-0.97 -0.837,-2.25 -1.28,-3.881 -0.24,-0.867 -0.452,-1.737 -0.636,-2.62 -0.304,-1.482 -0.54,-3.162 -0.704,-4.935 -0.085,-0.827 -0.164,-1.636 -0.195,-2.475 -0.062,-1.461 -0.074,-2.986 0.031,-4.601 l 0.011,-0.2 0.113,-0.175 c 0,0 0.012,-0.017 0.012,-0.022 0.061,-0.736 0.132,-1.483 0.224,-2.225 1.32,-1.761 3.84,-3.686 4.001,-3.846 -0.078,-4.684 1.559,-8.903 3.129,-11.848 0.316,-0.602 0.629,-1.13 0.913,-1.602 -0.074,0.056 -0.15,0.117 -0.238,0.166 -1.786,1.748 -5.625,9.353 -7.512,13.555 0.791,-2.756 3.023,-8.935 4.416,-11.553 0.534,-1.002 1.136,-1.99 1.766,-2.967 L -67.773,5.69 c 0.017,0.006 0.155,-0.19 0.399,-0.536 0.241,-0.372 0.472,-0.754 0.733,-1.125 2.292,-3.261 4.952,-6.112 7.87,-8.55 2.62,-2.357 5.635,-4.516 8.813,-5.755 7.089,-3.498 15.734,-4.954 23.595,-4.395 0,0 -16.405,2.429 -20.726,4.854 M 13.322,52.746 C 26.151,28.679 17.034,-1.228 -7.03,-14.053 -31.099,-26.88 -61.002,-17.767 -73.829,6.298 c -12.831,24.067 -3.72,53.973 20.353,66.799 24.068,12.825 53.968,3.714 66.798,-20.351"
             style="fill:#ffffff;fill-opacity:1;fill-rule:nonzero;stroke:none"
             id="path90" /></g><g
           id="g92"
           transform="translate(97.6558,184.2886)"><path
             d="M 0,0 -0.648,5.609 -1.541,4.629 -2.677,5.661 0.379,9.026 1.516,7.998 0.685,7.082 1.436,1.58 7.561,0.981 8.397,1.902 9.531,0.871 6.365,-2.618 5.228,-1.592 6.069,-0.663 Z m 2.444,-4.661 -6.808,6.178 -0.977,-1.078 -1.136,1.03 3.152,3.481 1.14,-1.032 -1.004,-1.105 6.809,-6.176 0.897,0.988 1.135,-1.027 -3.049,-3.364 -1.136,1.03 z"
             style="fill:#d2b753;fill-opacity:1;fill-rule:nonzero;stroke:none"
             id="path94" /></g><g
           id="g96"
           transform="translate(108.6685,194.1392)"><path
             d="M 0,0 0.816,0.584 C 1.742,1.248 2.285,1.848 2.441,2.385 2.599,2.919 2.422,3.54 1.916,4.248 1.592,4.697 1.232,4.999 0.828,5.161 0.427,5.318 0.059,5.337 -0.281,5.219 -0.618,5.099 -1.117,4.804 -1.772,4.333 L -2.656,3.7 Z M 1.281,-4.788 -4.08,2.68 -5.264,1.829 -6.157,3.077 -2.789,5.493 C -1.8,6.202 -1.003,6.662 -0.406,6.865 0.195,7.073 0.846,7.033 1.552,6.749 2.263,6.462 2.871,5.965 3.379,5.252 3.79,4.687 4.042,4.096 4.148,3.488 4.252,2.881 4.221,2.352 4.051,1.908 3.881,1.46 3.621,1.056 3.273,0.692 2.921,0.326 2.334,-0.148 1.518,-0.736 L 0.865,-1.204 2.707,-3.765 3.925,-2.89 4.819,-4.137 0.99,-6.884 0.096,-5.639 1.281,-4.788"
             style="fill:#d2b753;fill-opacity:1;fill-rule:nonzero;stroke:none"
             id="path98" /></g><g
           id="g100"
           transform="translate(121.6504,195.0352)"><path
             d="m 0,0 -0.612,1.405 1.814,0.789 -0.054,2.491 -6.165,4.828 -1.3,-0.568 -0.612,1.409 4.374,1.904 0.612,-1.405 -1.336,-0.584 4.487,-3.6 0.008,5.56 L -0.12,11.646 -0.732,13.05 3.504,14.899 4.118,13.492 2.648,12.851 2.679,2.837 4.49,3.629 5.103,2.222 Z"
             style="fill:#d2b753;fill-opacity:1;fill-rule:nonzero;stroke:none"
             id="path102" /></g><g
           id="g104"
           transform="translate(145.4292,203.2065)"><path
             d="M 0,0 -1.348,9.095 -2.7,8.891 -2.924,10.409 1.464,11.061 1.69,9.543 0.386,9.351 1.733,0.257 3.036,0.45 3.26,-1.067 l -15.942,-2.364 -0.225,1.516 1.302,0.196 -1.347,9.094 -1.301,-0.197 -0.227,1.517 4.391,0.654 0.223,-1.518 -1.351,-0.2 1.346,-9.093 4.071,0.602 -1.35,9.095 -1.303,-0.194 -0.227,1.517 4.342,0.643 0.223,-1.516 -1.302,-0.193 1.35,-9.094 z"
             style="fill:#d2b753;fill-opacity:1;fill-rule:nonzero;stroke:none"
             id="path106" /></g><g
           id="g108"
           transform="translate(154,203.1646)"><path
             d="M 0,0 1.004,9.137 -0.488,9.301 -0.322,10.824 9.267,9.772 8.863,6.1 7.437,6.257 7.673,8.405 2.746,8.945 2.347,5.32 6.638,4.849 6.467,3.324 2.181,3.796 1.74,-0.192 6.669,-0.732 6.913,1.484 8.339,1.328 7.928,-2.413 l -9.59,1.052 0.17,1.525 z"
             style="fill:#d2b753;fill-opacity:1;fill-rule:nonzero;stroke:none"
             id="path110" /></g><g
           id="g112"
           transform="translate(170.8682,205.7402)"><path
             d="m 0,0 1.036,-0.34 c 0.796,-0.262 1.394,-0.296 1.805,-0.108 0.413,0.19 0.714,0.569 0.9,1.141 C 4.104,1.797 3.576,2.583 2.154,3.05 L 1.116,3.393 Z m -1.759,-5.34 0.627,-0.206 c 0.82,-0.271 1.432,-0.425 1.843,-0.462 0.407,-0.038 0.787,0.064 1.131,0.304 0.346,0.242 0.604,0.615 0.766,1.118 0.153,0.456 0.164,0.878 0.037,1.262 -0.128,0.386 -0.359,0.691 -0.684,0.912 -0.328,0.224 -0.824,0.444 -1.482,0.661 l -0.955,0.312 z m -1.661,0.548 2.87,8.729 -1.356,0.448 0.48,1.456 3.67,-1.208 C 3.254,4.303 3.99,3.989 4.453,3.696 4.912,3.4 5.253,2.929 5.465,2.28 5.677,1.633 5.673,0.957 5.438,0.252 5.263,-0.288 4.987,-0.739 4.614,-1.1 4.241,-1.46 3.796,-1.676 3.276,-1.756 3.818,-2.18 4.169,-2.704 4.327,-3.33 4.488,-3.955 4.459,-4.598 4.241,-5.265 4.051,-5.838 3.757,-6.321 3.358,-6.709 2.957,-7.097 2.512,-7.353 2.021,-7.475 1.53,-7.597 1.028,-7.624 0.513,-7.553 0,-7.485 -0.672,-7.312 -1.508,-7.036 l -3.749,1.232 0.483,1.455 1.354,-0.443"
             style="fill:#d2b753;fill-opacity:1;fill-rule:nonzero;stroke:none"
             id="path114" /></g><g
           id="g116"
           transform="translate(186.792,196.9175)"><path
             d="M 0,0 1.299,5.196 1.162,5.279 -2.844,1.694 Z m -0.359,-1.458 -3.595,2.138 -2.181,-1.93 1.212,-0.724 -0.783,-1.316 -3.929,2.34 0.784,1.316 1.204,-0.718 7.503,6.407 -1.21,0.719 0.708,1.191 L 4.449,4.931 3.739,3.742 2.501,4.479 0.515,-5.21 1.629,-5.875 0.845,-7.19 l -3.908,2.326 0.785,1.315 1.241,-0.738 z"
             style="fill:#d2b753;fill-opacity:1;fill-rule:nonzero;stroke:none"
             id="path118" /></g><g
           id="g120"
           transform="translate(190.0205,187.8105)"><path
             d="M 0,0 1.072,1.096 2.017,0.172 8.438,6.747 7.497,7.669 8.569,8.765 11.743,5.665 10.672,4.564 9.693,5.523 3.267,-1.051 6.732,-4.44 13.16,2.136 12.188,3.084 13.26,4.18 16.428,1.084 15.354,-0.012 14.411,0.908 7.987,-5.665 8.929,-6.584 5.673,-9.919 4.635,-8.904 6.817,-6.669 Z"
             style="fill:#d2b753;fill-opacity:1;fill-rule:nonzero;stroke:none"
             id="path122" /></g><g
           id="g124"
           transform="translate(90.9058,244.2915)"><path
             d="M 0,0 V 2.23 C 0.628,2.21 0.945,2.202 1.573,2.185 V 11.06 C 0.945,11.027 0.628,11.008 0,10.974 v 2.232 c 2.425,0.185 3.641,0.275 6.066,0.44 V 11.291 C 5.542,11.265 5.277,11.25 4.75,11.223 V 8.201 c 1.367,0.033 2.051,0.05 3.419,0.082 v 3.109 C 7.662,11.367 7.408,11.355 6.897,11.331 v 2.372 c 2.411,0.163 3.613,0.239 6.023,0.383 V 11.604 C 12.292,11.577 11.978,11.565 11.351,11.538 V 1.926 C 11.978,1.91 12.29,1.902 12.92,1.888 v -2.477 c -2.41,0.097 -3.612,0.146 -6.023,0.257 v 2.37 C 7.406,2.026 7.66,2.018 8.169,2.006 V 5.879 C 6.801,5.871 6.117,5.868 4.75,5.863 V 2.094 C 5.277,2.083 5.54,2.074 6.065,2.059 6.065,1.118 6.066,0.647 6.066,-0.293 3.641,-0.183 2.425,-0.125 0,0"
             style="fill:#be202e;fill-opacity:1;fill-rule:nonzero;stroke:none"
             id="path126" /></g><g
           id="g128"
           transform="translate(113.501,250.9321)"><path
             d="M 0,0 C -0.42,1.871 -0.632,2.796 -1.052,4.645 -1.505,2.77 -1.732,1.834 -2.186,-0.018 -1.312,-0.012 -0.876,-0.006 0,0 m 5.686,-5.046 v -2.698 c -2.474,0.069 -3.709,0.105 -6.182,0.185 v 2.616 c 0.644,-0.012 0.965,-0.02 1.606,-0.03 -0.239,1.078 -0.358,1.619 -0.597,2.691 -1.313,0.006 -1.969,0.007 -3.282,0.014 -0.263,-1.051 -0.395,-1.575 -0.659,-2.618 0.672,-0.013 1.004,-0.02 1.677,-0.032 v -2.601 c -2.225,0.074 -3.338,0.114 -5.56,0.198 0,1.006 0.002,1.511 0.002,2.516 0.621,-0.013 0.929,-0.018 1.549,-0.032 0.98,3.965 1.472,5.975 2.452,10.054 C -3.979,5.19 -4.316,5.181 -4.988,5.155 v 2.556 c 3.29,0.175 4.932,0.256 8.225,0.396 V 5.442 C 2.561,5.422 2.222,5.411 1.549,5.388 2.604,1.275 3.132,-0.809 4.187,-5.022 4.789,-5.032 5.084,-5.037 5.686,-5.046"
             style="fill:#be202e;fill-opacity:1;fill-rule:nonzero;stroke:none"
             id="path130" /></g><g
           id="g132"
           transform="translate(126.3306,245.7896)"><path
             d="m 0,0 c 0.518,-0.007 0.776,-0.007 1.294,-0.016 0,-1.108 -0.002,-1.666 -0.002,-2.776 -2.42,0.048 -3.63,0.072 -6.049,0.131 v 2.722 c 0.629,-0.011 0.947,-0.012 1.576,-0.02 0,4.288 -0.003,6.432 -0.003,10.723 -0.63,-0.016 -0.944,-0.027 -1.573,-0.043 v 2.724 c 5.181,0.193 7.776,0.264 12.958,0.368 V 10.989 C 7.566,10.981 7.243,10.971 6.607,10.961 6.609,6.549 6.609,4.344 6.609,-0.068 7.246,-0.074 7.566,-0.076 8.201,-0.08 v -2.826 c -2.424,0.031 -3.636,0.053 -6.059,0.098 v 2.784 C 2.656,-0.031 2.915,-0.032 3.429,-0.038 3.429,4.34 3.427,6.529 3.426,10.91 2.054,10.882 1.373,10.87 0,10.837 0,6.502 0.001,4.333 0,0"
             style="fill:#be202e;fill-opacity:1;fill-rule:nonzero;stroke:none"
             id="path134" /></g><g
           id="g136"
           transform="translate(142.3564,251.7681)"><path
             d="m 0,0 c 0.196,0 0.294,0.001 0.489,0.001 1.121,0 1.843,0.249 2.163,0.741 0.325,0.492 0.485,1.105 0.485,1.837 0,0.618 -0.112,1.144 -0.334,1.578 C 2.581,4.591 2.325,4.857 2.035,4.956 1.745,5.057 1.272,5.102 0.616,5.099 0.37,5.096 0.246,5.095 0,5.092 Z m 1.756,-6.11 c 0,-1.144 -0.004,-1.718 -0.004,-2.863 -2.649,0.014 -3.974,0.022 -6.624,0.052 v 2.842 c 0.64,-0.004 0.961,-0.006 1.601,-0.01 0,4.463 -10e-4,6.696 -10e-4,11.156 -0.64,-0.009 -0.96,-0.012 -1.6,-0.021 v 2.843 c 2.65,0.042 3.975,0.059 6.624,0.08 C 3.296,7.981 4.491,7.499 5.331,6.525 6.173,5.551 6.593,4.236 6.593,2.584 6.593,1.64 6.445,0.783 6.152,0.012 5.857,-0.756 5.477,-1.347 5.018,-1.758 4.555,-2.17 4.028,-2.446 3.433,-2.596 2.839,-2.746 2.097,-2.821 1.204,-2.821 H 0 v -3.286 c 0.7,-0.003 1.055,0 1.756,-0.003"
             style="fill:#be202e;fill-opacity:1;fill-rule:nonzero;stroke:none"
             id="path138" /></g><g
           id="g140"
           transform="translate(151.75,242.7788)"><path
             d="m 0,0 v 2.868 c 0.604,0 0.91,0.003 1.514,0.003 C 1.514,7.368 1.51,9.614 1.51,14.108 0.906,14.11 0.604,14.112 0,14.112 v 2.867 C 4.433,16.968 6.651,16.95 11.085,16.878 v -5.327 c -0.962,0.007 -1.441,0.011 -2.404,0.017 v 2.494 C 7.12,14.077 6.343,14.084 4.785,14.091 V 10.186 C 6.044,10.182 6.673,10.184 7.932,10.177 V 7.324 c -1.259,0 -1.888,0 -3.147,0.001 V 2.879 c 1.56,0.003 2.335,0.008 3.896,0.016 v 2.523 c 0.963,0.003 1.442,0.003 2.404,0.004 V 0.068 C 6.651,0.02 4.433,0.006 0,0"
             style="fill:#be202e;fill-opacity:1;fill-rule:nonzero;stroke:none"
             id="path142" /></g><g
           id="g144"
           transform="translate(173.7207,245.7852)"><path
             d="M 0,0 C -0.862,4.051 -1.292,6.089 -2.154,10.193 -3.101,6.122 -3.574,4.074 -4.521,-0.048 -2.713,-0.03 -1.808,-0.02 0,0 M 2.17,-2.722 C -1.104,-2.795 -2.74,-2.825 -6.013,-2.874 V -6.19 c -0.962,-0.023 -1.44,-0.03 -2.404,-0.051 v 6.161 c 0.624,0.006 0.933,0.008 1.553,0.012 0.979,4.427 1.467,6.63 2.447,11.003 -0.672,0.012 -1.008,0.014 -1.68,0.026 v 2.817 c 3.292,-0.074 4.941,-0.12 8.232,-0.228 V 10.798 C 1.456,10.814 1.118,10.821 0.439,10.838 1.494,6.481 2.02,4.317 3.074,0.037 3.674,0.045 3.977,0.05 4.577,0.058 V -5.88 C 3.612,-5.915 3.133,-5.928 2.17,-5.961 v 3.239"
             style="fill:#be202e;fill-opacity:1;fill-rule:nonzero;stroke:none"
             id="path146" /></g><g
           id="g148"
           transform="translate(187.3857,250.9307)"><path
             d="M 0,0 C -0.419,1.867 -0.63,2.806 -1.049,4.693 -1.504,2.832 -1.731,1.896 -2.188,0.012 -1.312,0.005 -0.875,0.003 0,0 m 5.683,-4.825 v -2.534 c -2.47,-0.09 -3.706,-0.136 -6.178,-0.214 v 2.628 c 0.643,0.012 0.964,0.015 1.605,0.028 -0.239,1.053 -0.361,1.582 -0.601,2.642 -1.311,-0.006 -1.964,-0.01 -3.277,-0.017 -0.263,-1.079 -0.395,-1.621 -0.66,-2.708 0.672,0.011 1.006,0.019 1.676,0.031 0,-1.057 -0.004,-1.585 -0.004,-2.64 -2.222,-0.068 -3.332,-0.1 -5.556,-0.156 v 2.704 c 0.62,0.01 0.93,0.016 1.547,0.023 0.983,4.234 1.477,6.326 2.457,10.464 -0.672,0.023 -1.007,0.03 -1.681,0.051 V 8.158 C -1.697,8.02 -0.054,7.946 3.234,7.775 V 5.202 C 2.561,5.228 2.221,5.24 1.547,5.265 2.602,1.157 3.131,-0.871 4.185,-4.857 c 0.6,0.012 0.898,0.02 1.498,0.032"
             style="fill:#be202e;fill-opacity:1;fill-rule:nonzero;stroke:none"
             id="path150" /></g><g
           id="g152"
           transform="translate(202.6602,243.9648)"><path
             d="m 0,0 v 2.369 c 0.586,0.016 0.883,0.024 1.469,0.04 -1.523,1.932 -2.285,2.932 -3.809,4.988 1.647,1.725 2.468,2.557 4.111,4.165 -0.603,0.029 -0.905,0.043 -1.511,0.072 V 14 C 2.712,13.834 3.94,13.744 6.393,13.558 V 11.32 C 5.776,11.354 5.469,11.37 4.857,11.402 3.44,9.995 2.73,9.266 1.314,7.763 2.96,5.589 3.787,4.538 5.433,2.519 c 0.52,0.014 0.78,0.021 1.3,0.038 V 0.327 C 4.04,0.189 2.692,0.123 0,0 m -7.398,-0.31 c 0,0.999 0.002,1.498 0.002,2.498 0.674,0.017 1.011,0.024 1.687,0.041 v 9.683 c -0.676,0.03 -1.014,0.042 -1.689,0.07 v 2.502 c 2.618,-0.152 3.929,-0.234 6.547,-0.41 V 11.69 c -0.635,0.03 -0.951,0.046 -1.587,0.076 V 2.309 c 0.586,0.013 0.877,0.021 1.461,0.035 V -0.043 C -3.544,-0.156 -4.828,-0.209 -7.398,-0.31"
             style="fill:#be202e;fill-opacity:1;fill-rule:nonzero;stroke:none"
             id="path154" /></g><g
           id="g156"
           transform="translate(143.7471,278.2866)"><path
             d="M 0,0 C 0.188,0.004 0.282,0.005 0.47,0.008 1.468,0.025 2.11,0.187 2.392,0.493 2.674,0.8 2.81,1.173 2.796,1.612 2.783,2.007 2.674,2.334 2.461,2.601 2.252,2.868 2.015,3.035 1.742,3.095 1.468,3.154 1.03,3.176 0.436,3.166 0.196,3.162 0.078,3.16 -0.162,3.155 -0.098,1.893 -0.066,1.263 0,0 M -3.155,-0.077 C -3.251,1.185 -3.301,1.817 -3.398,3.079 -3.682,3.072 -3.826,3.066 -4.113,3.057 -4.751,3.037 -5.195,2.972 -5.435,2.865 -5.675,2.758 -5.863,2.571 -6.001,2.306 -6.14,2.039 -6.188,1.738 -6.154,1.403 c 0.043,-0.445 0.227,-0.81 0.552,-1.102 0.323,-0.292 0.981,-0.422 1.977,-0.392 0.187,0.006 0.283,0.008 0.47,0.014 m -1.31,-4.534 c -0.069,0.773 -0.106,1.161 -0.177,1.933 0.673,0.025 1.012,0.033 1.684,0.052 -0.024,0.328 -0.041,0.496 -0.064,0.825 -0.559,-0.016 -0.838,-0.025 -1.396,-0.044 -1.691,-0.056 -2.909,0.207 -3.681,0.806 -0.768,0.599 -1.221,1.365 -1.339,2.307 -0.125,0.997 0.165,1.815 0.893,2.449 0.726,0.636 1.834,0.983 3.309,1.033 0.681,0.023 1.022,0.035 1.703,0.054 C -3.556,5.111 -3.567,5.26 -3.591,5.565 -4.239,5.545 -4.567,5.537 -5.214,5.516 -5.286,6.289 -5.319,6.676 -5.388,7.449 -2.73,7.538 -1.403,7.571 1.254,7.61 1.284,6.835 1.302,6.448 1.331,5.674 0.682,5.666 0.354,5.658 -0.294,5.645 -0.279,5.341 -0.268,5.189 -0.252,4.885 0.43,4.897 0.772,4.904 1.454,4.914 2.914,4.936 4.053,4.643 4.868,4.05 5.677,3.458 6.075,2.646 6.079,1.616 6.083,0.671 5.723,-0.112 5.022,-0.736 4.322,-1.361 3.173,-1.677 1.549,-1.702 0.966,-1.71 0.676,-1.716 0.09,-1.727 c 0.018,-0.33 0.024,-0.494 0.042,-0.824 0.673,0.014 1.008,0.021 1.682,0.03 0.028,-0.775 0.044,-1.163 0.074,-1.937 -2.54,-0.036 -3.811,-0.067 -6.353,-0.153"
             style="fill:#be202e;fill-opacity:1;fill-rule:nonzero;stroke:none"
             id="path158" /></g><g
           id="g160"
           transform="translate(159.1055,273.7388)"><path
             d="M 0,0 C 0.06,0.814 0.093,1.222 0.153,2.039 0.709,2.023 0.985,2.014 1.542,1.998 0.246,3.761 -0.427,4.64 -1.822,6.39 -0.129,7.832 0.741,8.55 2.53,9.97 1.92,9.989 1.614,9.997 1.004,10.014 1.065,10.828 1.098,11.237 1.159,12.053 3.672,11.982 4.931,11.934 7.438,11.818 7.338,11.004 7.288,10.598 7.187,9.783 6.57,9.812 6.259,9.828 5.64,9.854 4.062,8.586 3.292,7.949 1.788,6.663 3.25,4.748 3.953,3.786 5.296,1.854 5.788,1.834 6.034,1.822 6.526,1.798 6.423,0.984 6.37,0.579 6.269,-0.234 3.762,-0.118 2.506,-0.069 0,0 m -6.884,0.116 c 0.015,0.816 0.023,1.226 0.036,2.043 0.64,-0.005 0.958,-0.008 1.597,-0.016 0.096,3.195 0.142,4.793 0.235,7.988 -0.679,0.01 -1.019,0.012 -1.699,0.016 0.012,0.816 0.017,1.225 0.031,2.041 2.681,-0.017 4.023,-0.039 6.705,-0.104 -0.055,-0.816 -0.083,-1.223 -0.137,-2.038 -0.643,0.016 -0.96,0.022 -1.603,0.035 C -1.894,6.886 -1.982,5.288 -2.157,2.093 -1.603,2.08 -1.324,2.079 -0.771,2.064 -0.824,1.25 -0.851,0.838 -0.906,0.024 -3.295,0.084 -4.493,0.102 -6.884,0.116"
             style="fill:#be202e;fill-opacity:1;fill-rule:nonzero;stroke:none"
             id="path162" /></g><g
           id="g164"
           transform="translate(94.7041,70.0225)"><path
             d="M 0,0 V 3.223 L 2.227,1.916 V 15.58 l -2.368,1.388 v 3.224 l 5.913,-3.468 v -16.89 l 2.112,-1.24 v -3.222 z"
             style="fill:#d2b753;fill-opacity:1;fill-rule:nonzero;stroke:none"
             id="path166" /></g><g
           id="g168"
           transform="translate(112.3091,71.21)"><path
             d="M 0,0 V 0.218 C 0,1.759 -0.196,3.179 -0.589,4.479 -0.977,5.777 -1.572,6.663 -2.376,7.136 -2.88,7.432 -3.287,7.367 -3.6,6.949 -3.915,6.532 -4.068,5.812 -4.068,4.789 -4.068,3.845 -3.904,2.954 -3.573,2.127 -3.239,1.295 -2.729,0.679 -2.04,0.272 -1.406,-0.101 -0.727,-0.191 0,0 m -7.061,-2.234 2.749,-1.278 c 0.324,-1.907 0.941,-3.129 1.854,-3.663 1.437,-0.844 2.255,0.584 2.458,4.282 -0.85,-0.336 -1.852,-0.171 -3.001,0.508 -1.199,0.701 -2.223,1.863 -3.068,3.482 -0.848,1.622 -1.272,3.403 -1.272,5.35 0,1.966 0.456,3.324 1.368,4.071 0.914,0.746 2.181,0.644 3.805,-0.31 1.808,-1.062 3.199,-2.678 4.174,-4.845 0.975,-2.164 1.46,-5.094 1.46,-8.787 0,-6.931 -1.978,-9.233 -5.934,-6.911 -1.292,0.76 -2.353,1.836 -3.185,3.236 -0.831,1.397 -1.3,3.021 -1.408,4.865"
             style="fill:#d2b753;fill-opacity:1;fill-rule:nonzero;stroke:none"
             id="path170" /></g><g
           id="g172"
           transform="translate(124.2744,60.9473)"><path
             d="M 0,0 V 7.015 L -4.009,2.354 Z m 4.685,-8.086 v -2.948 l -6.471,3.797 v 2.949 L 0,-5.335 v 2.586 L -5.924,0.73 c -0.279,1.194 -0.565,2.22 -0.858,3.08 l 6.933,8.276 3.177,-1.865 V -1.954 L 4.89,-2.872 v -2.749 l -1.562,0.92 v -2.588 l 1.357,-0.797"
             style="fill:#d2b753;fill-opacity:1;fill-rule:nonzero;stroke:none"
             id="path174" /></g><g
           id="g176"
           transform="translate(134.8799,55.1689)"><path
             d="M 0,0 C 0.038,-2.251 0.252,-3.896 0.632,-4.934 1.017,-5.971 1.561,-6.7 2.26,-7.112 c 0.521,-0.303 0.94,-0.262 1.259,0.129 0.321,0.389 0.482,1.154 0.482,2.292 0,1.059 -0.192,1.971 -0.575,2.736 C 3.044,-1.19 2.574,-0.643 2.018,-0.318 1.331,0.085 0.658,0.191 0,0 M 7.062,2.23 4.29,3.538 C 3.965,5.434 3.34,6.656 2.413,7.198 1.663,7.644 1.081,7.45 0.664,6.63 0.244,5.811 0.024,4.543 0,2.834 0.75,3.28 1.7,3.164 2.854,2.487 4.097,1.758 5.142,0.609 5.993,-0.963 c 0.85,-1.568 1.278,-3.368 1.278,-5.402 0,-2.264 -0.452,-3.714 -1.358,-4.35 -0.904,-0.636 -2.102,-0.517 -3.592,0.359 -1.965,1.152 -3.424,2.828 -4.38,5.021 -0.954,2.193 -1.431,5.04 -1.431,8.538 0,3.739 0.54,6.121 1.62,7.142 1.076,1.017 2.547,0.982 4.411,-0.111 C 5.212,8.662 6.719,5.996 7.062,2.23"
             style="fill:#d2b753;fill-opacity:1;fill-rule:nonzero;stroke:none"
             id="path178" /></g></g></g></g></svg>
