<?xml version="1.0" encoding="utf-8"?>
<!-- Generator: Adobe Illustrator 22.1.0, SVG Export Plug-In . SVG Version: 6.00 Build 0)  -->
<svg version="1.1" id="Layer_1" xmlns="http://www.w3.org/2000/svg" xmlns:xlink="http://www.w3.org/1999/xlink" x="0px" y="0px"
	 viewBox="0 0 300 300" style="enable-background:new 0 0 300 300;" xml:space="preserve">
<style type="text/css">
	.st0{fill-rule:evenodd;clip-rule:evenodd;fill:#FFFFFF;}
	.st1{fill-rule:evenodd;clip-rule:evenodd;fill:#015496;}
</style>
<g>
	<path class="st0" d="M194.6,256.3c-4.1,5.7-14.7,14.7-24.3,22.4c-9.6,7.7-18.1,13.9-18.1,13.9s-9.7-7.5-20.8-16.5
		s-23.8-19.3-29.8-24.8c-4.6-4.3-11.1-11.1-17.2-18.3c-6.1-7.2-11.9-14.6-15-20c-3.7-6.3-10.1-17.1-14.6-27.8
		C50.2,174.6,47.7,164,52,158c13.7-19.4,75.8-29.1,118.6-12.5s63.8-9.8,78,4.5c13.6,13.7-17.3,61.8-25.8,71.8
		C214.4,231.7,203.1,244.6,194.6,256.3z"/>
	<g>
		<polygon class="st1" points="106.4,170.4 106.4,170 193.7,170 193.7,170.4 193.7,172.7 193.7,174.9 193.7,177.2 193.7,179.5 
			193.7,181.7 193.7,182.3 225.5,182.3 223.6,184 221,186.3 218.5,188.5 216,190.8 213.5,193.1 211,195.3 210.6,195.7 212.7,197.6 
			215.2,199.9 217.7,202.1 220.1,204.4 222.6,206.7 225.1,208.9 225.5,209.3 184.6,209.3 184.6,208.9 184.6,206.7 184.6,204.4 
			184.6,202.1 184.6,201.9 115.5,201.9 115.5,202.1 115.5,204.4 115.5,206.7 115.5,208.9 115.5,209.3 74.5,209.3 74.9,208.9 
			77.4,206.7 79.9,204.4 82.3,202.1 84.8,199.9 87.3,197.6 89.4,195.7 89,195.3 86.5,193.1 84,190.8 81.5,188.5 79,186.3 76.4,184 
			74.5,182.3 106.4,182.3 106.4,181.7 106.4,179.5 106.4,177.2 106.4,174.9 106.4,172.7 106.4,170.4 		"/>
		<path class="st1" d="M255.8,147.7c0,0.7,0,1.5-0.1,2.3c0,0.7-0.1,1.5-0.1,2.3H44.4c-0.1-0.8-0.1-1.5-0.1-2.3
			c0-0.8-0.1-1.5-0.1-2.3c0-0.5,0-1,0-1.5v-0.8v-2.3v-2.3v-2.3v-2.3v-2.3v-2.3v-2.3v-2.3v-2.3v-2.3v-2.3v-2.3V116v-2.3v-2.3v-2.3
			v-2.3v-2.3v-2.3v-2.3c0-24.9,0-49.7,0-74.6H111c2.3,0,4.5,0,6.6-0.2c3.7-0.3,7.3-0.9,10.7-2.3c9-3.4,15.2-11.3,21.6-18.1
			c6.5,7,12.5,14.7,21.7,18.1c3.1,1.1,6.3,1.9,9.5,2.3c1.4,0.1,2.8,0.2,4.2,0.2h70.4c0,24.9,0,49.7,0,74.6v2.3v2.3v2.3v2.3v2.3v2.3
			v2.3v2.3v2.3v2.3v2.3v2.3v2.3v2.3v2.3v2.3v2.3v2.3v2.3v2.3v0.8C255.8,146.7,255.8,147.2,255.8,147.7L255.8,147.7z M153.6,292.7
			c-1.2,0.8-2.4,1.5-3.6,2.3c-1.2-0.7-2.4-1.5-3.6-2.3c-1.2-0.8-2.3-1.5-3.5-2.3c-1.2-0.8-2.3-1.5-3.5-2.3c-1.1-0.8-2.2-1.5-3.4-2.3
			c-1.1-0.8-2.2-1.5-3.2-2.3c-1.1-0.7-2.2-1.5-3.2-2.3c-1.1-0.7-2.1-1.5-3.1-2.3c-1-0.8-2-1.5-3-2.3c-1-0.8-2-1.5-3-2.3
			c-1-0.8-1.9-1.5-2.9-2.3c-0.9-0.8-1.9-1.5-2.8-2.3c-0.9-0.8-1.9-1.5-2.7-2.3c-0.9-0.7-1.8-1.5-2.7-2.3c-0.9-0.7-1.8-1.5-2.6-2.3
			c-0.9-0.8-1.7-1.5-2.6-2.3c-0.8-0.8-1.7-1.5-2.5-2.3c-0.8-0.8-1.6-1.5-2.4-2.3c-0.8-0.8-1.6-1.5-2.3-2.3c-0.8-0.7-1.5-1.5-2.3-2.3
			c-0.7-0.7-1.5-1.5-2.2-2.3c-0.7-0.8-1.5-1.5-2.2-2.3c-0.7-0.8-1.4-1.5-2.1-2.3c-0.7-0.8-1.4-1.5-2-2.3c-0.7-0.8-1.3-1.5-2-2.3
			c-0.7-0.8-1.3-1.5-1.9-2.3c-0.7-0.7-1.3-1.5-1.9-2.3c-0.6-0.8-1.2-1.5-1.8-2.3c-0.6-0.8-1.2-1.5-1.8-2.3c-0.6-0.8-1.2-1.5-1.8-2.3
			c-0.5-0.8-1.1-1.5-1.6-2.3c-0.5-0.8-1.1-1.5-1.6-2.3c-0.5-0.7-1.1-1.5-1.6-2.3c-0.5-0.7-1-1.5-1.5-2.3c-0.5-0.8-1-1.5-1.5-2.3
			c-0.5-0.8-0.9-1.5-1.4-2.3c-0.4-0.8-0.9-1.5-1.3-2.3c-0.5-0.8-0.9-1.5-1.3-2.3c-0.4-0.8-0.9-1.5-1.3-2.3c-0.4-0.7-0.8-1.5-1.2-2.3
			c-0.4-0.8-0.8-1.5-1.2-2.3c-0.4-0.8-0.8-1.5-1.1-2.3c-0.4-0.8-0.7-1.5-1.1-2.3c-0.4-0.8-0.7-1.5-1.1-2.3c-0.3-0.8-0.7-1.5-1-2.3
			c-0.3-0.7-0.7-1.5-0.9-2.3c-0.3-0.8-0.6-1.5-0.9-2.3c-0.3-0.8-0.6-1.5-0.9-2.3c-0.3-0.8-0.5-1.5-0.8-2.3c-0.3-0.8-0.5-1.5-0.8-2.3
			c-0.3-0.8-0.5-1.5-0.7-2.3c-0.3-0.8-0.5-1.5-0.7-2.3c-0.3-0.7-0.5-1.5-0.7-2.3c-0.2-0.8-0.4-1.5-0.6-2.3c-0.2-0.8-0.4-1.5-0.5-2.3
			c-0.2-0.8-0.4-1.5-0.5-2.3c-0.1-0.8-0.3-1.5-0.5-2.3c-0.1-0.8-0.3-1.5-0.4-2.3c-0.1-0.7-0.3-1.5-0.4-2.3c-0.1-0.8-0.3-1.5-0.3-2.3
			c-0.1-0.8-0.2-1.5-0.3-2.3c-0.1-0.8-0.1-1.5-0.3-2.3c-0.1-0.8-0.1-1.5-0.2-2.3c-0.1-0.8-0.1-1.5-0.1-2.3h211.2
			c0,0.7-0.1,1.5-0.2,2.3c0,0.7-0.1,1.5-0.2,2.3c-0.1,0.7-0.2,1.5-0.3,2.3c-0.1,0.7-0.2,1.5-0.3,2.3c-0.1,0.8-0.2,1.5-0.4,2.3
			c-0.1,0.8-0.3,1.5-0.4,2.3c-0.1,0.8-0.3,1.5-0.4,2.3c-0.1,0.7-0.3,1.5-0.5,2.3c-0.2,0.7-0.4,1.5-0.5,2.3c-0.2,0.7-0.4,1.5-0.5,2.3
			c-0.2,0.8-0.4,1.5-0.6,2.3c-0.2,0.8-0.4,1.5-0.7,2.3c-0.2,0.8-0.5,1.5-0.7,2.3c-0.3,0.7-0.5,1.5-0.8,2.3c-0.2,0.7-0.5,1.5-0.8,2.3
			c-0.3,0.7-0.5,1.5-0.8,2.3c-0.3,0.8-0.5,1.5-0.9,2.3c-0.3,0.8-0.6,1.5-0.9,2.3c-0.3,0.8-0.6,1.5-0.9,2.3c-0.3,0.8-0.7,1.5-1,2.3
			c-0.4,0.7-0.7,1.5-1.1,2.3c-0.4,0.7-0.7,1.5-1.1,2.3c-0.4,0.8-0.7,1.5-1.1,2.3c-0.4,0.8-0.8,1.5-1.2,2.3c-0.4,0.8-0.8,1.5-1.2,2.3
			c-0.4,0.8-0.8,1.5-1.3,2.3c-0.4,0.7-0.9,1.5-1.3,2.3c-0.4,0.7-0.9,1.5-1.3,2.3c-0.5,0.7-0.9,1.5-1.4,2.3c-0.5,0.8-0.9,1.5-1.5,2.3
			c-0.5,0.8-1,1.5-1.5,2.3c-0.5,0.8-1.1,1.5-1.6,2.3c-0.5,0.8-1.1,1.5-1.6,2.3c-0.5,0.7-1.1,1.5-1.7,2.3c-0.5,0.7-1.1,1.5-1.7,2.3
			c-0.5,0.8-1.1,1.5-1.8,2.3c-0.6,0.8-1.2,1.5-1.8,2.3c-0.6,0.8-1.2,1.5-1.9,2.3c-0.6,0.8-1.3,1.5-1.9,2.3c-0.7,0.7-1.3,1.5-2,2.3
			c-0.7,0.7-1.3,1.5-2,2.3c-0.7,0.8-1.4,1.5-2.1,2.3c-0.7,0.8-1.5,1.5-2.2,2.3c-0.7,0.8-1.5,1.5-2.2,2.3c-0.8,0.8-1.5,1.5-2.3,2.3
			c-0.8,0.8-1.5,1.5-2.3,2.3c-0.8,0.7-1.6,1.5-2.4,2.3c-0.8,0.7-1.6,1.5-2.4,2.3c-0.8,0.8-1.7,1.5-2.6,2.3l0,0
			c-0.8,0.8-1.7,1.5-2.6,2.3c-0.9,0.8-1.8,1.5-2.7,2.3c-0.9,0.8-1.8,1.5-2.7,2.3c-0.9,0.7-1.9,1.5-2.8,2.3c-0.9,0.7-1.9,1.5-2.9,2.3
			c-1,0.8-2,1.5-3,2.3c-1,0.8-2,1.5-3.1,2.3c-1,0.8-2,1.5-3.1,2.3c-1.1,0.8-2.1,1.5-3.2,2.3c-1.1,0.8-2.2,1.5-3.3,2.3
			c-1.1,0.7-2.3,1.5-3.4,2.3c-1.1,0.8-2.3,1.5-3.5,2.3C156,291.2,154.8,292,153.6,292.7L153.6,292.7z M119.5,263.3
			c0.9,0.8,1.9,1.5,2.8,2.3c0.9,0.8,1.9,1.5,2.8,2.3c1,0.8,2,1.5,3,2.3c1,0.7,2,1.5,3.1,2.3c1,0.8,2,1.5,3.1,2.3
			c1.1,0.8,2.1,1.5,3.2,2.3c1.1,0.8,2.2,1.5,3.3,2.3c1.1,0.8,2.2,1.5,3.4,2.3c1.1,0.8,2.3,1.5,3.5,2.3c0.8,0.5,1.6,1.1,2.5,1.6
			c0.8-0.5,1.7-1.1,2.5-1.6c1.1-0.7,2.3-1.5,3.5-2.3c1.1-0.7,2.2-1.5,3.4-2.3c1.1-0.7,2.2-1.5,3.3-2.3c1.1-0.8,2.2-1.5,3.2-2.3
			c1.1-0.8,2.1-1.5,3.1-2.3c1-0.8,2-1.5,3.1-2.3c1-0.8,2-1.5,3-2.3c0.9-0.7,1.9-1.5,2.9-2.3c0.9-0.7,1.9-1.5,2.8-2.3l0,0
			c0.9-0.7,1.8-1.5,2.7-2.3c0.9-0.8,1.8-1.5,2.7-2.3c0.9-0.8,1.7-1.5,2.6-2.3c0.8-0.8,1.7-1.5,2.5-2.3c0.8-0.7,1.6-1.5,2.4-2.3
			c0.8-0.7,1.6-1.5,2.4-2.3c0.8-0.7,1.6-1.5,2.3-2.3c0.7-0.8,1.5-1.5,2.2-2.3c0.7-0.8,1.5-1.5,2.2-2.3c0.7-0.8,1.4-1.5,2.2-2.3
			c0.7-0.8,1.3-1.5,2-2.3c0.7-0.7,1.3-1.5,2-2.3c0.7-0.7,1.3-1.5,1.9-2.3c0.7-0.8,1.3-1.5,1.9-2.3c0.6-0.8,1.2-1.5,1.8-2.3
			c0.6-0.8,1.2-1.5,1.8-2.3c0.6-0.8,1.2-1.5,1.7-2.3c0.6-0.7,1.1-1.5,1.7-2.3c0.5-0.7,1.1-1.5,1.6-2.3c0.5-0.7,1.1-1.5,1.6-2.3
			c0.5-0.8,1-1.5,1.5-2.3c0.5-0.8,1-1.5,1.5-2.3c0.5-0.8,0.9-1.5,1.4-2.3c0.4-0.8,0.9-1.5,1.3-2.3c0.4-0.7,0.9-1.5,1.3-2.3
			c0.4-0.7,0.8-1.5,1.2-2.3c0.1-0.2,0.3-0.4,0.4-0.6c0.3-0.5,0.6-1.1,0.9-1.6c0.4-0.8,0.8-1.5,1.2-2.3c0.4-0.8,0.7-1.5,1.1-2.3
			c0.4-0.8,0.7-1.5,1.1-2.3c0.4-0.7,0.7-1.5,1-2.3c0.3-0.7,0.7-1.5,1-2.3c0.3-0.7,0.6-1.5,0.9-2.3c0.3-0.8,0.6-1.5,0.9-2.3
			c0.3-0.8,0.5-1.5,0.8-2.3c0.3-0.8,0.5-1.5,0.8-2.3c0.3-0.8,0.5-1.5,0.7-2.3c0.3-0.7,0.5-1.5,0.7-2.3c0.3-0.7,0.5-1.5,0.7-2.3
			c0.2-0.8,0.4-1.5,0.6-2.3c0.2-0.8,0.4-1.5,0.6-2.3c0.2-0.8,0.4-1.5,0.5-2.3c0.2-0.8,0.3-1.5,0.5-2.3c0.1-0.7,0.3-1.5,0.4-2.3
			c0.1-0.7,0.3-1.5,0.4-2.3c0.1-0.8,0.2-1.5,0.3-2.3c0-0.4,0.1-0.7,0.1-1.1H53.2c0,0.3,0.1,0.7,0.1,1.1c0.1,0.8,0.2,1.5,0.3,2.3
			c0.1,0.8,0.2,1.5,0.4,2.3c0.1,0.8,0.3,1.5,0.4,2.3c0.1,0.8,0.3,1.5,0.5,2.3c0.1,0.7,0.3,1.5,0.5,2.3c0.2,0.8,0.4,1.5,0.5,2.3
			c0.2,0.8,0.4,1.5,0.6,2.3c0.2,0.8,0.4,1.5,0.7,2.3c0.2,0.8,0.5,1.5,0.7,2.3c0.3,0.8,0.5,1.5,0.8,2.3c0.3,0.7,0.5,1.5,0.8,2.3
			c0.3,0.7,0.5,1.5,0.8,2.3c0.3,0.8,0.6,1.5,0.9,2.3c0.3,0.8,0.6,1.5,0.9,2.3c0.3,0.8,0.7,1.5,1,2.3c0.3,0.8,0.7,1.5,1,2.3
			c0.3,0.8,0.7,1.5,1.1,2.3c0.4,0.7,0.7,1.5,1.1,2.3c0.4,0.8,0.8,1.5,1.2,2.3c0.4,0.8,0.8,1.5,1.2,2.3c0.4,0.8,0.8,1.5,1.3,2.3
			c0.3,0.6,0.7,1.2,1,1.8c0.1,0.2,0.2,0.3,0.3,0.5c0.4,0.8,0.9,1.5,1.3,2.3c0.5,0.7,0.9,1.5,1.4,2.3c0.5,0.7,1,1.5,1.5,2.3
			c0.5,0.8,1,1.5,1.5,2.3c0.5,0.8,1,1.5,1.6,2.3c0.5,0.8,1.1,1.5,1.6,2.3c0.5,0.8,1.1,1.5,1.7,2.3c0.5,0.8,1.1,1.5,1.7,2.3
			c0.6,0.7,1.2,1.5,1.8,2.3c0.6,0.8,1.2,1.5,1.9,2.3c0.6,0.8,1.2,1.5,1.9,2.3c0.6,0.8,1.3,1.5,1.9,2.3c0.7,0.8,1.3,1.5,2,2.3
			c0.7,0.8,1.3,1.5,2,2.3c0.7,0.7,1.4,1.5,2.2,2.3c0.7,0.8,1.5,1.5,2.2,2.3c0.8,0.8,1.5,1.5,2.3,2.3c0.8,0.8,1.6,1.5,2.3,2.3
			c0.8,0.8,1.6,1.5,2.4,2.3c0.8,0.8,1.6,1.5,2.5,2.3c0.8,0.8,1.7,1.5,2.5,2.3c0.8,0.7,1.7,1.5,2.6,2.3c0.9,0.8,1.8,1.5,2.7,2.3
			C117.7,261.8,118.6,262.6,119.5,263.3L119.5,263.3z"/>
		<path class="st0" d="M52.5,100.1v1.6h195.1v-1.6c0-21.9,0-43.8,0-65.7v-0.6h-62.1c-9.4,0-19.2-2.9-26.8-8.5
			c-3.2-2.4-5.9-5.4-8.6-8.3c-2.8,2.9-5.5,5.9-8.8,8.3c-8.8,6.7-19.3,8.5-30.2,8.5H52.5v0.6C52.5,56.3,52.5,78.2,52.5,100.1
			L52.5,100.1z"/>
		<path class="st1" d="M76.9,50.6h24v4H81.7v0.1c0,3.8,0,7.5,0,11.3v0.1h16.9v4H81.7v0.3c0,5.2,0,10.5,0,15.7h-4.8
			C76.9,74.5,76.9,62.6,76.9,50.6L76.9,50.6z M110.8,86.4h-4.8c0-12,0-23.9,0-35.8h4.8c0,5.9,0,11.8,0,17.7
			c5.9-5.9,11.8-11.8,17.7-17.7h6.5c-5,4.9-10,9.8-15,14.7c5.3,7,10.6,14.1,15.9,21.1h-6.4c-4.4-6-8.7-11.9-13.1-17.9
			c-1.9,1.9-3.8,3.7-5.7,5.6C110.8,78.2,110.8,82.4,110.8,86.4L110.8,86.4z"/>
		<polygon class="st0" points="130.8,116 130.8,115.6 127.1,115.6 127.1,116 127.1,118.3 127.1,119.5 130.8,119.5 130.8,118.3 
			130.8,116 		"/>
		<polygon class="st0" points="57.1,129.6 57.1,131.9 57.1,134.2 57.1,136.4 57.1,138.7 57.1,140.9 57.1,143.2 57.1,145.4 
			61.1,145.4 61.1,143.2 61.1,140.9 61.1,138.7 61.1,136.4 61.1,134.2 61.1,131.9 61.1,129.6 61.1,127.3 61.1,125.1 61.1,122.8 
			61.1,121.7 61.9,122.8 63.4,125.1 64.9,127.3 66.4,129.6 68,131.9 69.5,134.2 71,136.4 72.5,138.7 74.1,140.9 75.6,143.2 
			77,145.4 81.4,145.4 81.4,143.2 81.4,140.9 81.4,138.7 81.4,136.4 81.4,134.2 81.4,131.9 81.4,129.6 81.4,127.3 81.4,125.1 
			81.4,122.8 81.4,120.6 81.4,118.3 81.4,116 81.4,115.6 77.4,115.6 77.4,116 77.4,118.3 77.4,120.6 77.4,122.8 77.4,125.1 
			77.4,127.3 77.4,129.6 77.4,131.9 77.4,134.2 77.4,136.4 77.4,138.7 77.4,139.2 77.1,138.7 75.6,136.4 74,134.2 72.5,131.9 
			71,129.6 69.5,127.3 67.9,125.1 66.4,122.8 64.9,120.6 63.4,118.3 61.9,116 61.6,115.6 57.1,115.6 57.1,116 57.1,118.3 
			57.1,120.6 57.1,122.8 57.1,125.1 57.1,127.3 57.1,129.6 		"/>
		<path class="st0" d="M230.8,129.6v2.3v2.3v2.3v2.3v2.3v2.3v2.2h3.7v-2.2v-2.3v-2.3v-2.3v-1c0-0.5,0-0.9,0-1.2c0-0.4,0-0.8,0-1.1
			c0-0.4,0.1-0.8,0.1-1.2c0.1-0.9,0.3-1.6,0.6-2.3c0.1-0.2,0.2-0.5,0.3-0.7c0.4-0.6,0.8-1.1,1.3-1.6c0.4-0.3,0.8-0.6,1.4-0.9
			c1.2-0.5,2.7-0.8,4.5-0.9v-0.4v-2.2l-1.1,0c-1.7,0-3.2,0.5-4.5,1.4c-0.3,0.2-0.6,0.5-0.9,0.7c-0.7,0.7-1.2,1.4-1.6,2.3
			c-0.1,0.2-0.1,0.4-0.2,0.6h-0.1v-0.6v-2.3v-1.3h-3.7v1.3v2.3V129.6L230.8,129.6z"/>
		<path class="st0" d="M209.5,129.6c0,0.2,0,0.4,0,0.5h3.6c0-0.1,0-0.3,0-0.5c0.1-0.9,0.3-1.7,0.7-2.3c0.3-0.4,0.7-0.8,1.2-1
			c1.2-0.5,2.5-0.8,3.8-0.8c1.1,0,2.2,0.3,3.2,0.8c0.5,0.2,0.8,0.5,1.1,1c0.3,0.6,0.5,1.3,0.5,2.3c0,0.1,0,0.2,0,0.3
			c0,0.9-0.1,1.6-0.4,2v0.1c-0.3,0.3-0.7,0.5-1.1,0.7c-0.5,0.1-1.3,0.2-2.7,0.3c-2.2,0.2-4,0.5-5.4,0.9c-0.4,0.1-0.8,0.3-1.2,0.4
			c-0.8,0.3-1.5,0.7-2.1,1.1c-0.4,0.4-0.8,0.8-1.1,1.2c-0.2,0.3-0.3,0.5-0.4,0.8c-0.2,0.4-0.3,0.9-0.4,1.5c0,0.3,0,0.7,0,1
			c0,0.4,0,0.8,0.1,1.2c0.1,0.8,0.4,1.5,0.8,2.3c0.2,0.3,0.3,0.6,0.5,0.9c0.4,0.5,1,1,1.8,1.4c1.1,0.5,2.6,0.7,4.4,0.7
			c1.2,0,2.5-0.3,3.9-0.7l0.1,0c1.2-0.4,2.2-1.2,2.9-2.3c0.2-0.3,0.4-0.5,0.5-0.8c0,0.3,0.1,0.5,0.1,0.8c0.2,0.9,0.6,1.5,1.1,1.7
			c0.4,0.3,1,0.4,1.7,0.5c0.3,0,0.6,0,0.9,0c0.4,0,0.7,0,1,0c0.3,0,0.5-0.1,0.7-0.1v-2.2v-0.5c-0.7,0-1.2-0.1-1.5-0.3
			c-0.3-0.1-0.5-0.4-0.6-0.7c-0.1-0.2-0.1-0.5-0.1-0.8c0-0.2,0-0.5,0-0.8l0-1.5l0-2.3l0-2.3l0.1-2.3l0-1.7c0-0.2,0-0.4,0-0.5
			c0-0.8-0.1-1.6-0.4-2.3c-0.3-0.9-0.7-1.6-1.4-2.3c-1.4-1.5-3.7-2.2-6.9-2.2c-2.2,0-4,0.3-5.4,1c-0.7,0.3-1.3,0.7-1.8,1.2
			c-0.5,0.5-0.9,0.9-1.2,1.5c-0.1,0.2-0.3,0.5-0.3,0.7C209.7,128.1,209.6,128.8,209.5,129.6L209.5,129.6z M214.4,136.4
			c0.5-0.3,1.1-0.5,1.9-0.7c1.1-0.2,2.6-0.4,4.5-0.6c0.8-0.1,1.4-0.2,1.8-0.3c0.3-0.1,0.7-0.3,1.1-0.5l-0.1,1.8c0,0.1,0,0.2,0,0.3
			c-0.1,0.8-0.2,1.5-0.4,2.3c0,0.2-0.1,0.4-0.1,0.6c-0.2,0.6-0.4,1.1-0.8,1.6c-0.3,0.5-0.7,0.9-1.1,1.3c-0.5,0.4-1.1,0.7-1.7,0.9
			c-0.7,0.3-1.6,0.4-2.5,0.4c-0.8,0-1.5-0.1-2.1-0.4c-0.5-0.2-0.9-0.5-1.2-1c-0.3-0.4-0.5-0.8-0.7-1.3c-0.1-0.4-0.2-0.9-0.2-1.4
			c0-0.3,0-0.6,0.1-0.9c0.1-0.7,0.4-1.2,0.9-1.7C213.9,136.8,214.1,136.6,214.4,136.4L214.4,136.4z"/>
		<polygon class="st0" points="200,129.6 198.2,131.9 196.4,134.1 194.6,136.4 192.8,138.7 191,140.9 189.6,142.7 189.6,143.2 
			189.6,145.4 207.3,145.4 207.3,143.2 207.3,142.7 194.1,142.7 195.5,140.9 197.2,138.7 198.9,136.4 200.7,134.1 202.4,131.9 
			204.2,129.6 205.9,127.3 206.7,126.4 206.7,125.1 206.7,123.7 190.5,123.7 190.5,125.1 190.5,126.4 202.6,126.4 201.7,127.3 
			200,129.6 		"/>
		<path class="st0" d="M168.1,129.6c0,0.2,0,0.4,0,0.5h3.6c0-0.1,0-0.3,0-0.5c0.1-0.9,0.3-1.7,0.7-2.3c0.3-0.4,0.7-0.8,1.2-1
			c1.2-0.5,2.5-0.8,3.8-0.8c1.1,0,2.2,0.3,3.2,0.8c0.5,0.2,0.8,0.5,1.1,1c0.3,0.6,0.5,1.3,0.5,2.3c0,0.1,0,0.2,0,0.3
			c0,0.9-0.1,1.6-0.4,2v0.1c-0.3,0.3-0.7,0.5-1.1,0.7c-0.5,0.1-1.3,0.2-2.7,0.3c-2.2,0.2-4,0.5-5.4,0.9c-0.4,0.1-0.8,0.3-1.2,0.4
			c-0.8,0.3-1.5,0.7-2.1,1.1c-0.4,0.4-0.8,0.8-1.1,1.2c-0.2,0.3-0.3,0.5-0.4,0.8c-0.2,0.4-0.3,0.9-0.4,1.5c0,0.3,0,0.7,0,1
			c0,0.4,0,0.8,0.1,1.2c0.1,0.8,0.4,1.5,0.8,2.3c0.2,0.3,0.3,0.6,0.5,0.9c0.4,0.5,1,1,1.8,1.4c1.1,0.5,2.6,0.7,4.4,0.7
			c1.2,0,2.5-0.3,3.9-0.7l0.1,0c1.2-0.4,2.2-1.2,2.9-2.3c0.2-0.3,0.4-0.5,0.5-0.8c0,0.3,0.1,0.5,0.1,0.8c0.2,0.9,0.6,1.5,1.1,1.7
			c0.4,0.3,1,0.4,1.7,0.5c0.3,0,0.6,0,0.9,0c0.4,0,0.7,0,1,0c0.3,0,0.5-0.1,0.7-0.1v-2.2v-0.5c-0.7,0-1.2-0.1-1.5-0.3
			c-0.3-0.1-0.5-0.4-0.6-0.7c-0.1-0.2-0.1-0.5-0.1-0.8c0-0.2,0-0.5,0-0.8l0-1.5l0-2.3l0-2.3l0.1-2.3l0-1.7c0-0.2,0-0.4,0-0.5
			c0-0.8-0.1-1.6-0.4-2.3c-0.3-0.9-0.7-1.6-1.3-2.3c-1.4-1.5-3.7-2.2-6.9-2.2c-2.2,0-4,0.3-5.4,1c-0.7,0.3-1.3,0.7-1.8,1.2
			c-0.5,0.5-0.9,0.9-1.2,1.5c-0.1,0.2-0.3,0.5-0.3,0.7C168.3,128.1,168.1,128.8,168.1,129.6L168.1,129.6z M173,136.4
			c0.5-0.3,1.1-0.5,1.9-0.7c1.1-0.2,2.6-0.4,4.5-0.6c0.8-0.1,1.4-0.2,1.8-0.3c0.3-0.1,0.7-0.3,1.1-0.5l-0.1,1.8c0,0.1,0,0.2,0,0.3
			c0,0.8-0.2,1.5-0.4,2.3c0,0.2-0.1,0.4-0.1,0.6c-0.2,0.6-0.4,1.1-0.8,1.6c-0.3,0.5-0.7,0.9-1.1,1.3c-0.5,0.4-1.1,0.7-1.7,0.9
			c-0.7,0.3-1.6,0.4-2.5,0.4c-0.8,0-1.5-0.1-2.1-0.4c-0.5-0.2-0.9-0.5-1.2-1c-0.3-0.4-0.5-0.8-0.7-1.3c-0.1-0.4-0.2-0.9-0.2-1.4
			c0-0.3,0-0.6,0.1-0.9c0.1-0.7,0.4-1.2,0.9-1.7C172.5,136.8,172.7,136.6,173,136.4L173,136.4z"/>
		<polygon class="st0" points="127.1,129.6 127.1,131.9 127.1,134.1 127.1,136.4 127.1,138.7 127.1,140.9 127.1,143.2 127.1,145.4 
			130.8,145.4 130.8,143.2 130.8,140.9 130.8,138.7 130.8,136.4 130.8,134.1 130.8,131.9 130.8,129.6 130.8,127.3 130.8,125.1 
			130.8,123.7 127.1,123.7 127.1,125.1 127.1,127.3 127.1,129.6 		"/>
		<polygon class="st0" points="107.3,129.6 108.2,131.9 109,134.1 109.9,136.4 110.7,138.7 111.6,140.9 112.4,143.2 113.2,145.4 
			117.4,145.4 118.2,143.2 119.1,140.9 119.9,138.7 120.8,136.4 121.6,134.1 122.5,131.9 123.3,129.6 124.2,127.3 125,125.1 
			125.5,123.7 121.5,123.7 121.1,125.1 120.2,127.3 119.5,129.6 118.7,131.9 118,134.1 117.2,136.4 116.4,138.7 115.7,140.9 
			115.4,141.6 115.2,140.9 114.4,138.7 113.6,136.4 112.8,134.1 112,131.9 111.2,129.6 110.4,127.3 109.6,125.1 109.1,123.7 
			105.1,123.7 105.6,125.1 106.5,127.3 107.3,129.6 		"/>
		<path class="st0" d="M90.3,145.5c1.3,0.5,2.7,0.7,4.2,0.7c1.6,0,3-0.3,4.3-0.7c0.1,0,0.1-0.1,0.2-0.1c1.3-0.5,2.3-1.3,3.2-2.2
			c0,0,0.1-0.1,0.1-0.1c0.5-0.7,1.1-1.3,1.5-2.2c0.2-0.5,0.4-1,0.6-1.6c0.1-0.2,0.2-0.4,0.2-0.7c0.2-0.7,0.4-1.5,0.4-2.3
			c0.1-0.6,0.1-1.2,0.1-1.9c0-0.1,0-0.3,0-0.4c0-0.8-0.1-1.6-0.2-2.3c-0.1-0.8-0.3-1.6-0.5-2.3v0c-0.3-0.8-0.6-1.6-1.1-2.3
			c-0.3-0.5-0.7-0.9-1.1-1.4c-0.3-0.3-0.6-0.6-0.9-0.9c-0.7-0.6-1.5-1.1-2.4-1.4c-1.3-0.5-2.8-0.8-4.5-0.8c-2.2,0-4,0.4-5.7,1.3
			c-0.4,0.3-0.8,0.5-1.2,0.8c-0.8,0.6-1.4,1.4-1.9,2.3c-0.2,0.3-0.4,0.6-0.5,0.9c-0.2,0.4-0.4,0.9-0.5,1.3c-0.2,0.7-0.4,1.5-0.5,2.3
			c-0.1,0.7-0.2,1.5-0.2,2.3c0,0.1,0,0.2,0,0.4c0,0.7,0,1.3,0.1,1.9c0.1,0.8,0.2,1.5,0.4,2.3c0,0.3,0.1,0.5,0.2,0.7
			c0.2,0.5,0.4,1.1,0.7,1.6c0.4,0.8,0.9,1.5,1.5,2.2c0,0,0.1,0.1,0.1,0.1c0.9,0.9,2,1.7,3.2,2.2C90.1,145.4,90.2,145.5,90.3,145.5
			L90.3,145.5z M89.9,127.3c1-1.2,2.6-1.8,4.6-1.8c1.7,0,3.1,0.4,4,1.3c0.2,0.2,0.4,0.3,0.5,0.5c0.6,0.7,1.1,1.4,1.4,2.3
			c0.1,0.2,0.1,0.4,0.2,0.6c0.1,0.5,0.3,1.1,0.4,1.7c0.1,0.7,0.2,1.5,0.2,2.3c0,0.1,0,0.2,0,0.4c0,0.7,0,1.3-0.1,1.9
			c-0.1,0.8-0.2,1.5-0.4,2.3c0,0.1,0,0.1,0,0.2c-0.2,0.8-0.5,1.5-0.9,2.1c-0.3,0.5-0.7,0.9-1.1,1.3c-0.5,0.4-1,0.7-1.7,0.9
			c-0.7,0.3-1.5,0.4-2.4,0.4c-0.8,0-1.6-0.1-2.3-0.4c-0.6-0.2-1.2-0.5-1.6-0.9c-0.4-0.4-0.8-0.8-1.1-1.3c-0.4-0.6-0.7-1.3-0.9-2.1
			c0,0,0-0.1,0-0.2c-0.2-0.7-0.4-1.5-0.4-2.3c-0.1-0.6-0.1-1.2-0.1-1.9c0-0.1,0-0.3,0-0.4c0-0.8,0.1-1.6,0.2-2.3
			c0.1-0.8,0.3-1.6,0.6-2.3c0.2-0.5,0.4-1,0.7-1.5C89.5,127.9,89.7,127.6,89.9,127.3L89.9,127.3z"/>
		<path class="st0" d="M145.6,129.6v2.3v2.3v2.3v2.3v2.3v2.3v2.2h4v-2.2v-2.3v-2.3v-2.3v-2.3v-0.7h7.8c2.9,0,5.2-0.5,6.9-1.6
			c0.9-0.6,1.7-1.3,2.3-2.3c0.4-0.7,0.7-1.4,0.9-2.3c0.2-0.7,0.3-1.5,0.4-2.3c0-0.3,0-0.6,0-1c0-0.4,0-0.9,0-1.3
			c-0.1-0.8-0.3-1.6-0.5-2.3c-0.3-0.9-0.8-1.6-1.3-2.3c-0.9-1.1-2.3-1.8-4-2.3c-1.2-0.3-2.6-0.5-4.2-0.5h-12.1v0.5v2.3v2.3v2.3v2.3
			v2.3V129.6L145.6,129.6z M149.5,120.6v-1.6h7.3c2.2,0,3.9,0.4,5.1,1.2c0.2,0.1,0.3,0.3,0.5,0.4c0.6,0.5,0.9,1.3,1.1,2.3
			c0.1,0.4,0.1,0.9,0.1,1.4c0,0.3,0,0.6,0,0.9c-0.1,0.9-0.3,1.6-0.6,2.3c-0.3,0.5-0.5,0.9-0.9,1.2c-0.5,0.4-1.1,0.8-1.8,1
			c-0.9,0.3-2.1,0.5-3.5,0.5h-7.3v-0.5v-2.3v-2.3v-2.3V120.6L149.5,120.6z"/>
		<polygon class="st0" points="190.9,174.9 190.9,172.8 109.3,172.8 109.3,174.9 109.3,177.2 109.3,179.4 109.3,181.7 109.3,184 
			109.3,186.2 109.3,188.5 109.3,190.8 109.3,193 109.3,195.3 109.3,197.6 109.3,199 190.9,199 190.9,197.6 190.9,195.3 190.9,193 
			190.9,190.8 190.9,188.5 190.9,186.2 190.9,184 190.9,181.7 190.9,179.4 190.9,177.2 190.9,174.9 		"/>
		<path class="st1" d="M128.3,177.2c0.1-0.3,0.1-0.5,0.2-0.7h1.8v0.7v2.3v2.3v2.3v2.3v2.3v2.3v2.3v2.1h-2.5V193v-2.3v-2.3v-2.3V184
			v-2.3v-0.6h-4.3v-1.3h0.5c0.7,0,1.3-0.1,1.9-0.3c0.1,0,0.2-0.1,0.3-0.1c0.6-0.3,1.1-0.7,1.5-1.2
			C128.1,177.8,128.2,177.5,128.3,177.2L128.3,177.2z"/>
		<path class="st1" d="M137.7,177.2c0.5-0.4,1.1-0.7,1.7-0.9c0.9-0.3,1.8-0.4,2.4-0.4c0.8,0,1.7,0.1,2.4,0.3c0.6,0.1,1.2,0.5,1.8,1
			c0.1,0.1,0.2,0.2,0.3,0.3c0.5,0.5,0.9,1.2,1.3,2c0.1,0.3,0.2,0.6,0.3,0.9c0.1,0.4,0.3,0.8,0.3,1.3c0.1,0.7,0.2,1.4,0.3,2.3
			c0,0.5,0,1,0,1.6c0,0.3,0,0.5,0,0.7c0,0.8-0.1,1.6-0.2,2.3c-0.1,0.8-0.3,1.6-0.5,2.3c-0.1,0.5-0.3,0.9-0.5,1.3
			c-0.2,0.4-0.4,0.7-0.6,1c-0.6,0.9-1.3,1.6-2.1,1.9c-0.3,0.1-0.5,0.3-0.8,0.4c-0.8,0.2-1.6,0.4-2.4,0.4c-0.8,0-1.5-0.1-2.2-0.4
			c-0.4-0.1-0.9-0.4-1.3-0.6c-0.7-0.4-1.2-0.9-1.6-1.7c-0.3-0.5-0.5-1.2-0.7-2h2.3c0.1,0.8,0.5,1.4,1.2,1.9c0,0,0.1,0.1,0.1,0.1
			c0.6,0.4,1.3,0.7,2.3,0.7c0.8,0,1.5-0.2,2.2-0.6l0,0c0.7-0.4,1.2-1.1,1.6-2.1c0,0,0-0.1,0-0.1c0.3-0.6,0.5-1.4,0.6-2.3
			c0.1-0.5,0.1-1.1,0.1-1.7H146c-0.6,0.8-1.5,1.4-2.6,1.7c-0.6,0.2-1.2,0.3-2,0.3c-0.7,0-1.3-0.1-1.9-0.3c-0.4-0.1-0.8-0.3-1.2-0.5
			c-0.8-0.4-1.4-1-1.9-1.7c-0.1-0.1-0.2-0.3-0.3-0.4c-0.3-0.5-0.5-1.2-0.6-1.8c-0.1-0.5-0.1-0.9-0.1-1.5c0-0.3,0-0.5,0-0.8
			c0.1-0.9,0.2-1.6,0.5-2.3c0.2-0.5,0.5-0.9,0.8-1.3C137,177.8,137.3,177.5,137.7,177.2L137.7,177.2z M145,179.5
			c-0.3-0.4-0.5-0.7-0.9-0.9c-0.6-0.5-1.4-0.7-2.4-0.7c-0.8,0-1.5,0.2-2.1,0.6c-0.4,0.3-0.7,0.6-1,1c-0.1,0.2-0.3,0.4-0.3,0.7
			c-0.2,0.5-0.4,1-0.4,1.6c0,0.3-0.1,0.5-0.1,0.8c0,0.5,0.1,1,0.2,1.5c0.1,0.6,0.5,1.2,0.9,1.6c0.3,0.3,0.5,0.5,0.8,0.7
			c0.6,0.3,1.2,0.5,2,0.5c0.8,0,1.6-0.2,2.2-0.5c0,0,0.1,0,0.1-0.1c0.6-0.4,1.1-0.9,1.3-1.6c0.1-0.2,0.2-0.4,0.3-0.6
			c0.1-0.5,0.2-1,0.2-1.6c0-0.2,0-0.5,0-0.7c-0.1-0.5-0.2-1-0.4-1.5C145.3,180,145.2,179.7,145,179.5L145,179.5z"/>
		<path class="st1" d="M152.1,177.2c0.1,0,0.1-0.1,0.3-0.2c0.9-0.7,2.3-1.1,4.1-1.1c0.7,0,1.4,0.1,2.3,0.3c0.7,0.1,1.3,0.5,2,1
			c0.2,0.2,0.4,0.4,0.6,0.6c0.4,0.4,0.8,1,1,1.7c0.2,0.6,0.3,1.3,0.3,2.1c0,0,0,0.1,0,0.2c0,0.8-0.1,1.6-0.4,2.2v0
			c-0.3,0.7-0.8,1.3-1.5,2c-0.1,0.1-0.1,0.1-0.2,0.2c-0.7,0.6-1.7,1.3-2.9,2.1c-0.1,0-0.2,0.1-0.3,0.2c-0.9,0.6-1.7,1.1-2.3,1.6
			c-0.3,0.3-0.6,0.5-0.8,0.7c-0.3,0.3-0.5,0.5-0.7,0.8c-0.3,0.5-0.6,0.9-0.7,1.5h9.8v0v2.1H150c0-0.8,0-1.4,0.2-2.1
			c0.1-0.5,0.3-1,0.5-1.3c0.1-0.3,0.3-0.6,0.5-0.9c0.4-0.6,0.9-1.1,1.5-1.6c0.3-0.2,0.5-0.4,0.8-0.7c0.8-0.5,1.7-1.2,2.8-1.9
			c0.2-0.1,0.4-0.3,0.5-0.4c0.6-0.4,1.1-0.7,1.5-1.1c0.4-0.3,0.8-0.7,1.1-1.2c0-0.1,0.1-0.2,0.1-0.3c0.3-0.5,0.5-1.2,0.5-2
			c0-0.1,0-0.1,0-0.1c0-0.8-0.2-1.6-0.6-2.1c-0.1-0.2-0.3-0.4-0.4-0.5c-0.7-0.7-1.6-1-2.8-1c-0.7,0-1.4,0.1-2,0.4
			c-0.5,0.3-0.9,0.6-1.2,1.1c-0.1,0.1-0.1,0.1-0.2,0.2c-0.3,0.6-0.5,1.2-0.5,2v0v0.7H150v-0.5c0,0,0-0.1,0-0.1
			c0-0.7,0.1-1.5,0.4-2.3l0,0C150.7,178.6,151.3,177.9,152.1,177.2L152.1,177.2z"/>
		<path class="st1" d="M166.4,177.2c0.3-0.2,0.5-0.4,0.8-0.5c0.8-0.5,1.9-0.7,3.2-0.7c1.3,0,2.4,0.2,3.2,0.7
			c0.3,0.1,0.5,0.4,0.8,0.5c0.4,0.4,0.8,0.8,1,1.3c0.1,0.3,0.3,0.6,0.4,1c0.1,0.4,0.2,0.9,0.2,1.4c0,0.3,0,0.5-0.1,0.8
			c-0.1,0.3-0.1,0.7-0.3,1c-0.2,0.5-0.5,0.9-0.8,1.3c0,0-0.1,0.1-0.1,0.1c-0.4,0.4-0.9,0.7-1.4,0.9c0.8,0.2,1.5,0.6,2.1,1.2
			c0.1,0.1,0.3,0.3,0.4,0.5c0.4,0.5,0.7,1.1,0.8,1.8c0.1,0.4,0.1,0.9,0.1,1.3c0,0.3,0,0.7-0.1,0.9c-0.1,0.8-0.3,1.5-0.7,2.2
			c0,0-0.1,0.1-0.1,0.1c-0.5,0.8-1.2,1.5-2.1,1.9c-0.3,0.1-0.5,0.3-0.8,0.4c-0.8,0.2-1.6,0.4-2.6,0.4c-0.9,0-1.8-0.1-2.6-0.4
			c-0.4-0.1-0.7-0.3-1.1-0.5c-0.8-0.5-1.4-1.1-1.9-1.8c-0.1-0.1-0.1-0.2-0.2-0.3c-0.3-0.6-0.5-1.3-0.6-1.9c0-0.3,0-0.6,0-0.9
			c0-0.4,0-0.9,0.1-1.3c0.1-0.3,0.1-0.6,0.3-0.9c0.2-0.5,0.5-1,0.9-1.4c0.1-0.1,0.2-0.2,0.3-0.3c0.5-0.5,1.1-0.8,1.8-1
			c-0.6-0.2-1.1-0.6-1.6-1c-0.1-0.2-0.3-0.4-0.4-0.6c-0.3-0.5-0.5-1.1-0.6-1.6c-0.1-0.3-0.1-0.5-0.1-0.8c0-0.5,0-1,0.2-1.4
			c0.1-0.3,0.2-0.7,0.4-1C165.6,178,166,177.6,166.4,177.2L166.4,177.2z M173.4,179.5c-0.2-0.5-0.5-0.8-0.9-1
			c-0.7-0.4-1.5-0.6-2.2-0.6c-1.2,0-2,0.3-2.6,1c-0.1,0.2-0.3,0.4-0.4,0.7c-0.2,0.4-0.4,0.9-0.4,1.5c0,0.3,0,0.5,0.1,0.8
			c0.1,0.5,0.4,1.1,0.7,1.5c0.3,0.4,0.8,0.7,1.3,0.8c0.4,0.1,0.8,0.1,1.2,0.1c0.4,0,0.8-0.1,1.1-0.1c0.2-0.1,0.4-0.1,0.6-0.3
			c0.5-0.3,0.9-0.6,1.1-1.1c0.1-0.3,0.3-0.6,0.3-0.9c0-0.3,0.1-0.5,0.1-0.8C173.7,180.4,173.6,179.9,173.4,179.5L173.4,179.5z
			 M171.9,186.3c-0.4-0.1-0.9-0.2-1.5-0.2c-0.6,0-1.1,0.1-1.6,0.2c-0.5,0.2-1,0.4-1.4,0.8c-0.4,0.4-0.6,0.9-0.8,1.4
			c-0.1,0.4-0.2,0.8-0.2,1.2c0,0.4,0,0.7,0.1,1.1c0.1,0.5,0.3,0.9,0.5,1.2c0.3,0.5,0.7,0.8,1.1,1.1c0.1,0.1,0.3,0.2,0.4,0.3
			c0.6,0.3,1.2,0.4,1.8,0.4c0.5,0,1-0.1,1.6-0.3c0.2-0.1,0.4-0.2,0.6-0.3c0.3-0.2,0.7-0.5,0.9-0.9c0.3-0.4,0.5-0.8,0.6-1.4
			c0.1-0.3,0.1-0.7,0.1-1.1c0-0.4-0.1-0.8-0.1-1.2c-0.2-0.6-0.5-1.1-0.9-1.5C172.9,186.7,172.4,186.4,171.9,186.3L171.9,186.3z"/>
		<path class="st1" d="M128.2,261c0.7,0.8,1.4,1.5,2.2,2.3c0.9,0.8,1.8,1.6,2.8,2.3c1.2,0.8,2.4,1.6,3.7,2.3c1.5,0.8,3,1.4,4.6,1.9
			l0.6-1.9l0.3-0.8l-0.6-1.4l-1-2.3l-0.9-2.3l-1-2.3l-0.4-0.9l-9.8-0.9l-2.3,1.6l0.1,0.1C127,259.5,127.5,260.3,128.2,261L128.2,261
			z M128.1,263.3c-0.7-0.7-1.4-1.5-2-2.3c-0.6-0.7-1.1-1.5-1.6-2.3c-0.5-0.7-0.9-1.5-1.3-2.3c-0.4-0.8-0.8-1.5-1.1-2.3
			c-0.3-0.7-0.6-1.5-0.9-2.3c-0.3-0.7-0.5-1.5-0.7-2.3c-0.2-0.7-0.3-1.5-0.5-2.3c-0.1-0.8-0.3-1.5-0.3-2.3c-0.1-0.8-0.1-1.5-0.1-2.3
			c0-0.3,0-0.6,0-0.9c0-0.5,0-0.9,0-1.4c0-0.7,0.1-1.5,0.2-2.3c0.1-0.8,0.2-1.5,0.4-2.3c0.1-0.8,0.3-1.5,0.5-2.3
			c0.2-0.8,0.4-1.5,0.7-2.3c0.3-0.8,0.6-1.5,0.9-2.3c0.4-0.8,0.7-1.5,1.2-2.3c0.4-0.8,0.9-1.6,1.4-2.3c0.5-0.8,1.1-1.5,1.7-2.3
			c0.7-0.8,1.3-1.5,2.1-2.3c0.8-0.8,1.7-1.6,2.6-2.3c1-0.8,2.2-1.6,3.3-2.3c1.5-0.9,3.1-1.6,4.7-2.3c3.4-1.3,7-2,10.9-2
			c3.8,0,7.5,0.7,10.9,2c1.6,0.6,3.2,1.4,4.7,2.3c1.2,0.7,2.3,1.4,3.3,2.3c0.9,0.7,1.8,1.5,2.6,2.3c0.7,0.7,1.5,1.5,2.1,2.3
			c0.6,0.7,1.2,1.5,1.7,2.3c0.5,0.7,1,1.5,1.4,2.3c0.4,0.7,0.8,1.5,1.2,2.3c0.3,0.7,0.6,1.5,0.9,2.3c0.3,0.7,0.5,1.5,0.7,2.3
			c0.2,0.7,0.4,1.5,0.5,2.3c0.1,0.8,0.3,1.5,0.4,2.3c0.1,0.8,0.1,1.5,0.2,2.3c0,0.5,0,0.9,0,1.4c0,0.3,0,0.6,0,0.9
			c0,0.8-0.1,1.5-0.1,2.3c-0.1,0.8-0.2,1.5-0.3,2.3c-0.1,0.8-0.3,1.5-0.5,2.3c-0.2,0.8-0.4,1.5-0.7,2.3c-0.3,0.8-0.5,1.5-0.9,2.3
			c-0.3,0.8-0.7,1.5-1.1,2.3c-0.4,0.8-0.9,1.5-1.3,2.3c-0.5,0.8-1.1,1.5-1.6,2.3c-0.7,0.8-1.3,1.5-2,2.3c-0.8,0.8-1.6,1.6-2.4,2.3
			c-1,0.8-2,1.6-3.1,2.3c-1.3,0.9-2.8,1.6-4.3,2.3c-2.7,1.2-5.5,1.9-8.5,2.3c-1.2,0.1-2.3,0.2-3.5,0.2c-1.2,0-2.4-0.1-3.5-0.2
			c-3-0.4-5.9-1.1-8.6-2.3c-1.5-0.6-2.9-1.4-4.3-2.3c-1.1-0.7-2.2-1.4-3.1-2.3C129.7,264.9,128.9,264.1,128.1,263.3L128.1,263.3z
			 M169.6,263.3c0.8-0.7,1.5-1.5,2.2-2.3c0.6-0.7,1.2-1.5,1.8-2.3l0.1-0.1l-2.3-1.6l-9.8,0.9l-0.4,0.8l-1,2.3l-1,2.3l0,0l-1,2.3
			l-0.6,1.4l0.3,0.8l0.6,1.9c1.6-0.5,3.1-1.1,4.6-1.9c1.3-0.7,2.6-1.4,3.7-2.3C167.8,264.9,168.7,264.1,169.6,263.3L169.6,263.3z
			 M157.5,263.3l1-2.3l0.9-2.3l0.7-1.5l-0.5-0.7l-1.6-2.3l-1.6-2.2h-12.6l-1.6,2.2l-1.6,2.3l-0.5,0.8l0.7,1.5l1,2.3l1,2.3l1,2.3
			l0.2,0.4h12.6l0.2-0.4L157.5,263.3L157.5,263.3z"/>
		<path class="st0" d="M173.3,224.8l-0.1-0.1l-0.2,0.1l-2.1,1.5l-0.2,0.8l-0.5,2.3l-0.5,2.3l-0.5,2.3l-0.4,2.1l0.2,0.1l2.6,2.3
			l2.6,2.3l2,1.8h2.8c0-0.1,0-0.3,0-0.5c0-0.4,0-0.9,0-1.3c0-0.8-0.1-1.5-0.2-2.3c-0.1-0.8-0.2-1.5-0.4-2.3
			c-0.2-0.8-0.4-1.5-0.6-2.3c-0.2-0.8-0.5-1.5-0.8-2.3c-0.3-0.8-0.6-1.5-1-2.3c-0.4-0.8-0.8-1.5-1.2-2.3
			C174.3,226.2,173.8,225.5,173.3,224.8L173.3,224.8z"/>
		<path class="st0" d="M127.1,224.8l-0.2-0.1l-0.1,0.1c-0.5,0.7-1,1.5-1.5,2.3c-0.5,0.7-0.9,1.5-1.2,2.3c-0.4,0.7-0.7,1.5-1,2.3
			c-0.3,0.8-0.5,1.5-0.8,2.3c-0.2,0.8-0.4,1.5-0.6,2.3c-0.1,0.7-0.3,1.5-0.4,2.3c-0.1,0.7-0.2,1.5-0.2,2.3c0,0.4,0,0.9,0,1.3
			c0,0.1,0,0.3,0,0.5h2.8l2.1-1.8l2.6-2.3l2.6-2.3l0.2-0.2l-0.5-2.1l-0.5-2.3l-0.5-2.3l-0.5-2.3l-0.1-0.8L127.1,224.8L127.1,224.8z"
			/>
		<polygon class="st0" points="160.9,220.2 159,218.9 156.7,220.2 152.9,222.5 150.8,223.7 150.8,224.8 150.8,227 150.8,229.3 
			150.8,230.1 152.8,231.6 155.9,233.8 159,236.1 161,237.6 165.6,236.1 167.1,235.6 167.5,233.8 168,231.6 168.6,229.3 169.1,227 
			169.2,226.3 167.1,224.8 164,222.5 160.9,220.2 		"/>
		<polygon class="st0" points="143.3,220.3 141,218.9 139.2,220.3 136,222.5 132.9,224.8 130.8,226.3 131,227 131.5,229.3 
			132,231.6 132.5,233.8 132.9,235.6 134.5,236.1 139,237.6 141,236.1 144.1,233.8 147.2,231.6 149.2,230.1 149.2,229.3 149.2,227 
			149.2,224.8 149.2,223.7 147.2,222.5 143.3,220.3 		"/>
		<polygon class="st0" points="159.9,254.2 161.4,256.3 170.8,255.4 171.2,254.2 172,252 172.7,249.7 173.4,247.4 174.2,245.2 
			174.8,243.4 174.2,242.9 171.6,240.6 169.1,238.4 167.6,237.1 163.8,238.4 161.5,239.1 161,240.6 160.3,242.9 159.6,245.2 
			158.8,247.4 158.1,249.7 157.6,251.1 158.2,252 159.9,254.2 		"/>
		<polygon class="st0" points="128.7,254.2 129.1,255.4 138.6,256.3 140.1,254.2 141.8,252 142.4,251.1 141.9,249.7 141.2,247.4 
			140.4,245.2 139.7,242.9 139,240.6 138.5,239.1 136.2,238.4 132.4,237.1 130.9,238.4 128.3,240.6 125.8,242.9 125.2,243.4 
			125.8,245.2 126.5,247.4 127.3,249.7 128,252 128.7,254.2 		"/>
		<path class="st0" d="M154.8,213.4c-1.6-0.3-3.2-0.4-4.8-0.4c-1.6,0-3.2,0.1-4.8,0.4c-1.6,0.3-3.1,0.7-4.6,1.2l0.3,1.1l0.5,1.6
			l1.1,0.7l3.8,2.3l3.5,2.1l3.5-2.1l3.8-2.3l1.1-0.7l0.5-1.6l0.4-1.1C157.9,214.1,156.4,213.7,154.8,213.4L154.8,213.4z"/>
	</g>
</g>
</svg>
