<svg id="Layer_1" data-name="Layer 1" xmlns="http://www.w3.org/2000/svg" viewBox="0 0 300 300"><defs><style>.cls-1{fill:#fff;}.cls-2{fill:#0c4e97;}.cls-3{fill:none;stroke:#010101;stroke-miterlimit:2.61;stroke-width:0.38px;}.cls-4{fill:#064f98;}</style></defs><title>ofk-beograd</title><path class="cls-1" d="M150,296c14.28-7.88,28.91-15.24,43.58-22.55,4-1.93,7.77-3.86,8.9-4.37,21-10.54,38.32-20.86,50.5-32.24,12.53-11.74,19.61-24.5,19.61-39.57-.11-22.33-12.81-41.82-24.31-59.57-9.18-14-17.51-26.92-17.46-38.31,0-5,2.22-9.69,6.75-14.4,4.87-5.1,12.41-10.25,22.72-15.76l2.5-1.36L236.63,4.23l-3.29,3.51a44,44,0,0,1-16.66,10.82,61.67,61.67,0,0,1-22.33,3.63,68.3,68.3,0,0,1-23.3-4.42A57.54,57.54,0,0,1,152.18,6L150,4l-2.15,2a58.53,58.53,0,0,1-19,11.73,67.59,67.59,0,0,1-23.23,4.42,62,62,0,0,1-22.39-3.63A44.24,44.24,0,0,1,66.66,7.74L63.31,4.23,37.12,67.87l2.5,1.37C49.94,74.74,57.48,79.89,62.35,85c4.53,4.71,6.75,9.42,6.8,14.4.06,11.39-8.33,24.26-17.45,38.32-11.57,17.74-24.26,37.23-24.32,59.56-.06,15.07,7,27.83,19.61,39.57,12.13,11.38,29.47,21.7,50.5,32.24,1.07.51,4.87,2.44,8.84,4.37C121,280.76,135.63,288.12,150,296"/><path class="cls-2" d="M150.05,9.37c11.54,11,28,16.71,43.94,16.93,15.69.17,31-4.72,41-15.36l23.07,56.13c-21,11.31-30.88,21.1-30.94,32.69-.11,26.82,41.34,58.15,41.45,97.13.06,28-26.65,47.86-67.83,68.45-15.18,7.59-32.28,15.86-50.68,26-18.5-10.12-35.6-18.39-50.78-26C58.1,244.75,31.38,224.9,31.44,196.89c.11-39,41.56-70.31,41.45-97.13C72.84,88.17,63,78.38,42,67.07L65,10.94C75,21.58,90.33,26.47,106,26.3c16-.22,32.4-6,44-16.93"/><path class="cls-1" d="M181.9,263.37c-6.87,3.43-14.07,7.08-21.61,11V149H181.9Z"/><path class="cls-1" d="M229.93,237a262,262,0,0,1-27.51,16.09V149h27.51Z"/><path class="cls-1" d="M118.11,263.37c6.86,3.43,14.12,7.08,21.66,11V149H118.11Z"/><path class="cls-1" d="M70.13,237a260,260,0,0,0,27.46,16.09V149H70.13Z"/><path class="cls-1" d="M232.29,138.56c-8.16-12.77-14-24.86-14.4-37.4H82.17c-.44,12.54-6.3,24.63-14.45,37.4Z"/><path class="cls-1" d="M55.29,62.86c10.29,6.25,20.81,15,25.08,26.66h69.68V23c-13,8.72-24.57,12.54-42.23,12.77-13.67.23-25.7-2.48-37.51-9.56Z"/><path class="cls-1" d="M194.15,69.16c-5.56,0-10,6.58-10,14.51l0,5.85H159.73l5.41-9.34V69.84l-2.48-3.94V56.23h5v8h4.45v4.22h8.21V64.1h3.6v-20h-2.76V35.58h5v4.28h5.57V35.75h5v4.11h5.52V35.58h5v8.49h-2.81v20h3.66v4.33h8.21V64.21h4.43v-8h5V65.9l-2.52,3.94V80.18l5.56,9.34H204.22V83.67c0-7.93-4.44-14.46-10.07-14.51"/><path class="cls-3" d="M194.15,69.16c-5.56,0-10,6.58-10,14.51l0,5.85H159.73l5.41-9.34V69.84l-2.48-3.94V56.23h5v8h4.45v4.22h8.21V64.1h3.6v-20h-2.76V35.58h5v4.28h5.57V35.75h5v4.11h5.52V35.58h5v8.49h-2.81v20h3.66v4.33h8.21V64.21h4.43v-8h5V65.9l-2.52,3.94V80.18l5.56,9.34H204.22V83.67C204.22,75.74,199.78,69.21,194.15,69.16Z"/><path class="cls-4" d="M92.51,116.66c4.67,0,7.48,2.22,7.48,6s-2.81,6-7.48,6H84.69v-18.8H98.08V114H90.31v2.69Zm-.66,4.13H90.31v3.71h1.54c1.59,0,2.46-.54,2.46-1.86s-.87-1.85-2.46-1.85"/><polygon class="cls-4" points="103 109.83 117.03 109.83 117.03 113.92 108.63 113.92 108.63 116.95 116.02 116.95 116.02 121.03 108.63 121.03 108.63 124.58 117.29 124.58 117.29 128.63 103 128.63 103 109.83"/><path class="cls-4" d="M119.64,119.23c0-5.77,3.74-9.72,9.85-9.72s9.86,3.95,9.86,9.72-3.74,9.72-9.86,9.72-9.85-3.94-9.85-9.72m14,0c0-3.35-1.63-5.42-4.18-5.42s-4.17,2.07-4.17,5.42,1.62,5.43,4.17,5.43,4.18-2.07,4.18-5.43"/><polygon class="cls-4" points="142.54 109.83 156.82 109.83 156.82 114.08 148.16 114.08 148.16 128.63 142.54 128.63 142.54 109.83"/><path class="cls-4" d="M167,122.56h-2v6.07H159.4v-18.8H167c5,0,8.43,2.07,8.43,6.37s-3.39,6.36-8.43,6.36m-.18-8.7H165v4.68h1.8c1.89,0,2.93-.68,2.93-2.34s-1-2.34-2.93-2.34"/><path class="cls-4" d="M189.17,109.83l6.69,18.8h-6l-1-3.11h-6.76l-1,3.11h-6l6.69-18.8Zm-5.68,11.42h4.11l-2.06-6.61Z"/><path class="cls-4" d="M216.21,131.85h-5.63v-3.22h-7.91v3.22h-5.62v-7.46h1.86A44.79,44.79,0,0,0,200.24,113v-3.17H214v14.59h2.26Zm-7.74-7.46V114.08h-2.81a44.53,44.53,0,0,1-1.25,10.31Z"/><polygon class="cls-4" points="129.24 70.35 134.26 63.31 139.88 63.31 134.15 70.98 140.71 81.89 134.95 81.89 131.15 75.07 129.24 77.56 129.24 81.89 124.09 81.89 124.09 63.31 129.24 63.31 129.24 70.35"/><path class="cls-4" d="M110.74,54.77v2.52c4.38.37,7.22,2.79,7.22,6.77s-2.84,6.42-7.22,6.77v2.52h-5V70.83c-4.38-.35-7.22-2.79-7.22-6.77s2.84-6.4,7.22-6.77V54.77Zm-5,6.53a2.47,2.47,0,0,0-2.34,2.76,2.51,2.51,0,0,0,2.34,2.78Zm5,5.54a2.52,2.52,0,0,0,2.34-2.78,2.48,2.48,0,0,0-2.34-2.76Z"/><path class="cls-4" d="M75.14,53.62c0-5.71,3.42-9.61,9-9.61s9,3.9,9,9.61-3.42,9.61-9,9.61-9-3.9-9-9.61m12.84,0c0-3.32-1.48-5.36-3.82-5.36s-3.82,2-3.82,5.36S81.82,59,84.16,59s3.82-2,3.82-5.36"/></svg>