<svg id="Layer_1" data-name="Layer 1" xmlns="http://www.w3.org/2000/svg" viewBox="0 0 300 300"><defs><style>.cls-1,.cls-2,.cls-4,.cls-5,.cls-6{fill-rule:evenodd;}.cls-2,.cls-3{fill:#fff;}.cls-4{fill:#231f20;}.cls-5{fill:#ec1c24;}.cls-6{fill:#bbbdbf;}</style></defs><title>partizan</title><path class="cls-1" d="M177.63,271.74a104.91,104.91,0,0,0,76.7-100.85c0-57.52-46.94-104.28-104.5-104.28-57.22,0-104.16,46.76-104.16,104.28a104.72,104.72,0,0,0,76.88,100.85L150.09,295Z"/><path class="cls-2" d="M176.93,269.27a102.1,102.1,0,0,0,74.64-98.15c0-56-45.68-101.48-101.69-101.48-55.69,0-101.37,45.51-101.37,101.48a101.93,101.93,0,0,0,74.82,98.15l26.8,22.61Z"/><path class="cls-1" d="M150,72.56a98.72,98.72,0,1,1-98.72,98.72A98.73,98.73,0,0,1,150,72.56"/><path class="cls-2" d="M150,75.53a95.78,95.78,0,1,1-95.78,95.78A95.79,95.79,0,0,1,150,75.53"/><path class="cls-1" d="M122,57.12l7.84,5.38,6.85-10.28,5.08,4.94,5-9.87,3.27,2,2.62-2,5.56,9.83,5.26-4.93,6.37,10.6,8.51-5.71c7.51,22.91,3.35,40.21-5.93,51.41-13.14-5.38-31.26-6.08-46.1-1.33-8.91-14.73-12.26-32.51-4.38-50"/><path class="cls-2" d="M123.72,62.2l6.74,4.53L137.24,57l5.48,5.38,4.94-10.32,2.5,2,2-2,5.52,10.28L163,57.63l6.23,9.91,7.51-5c5.67,15.69,1.91,34.72-6.26,43.89-12.67-4.31-28.43-5.38-41.8-1.4-7.18-12.81-11-26.44-5-42.86"/><rect class="cls-3" x="133.22" y="265.1" width="32.73" height="5.85"/><path class="cls-1" d="M135.48,236.85v39.21L131.8,273V236.41a15.51,15.51,0,0,0,3.68.44m13,50-3.61-3.13v-46c1.18.08,2.43,0,3.61,0Zm6.55-3.09-3.64,3.09V237.77c1.18,0,2.43-.18,3.64-.26Zm6.52-5.45L158,281.48v-44c1.14-.11,2.39-.26,3.64-.37Zm2.91-41.54c1.18-.18,2.43-.4,3.61-.55v36.27l-3.61,3.2Zm-22.5.92v43.56l-3.61-2.94v-41.1c1.18,0,2.43.37,3.61.48"/><path class="cls-1" d="M150,102.51a68.8,68.8,0,1,1-68.8,68.8,68.81,68.81,0,0,1,68.8-68.8"/><path class="cls-2" d="M150,105.41a65.87,65.87,0,1,1-65.87,65.87A65.88,65.88,0,0,1,150,105.41"/><path class="cls-1" d="M150,108.3a63,63,0,1,1-63,63,63,63,0,0,1,63-63"/><path class="cls-2" d="M150,135.28a36,36,0,1,1-36,36,36,36,0,0,1,36-36"/><polygon class="cls-1" points="178.28 238.63 184.75 235.55 187.06 239.55 190.7 237.23 188.85 233.86 194.12 230.37 205.35 245.46 198.72 249.51 192.69 239.87 188.42 242.78 193.09 252.75 185.99 256.17 178.28 238.63"/><path class="cls-1" d="M110.67,235.84l1.7-3,6.26,3.15-8.13,18.83c-7.34-3.69-21.26-8.46-15-20,4.47-5.11,9.91-3.21,15.15,1"/><path class="cls-2" d="M108.6,239.68l-3.78,6.61c-3.28-1-5.86-4.25-4.29-6.89s5.58-2.13,8.07.28"/><polygon class="cls-1" points="79.12 229.39 88.75 209.51 92.84 215.29 92.02 217.59 96.98 222.91 98.85 222.11 102.52 225.67 83.6 234.32 79.12 229.39"/><polygon class="cls-2" points="88.08 226.99 90.59 221.81 93.42 224.85 88.08 226.99"/><polygon class="cls-1" points="194.7 228.16 199.5 224.04 202.88 225.38 208.11 219.57 206.37 216.69 209.43 213.37 218.94 232.07 214.23 237.05 194.7 228.16"/><polygon class="cls-2" points="206.19 226.74 209.51 222.81 212.73 228.93 206.19 226.74"/><path class="cls-1" d="M223.41,216.52c-2.47.52-5.31,1.28-8.08-.16-5.89-3.15-3.83-9.57-1.27-12.78,2.06-2.75,3.18-3.44,5.66-4.09a10,10,0,0,1,4.28.15l-.21,2.32a6.28,6.28,0,0,0-6.76,4.29c-.13,3.67,1.55,4.83,5,4.22l.58-2.8,3.2-.25,2.5,5.47,4.51-9.76,3.13,1.58-9.12,19Z"/><path class="cls-1" d="M68.07,194.15a6.63,6.63,0,0,1,8.78,1l3.73-5.14,3.26,8.2-3.39,6,5.1-2.15,2.86,5.61L71.16,217.89C67.23,211,59.78,200,68.07,194.15"/><path class="cls-2" d="M71.76,200.65c2.71-.52,4.34,1.86,5.46,5l-5.85,2.86c-1.85-3.37-2.48-6.33.39-7.82"/><polygon class="cls-1" points="60.3 193.21 57.88 174.76 62.67 174.31 63.34 179.72 78.47 177.93 79.36 183.96 64.19 186.86 64.72 192.63 60.3 193.21"/><polygon class="cls-1" points="218.37 195.53 218.5 195.29 220.04 189.96 226.57 192.15 221.3 185.35 221.78 178.75 241.68 180.31 240.67 188.23 227.5 186.55 232.66 193.34 238.34 195.25 236.53 201.68 218.37 195.53"/><polygon class="cls-1" points="57.67 169.41 58.2 161.23 78.72 162.92 78.24 169.52 57.67 169.41"/><polygon class="cls-1" points="237.75 171.74 221.82 171.8 221.79 165.92 237.84 165.74 237.68 159.74 241.84 159.64 241.81 178.13 237.77 178.11 237.75 171.74"/><polygon class="cls-1" points="78.68 160.34 66.12 148.27 63.35 157.36 58.89 155.36 65.04 137.09 77.24 148.9 79.77 142.99 83.27 144.58 78.68 160.34"/><path class="cls-1" d="M225.52,154.75l-2.46-6.7-3.73,1.34-2.71-6.47,17.67-8.08,5.1,11.94c1.24,6.66.05,9.06-3.32,10.91-1.52,1.29-7.9,1.8-10.55-2.94"/><path class="cls-2" d="M227,147l5.85-2.49c2.1,2.89,1.87,6.06,0,7.1-2.1.54-4.32,1.2-5.84-4.61"/><polygon class="cls-1" points="71 124.83 74.9 118.36 96.27 123.75 92.04 129.12 89.11 128.77 84.71 135.6 86.7 138.24 84.6 142.21 71 124.83"/><polygon class="cls-2" points="82.14 131.44 78.39 126.78 84.46 128.21 82.14 131.44"/><polygon class="cls-1" points="96.98 121.16 84.32 108.34 89.14 103.61 103.27 105.94 97.21 97.16 103.24 92.84 113.09 108.61 107.83 112.23 97.33 111 101.53 117.27 96.98 121.16"/><polygon class="cls-1" points="211.59 133.75 213.28 130.99 208.83 124.96 205.37 125.94 202.2 121.91 202.32 121.92 223.49 115.67 227.81 121.7 215.63 140.87 211.59 133.75"/><polygon class="cls-2" points="212.73 124.24 218.55 122.36 215.06 127.63 212.73 124.24"/><path class="cls-4" d="M207.45,126.88h0Z"/><polygon class="cls-1" points="196.48 115.87 205.59 104.19 201.18 100.73 192.06 112.78 185.96 108.77 196.22 91.86 214.58 106.22 201.1 120.32 196.48 115.87"/><path class="cls-2" d="M192.7,171.66l11.68.21,0,3-11.68-.21Zm-3-17.49L200.89,151l.81,2.83L197.41,155l5.43,2.76,1,3.45-6-3.19-5.17,6.52-1-3.43,3.6-4.45L194,156l-3.53,1Zm-7.4-16.85,1.88,2.17a1.86,1.86,0,0,0-.75,1.43,2.26,2.26,0,0,0,.69,1.55,2.69,2.69,0,0,0,1.15.87,1,1,0,0,0,1-.18,1,1,0,0,0,.28-.41.76.76,0,0,0,0-.47,10.85,10.85,0,0,0-.64-1.57c-.37-.81-.65-1.51-.85-2.09a4.55,4.55,0,0,1-.26-2.31,3,3,0,0,1,1-1.75,3.19,3.19,0,0,1,2.83-.79,5.36,5.36,0,0,1,3,1.92,5.05,5.05,0,0,1,1.41,3.2,3.47,3.47,0,0,1-1.31,2.78l-1.84-2.12a1.76,1.76,0,0,0,.52-1.22,2.55,2.55,0,0,0-1.6-2,.87.87,0,0,0-.87.16c-.38.33-.28,1.2.3,2.58l.25.58,0,.11a10.27,10.27,0,0,1,.93,2.85,3,3,0,0,1-.25,1.37,3.18,3.18,0,0,1-.85,1.13,3.14,3.14,0,0,1-2.92.76,6.2,6.2,0,0,1-3.2-2.18,5.14,5.14,0,0,1-1.49-3.3,3.76,3.76,0,0,1,.36-1.58,4.64,4.64,0,0,1,1.17-1.49m-15.88-5.65,5.12-10.5,2.7,1.32-4,8.22,5.08,2.48-1.11,2.27Zm-13.5-14.82,3.26.23,3.3,11.94-3.2-.22-.57-2.19-3.89-.27-.81,2.09-3.1-.22Zm-.22,7.12,2.55.18-1-4.11Zm-20.87,8.42-3.8-11,5.36-1.85a5,5,0,0,1,3.08-.28,2.66,2.66,0,0,1,1.66,1.81,2.74,2.74,0,0,1,.1,1.61,2.81,2.81,0,0,1-.94,1.33,2.84,2.84,0,0,1,1.77.39,2.6,2.6,0,0,1,1.06,1.42,3.49,3.49,0,0,1,.15,1.8,3.14,3.14,0,0,1-.78,1.59,4,4,0,0,1-1.12.84c-.24.13-.54.26-.89.41s-.8.3-1.33.49Zm2-3.14,2.14-.73a2.69,2.69,0,0,0,1.32-.77,1.16,1.16,0,0,0,.08-1.09,1.18,1.18,0,0,0-.7-.77,2,2,0,0,0-1.26.1l-2.42.83Zm-1.56-4.52,2.28-.79a2,2,0,0,0,1-.63,1,1,0,0,0,.07-.93,1,1,0,0,0-.59-.64,1.62,1.62,0,0,0-1.07.07l-2.39.82ZM117.3,143.18l-8-8.54,3.65-3.4a5.09,5.09,0,0,1,3.94-1.61,6.2,6.2,0,0,1,4,2.23,6,6,0,0,1,1.94,4.18,5.84,5.84,0,0,1-2.17,4Zm.53-3.84,1.18-1.11a2.44,2.44,0,0,0,.93-2,5.37,5.37,0,0,0-3.49-3.75,2.46,2.46,0,0,0-2,.79l-1.18,1.11ZM98,154l1.24-2.67,6.62,3.09a2.6,2.6,0,0,0,1.74.31,2.46,2.46,0,0,0,1.27-2.72,2.55,2.55,0,0,0-1.36-1.14l-6.62-3.08,1.26-2.7L108.4,148a7.79,7.79,0,0,1,2,1.24,3.44,3.44,0,0,1,.94,1.5,4.5,4.5,0,0,1,.16,1.84,6.27,6.27,0,0,1-.58,2,6.58,6.58,0,0,1-1.15,1.74,4.72,4.72,0,0,1-1.52,1,3.44,3.44,0,0,1-1.77.25,7.79,7.79,0,0,1-2.23-.72ZM107,174.64l-11.68-.41.3-8.38,2.42.09-.19,5.4,2.42.09.16-4.69,2.42.08-.16,4.69,4.41.16Z"/><path class="cls-2" d="M180,216.69l-7.19-9.21,4.47-3.49a5,5,0,0,1,2.82-1.27,3,3,0,0,1,2.77,2.66,2.75,2.75,0,0,1-.45,1.57,2.83,2.83,0,0,1,1.8-.22,2.7,2.7,0,0,1,1.47,1,3.58,3.58,0,0,1,.73,1.66,3.23,3.23,0,0,1-.23,1.76,3.91,3.91,0,0,1-.78,1.15,8.06,8.06,0,0,1-.71.67c-.28.25-.65.56-1.1.9Zm.83-3.6,1.78-1.39a2.78,2.78,0,0,0,1-1.16,1.13,1.13,0,0,0-.28-1,1.16,1.16,0,0,0-.92-.5,2,2,0,0,0-1.15.49l-2,1.58Zm-3-3.77,1.89-1.48a1.91,1.91,0,0,0,.72-.92,1,1,0,0,0-.22-.9,1,1,0,0,0-.77-.42,1.67,1.67,0,0,0-1,.42l-2,1.55Zm-24.14,5.09,2.86-.71,1.76,7.08a2.56,2.56,0,0,0,.86,1.55,1.93,1.93,0,0,0,1.59.13,1.88,1.88,0,0,0,1.32-.85,2.62,2.62,0,0,0,0-1.78l-1.77-7.08,2.89-.72,1.67,6.74a7.39,7.39,0,0,1,.29,2.33,3.31,3.31,0,0,1-.57,1.68,4.52,4.52,0,0,1-1.33,1.28,6,6,0,0,1-1.92.81,6.6,6.6,0,0,1-2.07.2,4.6,4.6,0,0,1-1.77-.52,3.44,3.44,0,0,1-1.31-1.23,7.33,7.33,0,0,1-.85-2.18ZM134,223.35,136.62,212l2.92.68-2.06,8.91,5.51,1.28-.57,2.46Zm-21.64-12.54,7.35-9.08,2.29,1.85-2.8,3.47,6-.85,2.79,2.26-6.76.84-.5,8.3L118,215.36l.39-5.7-1.41.15-2.31,2.85Z"/><polygon class="cls-5" points="129.74 199.68 149.97 184.47 170.46 199.59 162.54 175.32 182.77 160.02 157.53 160.02 150.14 136.28 142.4 159.93 117.16 159.93 137.83 175.24 129.74 199.68"/><path class="cls-5" d="M174.55,68.12l-6.59,4c.77,11.16-.54,21.11-4.43,29.75l3.84.89c7.07-8.63,10.88-23.25,7.18-34.68m-20,27.2a53.25,53.25,0,0,0,1.84-16.58,73.25,73.25,0,0,0-4.45-21.82l-1.3-1,0,44.33,2.79-.09ZM138.2,101c-4.39-12.35-7.7-26.94-2.42-39.72l6.42,5.31c-3,12.34-2.57,22.65,1.62,33.46Zm22.9.38c5-9.19,7.68-27.32,2.41-40.1l-6.42,5.31c3,12.34,2.58,23-1.61,33.84ZM125.66,68.12l5.59,3.63a65.86,65.86,0,0,0,5.06,29.64l-3.71.89c-7.07-8.63-10.64-22.73-6.94-34.16m19.16,27.2A53.25,53.25,0,0,1,143,78.74a73.25,73.25,0,0,1,4.45-21.82l1.3-1,0,44.33-2.79-.09Z"/><path class="cls-6" d="M192.88,22.08,187.38,5l-5.66,17.08H163.24L178,32.89l-5.84,17.52,15-10.81L202.2,50.76l-5.75-17.87,15.16-10.81Zm-77.52,0L109.87,5l-5.66,17.08H85.73l14.73,10.81L94.62,50.41l15-10.81,15.08,11.16-5.76-17.87L134.1,22.08Z"/></svg>