<?xml version="1.0" encoding="utf-8"?>
<!-- Generator: Adobe Illustrator 22.1.0, SVG Export Plug-In . SVG Version: 6.00 Build 0)  -->
<svg version="1.1" id="Layer_1" xmlns="http://www.w3.org/2000/svg" xmlns:xlink="http://www.w3.org/1999/xlink" x="0px" y="0px"
	 viewBox="0 0 300 300" style="enable-background:new 0 0 300 300;" xml:space="preserve">
<style type="text/css">
	.st0{fill-rule:evenodd;clip-rule:evenodd;fill:#FFFFFF;}
	.st1{fill-rule:evenodd;clip-rule:evenodd;fill:#E33230;}
	.st2{fill:#E33230;}
	.st3{fill:#FFFFFF;}
</style>
<g>
	<path class="st0" d="M150,291.5c63.7,0,118.7-42.7,118.7-109.3V8.5H150V291.5L150,291.5z"/>
	<path class="st0" d="M150,291.5c-63.7,0-118.7-42.7-118.7-109.3V8.5H150V291.5L150,291.5z"/>
	<path class="st1" d="M26.9,5h246.2v176c0,67.7-55.4,114-123.1,114c-67.4,0-123.1-46.6-123.1-114V5L26.9,5z M31.3,9.4V181
		c0,66.2,55.1,109.6,118.7,109.6c63.9,0,118.7-43.1,118.7-109.6V9.4H31.3L31.3,9.4z"/>
	<path class="st1" d="M150,286.2c61.4,0,114.3-41.1,114.3-105.2V13.8H150V286.2L150,286.2z"/>
	<path class="st0" d="M150,177.5c8.7,0,15.8,7.1,15.8,15.8v40H203l-10.2-83.3l-14.7,0l0,9.3l-13.2,0l-2.3-12.4H150V177.5L150,177.5z
		"/>
	<path class="st1" d="M96.9,233.4h37.2v-40c0-8.7,7.1-15.8,15.8-15.8l0,0h0v-30.6h-12.6l-2.5,12.4l-13,0l0-9.2l-14.8,0L96.9,233.4
		L96.9,233.4z"/>
	<polygon class="st1" points="63.1,216 95.9,216 102.3,165.5 91.3,165.5 88.7,172.3 72.1,172.3 63.1,216 	"/>
	<polygon class="st0" points="236.9,216 204.1,216 197.7,165.5 208.6,165.5 211.3,172.3 227.9,172.3 236.9,216 	"/>
	<path class="st2" d="M58.5,46.9v-30H54c0,1.2-0.5,2.3-1.5,3.4c-0.5,0.5-1.2,0.9-2.1,1.2c-0.9,0.4-2,0.6-3.4,0.6h-0.8v4.1h6.8v20.7
		H58.5L58.5,46.9z"/>
	<path class="st2" d="M87.4,32.4c0-1.1-0.1-2.5-0.2-4.2c-0.1-1.7-0.5-3.4-1.2-5.1c-0.6-1.7-1.6-3.1-2.9-4.3
		c-1.4-1.2-3.3-1.7-5.8-1.8c-2.8,0-5.1,0.9-6.9,2.6c-1.9,1.8-2.8,4.5-2.8,8.1c0,2.6,0.8,4.8,2.3,6.6c1.5,1.9,3.6,2.8,6.4,2.8
		c1,0,2-0.1,3-0.5c1-0.4,1.8-1,2.4-2l0.1,0.1c0,3.1-0.5,5.3-1.4,6.5c-0.9,1.3-2,1.9-3.2,1.9c-1.8,0-2.9-1-3.3-3v0h-5.6
		c0.8,5,3.7,7.6,8.9,7.7c2.7,0,5-1.1,7.1-3.4c1-1.2,1.8-2.8,2.4-4.7C87.1,37.7,87.4,35.2,87.4,32.4L87.4,32.4z M81.6,27.3
		c0,1.8-0.5,3-1.3,3.8c-0.8,0.8-1.8,1.2-2.8,1.2c-1.1,0-2-0.3-2.8-1.1c-0.4-0.4-0.7-1-0.9-1.7c-0.3-0.7-0.4-1.6-0.4-2.7
		c0-1.1,0.2-2,0.5-2.6c0.3-0.7,0.6-1.2,1.1-1.6c0.4-0.4,0.9-0.6,1.3-0.7c0.5-0.1,0.9-0.2,1.2-0.2C80.2,21.9,81.6,23.7,81.6,27.3
		L81.6,27.3z"/>
	<path class="st2" d="M110.5,46.9v-5.2H98.1c0.3-0.7,1-1.4,2-2.3c1-0.8,2.5-1.9,4.3-3.2c0.7-0.5,1.4-1.1,2.1-1.7
		c0.7-0.6,1.3-1.3,1.9-2c1.3-1.5,1.9-3.5,1.9-6c0-3.1-1-5.4-2.8-7c-1.8-1.6-4.1-2.5-7-2.5c-0.7,0-1.5,0.1-2.5,0.2
		c-1,0.2-2.1,0.7-3.1,1.4c-1,0.7-1.9,1.8-2.6,3.2c-0.8,1.5-1.1,3.4-1.1,5.8h5.5c0-0.3,0.1-0.6,0.1-0.9c0-0.3,0-0.6,0-0.9
		c0.1-0.6,0.2-1.3,0.5-1.8c0.3-0.6,0.7-1,1.2-1.4c0.5-0.4,1.3-0.5,2.3-0.5c1.3,0,2.3,0.5,3,1.3c0.6,0.9,0.9,1.9,0.9,2.9
		c0,1.6-0.5,3-1.6,4.2c-1.1,1.2-3,2.8-5.6,4.7c-2.9,2.3-4.8,4.5-5.5,6.4c-0.4,1-0.7,1.9-0.8,2.8c-0.1,0.9-0.2,1.8-0.3,2.7H110.5
		L110.5,46.9z"/>
	<path class="st2" d="M134.2,38.1c0-1.3-0.2-2.4-0.5-3.3c-0.3-0.9-0.8-1.5-1.3-2.1c-0.5-0.5-0.9-0.9-1.4-1.2
		c-0.5-0.3-0.9-0.4-1.2-0.4V31c0.9-0.4,1.7-1.1,2.4-2c0.7-0.9,1.1-2.2,1.1-3.7c-0.1-3.1-1-5.3-2.9-6.6c-1.9-1.2-3.8-1.8-5.9-1.8
		c-3.2,0-5.6,0.9-7.1,2.7c-1.6,1.8-2.3,4.1-2.3,7h5.2c0-0.3,0-0.7,0.1-1.3c0-0.5,0.2-1,0.4-1.6c0.2-0.6,0.6-1.1,1.2-1.5
		c0.5-0.4,1.2-0.6,2.2-0.6c0.8,0,1.4,0.1,1.9,0.4c0.5,0.2,0.8,0.6,1.1,1.1c0.3,0.4,0.4,0.9,0.5,1.3c0,0.4,0.1,0.8,0.1,1.1
		c0,1-0.2,1.7-0.5,2.2c-0.3,0.6-0.7,1-1.3,1.2c-0.5,0.2-1,0.4-1.5,0.5c-0.5,0.1-1.1,0.1-1.5,0.1H122v4.2c0.7,0,1.4,0,2.1,0
		c0.7,0.1,1.4,0.3,2,0.6c0.7,0.2,1.2,0.6,1.6,1.2c0.4,0.6,0.6,1.4,0.6,2.5c0,1.6-0.4,2.9-1.2,3.7c-0.8,0.9-1.8,1.3-3,1.3
		c-0.9,0-1.7-0.2-2.2-0.6c-0.6-0.4-1-0.8-1.3-1.4c-0.3-0.6-0.5-1.2-0.5-1.8c-0.1-0.6-0.2-1-0.2-1.4l0,0h-5.5c0,2.3,0.5,4.1,1.2,5.4
		c0.8,1.4,1.7,2.4,2.8,3c1.1,0.6,2.2,1.1,3.3,1.3c1.1,0.2,2,0.2,2.7,0.2c2.9,0,5.3-0.9,7-2.7C133.2,43.2,134.1,40.9,134.2,38.1
		L134.2,38.1z"/>
	<path class="st2" d="M148.2,96c0-1.7-0.3-3.1-1-4.2c-0.6-1.1-1.5-2-2.5-2.7c-1-0.7-2.1-1.1-3.2-1.4c-1.1-0.3-2.2-0.4-3.2-0.4v-2.3
		h-4.5v2.3c-1,0-2,0.1-3.1,0.4c-1.1,0.3-2.2,0.7-3.2,1.4c-1,0.6-1.8,1.5-2.4,2.7c-0.7,1.1-1,2.5-1,4.2c0,1.6,0.3,3,1,4.1
		c0.6,1.1,1.4,2,2.4,2.7c1,0.7,2.1,1.1,3.2,1.4c0.5,0.1,1.1,0.2,1.6,0.3c0.5,0.1,1,0.1,1.5,0.1v2.4h4.5v-2.4c0.5,0,1-0.1,1.5-0.1
		c0.5-0.1,1.1-0.2,1.6-0.3c1.1-0.3,2.2-0.7,3.2-1.4c1-0.7,1.8-1.6,2.5-2.7C147.8,99.1,148.1,97.7,148.2,96L148.2,96z M143.7,95.8
		c0,1-0.2,1.8-0.5,2.5c-0.3,0.6-0.8,1.2-1.3,1.5c-0.2,0.2-0.5,0.3-0.8,0.5c-0.3,0.1-0.6,0.2-0.9,0.3c-0.6,0.2-1.2,0.2-1.8,0.2v-10
		c0.6,0,1.2,0.1,1.8,0.2c0.3,0.1,0.6,0.1,0.9,0.3c0.3,0.1,0.5,0.3,0.8,0.5c0.5,0.4,1,0.9,1.3,1.6C143.5,93.9,143.7,94.8,143.7,95.8
		L143.7,95.8z M133.9,100.8c-0.6,0-1.1-0.1-1.8-0.2c-0.6-0.1-1.2-0.4-1.7-0.8c-0.5-0.4-0.9-0.9-1.3-1.5c-0.4-0.7-0.5-1.5-0.5-2.5
		c0-1,0.2-1.9,0.5-2.6c0.3-0.7,0.7-1.2,1.3-1.6c0.5-0.4,1.1-0.6,1.7-0.8c0.6-0.1,1.2-0.2,1.8-0.2V100.8L133.9,100.8z"/>
	<polygon class="st3" points="172.3,107.1 163,94.1 171.7,85.1 165.9,85.1 157.7,94.1 157.7,85.1 153.2,85.1 153.2,107.1 
		157.7,107.1 157.7,99.6 159.8,97.4 166.5,107.1 172.3,107.1 	"/>
	<path class="st2" d="M79.7,119.6c-0.1-4.6-2.3-6.9-6.7-7h-9.8v21.8h4.5v-7.8h5.2c1.5,0,2.6-0.3,3.5-0.9c0.9-0.5,1.6-1.2,2.1-1.9
		c0.5-0.8,0.8-1.6,1-2.3C79.6,120.7,79.7,120.1,79.7,119.6L79.7,119.6z M75.2,119.3c0,0.2,0,0.6,0,1c-0.1,0.4-0.2,0.7-0.4,1.1
		c-0.2,0.4-0.5,0.7-1,0.9c-0.4,0.3-1.1,0.4-2,0.4h-4.2v-6.4h3.6C73.9,116.2,75.2,117.2,75.2,119.3L75.2,119.3z"/>
	<path class="st2" d="M100.8,134.4l-7.6-21.9H88l-7.6,21.9h4.7l1.5-4.4h7.9l1.4,4.4H100.8L100.8,134.4z M93.3,126.1h-5.5l2.7-8.7
		h0.1L93.3,126.1L93.3,126.1z"/>
	<path class="st2" d="M125.1,139v-8.5h-2.1v-18.1h-14.6v6.5c0.1,5.1-0.7,8.9-2.5,11.6h-1.9v8.5h4.2v-4.6H121v4.6H125.1L125.1,139z
		 M118.6,130.5h-8.1c0.9-1.5,1.5-3,1.8-4.7c0.3-1.6,0.4-3.8,0.4-6.5v-3h5.9V130.5L118.6,130.5z"/>
	<polygon class="st2" points="147.1,134.4 147.1,112.5 142.6,112.5 142.6,120.8 134.2,120.8 134.2,112.5 129.7,112.5 129.7,134.4 
		134.2,134.4 134.2,124.6 142.6,124.6 142.6,134.4 147.1,134.4 	"/>
	<polygon class="st3" points="171.3,134.4 171.3,112.4 166.3,112.4 157.8,127.7 157.7,127.7 157.7,112.4 153.2,112.4 153.2,134.4 
		158,134.4 166.8,118.7 166.9,118.7 166.9,134.4 171.3,134.4 	"/>
	<path class="st3" d="M192.1,134.4v-22h-4.5v9c-1.5,0.2-3,0.3-4.4,0.3c-0.9,0-1.7-0.2-2.3-0.7c-0.6-0.4-1-1.2-1-2.2v-6.4h-4.5v6.4
		c0,2.5,0.7,4.2,2,5.3c0.3,0.3,0.6,0.5,1,0.7c0.4,0.2,0.7,0.4,1.1,0.5c0.8,0.3,1.6,0.4,2.4,0.4c1.9,0,3.8-0.1,5.6-0.4v9.2H192.1
		L192.1,134.4z"/>
	<polygon class="st3" points="216.2,134.4 206.9,121.4 215.6,112.5 209.8,112.5 201.6,121.4 201.6,112.5 197.1,112.5 197.1,134.4 
		201.6,134.4 201.6,126.9 203.7,124.8 210.4,134.4 216.2,134.4 	"/>
	<polygon class="st3" points="236.8,134.4 236.8,112.4 231.8,112.4 223.2,127.7 223.2,127.7 223.2,112.4 218.7,112.4 218.7,134.4 
		223.5,134.4 232.3,118.7 232.3,118.7 232.3,134.4 236.8,134.4 	"/>
	<polygon class="st2" points="136.1,267.9 136.1,246 131.6,246 131.6,254.3 123.2,254.3 123.2,246 118.7,246 118.7,267.9 
		123.2,267.9 123.2,258.2 131.6,258.2 131.6,267.9 136.1,267.9 	"/>
	<polygon class="st3" points="158.8,267.9 158.8,246 153.8,246 150,252.8 150,260 154.3,252.3 154.3,252.3 154.3,267.9 158.8,267.9 
			"/>
	<polygon class="st2" points="150,252.8 145.2,261.3 145.2,261.3 145.2,246 140.7,246 140.7,267.9 145.5,267.9 150,260 150,252.8 	
		"/>
	<polygon class="st3" points="188.1,267.9 188.1,246 183.6,246 183.6,264.1 178,264.1 178,246 173.5,246 173.5,264.1 167.9,264.1 
		167.9,246 163.4,246 163.4,267.9 188.1,267.9 	"/>
</g>
</svg>
