<?xml version="1.0" encoding="utf-8"?>
<!-- Generator: Adobe Illustrator 22.1.0, SVG Export Plug-In . SVG Version: 6.00 Build 0)  -->
<svg version="1.1" id="Layer_1" xmlns="http://www.w3.org/2000/svg" xmlns:xlink="http://www.w3.org/1999/xlink" x="0px" y="0px"
	 viewBox="0 0 300 300" style="enable-background:new 0 0 300 300;" xml:space="preserve">
<style type="text/css">
	.st0{fill-rule:evenodd;clip-rule:evenodd;fill:url(#SVGID_1_);}
	.st1{fill-rule:evenodd;clip-rule:evenodd;fill:#FFFFFF;}
</style>
<g>
	<linearGradient id="SVGID_1_" gradientUnits="userSpaceOnUse" x1="22.0995" y1="150" x2="277.9005" y2="150">
		<stop  offset="0" style="stop-color:#ED212A"/>
		<stop  offset="0.42" style="stop-color:#E8222B"/>
		<stop  offset="0.74" style="stop-color:#C8252F"/>
		<stop  offset="0.88" style="stop-color:#C2262E"/>
		<stop  offset="1" style="stop-color:#C1272E"/>
	</linearGradient>
	<path class="st0" d="M150,5l5.5,0.6c22,2.6,43.3,7,60.2,12.3c17.7,5.5,31.5,12.9,39.5,19.2c9.2,7.2,12.3,17.5,13.4,29.8
		c0.8,8.7,1.9,18.3,2.1,28.7c1.2,95-64.3,166.3-120.2,199.1L150,295l-0.6-0.4C93.5,261.8,28.1,190.5,29.3,95.6
		c0.1-10.4,1.3-20,2.1-28.7c1.1-12.3,4.2-22.6,13.4-29.8c8-6.3,21.8-13.7,39.5-19.2c17.1-5.3,38.7-9.8,60.9-12.3L150,5z"/>
	<path class="st1" d="M126.8,144.5c-4.4-5.4-5.5-9.2-4.4-12.1c1.4-4.1,6.2-6.3,10.1-8.3c2.1-1.1,2.6-0.1,4.7-1.2
		c2.9-1.5,4.1-3.8,5.4-6.1c1.3-2.1,4.6-4,7.5-1.4c1,0.9,1.2,4.3,3.1,6.2c1.6,1.6,2.8,2.3,4.8,3.1c4.2,1.6,9.2,2.6,11.1,8.8
		c10.3,6,21.3,11.9,18.8,22.5c-9.2,5.2-22.3,6.8-27.2,6.4c-2.7-0.2-4.2-2.5-4.8-3.5c3.5,0.1,8.5-0.9,12.7-2.2
		c5.4-1.7,10.4-3.6,14.5-2.9c0.8-4.5-2.5-8.7-5.9-10.7c-5-3-11.9-3.3-20.5-0.6c-0.7-4.7-5.3-6.8-9.3-6.8
		C140.1,135.4,131.5,141.1,126.8,144.5z"/>
	<path class="st1" d="M180.8,149.7c-6.7-1.1-11.7-0.5-16.1,1.8c-9.1,4.8-16.3,14.8-26.2,17.4c-2.2,0.2-6.1-1-8.9-2.1
		c4.4-4.8,14.2-13.1,22.9-16.7C161.2,146.5,174.4,144.1,180.8,149.7z"/>
	<path class="st1" d="M136.9,170.2c-9.8-1.6-13.2-4.2-16.4-8.1c-3.3-4-3.3-8.8-1.5-13c-12.7,4-15.2,13.1-9.8,20.5
		C114.8,177.3,127.6,175.4,136.9,170.2z"/>
	<path class="st1" d="M150,7.4c-12.3,1.4-24.8,3.6-37.3,6.2C99.1,16.5,90,19.2,77.4,23.8c-8.2,3-16.1,6.8-21.9,10.9
		c-4.8,3.4-10.2,8-12.5,13.7c-2.1,5.4-3.6,14.8-4.5,23.4c-0.7,6.8-1,12.8-1.1,18.1c-0.2,25.7,3.5,50,14.3,76.4
		c20.1,49.2,55.3,85.7,98.2,111.9c31.8-19.5,56-41.2,76.5-71.1c24.8-36.1,37.1-76.1,36.3-117.9c-0.2-13.1-1.7-29.3-5.1-39.4
		c-1.6-4.8-5.2-9.6-10.9-13.8c-9.5-7-23.3-12.4-31.9-15.1c-9.2-2.8-18.7-5.3-28.1-7.3c-10.5-2.2-20.8-4.2-31.4-5.5L150,7.4L150,7.4z
		 M125,252.3c8.7-6.2,14.3-14.8,17.7-25c0.4-1.1,1.5-0.8,1.3,0.3c-1.6,11.9-1.2,23.6,5.5,34c10.1-7.8,14.9-19.3,15.6-31.7
		c-1.9,4.7-4.8,8.9-9,12.5l-0.7,0.6l-0.4-0.8c-5.5-10.8-6.7-22.5-4.9-34.3l0.1-0.7l1.4,0.2l-0.1,0.7c-1.7,11.3-0.7,22.4,4.3,32.7
		c7.4-6.6,10.1-15.3,11.2-24.9l-0.1-0.1c-4.7-9.6-5.6-19.5-3.4-30c0.3-1.2,1.6-0.9,1.3,0.3c-2.1,9.9-1.4,19.1,2.9,28.2
		c7.2-8.2,10.4-18.1,11.8-28.8c0.1-0.9,1.3-1,1.4,0c0.9,10.5,4.2,19.7,12.2,26.8c4.8-9.1,5.5-19.7,5.2-29.8c0-1.2,1.2-1.3,1.4-0.1
		c1.4,8.5,6.1,18.7,13.6,23.6c4.9-9.1,4.9-22.4,3.8-32.8c-0.1-0.9-0.2-1.7-0.3-2.6c-0.1-1,1.2-1.3,1.4-0.1c0.1,0.8,0.2,1.7,0.3,2.5
		c1,7.2,3.8,14,8.5,19.6c3.5-6.7,3.7-15.2,2.3-22.4c-0.2-1.2,1.1-1.5,1.3-0.3c0.9,4,2.3,8,5,11.2c-0.2,0.4-0.5,0.9-0.7,1.3l-0.3-0.4
		c-1.3-1.6-2.3-3.3-3.2-5.1c0.2,6-0.8,12.2-3.7,17.2l-0.5,0.8l-0.6-0.7c-3.4-3.9-5.9-8.3-7.5-13.1c0.3,9.1-0.7,19-4.9,26.2l-0.3,0.6
		l-0.6-0.4c-0.3-0.2-0.6-0.4-0.9-0.6c0.1,2.9,0.1,6.2,0,9.6c-0.5,0.6-1,1.1-1.5,1.7c0.3-4.4,0.2-8.8,0.1-12.4
		c-5.3-4.2-9-10.9-11.1-17.5c-0.1,7.2-1.1,14.5-3.8,21.2l0,0.1c0.7,5.8,2.5,13,5.2,19.3c-0.3,0.4-0.7,0.7-1,1.1
		c-2.5-5.8-4.4-12.4-5.2-18.1c-0.3,0.6-0.6,1.2-0.9,1.7l-0.4,0.7l-0.6-0.5c-1-0.9-2-1.8-2.9-2.7c-0.3,9.1-1.5,17.7-7.2,25.3
		l-0.3,0.4c0.5,2.6,1.2,5.5,2.1,8c-0.4,0.3-0.7,0.6-1.1,1c-0.5-1.3-0.9-2.6-1.3-3.9c-0.1,1.8-0.2,3.6-0.4,5.4
		c-0.5,0.4-1,0.9-1.6,1.3c0.6-4.3,0.7-8.8,0.6-13c-5.3-6.5-7.6-17.5-8-25.9c-1.3,2.1-2.8,4-4.5,5.9c-0.4,3.5-1,6.9-1.9,10.2l0,0.3
		c0.1,4.7-0.4,9.3-1.5,13.7c0.5,5.5,2.2,11.7,4.9,17.1c-0.4,0.3-0.7,0.6-1.1,0.8c-2.3-4.5-3.9-9.7-4.7-14.6
		c-2.6,7.9-7.3,14.9-14.3,20.1l-0.6,0.4l-0.4-0.6c-6.3-9.3-7.5-19.6-6.7-30.2c-3.5,8.1-8.7,15.1-15.9,20.4
		C125.7,252.9,125.3,252.6,125,252.3L125,252.3z M239,170.8c-0.1-4.2-0.2-8.3,0-12.5c-3.2-2.7-6.9-6.6-9.7-11.9
		c-0.8-1.5,0.6-2,1.3-0.7c4.2,7.6,8.4,11.3,11.4,13.3c-1.7-4.5-1.7-12.5-2.6-19.5c-0.5-4.5-1.7-10-2.8-12.4
		c-2.2-4.8-5.4-7.7-8.4-10.1c2.9-0.5,3.1-1.4,4.2-2.4c-3-1.1-11.3-5.8-19-9.8c-7-3.7-13-5.7-22.4-5.9c-12.1-0.3-25.6,7.6-32,14.3
		c3.2,3.1,6.8,5.2,9.6,7c12.2-5.5,22.4-6.3,26-2.8c-2,0.7-4.5-0.4-6.6,0.1c-1.3,0.3-1.2,2.2-1.6,2.5c-0.8-0.2-1.2-1.1-1.2-1.9
		c0-0.8-2.3-0.2-2.8,0c-1.3,0.7,0.6,4.4-2.9,4.6c-3.2,0.2-3.7-1.1-5.4-1.6c-1.3-0.3-2.6-0.1-3.9,0.5c3.6,4.7,9.9,4.9,13.8,2.2
		c0.6-0.4,1.3-0.9,1.5-0.6c0.1,0.3-0.1,1.3-0.7,1.7c-2.2,1.9-5.3,2.4-7,2.4c-2.9-0.1-5.8-1.1-9-4.4c-1.2-0.3-1.5,2.4-0.8,5
		c0.4,1.5,1.5,3,2.4,3.9c3.7,3.6,8.6,5.1,12.6,8.3c2.1,1.7,3.9,3.6,5.4,7.2c1,2.4,1.3,5.8,0.8,8.4c-0.3,1.4-1.1,1.8-1.7,2.8
		c1.5,1.7,6.7,2.6,12.1,1.3c3.8-0.9,7.8-4,9.5-5.7c1.7-1.8,3.3-3.5,4.5-5.7c0.8-1.5,1.7-2.9,2-4.9c0.7-4.2,0.2-9.5-3.6-15
		c-0.9-1.3,0.5-1.7,1.3-0.8c3.8,4.1,4.9,11.8,3.8,16.7c-0.9,4.1-4.1,8-5.8,9.7c-5.1,5.1-13.1,11.3-26.5,6c-13,8.2-23.1,18-31.7,26.4
		c-7.7,7.5-16.9,18-23.6,20.5c6.1,2.6,9.7,1.2,13.2-0.4c5.4-2.4,8.8-6.3,14.1-9.9c0.6-0.4,1.6,0.8,1,1.3c-2.2,1.7-4.8,3.9-6.3,5
		c-1.8,1.4-3.4,1.7-5.2,2.9c-3,1.9-5.6,3.8-8.1,6.5c-9.9,10.7-15,27.3-13.3,39.8c-28.6-23-52.7-52.7-66.8-88.4
		c-11.9-30.1-15.6-58.6-12.4-90.4c0.9-9.2,1.8-20.1,7.3-27.5c2.5-3.3,5.8-6.1,10-8.8c4.4-2.8,10.5-6.3,17.3-8.9
		c11.7-4.5,22.1-7.3,34.3-9.9c11.9-2.5,23.5-4,35.5-5.5c14.7,1.7,25.2,3.2,36.5,5.5c17.2,3.5,40.1,10.7,54.1,21
		c3.6,2.6,8.3,6.7,10.4,12.4c2.4,6.3,3.7,16.9,4,24c0.2,4.7,0.6,9.3,0.7,13.3c0.4,20.2-3.3,42.6-8.3,58.7
		C245.4,155.5,242.4,163.2,239,170.8L239,170.8z M188.7,209.7c-0.2,9.1-1.1,17.7-6.5,25.2c-5.6-6.6-7.8-18.5-7.9-26.7l0-0.7l0,0
		c3-5.3,4.8-11.1,6-17.1C181.4,197.6,184,204.2,188.7,209.7z"/>
	<path class="st1" d="M155.3,112.5c3.3,0.9,7.2,6.9,11.5,7.8c-0.7,2.3-0.7,4.6-0.5,6.7c-1.1-0.8-3.3-1.6-5.3-2.6
		c-1.9-0.9-4.3-2.2-5.9-3.4c-1.1-0.8-1.6-1.7-2-2.4c-0.5-0.8-1.5-4-0.8-5.7C152.7,111.6,155.2,112.5,155.3,112.5z"/>
	<path class="st1" d="M69.9,57.7h2.9l0.2-1.3c0.7,0,1.4-0.1,2.1-0.3c0.7-0.2,1.4-0.5,2-0.8c0.6-0.4,1.2-0.8,1.7-1.4
		c0.5-0.6,0.9-1.3,1.2-2c0.3-0.8,0.4-1.7,0.4-2.7c0-0.7-0.1-1.4-0.3-1.9c-0.2-0.6-0.4-1.1-0.7-1.5c-0.3-0.4-0.7-0.8-1.1-1.1
		c-0.4-0.3-0.8-0.6-1.3-0.8c-0.5-0.2-0.9-0.3-1.4-0.4l0.2-1.3h-2.9l-0.2,1.2c-0.5,0-1,0.1-1.6,0.2c-0.6,0.1-1.1,0.3-1.6,0.6
		c-0.5,0.3-1.1,0.6-1.5,1c-0.5,0.4-0.9,0.9-1.3,1.4c-0.4,0.5-0.7,1.2-0.9,1.9c-0.2,0.7-0.3,1.5-0.3,2.4c0,0.7,0.1,1.3,0.3,1.9
		c0.2,0.6,0.4,1,0.7,1.5c0.3,0.4,0.7,0.8,1.1,1.1c0.4,0.3,0.8,0.6,1.3,0.8c0.5,0.2,0.9,0.3,1.4,0.4L69.9,57.7L69.9,57.7z M70.6,54.2
		c-0.4-0.1-0.8-0.3-1.1-0.6c-0.3-0.3-0.6-0.7-0.8-1.2c-0.2-0.5-0.3-1-0.3-1.7c0-0.8,0.1-1.5,0.3-2.1c0.2-0.6,0.5-1.2,0.9-1.6
		c0.4-0.5,0.8-0.8,1.2-1.1c0.4-0.3,0.9-0.4,1.3-0.4L70.6,54.2L70.6,54.2z M75.1,45.6c0.4,0.1,0.8,0.3,1.1,0.6
		c0.3,0.3,0.6,0.7,0.7,1.1c0.2,0.5,0.3,1,0.3,1.7c0,0.8-0.1,1.6-0.3,2.2c-0.2,0.6-0.5,1.2-0.8,1.6c-0.4,0.4-0.8,0.8-1.2,1
		c-0.4,0.2-0.9,0.4-1.4,0.4L75.1,45.6z"/>
	<path class="st1" d="M81,42.7l3,9.6c0.1,0.2,0.1,0.4,0.1,0.5c0,0.2-0.1,0.3-0.2,0.5c-0.1,0.2-0.3,0.4-0.5,0.6
		c-0.2,0.2-0.4,0.4-0.7,0.5c-0.3,0.1-0.5,0.2-0.8,0.2c-0.2,0-0.4,0-0.6,0c-0.2,0-0.4-0.1-0.6-0.1L80.3,57c0.3,0.1,0.6,0.2,0.9,0.3
		c0.3,0.1,0.7,0.1,1,0.1c0.6,0,1.1-0.1,1.7-0.3c0.6-0.2,1.1-0.5,1.5-0.9c0.5-0.5,1-1,1.5-1.6c0.5-0.6,0.9-1.3,1.3-2
		c0.4-0.7,0.8-1.5,1.2-2.3l3.9-7.5h-3.6l-2.1,5c-0.1,0.4-0.3,0.7-0.4,1c-0.1,0.3-0.3,0.6-0.4,1c-0.1,0.3-0.3,0.7-0.4,1h-0.1
		c-0.1-0.5-0.2-1-0.3-1.5c-0.1-0.5-0.2-0.9-0.3-1.4l-1.2-5.2H81z"/>
	<path class="st1" d="M95.2,42.7l-0.7,3.8c-0.1,0.8-0.3,1.5-0.5,2.2c-0.2,0.7-0.5,1.4-0.8,2.1c-0.3,0.7-0.6,1.3-0.9,1.9
		c-0.4,0.6-0.7,1.2-1.1,1.8l-1.1,0.1l-1,6.1h2.4l1-3.6h7.6l-0.5,3.6h2.5l1.4-6.1l-1.4-0.1l2.2-11.9H95.2L95.2,42.7z M97.5,45.4h3.1
		l-1.7,9.2h-4.6c0.3-0.5,0.6-1,0.9-1.5c0.3-0.5,0.5-1,0.7-1.6c0.3-0.7,0.5-1.3,0.7-2c0.2-0.7,0.4-1.4,0.5-2.1L97.5,45.4z"/>
	<path class="st1" d="M107.4,42.7l-2.7,14.3c0.2,0,0.5,0.1,0.9,0.1c0.4,0,0.8,0.1,1.3,0.1c0.5,0,1,0,1.5,0c0.7,0,1.3,0,2-0.1
		c0.7-0.1,1.3-0.3,1.9-0.5c0.6-0.2,1.1-0.5,1.6-0.9c0.4-0.3,0.7-0.6,1-1c0.3-0.4,0.5-0.8,0.6-1.3c0.2-0.5,0.2-1,0.2-1.6
		c0-0.7-0.1-1.3-0.4-1.8c-0.2-0.5-0.6-0.9-1-1.3c-0.4-0.3-0.9-0.6-1.5-0.8c-0.6-0.2-1.2-0.3-1.8-0.3c-0.2,0-0.4,0-0.6,0
		c-0.2,0-0.4,0-0.6,0c-0.2,0-0.3,0-0.5,0.1l0.5-2.6h5.7l0.5-2.6H107.4L107.4,42.7z M109.1,50.3c0.2,0,0.3-0.1,0.6-0.1
		c0.2,0,0.4,0,0.6,0c0.5,0,0.9,0.1,1.2,0.2c0.3,0.2,0.6,0.4,0.8,0.7c0.2,0.3,0.3,0.7,0.3,1.2c0,0.4-0.1,0.8-0.3,1.1
		c-0.2,0.3-0.4,0.6-0.7,0.8c-0.3,0.2-0.7,0.4-1,0.5c-0.4,0.1-0.7,0.2-1.1,0.2c-0.2,0-0.4,0-0.6,0c-0.2,0-0.3,0-0.5-0.1L109.1,50.3z"
		/>
	<path class="st1" d="M125.1,53.4l0.3,3.7h3.2l-1.7-14.4h-3.9l-7,14.4h3.3l1.7-3.7H125.1L125.1,53.4z M121.8,51l1.4-3.1
		c0.1-0.3,0.2-0.6,0.4-0.9c0.1-0.3,0.3-0.6,0.4-1c0.1-0.3,0.3-0.6,0.4-0.9h0c0,0.3,0,0.6,0.1,0.9c0,0.3,0,0.7,0.1,1
		c0,0.3,0,0.6,0.1,0.9l0.3,3.1H121.8z"/>
	<path class="st1" d="M134.3,42.7l-1.2,6.3c-0.1,0.7-0.3,1.4-0.5,2c-0.2,0.6-0.4,1.1-0.6,1.6c-0.2,0.5-0.5,0.9-0.8,1.2
		c-0.3,0.3-0.6,0.5-0.9,0.7c-0.3,0.2-0.8,0.3-1.2,0.3l0.3,2.6c0.8,0,1.5-0.1,2.1-0.4c0.6-0.2,1.1-0.6,1.6-1c0.5-0.4,0.9-1,1.3-1.6
		c0.4-0.7,0.7-1.4,0.9-2.3c0.3-0.9,0.5-2,0.8-3.2l0.7-3.5h3.4l-2.2,11.8h3.1l2.7-14.4H134.3z"/>
	<path class="st1" d="M154.2,54.2c-0.4,0.1-0.8,0.3-1.2,0.3c-0.5,0.1-1,0.1-1.5,0.1c-0.8,0-1.5-0.2-2.1-0.5c-0.6-0.3-1-0.8-1.3-1.3
		c-0.3-0.6-0.4-1.2-0.4-2c0-0.7,0.1-1.3,0.2-1.9c0.2-0.6,0.4-1.1,0.7-1.6c0.3-0.5,0.6-0.9,1-1.2c0.4-0.4,0.9-0.6,1.5-0.8
		c0.6-0.2,1.2-0.3,1.8-0.3c0.4,0,0.8,0,1.1,0.1c0.3,0,0.6,0.1,0.9,0.2c0.2,0.1,0.4,0.1,0.6,0.2l0.9-2.5c-0.1-0.1-0.4-0.2-0.7-0.3
		c-0.3-0.1-0.7-0.2-1.1-0.2c-0.4-0.1-0.9-0.1-1.4-0.1c-1,0-2,0.1-2.8,0.4c-0.9,0.2-1.7,0.6-2.4,1.1c-0.7,0.5-1.4,1.1-1.9,1.8
		c-0.5,0.7-1,1.5-1.3,2.4c-0.3,0.9-0.5,1.9-0.5,3c0,0.9,0.2,1.8,0.5,2.5c0.3,0.8,0.7,1.4,1.3,1.9c0.6,0.5,1.2,0.9,2,1.2
		c0.8,0.3,1.6,0.4,2.6,0.4c0.9,0,1.6-0.1,2.2-0.2c0.6-0.1,1.1-0.3,1.5-0.4L154.2,54.2z"/>
	<path class="st1" d="M158.9,42.7l-2.7,14.4h3l1.2-6.1h0.4c0.4,0,0.7,0.1,1,0.2c0.3,0.1,0.5,0.3,0.7,0.6c0.2,0.2,0.3,0.5,0.4,0.9
		c0.1,0.3,0.2,0.7,0.3,1.2c0.1,0.5,0.2,0.9,0.3,1.3c0.1,0.4,0.2,0.8,0.2,1.1c0.1,0.3,0.2,0.6,0.2,0.8h3.2c-0.1-0.2-0.2-0.5-0.3-0.9
		c-0.1-0.3-0.2-0.7-0.3-1.1c-0.1-0.4-0.2-0.9-0.3-1.5c-0.1-0.7-0.3-1.3-0.5-1.9c-0.2-0.6-0.4-1.1-0.8-1.5c-0.3-0.4-0.7-0.8-1.2-1
		l6-6.5H166l-4.9,6.1h-0.3l1.2-6.1H158.9z"/>
	<path class="st1" d="M171.4,42.7l-2.7,14.4h3.6l3.6-5.2c0.6-0.8,1.1-1.6,1.6-2.5c0.5-0.8,1-1.7,1.5-2.5h0.1
		c-0.2,0.7-0.3,1.3-0.5,1.9c-0.1,0.6-0.3,1.2-0.4,1.9c-0.1,0.6-0.3,1.3-0.4,2l-0.9,4.4h2.9l2.7-14.4h-3.3l-3.9,5.7
		c-0.5,0.8-1.1,1.6-1.6,2.4c-0.5,0.8-1.1,1.7-1.6,2.6l-0.1,0c0.3-1,0.5-2,0.7-3c0.2-1,0.5-2.1,0.7-3.2l0.8-4.4H171.4z"/>
	<path class="st1" d="M189.3,42.7l-2.7,14.4h3l1.2-6.1h0.4c0.4,0,0.7,0.1,1,0.2c0.3,0.1,0.5,0.3,0.7,0.6c0.2,0.2,0.3,0.5,0.4,0.9
		c0.1,0.3,0.2,0.7,0.3,1.2c0.1,0.5,0.2,0.9,0.3,1.3c0.1,0.4,0.2,0.8,0.2,1.1c0.1,0.3,0.2,0.6,0.2,0.8h3.2c-0.1-0.2-0.2-0.5-0.3-0.9
		c-0.1-0.3-0.2-0.7-0.3-1.1c-0.1-0.4-0.2-0.9-0.3-1.5c-0.1-0.7-0.3-1.3-0.5-1.9c-0.2-0.6-0.4-1.1-0.8-1.5c-0.3-0.4-0.7-0.8-1.2-1
		l6-6.5h-3.8l-4.9,6.1h-0.3l1.2-6.1H189.3z"/>
	<path class="st1" d="M203.2,42.7L202,49c-0.1,0.7-0.3,1.4-0.5,2c-0.2,0.6-0.4,1.1-0.6,1.6c-0.2,0.5-0.5,0.9-0.8,1.2
		c-0.3,0.3-0.6,0.5-0.9,0.7c-0.3,0.2-0.8,0.3-1.2,0.3l0.3,2.6c0.8,0,1.5-0.1,2.1-0.4c0.6-0.2,1.1-0.6,1.6-1c0.5-0.4,0.9-1,1.3-1.6
		c0.4-0.7,0.7-1.4,0.9-2.3c0.3-0.9,0.5-2,0.8-3.2l0.7-3.5h3.4l-2.2,11.8h3.1l2.7-14.4H203.2z"/>
	<path class="st1" d="M213.9,42.7l3,9.6c0.1,0.2,0.1,0.4,0.1,0.5c0,0.2-0.1,0.3-0.2,0.5c-0.1,0.2-0.3,0.4-0.5,0.6
		c-0.2,0.2-0.4,0.4-0.7,0.5c-0.3,0.1-0.5,0.2-0.8,0.2c-0.2,0-0.4,0-0.6,0c-0.2,0-0.4-0.1-0.6-0.1l-0.5,2.5c0.3,0.1,0.6,0.2,0.9,0.3
		c0.3,0.1,0.7,0.1,1,0.1c0.6,0,1.1-0.1,1.7-0.3c0.6-0.2,1.1-0.5,1.5-0.9c0.5-0.5,1-1,1.5-1.6c0.5-0.6,0.9-1.3,1.3-2
		c0.4-0.7,0.8-1.5,1.2-2.3l3.9-7.5h-3.6l-2.1,5c-0.1,0.4-0.3,0.7-0.4,1c-0.1,0.3-0.3,0.6-0.4,1c-0.1,0.3-0.3,0.7-0.4,1h-0.1
		c-0.1-0.5-0.2-1-0.3-1.5c-0.1-0.5-0.2-0.9-0.3-1.4l-1.2-5.2H213.9z"/>
	<path class="st1" d="M227.3,42.7l-2.7,14.3c0.2,0,0.5,0.1,0.9,0.1c0.4,0,0.8,0.1,1.3,0.1c0.5,0,1,0,1.5,0c0.7,0,1.3,0,2-0.1
		c0.7-0.1,1.3-0.3,1.9-0.5c0.6-0.2,1.1-0.5,1.6-0.9c0.4-0.3,0.7-0.6,1-1c0.3-0.4,0.5-0.8,0.6-1.3c0.2-0.5,0.2-1,0.2-1.6
		c0-0.7-0.1-1.3-0.4-1.8c-0.2-0.5-0.6-0.9-1-1.3c-0.4-0.3-0.9-0.6-1.5-0.8c-0.6-0.2-1.2-0.3-1.8-0.3c-0.2,0-0.4,0-0.6,0
		c-0.2,0-0.4,0-0.6,0c-0.2,0-0.3,0-0.5,0.1l0.5-2.6h5.7l0.5-2.6H227.3L227.3,42.7z M228.9,50.3c0.2,0,0.3-0.1,0.6-0.1
		c0.2,0,0.4,0,0.6,0c0.5,0,0.9,0.1,1.2,0.2c0.3,0.2,0.6,0.4,0.8,0.7c0.2,0.3,0.3,0.7,0.3,1.2c0,0.4-0.1,0.8-0.3,1.1
		c-0.2,0.3-0.4,0.6-0.7,0.8c-0.3,0.2-0.7,0.4-1,0.5c-0.4,0.1-0.7,0.2-1.1,0.2c-0.2,0-0.4,0-0.6,0c-0.2,0-0.3,0-0.5-0.1L228.9,50.3z"
		/>
	<path class="st1" d="M58.8,88.2h4.9l1.6-8.4c0.3,0,0.6,0,0.9,0.1c0.3,0,0.7,0.1,1.1,0.1c1,0,1.9-0.1,2.8-0.2
		c0.9-0.2,1.8-0.4,2.6-0.7c0.8-0.3,1.5-0.7,2.2-1.2c0.6-0.5,1.1-1,1.6-1.7c0.5-0.6,0.9-1.4,1.1-2.2c0.3-0.8,0.4-1.7,0.4-2.7
		c0-1.1-0.2-2.1-0.7-2.9c-0.4-0.8-1.1-1.5-1.9-2.1c-0.6-0.4-1.2-0.7-1.9-0.9c-0.7-0.2-1.4-0.4-2.1-0.5c-0.7-0.1-1.5-0.1-2.2-0.1
		c-0.8,0-1.5,0-2.2,0.1c-0.7,0-1.4,0.1-2.1,0.2c-0.7,0.1-1.3,0.2-1.8,0.3L58.8,88.2L58.8,88.2z M67.4,68.7c0.2,0,0.5-0.1,0.8-0.1
		c0.3,0,0.8,0,1.2,0c0.6,0,1.2,0.1,1.8,0.3c0.5,0.2,1,0.5,1.3,0.9c0.3,0.4,0.5,1,0.5,1.8c0,0.8-0.2,1.5-0.6,2.2
		c-0.4,0.6-1,1.2-1.7,1.5c-0.7,0.4-1.6,0.6-2.6,0.6c-0.4,0-0.8,0-1.1,0c-0.3,0-0.6-0.1-0.8-0.1L67.4,68.7z"/>
	<path class="st1" d="M89.7,82.1l0.5,6.1h5.3l-2.7-23.4h-6.4L74.9,88.2h5.4l2.7-6.1H89.7L89.7,82.1z M84.4,78.3l2.3-5
		c0.2-0.5,0.4-1,0.6-1.5c0.2-0.5,0.4-1.1,0.6-1.6c0.2-0.5,0.4-1,0.6-1.5h0.1c0,0.5,0.1,1,0.1,1.5c0,0.5,0.1,1.1,0.1,1.6
		c0,0.5,0.1,1,0.1,1.4l0.5,5H84.4z"/>
	<path class="st1" d="M106.7,64.7l-1.2,6.2c-0.2,1.2-0.5,2.4-0.9,3.6c-0.3,1.2-0.8,2.3-1.2,3.5c-0.5,1.1-1,2.1-1.5,3.1
		c-0.6,1-1.2,2-1.9,3l-1.8,0.2l-1.7,9.9h4l1.6-5.9h12.4l-0.9,5.9h4l2.3-9.9l-2.2-0.1l3.6-19.4H106.7L106.7,64.7z M110.5,69h5
		l-2.8,15h-7.5c0.5-0.8,1-1.6,1.5-2.4c0.4-0.8,0.8-1.7,1.2-2.6c0.4-1.1,0.8-2.2,1.1-3.3c0.3-1.1,0.6-2.3,0.8-3.4L110.5,69z"/>
	<polygon class="st1" points="126.8,64.7 122.3,88.2 127.3,88.2 129.2,78.3 137.7,78.3 135.8,88.2 140.8,88.2 145.3,64.7 
		140.2,64.7 138.5,73.9 130,73.9 131.8,64.7 	"/>
	<path class="st1" d="M149.9,64.7l-4.4,23.4h5.8l5.9-8.4c0.9-1.3,1.8-2.7,2.6-4c0.9-1.3,1.7-2.7,2.4-4.1h0.1
		c-0.3,1.1-0.5,2.1-0.7,3.1c-0.2,1-0.4,2-0.6,3c-0.2,1-0.4,2.1-0.6,3.3l-1.4,7.2h4.7l4.4-23.4h-5.4l-6.4,9.3
		c-0.9,1.3-1.8,2.6-2.6,3.9c-0.9,1.3-1.8,2.7-2.7,4.2l-0.1,0c0.4-1.6,0.8-3.3,1.2-5c0.4-1.7,0.7-3.4,1.1-5.3l1.4-7.2H149.9z"/>
	<path class="st1" d="M172.2,64.7l-1.4,7c-0.1,0.5-0.2,1-0.2,1.5c-0.1,0.5-0.1,0.9-0.1,1.3c0,1.1,0.3,2.1,0.8,2.9
		c0.5,0.8,1.2,1.4,2.1,1.8c0.9,0.4,2,0.6,3.3,0.6c0.6,0,1.2,0,1.7-0.1c0.6-0.1,1.1-0.2,1.6-0.3c0.5-0.1,0.9-0.3,1.3-0.5l0.1,0
		l-1.8,9.1h5l4.4-23.4h-5L182.2,75c-0.2,0.1-0.5,0.3-0.9,0.4c-0.3,0.1-0.7,0.2-1.1,0.3c-0.4,0.1-0.9,0.1-1.3,0.1
		c-1,0-1.8-0.2-2.3-0.6c-0.5-0.4-0.8-1.1-0.8-1.9c0-0.3,0-0.7,0.1-1c0.1-0.3,0.1-0.7,0.2-0.9l1.3-6.6H172.2z"/>
	<path class="st1" d="M193.7,64.7l-4.4,23.4h4.9l1.9-9.9h0.6c0.6,0,1.2,0.1,1.6,0.3c0.4,0.2,0.8,0.5,1.1,0.9
		c0.3,0.4,0.5,0.9,0.7,1.4c0.2,0.6,0.3,1.2,0.5,1.9c0.1,0.7,0.3,1.4,0.4,2.1c0.1,0.7,0.3,1.3,0.4,1.9c0.1,0.6,0.3,1,0.4,1.3h5.2
		c-0.2-0.4-0.3-0.9-0.5-1.4c-0.1-0.5-0.3-1.1-0.4-1.8c-0.1-0.7-0.3-1.5-0.5-2.4c-0.2-1.1-0.5-2.2-0.8-3.1c-0.3-1-0.7-1.8-1.2-2.5
		c-0.5-0.7-1.1-1.2-1.9-1.6l9.8-10.6h-6.2l-8,9.9h-0.6l1.9-9.9H193.7z"/>
	<path class="st1" d="M214.1,64.7l-4.4,23.4h5.8l5.9-8.4c0.9-1.3,1.8-2.7,2.6-4c0.9-1.3,1.7-2.7,2.4-4.1h0.1
		c-0.3,1.1-0.5,2.1-0.7,3.1c-0.2,1-0.4,2-0.6,3c-0.2,1-0.4,2.1-0.6,3.3l-1.4,7.2h4.7l4.4-23.4h-5.4l-6.4,9.3
		c-0.9,1.3-1.8,2.6-2.6,3.9c-0.9,1.3-1.8,2.7-2.7,4.2l-0.1,0c0.4-1.6,0.8-3.3,1.2-5c0.4-1.7,0.7-3.4,1.1-5.3l1.4-7.2H214.1z"/>
	<polygon class="st1" points="56.2,110.7 59.3,110.7 62,96.2 59.4,96.2 55.3,97.9 55.5,100.4 58.3,99.2 58.3,99.2 	"/>
	<path class="st1" d="M65,110.9c0.1,0,0.3,0,0.4,0c0.2,0,0.3,0,0.5,0c0.2,0,0.4,0,0.7,0c0.7,0,1.3-0.1,2-0.3
		c0.7-0.2,1.3-0.4,1.9-0.7c0.6-0.3,1.2-0.6,1.7-1c0.5-0.4,1-0.9,1.4-1.4c0.4-0.6,0.8-1.2,1.2-1.9c0.3-0.7,0.6-1.4,0.8-2.2
		c0.2-0.8,0.3-1.6,0.3-2.5c0-0.7-0.1-1.4-0.3-2c-0.2-0.6-0.5-1.2-0.9-1.6c-0.4-0.5-0.9-0.8-1.5-1.1c-0.6-0.3-1.3-0.4-2.1-0.4
		c-0.8,0-1.6,0.2-2.3,0.5c-0.7,0.3-1.3,0.7-1.9,1.3c-0.5,0.5-1,1.2-1.3,1.9c-0.3,0.7-0.5,1.4-0.5,2.2c0,0.8,0.2,1.5,0.5,2.1
		c0.3,0.6,0.8,1,1.3,1.4c0.6,0.3,1.3,0.5,2,0.5c0.3,0,0.7,0,1-0.1c0.3-0.1,0.7-0.2,1-0.3c0.3-0.2,0.6-0.3,0.8-0.6l0,0
		c-0.2,0.5-0.6,1-1,1.5c-0.4,0.5-0.9,0.8-1.4,1.2c-0.4,0.3-0.9,0.5-1.4,0.6c-0.5,0.1-1,0.2-1.5,0.3c-0.3,0-0.6,0-0.8,0
		c-0.2,0-0.4,0-0.6,0L65,110.9L65,110.9z M70.9,98.4c0.4,0,0.7,0.1,1,0.3c0.3,0.2,0.5,0.4,0.6,0.7c0.1,0.3,0.2,0.7,0.2,1.1
		c0,0.1,0,0.3,0,0.4c0,0.1,0,0.3,0,0.4c0,0.1,0,0.2-0.1,0.3c0,0.2-0.1,0.3-0.1,0.4c-0.1,0.1-0.1,0.2-0.2,0.3
		c-0.1,0.2-0.3,0.3-0.5,0.5c-0.2,0.1-0.4,0.3-0.7,0.4c-0.2,0.1-0.5,0.1-0.8,0.1c-0.3,0-0.6-0.1-0.9-0.2c-0.3-0.2-0.5-0.4-0.6-0.7
		c-0.1-0.3-0.2-0.6-0.2-1c0-0.4,0.1-0.7,0.2-1.1c0.1-0.4,0.3-0.7,0.5-0.9c0.2-0.3,0.5-0.5,0.7-0.7C70.3,98.5,70.6,98.4,70.9,98.4z"
		/>
	<path class="st1" d="M85.9,110.7l0.5-2.7h-5.2v0l1.5-1c0.6-0.5,1.3-1,1.8-1.5c0.6-0.5,1.1-1.1,1.6-1.6c0.5-0.6,0.8-1.2,1.1-1.8
		c0.3-0.6,0.4-1.3,0.4-2.1c0-0.6-0.1-1.1-0.3-1.6c-0.2-0.5-0.5-0.9-0.9-1.3c-0.4-0.4-0.9-0.6-1.4-0.8c-0.6-0.2-1.2-0.3-1.9-0.3
		c-0.6,0-1.1,0.1-1.7,0.2c-0.5,0.1-1.1,0.3-1.5,0.4c-0.5,0.2-0.9,0.4-1.3,0.6l0.6,2.3c0.4-0.2,0.8-0.4,1.3-0.6
		c0.5-0.2,1.1-0.2,1.7-0.2c0.4,0,0.8,0.1,1.1,0.2c0.3,0.2,0.5,0.4,0.7,0.6c0.2,0.3,0.2,0.6,0.2,0.9c0,0.6-0.2,1.2-0.6,1.8
		c-0.4,0.6-0.9,1.2-1.6,1.9c-0.7,0.7-1.6,1.4-2.5,2.2l-3.1,2.4l-0.4,2.1H85.9z"/>
	<path class="st1" d="M88.3,109.9c0.2,0.2,0.5,0.3,0.9,0.5c0.4,0.1,0.9,0.3,1.4,0.4c0.5,0.1,1.1,0.1,1.7,0.1c0.6,0,1.3-0.1,1.9-0.2
		c0.6-0.1,1.2-0.3,1.7-0.6c0.5-0.3,1-0.6,1.4-1c0.4-0.4,0.7-0.8,0.9-1.3c0.2-0.5,0.3-1.1,0.4-1.7c0-0.6-0.1-1.1-0.3-1.5
		c-0.2-0.4-0.5-0.8-0.9-1.1c-0.4-0.3-0.8-0.5-1.3-0.6l0,0c0.5-0.1,0.9-0.3,1.3-0.5c0.4-0.2,0.7-0.5,1-0.8c0.3-0.3,0.5-0.7,0.7-1
		c0.2-0.4,0.2-0.8,0.2-1.3c0-0.6-0.1-1.1-0.4-1.5c-0.2-0.4-0.6-0.8-1-1.1c-0.4-0.3-0.9-0.5-1.4-0.6c-0.5-0.1-1.1-0.2-1.7-0.2
		c-0.5,0-1,0-1.5,0.1c-0.5,0.1-1,0.2-1.4,0.3c-0.4,0.1-0.8,0.3-1.2,0.5l0.4,2.4c0.3-0.2,0.8-0.4,1.3-0.5c0.5-0.1,1.1-0.2,1.7-0.2
		c0.4,0,0.8,0.1,1,0.2c0.3,0.1,0.5,0.3,0.6,0.4c0.1,0.2,0.2,0.4,0.2,0.6c0,0.3-0.1,0.6-0.3,0.9c-0.2,0.2-0.4,0.4-0.8,0.6
		c-0.3,0.2-0.7,0.3-1,0.4c-0.4,0.1-0.8,0.1-1.1,0.1h-0.5l-0.5,2.5h0.6c1,0,1.7,0.2,2.2,0.5c0.5,0.3,0.8,0.8,0.8,1.5
		c0,0.4-0.1,0.7-0.3,1.1c-0.2,0.3-0.6,0.6-1,0.7c-0.4,0.2-0.9,0.3-1.6,0.3c-0.5,0-0.9-0.1-1.3-0.1c-0.4-0.1-0.8-0.2-1.1-0.3
		c-0.3-0.1-0.6-0.2-0.8-0.3L88.3,109.9z"/>
</g>
</svg>
