<?xml version="1.0" encoding="utf-8"?>
<!-- Generator: Adobe Illustrator 22.1.0, SVG Export Plug-In . SVG Version: 6.00 Build 0)  -->
<svg version="1.0" id="Layer_1" xmlns="http://www.w3.org/2000/svg" xmlns:xlink="http://www.w3.org/1999/xlink" x="0px" y="0px"
	 viewBox="0 0 300 300" style="enable-background:new 0 0 300 300;" xml:space="preserve">
<style type="text/css">
	.st0{fill:#FFFFFF;stroke:#2E4A97;stroke-width:2.5174;}
	.st1{fill:#2F479D;}
	.st2{fill-rule:evenodd;clip-rule:evenodd;fill:#FFFFFF;}
	.st3{fill-rule:evenodd;clip-rule:evenodd;fill:#F5DE4C;}
	.st4{fill-rule:evenodd;clip-rule:evenodd;fill:#EE3124;}
	.st5{fill:#FFFFFF;}
	.st6{fill:#364698;}
	.st7{fill-rule:evenodd;clip-rule:evenodd;fill:#E2E1E3;}
	.st8{fill-rule:evenodd;clip-rule:evenodd;fill:#BEB9B8;}
	.st9{fill-rule:evenodd;clip-rule:evenodd;fill:#364698;}
</style>
<g>
	<polygon class="st0" points="41.2,5 258.8,5 150,295 	"/>
	<polygon class="st0" points="49.8,10.8 250.2,10.8 150,278.1 	"/>
	<polygon class="st1" points="149.9,10.8 50,10.8 149.9,277.3 	"/>
	<path class="st2" d="M144.4,143.2c-0.3,0.2-0.6,0.3-0.9,0.5c-2.7,1.2-5.8,0.7-7.9-1.4c-1.2,0-2.4-0.1-3.5-0.8
		c-1.8,0.3-3.8,0.4-5.5-0.4c-0.6-0.3-1.1-0.6-1.6-1c-0.1-0.1-0.3-0.2-0.4-0.4c-2.5,0.2-4.9-0.3-7.1-1.4c-3.6,1-8,0-10.3-3
		c-1.4-0.4-2.6-1.2-3.6-2.3c-2.1-0.5-3.6-1.7-4.9-3.4l-1.4-2l2.4-0.2c3.4-0.2,6.7-1,9.9-2.2c1.1-0.4,2.1-0.8,3.2-1.3
		c6.4-2.8,13.3-7.1,20.4-7.3c4.9-0.2,9.6,2.8,11.3,7.5c0.4,1.2,0.7,2.4,1,3.6c0.2,0.7,0.3,1.4,0.5,2.1c0,0,0,0,0,0.1c0,0,0,0,0,0
		c3.4,0,5.9,2.7,6,6c0.1,3.7-1.6,7.8-5.9,7.8C145.6,143.7,145.1,143.5,144.4,143.2L144.4,143.2z"/>
	<path class="st3" d="M132.5,140.1c1.3,0.9,2.5,0.9,3.8,0.8c1.2,1.5,3.7,2.9,6.7,1.5c0.5-0.2,1-0.6,1.4-0.8c0.7,0.4,1.1,0.7,2,0.7
		c3.4,0.1,4.6-3.5,4.5-6.4c-0.1-2.6-2-4.8-4.6-4.7c-0.9,0-1.1-0.1-1.3-1c-0.2-0.7-0.4-1.5-0.6-2.2c-0.3-1.2-0.6-2.3-1-3.4
		c-1.5-4.1-5.7-6.7-10-6.6c-6.8,0.2-13.8,4.5-19.9,7.2c-1.1,0.5-2.2,0.9-3.3,1.3c-3.3,1.2-6.8,2.1-10.3,2.3c1.1,1.5,2.5,2.6,4.5,3
		c1,1.2,2.4,2.1,3.7,2.3c1.8,2.8,6.2,4,9.6,2.8c2.1,1.2,4.6,1.7,7.4,1.4C126.1,139.1,127.4,141.3,132.5,140.1L132.5,140.1z"/>
	<path class="st2" d="M132.8,131.9c-2.5,0.4-4.4-1.4-5.3-3.6c1.8,0.8,3.8,0.9,5.1,0.7c1.7-0.2,3.3-0.5,4.8-1.4
		c-0.6,2.7-3.5,3.4-4.1,3.5c0.6,0.8,2.1,1.5,3.2,1.5c2.6,0,4.1-2.5,3.9-0.8c-0.1,0.8-0.4,1.3-1.2,1.7c0.5,2,2.1,2.2,3,2.2l3.5,0
		c0.8,0,0.8,1.2,0,1.2l-2.4,0c-0.6,0-1.3,0.1-1.7,0.6c-0.7,1.1-1.6,2.3-3.3,3c3.8,1.6,4.9-1,5.8-1.1c1.1,0,1.1,0.7,2.2,0.8
		c1.8,0,2.6-2,2.5-4.3c0-1.6-1.2-2.8-2.6-2.8c-1.8,0-2.7-0.7-3.3-2.3c-0.5-1.4-0.7-3.3-1.5-5.6c-1.2-3.3-4.6-5.4-8-5.3
		c-7.9,0.3-16.1,6.5-25,9.2c1.4,0.8,2.5,0.8,5.2,0.7c-0.6,0.9-2.1,1.3-4.7,2.1c3.1,1.4,8.7,0.2,10.5-1.1c-1,2.8-6,3.1-8.3,3.4
		c1.1,1.1,2.9,1.4,4.6,1.2c2.4-0.3,4.8-1.6,6.2-2.3c0,1.5-1.1,2.3-2.4,2.9c3.3,1.2,7.5,1.4,10-1.7c-2.4,0.2-5.8-0.6-5.2-3.4
		C125.7,132.6,131.1,135,132.8,131.9L132.8,131.9z M136.8,134.1c-0.7,1.1-2.4,1.5-3.3,1.2c-1.1-0.3-0.6-1.7,0-2.3
		C134.7,133.8,135.4,134.2,136.8,134.1L136.8,134.1z M138.4,135c-0.8,1.2-2.3,2.8-3.9,3.6c1.5,0.9,2.9,0.9,4.1,0.2
		c0.9-0.6,1.2-0.9,1.8-2.1C139.7,136.8,138.8,135.9,138.4,135L138.4,135z M131.4,135.2c-1.3,1.4-2,2-3.7,2.6
		c1.5,0.9,3.7,0.9,4.9,0.2c0.7-0.4,1.4-0.9,1.7-1.3C132.9,136.6,131.9,135.7,131.4,135.2L131.4,135.2z M139,127.8
		c-0.6,0-2.4-2.7-4.3-3.2c-1.9-0.5-4.2-0.3-6.6-0.4c1.1-1.1,2.7-1.7,4.8-1.9c1.3-0.1,3.3-0.1,4.5,1.1c0.6,0.6,1.2,1.4,1.3,2.1
		c0.1,0.9,0.8,0.9,0.8,1.3C139.6,127.3,139.5,127.7,139,127.8L139,127.8z M126.5,126.1c-0.3,1.7-1.7,3.5-3.4,3.4
		c-1.6,0-2.8-1.5-3-3.4c1.1,1,2.2,1.2,3.3,1.1C124.8,127.2,125.5,126.8,126.5,126.1L126.5,126.1z"/>
	<path class="st2" d="M148.7,116.2c0.4,0,0.8,0,1.2,0.1v39.1c-0.4,0.1-0.8,0.1-1.2,0.1c-0.4,0-0.9,0-1.3-0.1
		c-3.6-0.6-6.2-3.5-7.8-6.6c-2.1-3.9-2.9-8.6-2.9-12.9c0-4.4,0.9-9.1,2.9-12.9C141.5,119.5,144.6,116.2,148.7,116.2L148.7,116.2z"/>
	<path class="st3" d="M152.2,124.4c-7-4.1-9,8.4-9,11.8c0.1,12.5,6.3,13.3,7.4,12.3l2.9-2.4c1.5-2.6,2.2-4.9,2.6-7.3l-0.9-10.2
		C154.3,127,153.5,125.6,152.2,124.4L152.2,124.4z"/>
	<path class="st3" d="M148.7,117.6c5.9,0,10.7,8.2,10.7,18.3c0,10.1-4.8,18.3-10.7,18.3c-5.9,0-10.7-8.2-10.7-18.3
		C138.1,125.7,142.8,117.6,148.7,117.6L148.7,117.6z M148.7,118.6c5.3,0,9.7,7.7,9.7,17.3s-4.3,17.3-9.7,17.3
		c-5.3,0-9.7-7.7-9.7-17.3S143.4,118.6,148.7,118.6L148.7,118.6z"/>
	<path class="st2" d="M148.7,118.6c5.3,0,9.7,7.7,9.7,17.3s-4.3,17.3-9.7,17.3c-5.3,0-9.7-7.7-9.7-17.3S143.4,118.6,148.7,118.6
		L148.7,118.6z M143.1,129.9l3.8,4.1c-0.2,0.7-0.3,1.5-0.3,2.3c0,0.3,0,0.7,0.1,1l-3.8,4c-0.4-1.6-0.6-3.4-0.6-5.2
		C142.3,133.8,142.6,131.8,143.1,129.9L143.1,129.9z M144.5,145.7l3.3-5.2c0.5,0.9,1.3,1.5,2,1.6l0.9,7.3c-0.4,0.1-0.8,0.2-1.2,0.2
		C147.6,149.7,145.8,148.2,144.5,145.7L144.5,145.7z M154,146.8l-1.9-5.4c1-1.1,1.7-3,1.7-5.1c0-1.9-0.5-3.7-1.4-4.8l2.6-4.3
		c1.1,2.4,1.7,5.5,1.7,8.9C156.8,140.4,155.7,144.3,154,146.8L154,146.8z M152.3,123.4l-1.8,6.8c-0.1,0-0.1,0-0.2,0
		c-0.8,0-1.5,0.4-2.1,1.1l-3.1-6c1.2-1.8,2.8-2.9,4.5-2.9C150.5,122.4,151.4,122.8,152.3,123.4L152.3,123.4z M147.3,132.9
		c0.1-0.2,0.2-0.4,0.3-0.6l-3.1-5.9c-0.4,0.7-0.7,1.6-1,2.4L147.3,132.9L147.3,132.9z M151.7,130.7c-0.1-0.1-0.2-0.1-0.3-0.2
		l1.7-6.4c0.5,0.5,1,1.2,1.4,2L151.7,130.7L151.7,130.7z M151.3,142c-0.1,0.1-0.3,0.1-0.4,0.2l0.9,6.9c0.6-0.3,1.1-0.8,1.6-1.3
		L151.3,142L151.3,142z M147.2,139.5c-0.1-0.3-0.2-0.7-0.3-1.1l-3.8,3.9c0.2,0.8,0.5,1.6,0.8,2.3L147.2,139.5L147.2,139.5z"/>
	<path class="st3" d="M149.6,121.4c1,0,2,0.3,3,1l-0.3,1c-0.8-0.6-1.7-1-2.7-1c-1.7,0-3.3,1.1-4.5,2.9l-0.5-1
		C146,122.5,147.7,121.4,149.6,121.4L149.6,121.4z M144.5,126.4c-0.4,0.7-0.7,1.6-1,2.4l-0.8-0.8c0.4-1,0.8-1.9,1.3-2.7L144.5,126.4
		L144.5,126.4z M143.1,129.9c-0.5,1.8-0.8,3.9-0.8,6.1c0,1.9,0.2,3.6,0.6,5.2l-0.8,0.8c-0.5-1.9-0.7-3.9-0.7-6.1c0-2.5,0.4-4.9,1-7
		L143.1,129.9L143.1,129.9z M155.7,126.2c1.3,2.6,2.2,6.1,2.2,9.9c0,4.9-1.3,9.2-3.4,11.8l-0.4-1.1c1.7-2.5,2.8-6.4,2.8-10.7
		c0-3.4-0.7-6.5-1.7-8.9L155.7,126.2L155.7,126.2z M154.5,126.1c-0.4-0.8-0.9-1.4-1.4-2l0.3-1.1l1.6,2.4L154.5,126.1L154.5,126.1z
		 M153.6,148.8c-0.6,0.6-1.2,1-1.8,1.3l-0.1-1c0.6-0.3,1.1-0.8,1.6-1.3L153.6,148.8L153.6,148.8z M150.9,150.5
		c-0.4,0.1-0.9,0.2-1.3,0.2c-2.2,0-4.2-1.5-5.7-4l0.6-0.9c1.3,2.4,3.1,3.9,5.1,3.9c0.4,0,0.8-0.1,1.2-0.2L150.9,150.5L150.9,150.5z"
		/>
	<path class="st3" d="M142.7,128l4.6,4.9c0.1-0.2,0.2-0.4,0.3-0.6l-3.6-7L142.7,128L142.7,128z"/>
	<path class="st3" d="M153.4,123l-2,7.6c0.2,0,0.1,0.1,0.3,0.1l3.3-5.3L153.4,123L153.4,123z"/>
	<path class="st3" d="M153.7,148.9l-2.4-6.9c-0.1,0.1-0.3,0.1-0.4,0.2l1,8.3L153.7,148.9L153.7,148.9z"/>
	<path class="st3" d="M142.3,143.2l1.1,2.4l4.1-5.8c-0.1-0.3-0.4-0.9-0.5-1.3L142.3,143.2L142.3,143.2z"/>
	<path class="st3" d="M166.7,140c-1.3,0.9-2.5,0.9-3.8,0.8c-1.2,1.5-3.7,2.9-6.7,1.5c-0.5-0.2-1-0.6-1.4-0.8c-0.7,0.4-1.1,0.7-2,0.7
		c-3.4,0.1-4.6-3.5-4.5-6.4c0.1-2.6,2-4.8,4.6-4.7c0.9,0,1.1-0.1,1.3-1c0.2-0.7,0.4-1.5,0.6-2.2c0.3-1.2,0.6-2.3,1-3.4
		c1.5-4.1,5.7-6.7,10-6.6c6.8,0.2,13.8,4.5,19.9,7.2c1.1,0.5,2.2,0.9,3.3,1.3c3.3,1.2,6.8,2.1,10.3,2.3c-1.1,1.5-2.5,2.6-4.5,3
		c-1,1.2-2.4,2.1-3.7,2.3c-1.8,2.8-6.2,4-9.6,2.8c-2.1,1.2-4.6,1.7-7.4,1.4C173.1,138.9,171.8,141.1,166.7,140L166.7,140z"/>
	<path class="st2" d="M166.3,131.8c2.5,0.4,4.4-1.4,5.3-3.6c-1.8,0.8-3.8,0.9-5.1,0.7c-1.7-0.2-3.3-0.5-4.8-1.4
		c0.6,2.7,3.5,3.4,4.1,3.5c-0.6,0.8-2.1,1.5-3.2,1.5c-2.6,0-4.1-2.5-3.9-0.8c0.1,0.8,0.4,1.3,1.2,1.7c-0.5,2-2.1,2.2-3,2.2l-3.5,0
		c-0.8,0-0.8,1.2,0,1.2l2.4,0c0.6,0,1.3,0.1,1.7,0.6c0.7,1.1,1.6,2.3,3.3,3c-3.8,1.6-4.9-1-5.8-1.1c-1.1,0-1.1,0.7-2.2,0.8
		c-1.8,0-2.6-2-2.5-4.3c0-1.6,1.2-2.8,2.6-2.8c1.8,0,2.7-0.7,3.3-2.3c0.5-1.4,0.7-3.3,1.5-5.6c1.2-3.3,4.6-5.4,8-5.3
		c7.9,0.3,16.1,6.5,25,9.2c-1.4,0.8-2.5,0.8-5.2,0.7c0.6,0.9,2.1,1.3,4.7,2.1c-3.1,1.4-8.7,0.2-10.5-1.1c1,2.8,6,3.1,8.3,3.4
		c-1.1,1.1-2.9,1.4-4.6,1.2c-2.4-0.3-4.8-1.6-6.2-2.3c0,1.5,1.1,2.3,2.4,2.9c-3.3,1.2-7.5,1.4-10-1.6c2.4,0.2,5.8-0.6,5.2-3.4
		C173.4,132.5,168.1,134.9,166.3,131.8L166.3,131.8z M162.3,134c0.7,1.1,2.4,1.5,3.3,1.2c1.1-0.3,0.6-1.7,0-2.3
		C164.5,133.6,163.8,134.1,162.3,134L162.3,134z M160.8,134.8c0.8,1.2,2.3,2.8,3.9,3.6c-1.5,0.9-2.9,0.9-4.1,0.2
		c-0.9-0.6-1.2-0.9-1.8-2.1C159.5,136.7,160.4,135.7,160.8,134.8L160.8,134.8z M167.8,135c1.3,1.4,2,2,3.7,2.6
		c-1.5,0.9-3.7,0.9-4.9,0.2c-0.7-0.4-1.4-0.9-1.7-1.3C166.3,136.5,167.3,135.5,167.8,135L167.8,135z M160.2,127.6
		c0.6,0,2.4-2.7,4.3-3.2c1.9-0.5,4.2-0.3,6.6-0.4c-1.1-1.1-2.7-1.7-4.8-1.9c-1.3-0.1-3.3-0.1-4.5,1.1c-0.6,0.6-1.2,1.4-1.3,2.1
		c-0.1,0.9-0.8,0.9-0.8,1.3C159.6,127.1,159.7,127.6,160.2,127.6L160.2,127.6z M172.6,126c0.3,1.7,1.7,3.5,3.4,3.4
		c1.6,0,2.8-1.5,3-3.4c-1.1,1-2.2,1.2-3.3,1.1C174.4,127.1,173.7,126.6,172.6,126L172.6,126z"/>
	<g>
		<polygon class="st4" points="149.8,50.7 165,61.6 159.2,44 174.4,33.1 155.6,33.1 149.8,15.4 144,33.1 125.2,33.1 140.4,44 
			134.6,61.6 149.8,50.7 		"/>
		<polygon class="st2" points="137.5,57.7 149.8,48.8 162.1,57.7 157.4,43.4 169.8,34.6 154.5,34.6 149.8,20.2 145.1,34.6 
			129.9,34.6 142.2,43.4 137.5,57.7 		"/>
		<polygon class="st4" points="144,42.8 140.3,53.8 149.8,47 159.2,53.8 155.6,42.8 165.1,36 153.4,36 149.8,25 146.2,36 134.5,36 
			144,42.8 		"/>
	</g>
	<path class="st5" d="M141.6,72.5V61.3h7.7v1.9h-5.4v2.6h4.7v1.9h-4.7v4.8H141.6z"/>
	<path class="st6" d="M151.1,72.5V61.3h2.2v5l4.6-5h3l-4.2,4.3l4.4,6.8h-2.9l-3.1-5.2l-1.8,1.9v3.4H151.1z"/>
	<path class="st5" d="M92.8,88.2l3.6-0.3c0.2,1.2,0.6,2.1,1.3,2.6c0.7,0.6,1.5,0.8,2.6,0.8c1.2,0,2.1-0.2,2.6-0.7
		c0.6-0.5,0.9-1.1,0.9-1.7c0-0.4-0.1-0.8-0.4-1.1c-0.2-0.3-0.7-0.6-1.3-0.8c-0.4-0.1-1.4-0.4-2.9-0.8c-1.9-0.5-3.3-1.1-4.1-1.8
		c-1.1-1-1.7-2.2-1.7-3.6c0-0.9,0.3-1.8,0.8-2.6c0.5-0.8,1.3-1.4,2.3-1.8c1-0.4,2.2-0.6,3.6-0.6c2.3,0,4,0.5,5.1,1.5
		c1.1,1,1.7,2.3,1.8,4l-3.7,0.1c-0.2-0.9-0.5-1.6-1-2c-0.5-0.4-1.3-0.6-2.3-0.6c-1.1,0-1.9,0.2-2.5,0.7c-0.4,0.3-0.6,0.7-0.6,1.1
		c0,0.4,0.2,0.8,0.5,1.1c0.5,0.4,1.6,0.8,3.3,1.2c1.8,0.4,3.1,0.8,3.9,1.3c0.8,0.4,1.5,1.1,2,1.8c0.5,0.8,0.7,1.7,0.7,2.9
		c0,1-0.3,2-0.9,2.9c-0.6,0.9-1.4,1.6-2.4,2c-1,0.4-2.4,0.7-3.9,0.7c-2.3,0-4-0.5-5.3-1.6C93.7,91.8,93,90.3,92.8,88.2z"/>
	<path class="st5" d="M110.5,94.1v-18h5.8c2.2,0,3.6,0.1,4.3,0.3c1,0.3,1.9,0.9,2.6,1.8c0.7,0.9,1,2.1,1,3.5c0,1.1-0.2,2-0.6,2.8
		c-0.4,0.8-0.9,1.3-1.5,1.8c-0.6,0.4-1.2,0.7-1.9,0.9c-0.9,0.2-2.1,0.3-3.8,0.3h-2.4v6.8H110.5z M114.2,79.1v5.1h2
		c1.4,0,2.4-0.1,2.9-0.3c0.5-0.2,0.9-0.5,1.1-0.9c0.3-0.4,0.4-0.9,0.4-1.4c0-0.7-0.2-1.2-0.6-1.6c-0.4-0.4-0.9-0.7-1.5-0.8
		c-0.4-0.1-1.3-0.1-2.6-0.1H114.2z"/>
	<path class="st5" d="M141.7,94.1h-3.9l-1.6-4.1H129l-1.5,4.1h-3.9l7-18h3.8L141.7,94.1z M135,87l-2.5-6.7l-2.4,6.7H135z"/>
	<path class="st6" d="M165.8,94.1v-15h-5.3v-3.1h14.3v3.1h-5.3v15H165.8z"/>
	<path class="st6" d="M191.6,94.1h-3.9l-1.6-4.1h-7.3l-1.5,4.1h-3.9l7-18h3.8L191.6,94.1z M184.9,87l-2.5-6.7l-2.4,6.7H184.9z"/>
	<path class="st6" d="M193.5,94.1v-18h3.7v8l7.4-8h4.9l-6.8,7l7.2,11h-4.7l-5-8.5l-2.9,3v5.4H193.5z"/>
	<path class="st5" d="M110.6,106.6l2.2-0.2c0.1,0.7,0.4,1.3,0.8,1.6c0.4,0.3,1,0.5,1.6,0.5c0.7,0,1.3-0.2,1.6-0.5
		c0.4-0.3,0.6-0.7,0.6-1.1c0-0.3-0.1-0.5-0.2-0.7c-0.2-0.2-0.4-0.3-0.8-0.5c-0.3-0.1-0.9-0.3-1.8-0.5c-1.2-0.3-2.1-0.7-2.5-1.1
		c-0.7-0.6-1-1.4-1-2.3c0-0.6,0.2-1.1,0.5-1.6c0.3-0.5,0.8-0.9,1.4-1.1c0.6-0.3,1.3-0.4,2.2-0.4c1.4,0,2.5,0.3,3.2,0.9
		c0.7,0.6,1.1,1.4,1.1,2.5l-2.2,0.1c-0.1-0.6-0.3-1-0.6-1.2c-0.3-0.3-0.8-0.4-1.4-0.4c-0.7,0-1.2,0.1-1.5,0.4
		c-0.2,0.2-0.4,0.4-0.4,0.7c0,0.3,0.1,0.5,0.3,0.7c0.3,0.2,1,0.5,2.1,0.7c1.1,0.3,1.9,0.5,2.4,0.8c0.5,0.3,0.9,0.7,1.2,1.1
		c0.3,0.5,0.4,1.1,0.4,1.8c0,0.6-0.2,1.2-0.5,1.8c-0.4,0.6-0.9,1-1.5,1.2c-0.7,0.3-1.5,0.4-2.4,0.4c-1.4,0-2.5-0.3-3.3-1
		C111.2,108.8,110.8,107.9,110.6,106.6z"/>
	<path class="st5" d="M121.6,99.1h2.2v6.1c0,1,0,1.6,0.1,1.9c0.1,0.5,0.3,0.8,0.7,1.1c0.4,0.3,0.9,0.4,1.5,0.4
		c0.6,0,1.1-0.1,1.5-0.4c0.3-0.3,0.5-0.6,0.6-1c0.1-0.4,0.1-1,0.1-1.9v-6.2h2.2v5.9c0,1.3-0.1,2.3-0.2,2.8c-0.1,0.6-0.3,1-0.7,1.4
		c-0.3,0.4-0.8,0.7-1.3,0.9c-0.5,0.2-1.3,0.3-2.1,0.3c-1.1,0-1.9-0.1-2.4-0.4c-0.6-0.2-1-0.6-1.3-1c-0.3-0.4-0.5-0.8-0.6-1.2
		c-0.1-0.6-0.2-1.6-0.2-2.8V99.1z"/>
	<path class="st5" d="M132.9,99.1h4.5c0.9,0,1.5,0,2,0.1c0.4,0.1,0.8,0.2,1.2,0.5c0.3,0.2,0.6,0.5,0.9,0.9c0.2,0.4,0.3,0.8,0.3,1.3
		c0,0.5-0.1,1-0.4,1.4c-0.3,0.4-0.7,0.8-1.1,1c0.7,0.2,1.2,0.5,1.6,1c0.4,0.5,0.5,1,0.5,1.7c0,0.5-0.1,1-0.4,1.5
		c-0.2,0.5-0.6,0.9-1,1.2c-0.4,0.3-0.9,0.5-1.5,0.5c-0.4,0-1.3,0.1-2.7,0.1h-3.8V99.1z M135.2,100.9v2.6h1.5c0.9,0,1.4,0,1.6,0
		c0.4,0,0.7-0.2,0.9-0.4c0.2-0.2,0.3-0.5,0.3-0.9c0-0.3-0.1-0.6-0.3-0.8c-0.2-0.2-0.5-0.3-0.8-0.4c-0.2,0-0.9,0-1.9,0H135.2z
		 M135.2,105.3v3h2.1c0.8,0,1.3,0,1.5-0.1c0.3-0.1,0.6-0.2,0.8-0.4c0.2-0.2,0.3-0.6,0.3-0.9c0-0.3-0.1-0.6-0.2-0.9
		c-0.2-0.2-0.4-0.4-0.7-0.5c-0.3-0.1-1-0.2-2-0.2H135.2z"/>
	<path class="st6" d="M158.9,110.2v-9.3h-3.3v-1.9h8.9v1.9h-3.3v9.3H158.9z"/>
	<path class="st6" d="M165.8,110.2V99.1h2.2v11.2H165.8z"/>
	<path class="st6" d="M177.3,106.1l2.2,0.7c-0.3,1.2-0.9,2.1-1.7,2.7c-0.8,0.6-1.8,0.9-3,0.9c-1.5,0-2.7-0.5-3.7-1.5
		c-1-1-1.4-2.4-1.4-4.2c0-1.9,0.5-3.3,1.4-4.3c1-1,2.2-1.5,3.8-1.5c1.4,0,2.5,0.4,3.3,1.2c0.5,0.5,0.9,1.2,1.1,2.1l-2.2,0.5
		c-0.1-0.6-0.4-1-0.8-1.4c-0.4-0.3-0.9-0.5-1.5-0.5c-0.8,0-1.5,0.3-2,0.9c-0.5,0.6-0.8,1.6-0.8,2.9c0,1.4,0.3,2.4,0.8,3
		c0.5,0.6,1.2,0.9,2,0.9c0.6,0,1.1-0.2,1.5-0.6C176.8,107.5,177.1,106.9,177.3,106.1z"/>
	<path class="st6" d="M191.5,110.2h-2.5l-1-2.5h-4.5l-0.9,2.5h-2.4l4.3-11.2h2.4L191.5,110.2z M187.4,105.8l-1.5-4.1l-1.5,4.1H187.4
		z"/>
	<path class="st5" d="M137.5,173.2H135V164c-0.9,0.8-1.9,1.4-3.1,1.8v-2.2c0.6-0.2,1.3-0.6,2.1-1.2c0.7-0.6,1.2-1.2,1.5-2h2V173.2z"
		/>
	<path class="st5" d="M141.2,170.2l2.3-0.3c0.1,0.5,0.2,0.8,0.4,1.1c0.2,0.2,0.6,0.3,1,0.3c0.5,0,0.9-0.2,1.3-0.7
		c0.3-0.5,0.6-1.4,0.7-2.9c-0.6,0.7-1.4,1.1-2.3,1.1c-1,0-1.8-0.4-2.6-1.1c-0.7-0.8-1.1-1.8-1.1-3c0-1.3,0.4-2.3,1.1-3.1
		c0.8-0.8,1.7-1.2,2.9-1.2c1.3,0,2.3,0.5,3.1,1.5c0.8,1,1.2,2.6,1.2,4.9c0,2.3-0.4,4-1.3,5c-0.9,1-2,1.5-3.3,1.5
		c-1,0-1.8-0.3-2.4-0.8C141.7,172.1,141.3,171.3,141.2,170.2z M146.6,164.9c0-0.8-0.2-1.4-0.5-1.8c-0.4-0.4-0.8-0.6-1.2-0.6
		c-0.4,0-0.8,0.2-1.1,0.5c-0.3,0.4-0.4,0.9-0.4,1.7c0,0.8,0.2,1.4,0.5,1.8c0.3,0.4,0.7,0.6,1.2,0.6c0.5,0,0.9-0.2,1.2-0.5
		C146.4,166.2,146.6,165.6,146.6,164.9z"/>
	<path class="st6" d="M155.6,173.2v-2.5h-5.2v-2.1l5.5-8h2v8h1.6v2.1h-1.6v2.5H155.6z M155.6,168.5v-4.3l-2.9,4.3H155.6z"/>
	<path class="st6" d="M160.7,169.9l2.4-0.2c0.1,0.5,0.3,1,0.6,1.3c0.3,0.3,0.7,0.5,1.2,0.5c0.5,0,0.9-0.2,1.3-0.6
		c0.3-0.4,0.5-1,0.5-1.9c0-0.8-0.2-1.4-0.5-1.8c-0.4-0.4-0.8-0.6-1.4-0.6c-0.7,0-1.3,0.3-1.9,0.9l-1.9-0.3l1.2-6.5h6.4v2.3H164
		l-0.4,2.1c0.5-0.3,1.1-0.4,1.7-0.4c1.1,0,2,0.4,2.8,1.2c0.8,0.8,1.1,1.8,1.1,3c0,1-0.3,2-0.9,2.8c-0.8,1.1-2,1.7-3.4,1.7
		c-1.2,0-2.1-0.3-2.8-0.9C161.3,171.8,160.9,171,160.7,169.9z"/>
	<ellipse transform="matrix(0.9082 -0.4186 0.4186 0.9082 -71.1768 81.5404)" class="st5" cx="150.3" cy="203" rx="21" ry="21"/>
	<g>
		<path class="st6" d="M157.8,90.6c-0.9-1.4-1.5-2.4-2.1-2.9c-0.5-0.5-1.2-1.1-1.9-1.5c1.6-0.2,2.8-0.8,3.5-1.7
			c0.8-0.9,1.2-2,1.2-3.4c0-1.1-0.3-2-0.8-2.8c-0.5-0.8-1.2-1.4-2.1-1.7c-0.9-0.3-2.3-0.5-4.2-0.5h-1.6v3.1h0.4c1.5,0,2.3,0,2.6,0.1
			c0.6,0.1,1,0.3,1.4,0.7c0.3,0.4,0.5,0.9,0.5,1.5c0,0.5-0.1,1-0.4,1.4c-0.2,0.4-0.6,0.6-1,0.8c-0.4,0.1-1.5,0.2-3.2,0.2h-0.3v3
			c0.1,0,0.1,0,0.2,0c0.4,0.1,0.7,0.4,1.1,0.7c0.3,0.4,1,1.2,1.9,2.6l2.6,3.9h4.3L157.8,90.6z"/>
		<path class="st5" d="M149.9,83.8h-2.5v-4.6h2.5v-3.1h-6.2v18h3.7v-7.5h0.7c0.8,0,1.4,0.1,1.8,0.2V83.8z"/>
	</g>
	<g>
		<path class="st2" d="M150.4,184.2c3.7,0,7.1,1.4,10.1,3.4c5.5,3.6,9.3,8.7,9.3,15.4c0,10.7-9,18.9-19.5,18.9
			c-7.1,0-13.5-3.7-16.9-9.9c-1.5-2.8-2.4-5.8-2.4-9c0-5.9,2.5-11.3,7.1-15C141.7,185.2,145.8,184.2,150.4,184.2L150.4,184.2z"/>
		<path class="st7" d="M143.8,204c-2.2,0.5-4.3,1-6.6,1.6c-0.1,7.8,3.6,11.4,11.2,10.6c3.8,2.2,8.2,2.5,13.3-0.3
			c1.1-0.1,2.2-0.2,3.3-0.3c-3.3,3.5-7.5,5.5-12.3,6.3c-3.3,0.1-6.7,0.3-10-1.4c-5-2-8.5-5.8-10.3-10.2c-1.1-2.4-1.6-4.7-1.6-7.1
			c0.2-5.5,1.8-10.4,6.2-14.3c-3.4,4.1-4.9,8.4-3.3,11.1c0.6,1.1,1.3,2.4,2.9,3.1C138.3,203.7,140.7,204.1,143.8,204L143.8,204z"/>
		<path class="st7" d="M156,197.8c1.1,2.4,1.7,5.3,2.7,7.2c0.7,1.2,2.3,2.5,4.8,4c-2.9-0.6-4.4-1.7-6.5-3.1l-9.5-9.1
			c-1.4-2.1-2.5-3.8-3.1-5.9c1.1,0.9,1.7,1.6,2.1,2.1c0.7,1.1,1,1.8,1.7,2.3c1,0.8,1.8,0.6,3,0.7C152.4,196.1,154.1,196.5,156,197.8
			L156,197.8z"/>
		<path class="st8" d="M135.4,211.9c0.8,1.7,3,4.6,6.5,6.1c3,1.7,10,2,13,1.7c2.2-0.3,5.6-2,6.9-4c1.1-0.1,2.1-0.1,3.2-0.2
			c-3.3,3.5-7.5,5.5-12.3,6.3c-3.3,0.1-6.7,0.3-10-1.4c-5-2-8.5-5.8-10.3-10.2L135.4,211.9L135.4,211.9z"/>
		<path class="st9" d="M157.1,205.9c-0.3-2.6-0.6-5.5-1.2-8.1c-2.6-0.8-5.7-1.3-8.4-1.2c-1.7,2.2-3,4.7-3.8,7.4c1.7,2.2,3.7,4,6,5.6
			C152.3,208.7,154.8,207.4,157.1,205.9L157.1,205.9z"/>
		<path class="st9" d="M156.3,187.6c0.5,0.5,0.9,1.2,1.2,1.8c0.7,1.4,1.5,3.1,1.9,4.6c2.3,0.1,4.7,0.9,6.4,2.4
			c0.1-1.3,0.2-2.9,0-4.1c-1.6-2.3-3.2-3.7-5.7-4.8C158.9,187.1,157.4,187.5,156.3,187.6L156.3,187.6z"/>
		<path class="st9" d="M131,203.2c0,1.8,0.2,3.8,0.9,5.1c0.8,1.6,2.3,3,3.7,4.1c0-2.1,0.8-4.9,1.5-6.9c-1.3-1.6-2.5-3.8-3.3-5.7
			C132.8,200.8,131.7,202.1,131,203.2L131,203.2z"/>
		<path class="st9" d="M163.1,209c0.5,4-0.4,5.4-0.2,6c0.1,0.2,1.1,0.5,1.8,0.6c1.9-1.4,4.3-5.3,4.3-7.7c-0.2-1.2-0.7-2.8-1.4-3.8
			C166.5,205.9,164.9,207.9,163.1,209L163.1,209z"/>
		<path class="st9" d="M137.6,188.5c-0.1,0.9,0,2.5,0,3.4c2.3-0.8,4.6-1.1,7-0.9c1.2-1.9,3.1-3.7,5.2-4.5c-1.1-0.6-2.8-1.4-4-1.9
			C142.5,185.1,139.9,186.4,137.6,188.5L137.6,188.5z"/>
		<path class="st9" d="M150.4,184.1c3.8,0,7.3,1.5,10.2,3.4l0.1,0.1c1.9,0.9,3.6,2,5.3,4.6l0,0.1c2.5,3,4,6.6,4,10.8
			c0,1.9-0.3,3.8-0.8,5.5c-0.3,2.6-2.5,5.7-4,6.9c-3.2,3.6-7.9,6-13,6.5c-3.2,0.4-6.5,0-9.5-1.4l0,0c-4-1.7-7.3-4.7-9.4-8.5
			c-0.4-0.7-0.8-1.5-1.1-2.3c-1-1.7-1.6-4.4-1.3-6.5l0,0c0-0.1,0-0.2,0-0.3c0-6,2.5-11.5,7.2-15.1c0.2-0.1,0.3-0.3,0.5-0.4
			c1.9-1.6,4.5-2.6,6.9-3C147,184.2,148.6,184,150.4,184.1L150.4,184.1z M150,186.4c2.1-0.1,4.2,0.4,6.2,1c1.1-0.2,2.4-0.2,3.4-0.2
			c-2.8-1.7-6-2.8-9.3-2.9c-1.4,0-2.7,0.1-4,0.3C147.6,185.1,148.9,185.8,150,186.4L150,186.4z M156.2,187.7c-2.1-0.6-4.2-1.1-6.4-1
			l-0.1,0c-1.8,0.6-3.5,2-5,4.3c0.6,2.1,1.6,3.7,2.8,5.5c2.9-0.1,5.9,0.4,8.2,1.1c1.3-1.1,2.5-2.4,3.5-3.7c-0.4-1.5-1.2-3-1.9-4.4
			C157,188.8,156.7,188.2,156.2,187.7L156.2,187.7z M149.8,209.7c0.1,2.2-0.4,4.3-1.3,6.3c1.3,1.8,4,3,6.9,3.4
			c-0.7,0.8-1.6,1.5-2.4,2.1c4.5-0.6,8.5-2.7,11.5-5.9l-3,0.2c0.8-1.6,1.3-4.1,1.5-6.9c-2-0.6-4.2-1.7-5.9-3
			C155,207.4,152.7,208.8,149.8,209.7L149.8,209.7z M148.2,216.1c0.9-2.1,1.4-4.2,1.3-6.4c-2.1-1.4-3.9-2.9-5.8-5.4
			c-2.1,0.5-4.3,0.9-6.4,1.4c-0.9,2.4-1.7,5-1.6,7c-1-0.6-1.9-1.2-2.9-2.1c0.2,0.5,0.4,0.9,0.7,1.4c2.1,3.7,5.2,6.5,8.9,8.2
			c-0.4-0.8-0.6-1.5-0.9-2.2C143.6,218,146,217.1,148.2,216.1L148.2,216.1z M157.2,205.8c1.7,1.3,3.9,2.3,5.9,3
			c1.6-1,3.1-2.6,4.3-4.6c0.1-2.7-0.6-5.2-1.7-7.6l-0.1-0.1c-2.1-1.9-4.7-2.2-6.2-2.3c-1,1.3-2.2,2.6-3.4,3.7
			C156.5,200,157,202.8,157.2,205.8L157.2,205.8z M166,196.4c1.2,2.4,1.8,5,1.8,7.7c0.6,0.8,1.1,1.8,1.4,3.4c0.4-1.4,0.6-3,0.6-4.5
			c0-4-1.4-7.4-3.6-10.2C166.2,194,166.1,195.3,166,196.4L166,196.4z M155.8,197.9L155.8,197.9c-2.6-0.9-5.5-1.2-8.2-1.1l0,0
			c-1.7,2.1-2.9,4.6-3.6,7.2c2,2.3,3.9,3.8,6,4.2c1.9,0.3,5-1.2,7.1-2.4C156.7,203.2,156.3,200.5,155.8,197.9L155.8,197.9z
			 M147.3,196.6c-1.2-1.8-2.1-3.4-2.8-5.5c-2.1-0.1-4.3,0-6.8,0.9c-1.6,2.6-2.8,4.8-3.7,7.8c0.8,2.1,2,4.1,3.2,5.5l6.4-1.4
			C144.3,201.4,145.4,198.9,147.3,196.6L147.3,196.6z M133.7,199.7c0.8-2.9,2.1-5.2,3.7-7.8c-0.1-1-0.1-2.1,0-3.1
			c-4.1,3.6-6.2,8.6-6.3,14C131.9,201.7,132.8,200.5,133.7,199.7L133.7,199.7z M163.3,209c0.2,2.3,0.2,3.2,0.1,4.3
			c0,0.7-0.2,1.8-0.1,1.9c0.4,0.1,0.8,0.3,1.4,0.2c0.1,0,0.1-0.1,0.2-0.1c2-1.9,3.4-4.2,3.9-6.7c0-0.2,0-0.4,0-0.6
			c-0.2-1.2-0.5-2.5-1.3-3.5C166.5,206.2,165.1,207.9,163.3,209L163.3,209z M131.6,207c0.2,0.5,0.3,0.9,0.5,1.3
			c0.8,1.6,1.9,2.7,3.3,3.9c0-2.1,0.8-4.6,1.6-6.6c-1.3-1.6-2.5-3.6-3.2-5.5c-0.9,0.9-1.9,2.1-2.6,3.2
			C131.1,204.5,131.3,205.8,131.6,207L131.6,207z M156.5,187.7c2.7,2.4,2.9,4.2,4,5.1c1.2,1.1,2.7,0.5,5.2,3.3
			c0.1-1.2,0.2-2.5,0-3.8c-1.3-1.9-3.4-3.9-5.7-4.8C159,187.5,157.7,187.5,156.5,187.7L156.5,187.7z M137.7,188.7
			c-0.1,0.9-0.1,2.2,0,3.1c2.3-0.8,4.4-1,6.8-0.9c1.2-1.9,2.9-3.6,5-4.4c-1.1-0.6-2.6-1.3-3.8-1.7
			C142.8,185.2,139.9,186.5,137.7,188.7L137.7,188.7z"/>
	</g>
	<g>
		<path class="st6" d="M152.8,100.4c-0.8-0.8-1.7-1.3-2.9-1.5v2c0.5,0.2,0.9,0.4,1.2,0.8c0.6,0.6,0.8,1.6,0.8,2.9
			c0,1.3-0.3,2.3-0.9,2.9c-0.3,0.4-0.7,0.7-1.2,0.8v2c1.2-0.2,2.2-0.7,2.9-1.5c1-1,1.5-2.4,1.5-4.2
			C154.3,102.8,153.8,101.4,152.8,100.4z"/>
		<path class="st5" d="M149.9,108.3c-0.3,0.1-0.6,0.1-1,0.1c-0.9,0-1.6-0.3-2.2-1c-0.6-0.7-0.9-1.6-0.9-2.9c0-1.3,0.3-2.2,0.9-2.9
			c0.6-0.6,1.3-1,2.2-1c0.3,0,0.7,0,1,0.1v-2c-0.3,0-0.6-0.1-1-0.1c-0.9,0-1.7,0.1-2.4,0.4c-0.5,0.2-1,0.6-1.4,1
			c-0.4,0.5-0.8,1-1,1.5c-0.3,0.8-0.5,1.7-0.5,2.9c0,1.8,0.5,3.2,1.5,4.2c1,1,2.3,1.5,4,1.5c0.3,0,0.7,0,1-0.1V108.3z"/>
	</g>
</g>
</svg>
