<?xml version="1.0" encoding="utf-8"?>
<!-- Generator: Adobe Illustrator 22.1.0, SVG Export Plug-In . SVG Version: 6.00 Build 0)  -->
<svg version="1.0" id="Layer_1" xmlns="http://www.w3.org/2000/svg" xmlns:xlink="http://www.w3.org/1999/xlink" x="0px" y="0px"
	 viewBox="0 0 407 525" enable-background="new 0 0 407 525" xml:space="preserve">
<g>
	<path fill="#FFFFFF" d="M214.7,504.7h-17.3C96.3,504.7,13.5,422,13.5,320.8v-82.2c0-101.1,82.7-183.9,183.9-183.9h17.3
		c101.1,0,183.9,82.7,183.9,183.9v82.2C398.5,421.9,315.8,504.7,214.7,504.7z"/>
	<g>
		<g>
			<g>
				<defs>
					<path id="SVGID_1_" d="M20.9,319.5v-50h370.3v50c0,102.1-83.1,185.2-185.2,185.2S20.9,421.6,20.9,319.5 M46.3,12
						c-18.1,0-32.7,14.7-32.7,32.7v274.8C13.5,425.7,99.9,512,206,512s192.5-86.3,192.5-192.5V44.7c0-18.1-14.7-32.7-32.7-32.7H46.3
						z"/>
				</defs>
				<clipPath id="SVGID_2_">
					<use xlink:href="#SVGID_1_"  overflow="visible"/>
				</clipPath>
				<polygon clip-path="url(#SVGID_2_)" fill="#FFCC03" points="-147.2,453.5 353.5,635.7 559.2,70.5 58.6,-111.7 				"/>
			</g>
		</g>
		<g>
			<g>
				<defs>
					<path id="SVGID_3_" d="M80.3,187.9c-2.4,0-4.1,1.2-5,3.4l-9,22.7l-9-22.7c-0.9-2.3-2.6-3.4-5-3.4h-3.6
						c-2.8,0.1-4.7,1.7-5.1,4.3L38,234.4c-0.1,0.5-0.1,0.9-0.1,1.1l0,0c0,2.6,2,4.4,4.7,4.4h2.1c2.6,0,4.6-1.6,5-4.2l3.3-24.4
						l7.4,18.9c0.4,1.1,1.6,3.1,5,3.1h2.1c3.4,0,4.6-2,5-3.1l7.4-18.9l3.2,24.4c0.4,2.6,2.3,4.2,5,4.2h2.1c2.7,0,4.7-1.9,4.7-4.4
						c0-0.2,0-0.6-0.1-1.1L89,192.2c-0.4-2.7-2.3-4.3-5.1-4.3H80.3z"/>
				</defs>
				<use xlink:href="#SVGID_3_"  overflow="visible" fill="#2D2A6D"/>
				<clipPath id="SVGID_4_">
					<use xlink:href="#SVGID_3_"  overflow="visible"/>
				</clipPath>
				<rect x="37.9" y="187.9" clip-path="url(#SVGID_4_)" fill="#2D2A6D" width="56.9" height="52"/>
			</g>
		</g>
		<g>
			<g>
				<defs>
					<path id="SVGID_5_" d="M110.6,213.9c0-9.8,5.8-16.4,14.3-16.4c8.7,0,14.3,6.4,14.3,16.4s-5.6,16.5-14.3,16.5
						C116.3,230.4,110.6,223.7,110.6,213.9 M105.2,195c-4.3,4.8-6.7,11.5-6.7,18.8s2.4,13.9,6.7,18.8c4.8,5.4,11.6,8.2,19.7,8.2
						c8.2,0,15-2.8,19.8-8.2c4.3-4.8,6.6-11.5,6.6-18.7c0-7.4-2.3-14.1-6.6-18.8c-4.7-5.3-11.6-8.1-19.8-8.1
						C116.7,186.9,109.9,189.7,105.2,195"/>
				</defs>
				<use xlink:href="#SVGID_5_"  overflow="visible" fill="#2D2A6D"/>
				<clipPath id="SVGID_6_">
					<use xlink:href="#SVGID_5_"  overflow="visible"/>
				</clipPath>
				<rect x="98.5" y="186.9" clip-path="url(#SVGID_6_)" fill="#2D2A6D" width="52.8" height="53.9"/>
			</g>
		</g>
		<g>
			<g>
				<defs>
					<path id="SVGID_7_" d="M159.8,187.9c-2.7,0.1-4.5,1.9-4.5,4.5v1.6c0,2.7,1.8,4.5,4.6,4.5h16.8L154,231.1c-0.7,1.1-1,2-1,3
						c0,0.4,0.1,1.3,0.7,2.4l0.5,0.9l0,0l0,0c1.3,2.1,3.1,2.4,4.5,2.4h29.9c2.8,0,4.6-1.8,4.6-4.5v-1.6c0-2.7-1.9-4.5-4.6-4.5h-19.4
						l22.8-32.7c0.7-1.1,1.1-2,1.1-3c0-0.4-0.1-1.3-0.7-2.4l-0.5-0.9l0,0l0,0c-1.3-2-2.9-2.4-4.3-2.4L159.8,187.9L159.8,187.9z"/>
				</defs>
				<use xlink:href="#SVGID_7_"  overflow="visible" fill="#2D2A6D"/>
				<clipPath id="SVGID_8_">
					<use xlink:href="#SVGID_7_"  overflow="visible"/>
				</clipPath>
				<rect x="153" y="187.9" clip-path="url(#SVGID_8_)" fill="#2D2A6D" width="40.2" height="52"/>
			</g>
		</g>
		<g>
			<g>
				<defs>
					<path id="SVGID_9_" d="M203.7,187.9c-2.7,0.1-4.5,1.9-4.5,4.5v1.6c0,2.7,1.8,4.5,4.6,4.5h16.8l-22.7,32.7c-0.7,1.1-1,2-1,3
						c0,0.4,0.1,1.3,0.7,2.4l0.5,0.9l0,0l0,0c1.3,2.1,3.1,2.4,4.4,2.4h29.9c2.7,0,4.5-1.7,4.6-4.3v-2c-0.1-2.6-1.9-4.3-4.6-4.3H213
						l22.8-32.7c0.7-1.1,1-2,1-3c0-0.4-0.1-1.3-0.7-2.4l-0.5-0.9l0,0l0,0c-1.3-2-2.9-2.4-4.3-2.4H203.7z"/>
				</defs>
				<use xlink:href="#SVGID_9_"  overflow="visible" fill="#2D2A6D"/>
				<clipPath id="SVGID_10_">
					<use xlink:href="#SVGID_9_"  overflow="visible"/>
				</clipPath>
				<rect x="196.9" y="187.9" clip-path="url(#SVGID_10_)" fill="#2D2A6D" width="40.2" height="52"/>
			</g>
		</g>
		<g>
			<g>
				<defs>
					<path id="SVGID_11_" d="M263.2,207.3l4.2,10.7H259L263.2,207.3z M261.8,187.9c-3,0.1-4.3,1.8-4.9,3.3l-16.5,42.7l0,0l0,0l0,0
						c-0.1,0.5-0.3,1-0.3,1.8c0,2.5,1.8,4.1,4.4,4.1h2.5c2.4,0,3.9-1.1,4.8-3.4l3.1-8h16.5l3.1,8c0.9,2.3,2.4,3.4,4.8,3.4h2.5
						c2.6,0,4.4-1.7,4.4-4.1c0-0.8-0.2-1.4-0.4-1.9l0,0l0,0l-16.4-42.6c-0.9-2.1-2.6-3.2-4.9-3.3L261.8,187.9L261.8,187.9z"/>
				</defs>
				<use xlink:href="#SVGID_11_"  overflow="visible" fill="#2D2A6D"/>
				<clipPath id="SVGID_12_">
					<use xlink:href="#SVGID_11_"  overflow="visible"/>
				</clipPath>
				<rect x="240.1" y="187.9" clip-path="url(#SVGID_12_)" fill="#2D2A6D" width="46.2" height="52"/>
			</g>
		</g>
		<g>
			<g>
				<defs>
					<path id="SVGID_13_" d="M303.4,198.4h4.2c9.8,0,9.8,4.7,9.8,6.2c0,6.9-6,7.4-7.9,7.4h-6.2v-13.6H303.4z M296.6,187.9
						c-3,0.1-5,2.1-5,5.1v42.4c0,2.7,1.9,4.6,4.7,4.6h2.4c2.8,0,4.7-1.9,4.7-4.6v-12.8h4.4c0.6,0.6,1.3,1.4,2.2,2.7l8,12.2
						c1.1,1.7,2.7,2.5,4.7,2.5h2.4c2.6,0,4.5-1.8,4.5-4.2c0-0.8-0.4-1.9-1-2.8l-7.9-12.1l0,0l0,0c-0.1-0.2-0.3-0.4-0.4-0.6
						c5.8-3.1,9.2-8.6,9.2-15.2c0-11.2-7.1-16.9-21-17h-11.9V187.9z"/>
				</defs>
				<use xlink:href="#SVGID_13_"  overflow="visible" fill="#2D2A6D"/>
				<clipPath id="SVGID_14_">
					<use xlink:href="#SVGID_13_"  overflow="visible"/>
				</clipPath>
				<rect x="291.6" y="187.9" clip-path="url(#SVGID_14_)" fill="#2D2A6D" width="37.9" height="52"/>
			</g>
		</g>
		<g>
			<g>
				<defs>
					<path id="SVGID_15_" d="M335.9,187.9c-2.7,0.1-4.8,2-4.8,4.6v1.4c0,2.5,2.2,4.6,4.9,4.6h10.7v36.9c0,2.7,1.9,4.6,4.7,4.6h2.4
						c2.8,0,4.7-1.9,4.7-4.6v-36.9h10.7c2.8,0,4.9-2,4.9-4.6v-1.4c0-2.5-2-4.5-4.7-4.6H335.9z"/>
				</defs>
				<use xlink:href="#SVGID_15_"  overflow="visible" fill="#2D2A6D"/>
				<clipPath id="SVGID_16_">
					<use xlink:href="#SVGID_15_"  overflow="visible"/>
				</clipPath>
				<rect x="331.2" y="187.9" clip-path="url(#SVGID_16_)" fill="#2D2A6D" width="43" height="52"/>
			</g>
		</g>
		<g>
			<g>
				<defs>
					<path id="SVGID_17_" d="M213.8,75c-0.9,2.2-9.6,24.2-9.6,24.2s-8.7-21.9-9.6-24.2c-1.2-3-4.1-5.1-7.5-5.1c-4,0-7.3,2.9-8,6.7
						c-0.5,3.4-6.2,44.4-6.1,46.1c0,3.7,3,6.8,6.8,6.8c3.3,0,6.2-2.5,6.7-5.6c0.5-3,3.4-25.2,3.4-25.2s6.9,17.6,8.1,20.7
						c0.1,0.2,0.1,0.4,0.1,0.4c0.9,2.3,3.4,4.1,6.2,4.1s5.3-1.8,6.2-4.1c0.5-1.4,8.3-21.1,8.3-21.1s2.9,22.2,3.4,25.2
						s3.3,5.6,6.7,5.6c3.7,0,6.8-3,6.8-6.8c0-1.6-5.7-42.6-6.1-46.1c-0.7-3.8-4-6.7-8-6.7C217.9,69.9,215,72,213.8,75"/>
				</defs>
				<use xlink:href="#SVGID_17_"  overflow="visible" fill="#2D2A6D"/>
				<clipPath id="SVGID_18_">
					<use xlink:href="#SVGID_17_"  overflow="visible"/>
				</clipPath>
				<rect x="172.9" y="69.9" clip-path="url(#SVGID_18_)" fill="#2D2A6D" width="62.6" height="59.5"/>
			</g>
		</g>
		<g>
			<g>
				<defs>
					<path id="SVGID_19_" d="M143.1,100.7c0,33.7,27.3,61.1,61.1,61.1c33.7,0,61.1-27.3,61.1-61.1c0-6-0.9-11.8-2.5-17.2
						c-0.8-2.9-3.4-5-6.5-5c-3.7,0-6.8,3-6.8,6.8c0,0.8,0.1,1.5,0.4,2.2c1.2,4.2,1.9,8.7,1.9,13.3c0,26.3-21.3,47.6-47.6,47.6
						s-47.6-21.3-47.6-47.6s21.3-47.6,47.6-47.6c4.6,0,9.1,0.7,13.3,1.9l0,0c0.6,0.2,1.2,0.3,1.9,0.3c3.7,0,6.8-3,6.8-6.8
						c0-3.3-2.4-6-5.5-6.6c-5.3-1.5-10.8-2.3-16.5-2.3C170.5,39.6,143.1,67,143.1,100.7"/>
				</defs>
				<use xlink:href="#SVGID_19_"  overflow="visible" fill="#2D2A6D"/>
				<clipPath id="SVGID_20_">
					<use xlink:href="#SVGID_19_"  overflow="visible"/>
				</clipPath>
				<rect x="143.1" y="39.6" clip-path="url(#SVGID_20_)" fill="#2D2A6D" width="122.2" height="122.2"/>
			</g>
		</g>
		<g>
			<g>
				<defs>
					<path id="SVGID_21_" d="M233.4,38c-2.6,2.6-2.6,6.9,0,9.6l6.1,6.1c0.6,0.6,0.6,1.6,0,2.2l-6.1,6.1c-2.6,2.6-2.6,6.9,0,9.6
						c2.6,2.6,6.9,2.7,9.6,0l6.1-6.1c0.6-0.6,1.6-0.6,2.2,0l6.1,6.1c2.6,2.6,6.9,2.6,9.6,0c2.6-2.6,2.6-6.9,0-9.6l-6.1-6.1
						c-0.6-0.6-0.6-1.6,0-2.2l6.1-6.1c2.6-2.6,2.6-6.9,0-9.6c-2.6-2.6-6.9-2.6-9.6,0l-6.1,6.1c-0.6,0.6-1.6,0.6-2.2,0L243,38
						c-1.3-1.3-3.1-2-4.8-2S234.7,36.7,233.4,38"/>
				</defs>
				<use xlink:href="#SVGID_21_"  overflow="visible" fill="#2D2A6D"/>
				<clipPath id="SVGID_22_">
					<use xlink:href="#SVGID_21_"  overflow="visible"/>
				</clipPath>
				<rect x="230.8" y="35.4" clip-path="url(#SVGID_22_)" fill="#2D2A6D" width="38.8" height="38.8"/>
			</g>
		</g>
		<path d="M88.4,315.3l-9.5-3.3c-3.5-1.3-6-3-7.5-5.2s-2.2-5-2.2-8.6c0-5.2,1.3-8.6,3.8-10.4c2.5-1.7,7-2.6,13.3-2.6
			c6,0,11.2,0.6,15.5,1.8l-0.7,7.1c-4-0.1-8.9-0.2-14.7-0.2c-2.7,0-4.5,0.2-5.5,0.7c-0.9,0.5-1.4,1.7-1.4,3.6c0,1.5,0.3,2.7,1,3.3
			c0.7,0.7,2,1.3,3.9,2l8.9,3.1c3.6,1.3,6.2,3,7.7,5.2s2.2,5.1,2.2,8.6c0,5.3-1.3,8.8-3.8,10.7c-2.5,1.9-7.1,2.8-13.6,2.8
			c-5.3,0-10.7-0.6-16.2-1.8l0.6-7.5c9.7,0.2,14.9,0.3,15.5,0.3c2.8,0,4.6-0.3,5.6-0.9c0.9-0.6,1.4-1.8,1.4-3.7c0-1.6-0.3-2.7-1-3.4
			C91.3,316.4,90.1,315.8,88.4,315.3"/>
		<path d="M137.9,299.5v33.6h-8l-0.8-4.6c-4.6,3.7-9.3,5.5-13.9,5.5c-6.3,0-9.5-3.1-9.5-9.3v-25.1h10.1v22.1c0,1.5,0.2,2.5,0.7,3.1
			s1.5,0.9,2.9,0.9c2,0,4.7-0.9,8.4-2.8v-23.2h10.1V299.5z"/>
		<path d="M150.3,299.5l0.8,4.9c1.4-1.7,3.3-3.1,5.8-4.2s5-1.6,7.5-1.6c7.7,0,11.6,6,11.6,18c0,6.5-1,11-3.1,13.5
			c-2.1,2.6-5.3,3.8-9.7,3.8c-4.5,0-8.3-1.1-11.2-3.3c0.2,2.3,0.3,4.7,0.2,7.2v8.1h-10v-46.5h8.1V299.5z M152.1,309.7v15.4
			c3.5,0.9,6.1,1.4,7.6,1.4c2.2,0,3.8-0.6,4.6-1.9s1.3-3.9,1.3-8c0-4-0.4-6.6-1.2-8s-2.1-2.1-4.1-2.1
			C158.1,306.5,155.4,307.5,152.1,309.7"/>
		<path d="M201.7,319.6h-12.1c0.3,2.5,1.1,4.1,2.2,4.9c1.2,0.8,3.1,1.3,5.8,1.3c3.6,0,7.8-0.2,12.5-0.8l1,6.3
			c-3.5,1.7-8.4,2.5-14.6,2.5c-6.3,0-10.8-1.4-13.5-4.1s-4-7.2-4-13.5c0-6.6,1.3-11.2,3.9-13.8c2.6-2.6,7-4,13.2-4
			c5.6,0,9.6,1,12.1,2.9s3.8,4.9,3.8,8.8c0,3.1-0.8,5.5-2.4,7.1C207.8,318.8,205.2,319.6,201.7,319.6 M189.3,313.6h9.5
			c1.2,0,2.1-0.3,2.5-0.9s0.6-1.5,0.6-2.6c0-1.6-0.4-2.7-1.2-3.3c-0.8-0.6-2.3-0.9-4.5-0.9c-2.6,0-4.4,0.5-5.3,1.5
			C190,308.4,189.5,310.5,189.3,313.6"/>
		<path d="M239.8,298.5l-1,9.3h-2.7c-2.2,0-5.7,0.8-10.3,2.3V333h-10.1v-33.6h7.8l0.9,4.9c4.6-3.9,9.1-5.9,13.6-5.9h1.8V298.5z"/>
		<path d="M247,286v38.3c0,3.3,1.6,5,4.9,5h17.5l0.1,3.4c-4.8,0.3-10.9,0.4-18.4,0.4c-2.9,0-5-0.8-6.5-2.2c-1.5-1.5-2.2-3.5-2.2-5.9
			v-39H247z"/>
		<path d="M274.3,286.2h2c1,0,1.4,0.5,1.4,1.4v4c0,1-0.5,1.4-1.4,1.4h-2c-1,0-1.4-0.5-1.4-1.4v-4
			C272.9,286.7,273.3,286.2,274.3,286.2 M277.4,333.1h-4.3v-33h4.3V333.1z"/>
		<path d="M313.7,302.5l-5.5,0.4c1.3,1.5,1.9,3.8,1.9,6.7c0,3.6-1,6.2-3.1,7.8c-2.1,1.6-5.6,2.5-10.6,2.5c-3.1,0-5.6-0.3-7.5-0.9
			c-0.7,0.9-1.1,1.8-1.2,2.7c-0.1,0.9,0.1,1.8,0.7,2.6c0.6,0.8,1.6,1.3,3,1.5L304,328c3,0.5,5.1,1.4,6.2,2.8
			c1.2,1.4,1.7,3.5,1.7,6.3c0,3.7-1.1,6.3-3.4,7.8s-6.2,2.2-12,2.2s-9.9-0.7-12.1-2.1c-2.3-1.4-3.4-4-3.4-7.7c0-2.2,0.4-3.9,1.2-5.2
			c0.8-1.3,2.3-2.5,4.4-3.6c-2-1.2-2.9-2.9-2.8-5.1s1-3.9,2.7-5.2c-2.7-1.5-4.1-4.3-4.1-8.4c0-3.7,1-6.3,3.1-8s5.7-2.5,10.7-2.5
			c3,0,5.5,0.3,7.3,0.9h10.4L313.7,302.5z M289.6,329.4l-0.3,0.2c-1.5,1-2.5,2.1-3.1,3.1s-0.9,2.5-0.9,4.2c0,2.5,0.8,4.2,2.4,5.1
			s4.6,1.3,8.9,1.3s7.2-0.5,8.8-1.4c1.6-0.9,2.4-2.6,2.4-5c0-1.9-0.4-3.2-1.1-4c-0.8-0.7-2.3-1.3-4.7-1.7L289.6,329.4z M288.7,315
			c1.5,1.1,4,1.6,7.6,1.6c3.5,0,6-0.5,7.5-1.6s2.2-2.9,2.2-5.3c0-2.5-0.7-4.4-2.2-5.5s-4-1.6-7.5-1.6c-3.6,0-6.1,0.5-7.6,1.6
			s-2.2,2.9-2.2,5.5C286.5,312.1,287.2,313.9,288.7,315"/>
		<path d="M316.8,303.9l-0.4-3.2c6.6-1,11.9-1.5,15.9-1.5c3.5,0,6.2,0.8,7.9,2.4c1.7,1.6,2.6,4.2,2.6,7.8v23.7h-3.4l-0.5-5.8
			c-1.6,1.6-3.8,3.1-6.4,4.4s-5.3,1.9-8.1,1.9c-2.9,0-5.2-0.8-6.9-2.3c-1.7-1.5-2.5-3.7-2.5-6.6v-3.8c0-2.5,0.7-4.5,2.2-5.9
			s3.6-2.1,6.4-2.1h14.8v-3.5c0-2.2-0.5-3.8-1.5-4.8s-2.9-1.6-5.5-1.6C327.6,302.9,322.7,303.3,316.8,303.9 M319.4,321.4v2.9
			c0,3.7,1.9,5.5,5.8,5.5c2,0,4.2-0.4,6.7-1.5c2.5-1,4.7-2.4,6.6-4.1v-7.9h-14.1C321.1,316.4,319.4,318.1,319.4,321.4"/>
		<g>
			<path fill="#891A1C" d="M211.6,364.3c1.2,0.5,2.5,0.6,3.8,0.4c2.5-0.3,5-1.2,7.5-1.5c1.7-0.3,2.8-0.2,4.2-0.2
				c-7.2-2.6-15-3.9-23.1-3.7c-5.7,0.1-11.3,1-16.6,2.6C195.1,360.2,204,361.1,211.6,364.3"/>
			<path fill="#891A1C" d="M251.8,462.4c-0.7,0.3-2.4,0.8-3.7,2.1c-0.6,0.6-1.2,1.3-1.9,2.4c-5.4,8.3-16.8,15.1-17.1,15.3
				c3.2-1.5,16.5-7.1,27.2-20.5c0.5-0.6,0.9-1.2,1.4-1.8c0.1-0.2,0.3-0.4,0.4-0.6c0.3-0.4,0.7-0.9,1-1.3c0.5-0.8,1.1-1.5,1.6-2.3
				C258.7,458.1,257.1,460.1,251.8,462.4"/>
			<path fill="#891A1C" d="M250.9,374.5c-0.1-0.1-0.3-0.3-0.4-0.4c3.7,6.2,2.6,9.7,7.2,15.3c9.9,12.8,11.2,29.4,11.4,32.4
				C269.7,403.5,262.8,386.7,250.9,374.5"/>
			<path fill="#891A1C" d="M150.1,437.4c0.1-0.5-0.1-1-0.2-1.2c-4.4-8-6.3-18.3-6.5-23.9c-0.1,0.9-3.6,20.9,7,39.7
				C150,448.2,148.9,443.9,150.1,437.4"/>
			<g>
				<g>
					<defs>
						<path id="SVGID_23_" d="M224,469.3c-2.8,0.6-5.9,1-9.6,1.2c-1.7,0.1-3.3,0.1-5,0.1c-2.1,0-4.2-0.1-6.3-0.2h-0.3
							c-1.1,1.3-2.4,2.4-3.7,3.5c-0.9,0.7-1.9,1.4-2.9,2.1c0.1,0,0.1,0,0.1,0l0,0c3.2,0.9,6.5,1.4,9.9,1.6c0.7,0,1.4,0,2.1,0
							c2.4,0,4.7-0.1,6.9-0.4l0.4-0.1l0.7-0.1c4.7-0.7,9-2,13.2-4l-0.2-0.2l-1.3-1.4l-2.3-2.5C225.2,469,224.7,469.2,224,469.3
							 M167.7,466.4c3.8,4,8.3,7.3,13.4,9.9c-5.5-5.9-9.3-11.2-11.1-18.3c2.6,3.8,9.8,12.9,24.2,17.4l0,0l0,0
							c1.3-0.9,2.6-1.8,3.8-2.9c1.1-0.9,2.1-1.9,3.1-2.9c0,0-7.9-6.7-13.3-14.6H187l-1.8-0.2c-1.2-0.1-2.4-0.3-3.6-0.5
							c-2.6-0.4-4.9-0.8-7.1-1.3c-2.6-0.6-4.9-1.2-7-1.9l-0.4-0.1c-1.6-0.6-2.9-1-4.5-2c-3.2-1.7-6.1-5-7.7-7.1
							C156.8,451.2,161.1,459.4,167.7,466.4 M190.1,453.5c1.4,2.1,7.3,11.1,12.7,15.3c2.2,0.2,4.5,0.2,6.8,0.2c1.6,0,3.2,0,4.8-0.1
							c4.6-0.3,8.2-0.8,11.4-1.7c6.6-5.1,11.2-12.6,13.5-17.1c-2.2-7.7-4.9-14.4-6.1-17c-1.5,0-3,0-4.5,0c-3.2,0-6.4,0-9.4-0.1
							c-2.6-0.1-5.2-0.1-7.8-0.2l-3.9-0.1l-2.3-0.1C205.2,432.6,196.1,445.8,190.1,453.5 M164.5,403.2c-0.1,0.2-0.3,0.4-0.4,0.6
							c-1.8,2.7-8.6,12.9-10,23.8c0.6,1.8,3.6,12.9,8.7,19.7l0,0c2.5,1.3,9.5,4.1,24.9,4.9c2.4-3.5,4.8-7.2,7.1-11.2
							c1.2-2,2.3-4.1,3.4-6.1l1.6-3.1l1-1.9l-0.1-0.2c-0.4-0.6-0.8-1.3-1.1-1.9c-0.2-0.4-0.5-0.9-0.7-1.3c-0.4-0.7-0.8-1.4-1.2-2.2
							c-1.1-2.2-2.2-4.4-3.6-7.4c-1.2-2.5-2.3-5-3.5-7.5l-1.7-3.6l-1.2-2.7c-3.9-0.2-7.8-0.3-11.5-0.3
							C169.4,402.7,165.1,403.1,164.5,403.2 M151.2,419.6c0,0.4,0,0.7,0,1.1c1.9-3.8,5.3-10.7,11.9-18.8c-0.9-6.6-1.1-12-1.1-14.9
							C154.8,396.4,151,407.7,151.2,419.6 M206.6,381.4l-0.4,0.5l-1.1,1.3l-2.1,2.6c-1.4,1.7-2.9,3.6-4.2,5.4
							c-2.6,3.5-4.8,6.7-6.7,9.9l1.2,2.4l1.8,3.7c1.2,2.4,2.4,4.9,3.6,7.3c1.4,2.8,2.6,5.1,3.7,7.2c0.7,1.3,1.3,2.4,2,3.5
							c0.3,0.6,0.7,1.1,1,1.6c0.1,0.2,0.3,0.5,0.5,0.7l2,0.1l3.9,0.2c2.6,0.1,5.1,0.2,7.7,0.3c4.5,0.1,9.1,0.2,14,0.2
							c0.7-1.1,1.6-2.7,2.4-4.2c1-1.9,2-4,3-6.1c1-2.3,1.9-4.3,2.6-6.3c0.8-2.3,1.5-4.5,1.9-6.2c-1.1-3.2-2.7-6.6-5.2-10.8
							c-1-1.6-2.1-3.4-3.4-5.4c-1.2-1.8-2.4-3.2-3.5-4.7c-2.3-0.6-11.3-3-23.9-3h-0.8V381.4z M233.5,383.3c1.2,1.4,2.3,2.9,3.4,4.5
							c1.4,2,2.6,3.7,3.7,5.4c1.8,2.8,4,6.5,5.8,10.7c0.3,0.1,0.6,0.2,0.9,0.4c1.7,0.8,5.2,2.5,7.9,3.8c1.5,0.8,2.7,1.5,3.1,1.9
							c-6.3-2.2-10.8-2.7-11.6-2.8c-0.4,2.2-1,4.1-1.5,5.7c-0.7,2.1-1.4,4.3-2.4,6.7c-0.9,2.3-1.9,4.5-2.9,6.5
							c-0.8,1.8-1.7,3.5-2.5,4.8c0.9,2.7,1.6,5.5,2.3,8.9c0.6,3,1.1,5.9,1.6,8.9v0.2c0.5,0,1.4-0.1,2.3-0.2c1-0.1,1.8-0.2,2.5-0.3
							c0.1,0,0.1,0,0.1,0s0,0,0.1,0c0.7-0.1,1.3-0.2,1.7-0.3c0.3-0.1,0.4-0.1,0.4-0.1c-0.9,0.8-3.3,2-7.3,3.2l0,0
							c0,0-2.1,4.1-5.7,8.6c-2.2,2.8-5,5.8-8.1,8.2l0,0c0,0-0.1,0-0.1,0.1l1.9,2.3l1.2,1.4l0.5,0.6c0.2-0.1,0.4-0.2,0.7-0.3
							c0.1,0,0.8-0.4,0.8-0.4c0.9-0.5,1.7-1,2.6-1.6l0.2-0.1c0.6-0.4,1.3-0.9,2-1.4c0.4-0.3,0.7-0.6,1.1-0.9
							c0.1-0.1,0.6-0.5,0.6-0.5c7.7-6.6,10.9-14.8,12.3-20.5c0.1-0.6,0.3-1.3,0.4-2c0.4-2.5,0.7-4.6,0.7-8.2c0-0.9-0.1-3.2-0.2-4
							l0.1,0.4c1.9,6.2,1.8,11.9,1.3,15.9c0,0.2,0,0.3-0.1,0.5v0.1c-0.1,0.9-0.3,1.9-0.5,2.8c5.5-8.5,8.5-18.3,8.9-28.4
							c0.7-19.7-9.2-38.4-25.8-49.1C235.6,374.7,235.8,377.2,233.5,383.3 M207.3,368.6c-3.3,0.3-6.5,0.8-9.6,1.6
							c-0.1,0-0.7,0.2-1.2,0.3c1.1,0.7,2.2,1.5,3.2,2.2c1.2,0.9,2.5,2.1,3.6,3.1c0.9,0.8,1.7,1.7,2.5,2.6c1.9,0,4.6,0.1,6.3,0.3
							c2.2,0.2,4.5,0.4,6.7,0.7c2.1,0.3,4.3,0.6,6.7,1.1c1.7,0.3,3.5,0.8,5.8,1.4c2-2.9,2.8-6.7,3-8c-3.8-2.3-7.8-4.1-11.9-5.4
							c0.2,0.2,0.5,0.4,0.7,0.5c1.8,1.5,3.5,3.4,4.8,5c1,1.4,1.7,2.4,2,3c-0.4-0.3-0.6-0.4-1-0.7c-0.5-0.3-1-0.8-1.3-1
							c-3.2-2.4-6.9-4-10-5.4c-2.6-1-4.7-1.4-7.2-1.4C209.4,368.5,208.3,368.5,207.3,368.6 M172.1,376.9c-3.4,2.6-6.4,5.6-9.1,8.9
							c0.6,7.4,1.5,12.3,2.1,15.2c0.5-0.1,1.1-0.1,1.6-0.2c3.6-0.5,8.6-1.1,20.9-1.7c2.3-3.4,4.8-6.6,8.1-10.5
							c1.4-1.6,2.8-3.2,4.4-4.9l2.3-2.5l1.4-1.5c-0.6-0.8-1.3-1.5-1.9-2.3c-1-1.1-2.1-2.1-3.2-3c-1.1-1-2.3-1.9-3.5-2.8
							c-0.2-0.1-0.4-0.3-0.6-0.4c-5.2,1.8-10,4.4-14.4,7.8c-0.5,0.4-1.4,1.1-2.1,1.8c-0.5,0.5-1.5,1.2-1.5,1.2s0.6-1,2.1-2.6
							c2.1-2.3,6.1-6,12.5-10.3c0.9-0.6,2.5-1.6,3.4-2.1C186.6,368.4,178.8,371.9,172.1,376.9"/>
					</defs>
					<clipPath id="SVGID_24_">
						<use xlink:href="#SVGID_23_"  overflow="visible"/>
					</clipPath>
					
						<radialGradient id="SVGID_25_" cx="-188.0311" cy="-395.2423" r="2.1894" gradientTransform="matrix(25.2438 0 0 -25.2438 4952.9082 -9555.1182)" gradientUnits="userSpaceOnUse">
						<stop  offset="0" style="stop-color:#ED1C24"/>
						<stop  offset="0.15" style="stop-color:#ED1C24"/>
						<stop  offset="1" style="stop-color:#94070A"/>
					</radialGradient>
					<rect x="151" y="366.9" clip-path="url(#SVGID_24_)" fill="url(#SVGID_25_)" width="111" height="110.8"/>
				</g>
			</g>
		</g>
	</g>
</g>
</svg>
