<?xml version="1.0" encoding="utf-8"?>
<!-- Generator: Adobe Illustrator 22.1.0, SVG Export Plug-In . SVG Version: 6.00 Build 0)  -->
<svg version="1.0" id="Layer_1" xmlns="http://www.w3.org/2000/svg" xmlns:xlink="http://www.w3.org/1999/xlink" x="0px" y="0px"
	 viewBox="0 0 612 110" enable-background="new 0 0 612 110" xml:space="preserve">
<g>
	<path fill="#FFFFFF" d="M591.3,100.8H252c-6.6,0-12-5.4-12-12V20.2c0-6.6,5.4-12,12-12h339.3c6.6,0,12,5.4,12,12v68.5
		C603.3,95.4,597.9,100.8,591.3,100.8z"/>
	<g>
		<g>
			<g>
				<defs>
					<path id="SVGID_1_" d="M333.1,11.4h257.8c6.8,0,12.4,5.6,12.4,12.4v61.5c0,6.8-5.6,12.4-12.4,12.4H333.1V11.4z M330.4,8.2H330
						H20.4c-8.6,0-15.5,6.9-15.5,15.5v61.5c0,8.6,6.9,15.5,15.5,15.5H330h0.4h260.5c8.6,0,15.5-6.9,15.5-15.5V23.8
						c0-8.6-6.9-15.5-15.5-15.5L330.4,8.2L330.4,8.2z"/>
				</defs>
				<clipPath id="SVGID_2_">
					<use xlink:href="#SVGID_1_"  overflow="visible"/>
				</clipPath>
				<polygon clip-path="url(#SVGID_2_)" fill="#FFCC03" points="75.3,-185.1 636.1,19.1 536,294.1 -24.8,90 				"/>
			</g>
		</g>
		<g>
			<g>
				<defs>
					<path id="SVGID_3_" d="M140.7,42.7c-1.5,0-2.5,0.7-3.1,2l-5.3,13.4L127,44.7c-0.6-1.4-1.6-2-3.1-2H122c-1.7,0-2.9,1-3.1,2.6
						l-3.4,25c-0.1,0.3-0.1,0.5-0.1,0.7c0,1.5,1.2,2.6,2.8,2.6h1.3c1.6,0,2.7-1,2.9-2.5l1.9-14.5l4.4,11.2c0.2,0.7,1,1.8,3,1.8h1.2
						c2,0,2.7-1.2,3-1.8l4.4-11.2l1.9,14.5c0.2,1.5,1.4,2.5,2.9,2.5h1.3c1.6,0,2.8-1.1,2.8-2.6c0-0.1,0-0.4-0.1-0.7l-3.4-24.9
						c-0.2-1.6-1.4-2.6-3.1-2.6L140.7,42.7L140.7,42.7z"/>
				</defs>
				<use xlink:href="#SVGID_3_"  overflow="visible" fill="#2D2A6D"/>
				<clipPath id="SVGID_4_">
					<use xlink:href="#SVGID_3_"  overflow="visible"/>
				</clipPath>
				<rect x="115.5" y="42.7" clip-path="url(#SVGID_4_)" fill="#2D2A6D" width="33.7" height="30.8"/>
			</g>
		</g>
		<g>
			<g>
				<defs>
					<path id="SVGID_5_" d="M158.5,58.1c0-5.8,3.4-9.7,8.5-9.7c5.2,0,8.5,3.8,8.5,9.7s-3.3,9.8-8.5,9.8
						C161.9,67.9,158.5,63.9,158.5,58.1 M155.3,46.9c-2.5,2.8-3.9,6.8-3.9,11.1s1.4,8.2,3.9,11.1c2.8,3.2,6.9,4.8,11.7,4.8
						c4.9,0,8.9-1.7,11.7-4.8c2.5-2.8,3.9-6.8,3.9-11.1c0-4.4-1.4-8.3-3.9-11.1c-2.8-3.1-6.8-4.8-11.7-4.8
						C162.2,42.1,158.1,43.8,155.3,46.9"/>
				</defs>
				<use xlink:href="#SVGID_5_"  overflow="visible" fill="#2D2A6D"/>
				<clipPath id="SVGID_6_">
					<use xlink:href="#SVGID_5_"  overflow="visible"/>
				</clipPath>
				<rect x="151.4" y="42.1" clip-path="url(#SVGID_6_)" fill="#2D2A6D" width="31.2" height="31.9"/>
			</g>
		</g>
		<g>
			<g>
				<defs>
					<path id="SVGID_7_" d="M187.7,42.7c-1.6,0-2.7,1.1-2.7,2.7v0.9c0,1.6,1.1,2.7,2.7,2.7h10l-13.4,19.4c-0.4,0.6-0.6,1.2-0.6,1.8
						c0,0.3,0.1,0.8,0.4,1.4l0.3,0.5l0,0l0,0c0.8,1.3,1.8,1.4,2.6,1.4h17.7c1.7,0,2.7-1,2.7-2.7v-0.9c0-1.6-1.1-2.7-2.7-2.7h-11.5
						l13.5-19.4c0.4-0.6,0.6-1.2,0.6-1.8c0-0.3-0.1-0.8-0.4-1.4l-0.3-0.5l0,0l0,0c-0.8-1.3-1.8-1.4-2.6-1.4
						C204,42.7,187.7,42.7,187.7,42.7z"/>
				</defs>
				<use xlink:href="#SVGID_7_"  overflow="visible" fill="#2D2A6D"/>
				<clipPath id="SVGID_8_">
					<use xlink:href="#SVGID_7_"  overflow="visible"/>
				</clipPath>
				<rect x="183.6" y="42.7" clip-path="url(#SVGID_8_)" fill="#2D2A6D" width="23.8" height="30.8"/>
			</g>
		</g>
		<g>
			<g>
				<defs>
					<path id="SVGID_9_" d="M213.7,42.7c-1.6,0-2.7,1.1-2.7,2.7v0.9c0,1.6,1.1,2.7,2.7,2.7h10l-13.5,19.4c-0.4,0.6-0.6,1.2-0.6,1.8
						c0,0.3,0.1,0.8,0.4,1.4l0.3,0.5l0,0l0,0c0.8,1.3,1.8,1.4,2.6,1.4h17.7c1.7,0,2.7-1,2.7-2.7v-0.9c0-1.6-1.1-2.7-2.7-2.7h-11.5
						l13.5-19.4c0.4-0.6,0.6-1.2,0.6-1.8c0-0.3-0.1-0.8-0.4-1.4l-0.3-0.5l0,0l0,0c-0.8-1.3-1.8-1.4-2.6-1.4
						C229.9,42.7,213.7,42.7,213.7,42.7z"/>
				</defs>
				<use xlink:href="#SVGID_9_"  overflow="visible" fill="#2D2A6D"/>
				<clipPath id="SVGID_10_">
					<use xlink:href="#SVGID_9_"  overflow="visible"/>
				</clipPath>
				<rect x="209.6" y="42.7" clip-path="url(#SVGID_10_)" fill="#2D2A6D" width="23.8" height="30.8"/>
			</g>
		</g>
		<g>
			<g>
				<defs>
					<path id="SVGID_11_" d="M248.9,54.2l2.5,6.3h-4.9L248.9,54.2z M248.1,42.7c-1.8,0-2.6,1.1-3,1.9l-9.7,25.3l0,0l0,0l0,0
						c-0.1,0.3-0.2,0.6-0.2,1.1c0,1.5,1.1,2.5,2.6,2.5h1.5c1.4,0,2.3-0.7,2.8-2l1.8-4.8h9.8l1.9,4.8c0.5,1.3,1.4,2,2.8,2h1.5
						c1.6,0,2.6-1,2.6-2.5c0-0.5-0.1-0.9-0.2-1.1l0,0l0,0l-9.7-25.2c-0.5-1.3-1.6-1.9-3-1.9L248.1,42.7L248.1,42.7z"/>
				</defs>
				<use xlink:href="#SVGID_11_"  overflow="visible" fill="#2D2A6D"/>
				<clipPath id="SVGID_12_">
					<use xlink:href="#SVGID_11_"  overflow="visible"/>
				</clipPath>
				<rect x="235.2" y="42.7" clip-path="url(#SVGID_12_)" fill="#2D2A6D" width="27.4" height="30.8"/>
			</g>
		</g>
		<g>
			<g>
				<defs>
					<path id="SVGID_13_" d="M272.6,48.9h2.5c5.8,0,5.8,2.8,5.8,3.7c0,4.1-3.6,4.4-4.7,4.4h-3.6L272.6,48.9L272.6,48.9z M268.7,42.7
						c-1.8,0-3.1,1.2-3.1,3v25.1c0,1.6,1.1,2.7,2.8,2.7h1.4c1.6,0,2.8-1.1,2.8-2.7v-7.6h2.6c0.4,0.3,0.7,0.8,1.3,1.6l4.7,7.2
						c0.6,1,1.6,1.5,2.8,1.5h1.4c1.5,0,2.7-1.1,2.7-2.5c0-0.5-0.2-1.1-0.6-1.7l-4.7-7.2l0,0l0,0c-0.1-0.1-0.2-0.2-0.2-0.3
						c3.4-1.8,5.4-5.1,5.4-9c0-6.7-4.3-10.1-12.7-10.1C275.3,42.7,268.7,42.7,268.7,42.7z"/>
				</defs>
				<use xlink:href="#SVGID_13_"  overflow="visible" fill="#2D2A6D"/>
				<clipPath id="SVGID_14_">
					<use xlink:href="#SVGID_13_"  overflow="visible"/>
				</clipPath>
				<rect x="265.7" y="42.7" clip-path="url(#SVGID_14_)" fill="#2D2A6D" width="22.4" height="30.8"/>
			</g>
		</g>
		<g>
			<g>
				<defs>
					<path id="SVGID_15_" d="M292,42.7c-1.6,0-2.9,1.2-2.9,2.7v0.8c0,1.5,1.3,2.7,2.9,2.7h6.3v21.9c0,1.6,1.1,2.7,2.8,2.7h1.4
						c1.6,0,2.8-1.1,2.8-2.7V48.9h6.3c1.7,0,2.9-1.2,2.9-2.7v-0.8c0-1.5-1.2-2.7-2.9-2.7H292z"/>
				</defs>
				<use xlink:href="#SVGID_15_"  overflow="visible" fill="#2D2A6D"/>
				<clipPath id="SVGID_16_">
					<use xlink:href="#SVGID_15_"  overflow="visible"/>
				</clipPath>
				<rect x="289.1" y="42.7" clip-path="url(#SVGID_16_)" fill="#2D2A6D" width="25.4" height="30.8"/>
			</g>
		</g>
		<g>
			<g>
				<defs>
					<path id="SVGID_17_" d="M68,40.4c-0.5,1.3-5.7,14.3-5.7,14.3s-5.2-13-5.7-14.3c-0.7-1.8-2.4-3-4.5-3c-2.4,0-4.3,1.7-4.7,4
						c-0.3,2-3.6,26.3-3.6,27.3c0,2.2,1.8,4,4,4c2,0,3.7-1.5,3.9-3.3c0.3-1.8,2-14.9,2-14.9s4.1,10.4,4.8,12.2
						c0,0.1,0.1,0.2,0.1,0.2c0.5,1.4,2,2.4,3.7,2.4s3.2-1.1,3.7-2.4c0.3-0.8,4.9-12.5,4.9-12.5s1.7,13.1,2,14.9s2,3.3,3.9,3.3
						c2.2,0,4-1.8,4-4c0-1-3.4-25.2-3.6-27.3c-0.4-2.2-2.4-4-4.7-4C70.5,37.4,68.7,38.6,68,40.4"/>
				</defs>
				<use xlink:href="#SVGID_17_"  overflow="visible" fill="#2D2A6D"/>
				<clipPath id="SVGID_18_">
					<use xlink:href="#SVGID_17_"  overflow="visible"/>
				</clipPath>
				<rect x="43.8" y="37.4" clip-path="url(#SVGID_18_)" fill="#2D2A6D" width="37" height="35.2"/>
			</g>
		</g>
		<g>
			<g>
				<defs>
					<path id="SVGID_19_" d="M26.2,55.6c0,20,16.2,36.2,36.2,36.2s36.2-16.2,36.2-36.2c0-3.5-0.5-7-1.5-10.2c-0.5-1.7-2-3-3.9-3
						c-2.2,0-4,1.8-4,4c0,0.5,0.1,0.9,0.2,1.3c0.7,2.5,1.1,5.1,1.1,7.9c0,15.5-12.6,28.2-28.2,28.2c-15.5,0-28.1-12.6-28.1-28.2
						c0-15.5,12.6-28.2,28.1-28.2c2.7,0,5.4,0.4,7.9,1.1l0,0c0.4,0.1,0.7,0.2,1.1,0.2c2.2,0,4-1.8,4-4c0-1.9-1.4-3.6-3.3-3.9
						c-3.1-0.9-6.4-1.4-9.8-1.4C42.4,19.4,26.2,35.6,26.2,55.6"/>
				</defs>
				<use xlink:href="#SVGID_19_"  overflow="visible" fill="#2D2A6D"/>
				<clipPath id="SVGID_20_">
					<use xlink:href="#SVGID_19_"  overflow="visible"/>
				</clipPath>
				<rect x="26.2" y="19.4" clip-path="url(#SVGID_20_)" fill="#2D2A6D" width="72.3" height="72.3"/>
			</g>
		</g>
		<g>
			<g>
				<defs>
					<path id="SVGID_21_" d="M79.6,18.5c-1.6,1.6-1.6,4.1,0,5.7l3.6,3.6c0.4,0.4,0.4,0.9,0,1.3l-3.6,3.6c-1.6,1.6-1.6,4.1,0,5.7
						c1.6,1.6,4.1,1.6,5.7,0l3.6-3.6c0.4-0.4,0.9-0.4,1.3,0l3.6,3.6c1.6,1.6,4.1,1.6,5.7,0s1.6-4.1,0-5.7L95.8,29
						c-0.4-0.4-0.4-0.9,0-1.3l3.6-3.6c1.6-1.6,1.6-4.1,0-5.7c-1.6-1.6-4.1-1.6-5.7,0L90.1,22c-0.4,0.4-0.9,0.4-1.3,0l-3.6-3.6
						c-0.8-0.8-1.8-1.2-2.8-1.2C81.4,17.3,80.4,17.7,79.6,18.5"/>
				</defs>
				<use xlink:href="#SVGID_21_"  overflow="visible" fill="#2D2A6D"/>
				<clipPath id="SVGID_22_">
					<use xlink:href="#SVGID_21_"  overflow="visible"/>
				</clipPath>
				<rect x="78" y="16.9" clip-path="url(#SVGID_22_)" fill="#2D2A6D" width="23" height="23"/>
			</g>
		</g>
		<path d="M444.5,57.8l-5-1.7c-1.8-0.7-3.1-1.6-3.9-2.7c-0.8-1.1-1.2-2.6-1.2-4.5c0-2.7,0.7-4.5,2-5.4s3.6-1.4,7-1.4
			c3.1,0,5.8,0.3,8.1,1l-0.4,3.7c-2.1-0.1-4.6-0.1-7.7-0.1c-1.4,0-2.4,0.1-2.9,0.4c-0.5,0.2-0.7,0.9-0.7,1.9c0,0.8,0.2,1.4,0.5,1.7
			c0.4,0.4,1,0.7,2,1l4.7,1.6c1.9,0.7,3.2,1.6,4,2.7c0.8,1.2,1.2,2.7,1.2,4.5c0,2.8-0.7,4.6-2,5.6s-3.7,1.5-7.1,1.5
			c-2.8,0-5.6-0.3-8.4-0.9l0.3-3.9c5.1,0.1,7.8,0.2,8.1,0.2c1.4,0,2.4-0.2,2.9-0.5s0.7-1,0.7-1.9c0-0.8-0.2-1.4-0.5-1.8
			C446,58.4,445.4,58.1,444.5,57.8"/>
		<path d="M470.4,49.5v17.6h-4.2l-0.4-2.4c-2.4,1.9-4.8,2.9-7.3,2.9c-3.3,0-5-1.6-5-4.9V49.5h5.3V61c0,0.8,0.1,1.3,0.4,1.6
			s0.8,0.5,1.5,0.5c1,0,2.5-0.5,4.4-1.5V49.5H470.4z"/>
		<path d="M476.8,49.5l0.4,2.6c0.7-0.9,1.8-1.6,3-2.2c1.3-0.6,2.6-0.9,3.9-0.9c4,0,6.1,3.1,6.1,9.4c0,3.4-0.5,5.7-1.6,7.1
			c-1.1,1.3-2.8,2-5.1,2c-2.4,0-4.3-0.6-5.9-1.7c0.1,1.2,0.2,2.5,0.1,3.8v4.2h-5.2V49.5H476.8z M477.8,54.9V63
			c1.9,0.5,3.2,0.7,4,0.7c1.2,0,2-0.3,2.4-1s0.7-2.1,0.7-4.2c0-2.1-0.2-3.5-0.6-4.2s-1.1-1.1-2.1-1.1
			C481,53.2,479.5,53.8,477.8,54.9"/>
		<path d="M503.7,60.1h-6.3c0.2,1.3,0.6,2.1,1.2,2.6c0.6,0.4,1.6,0.7,3,0.7c1.9,0,4.1-0.1,6.6-0.4l0.5,3.3c-1.8,0.9-4.4,1.3-7.7,1.3
			c-3.3,0-5.7-0.7-7.1-2.1s-2.1-3.8-2.1-7.1c0-3.4,0.7-5.9,2-7.2c1.4-1.4,3.7-2.1,6.9-2.1c2.9,0,5,0.5,6.3,1.5s2,2.5,2,4.6
			c0,1.6-0.4,2.9-1.3,3.7C507,59.7,505.6,60.1,503.7,60.1 M497.3,56.9h5c0.6,0,1.1-0.2,1.3-0.5c0.2-0.3,0.3-0.8,0.3-1.4
			c0-0.8-0.2-1.4-0.6-1.7s-1.2-0.5-2.4-0.5c-1.4,0-2.3,0.3-2.8,0.8C497.6,54.2,497.3,55.3,497.3,56.9"/>
		<path d="M523.7,49l-0.5,4.9h-1.4c-1.2,0-3,0.4-5.4,1.2v12h-5.3V49.5h4.1l0.5,2.6c2.4-2,4.8-3.1,7.1-3.1H523.7z"/>
		<path d="M527.4,42.5v20c0,1.7,0.9,2.6,2.6,2.6h9.2l0.1,1.8c-2.5,0.1-5.7,0.2-9.6,0.2c-1.5,0-2.6-0.4-3.4-1.2
			c-0.8-0.8-1.1-1.8-1.1-3.1V42.5H527.4z"/>
		<path d="M541.7,42.6h1c0.5,0,0.7,0.2,0.7,0.7v2.1c0,0.5-0.2,0.7-0.7,0.7h-1c-0.5,0-0.7-0.2-0.7-0.7v-2.1
			C541,42.8,541.2,42.6,541.7,42.6 M543.3,67.1h-2.2V49.9h2.2V67.1z"/>
		<path d="M562.3,51.1l-2.9,0.2c0.7,0.8,1,2,1,3.5c0,1.9-0.5,3.2-1.6,4.1c-1.1,0.9-2.9,1.3-5.6,1.3c-1.6,0-2.9-0.2-3.9-0.5
			c-0.4,0.5-0.6,0.9-0.6,1.4c-0.1,0.5,0.1,0.9,0.4,1.4c0.3,0.4,0.8,0.7,1.6,0.8l6.6,1.1c1.6,0.2,2.7,0.7,3.3,1.5
			c0.6,0.7,0.9,1.8,0.9,3.3c0,1.9-0.6,3.3-1.8,4.1c-1.2,0.8-3.3,1.1-6.3,1.1s-5.2-0.4-6.3-1.1c-1.2-0.7-1.8-2.1-1.8-4
			c0-1.1,0.2-2,0.6-2.7c0.4-0.7,1.2-1.3,2.3-1.9c-1-0.6-1.5-1.5-1.5-2.7c0-1.1,0.5-2,1.4-2.7c-1.4-0.8-2.1-2.3-2.1-4.4
			c0-1.9,0.5-3.3,1.6-4.2s3-1.3,5.6-1.3c1.6,0,2.9,0.2,3.8,0.5h5.4L562.3,51.1z M549.7,65.2L549.7,65.2c-0.9,0.6-1.4,1.2-1.7,1.7
			s-0.5,1.3-0.5,2.2c0,1.3,0.4,2.2,1.2,2.7s2.4,0.7,4.7,0.7c2.2,0,3.8-0.2,4.6-0.7s1.2-1.4,1.2-2.6c0-1-0.2-1.7-0.6-2.1
			c-0.4-0.4-1.2-0.7-2.4-0.9L549.7,65.2z M549.3,57.7c0.8,0.6,2.1,0.9,4,0.9s3.2-0.3,3.9-0.9c0.8-0.6,1.1-1.5,1.1-2.8
			s-0.4-2.3-1.1-2.9c-0.8-0.6-2.1-0.9-3.9-0.9c-1.9,0-3.2,0.3-4,0.9c-0.8,0.6-1.2,1.5-1.2,2.9C548.1,56.2,548.5,57.1,549.3,57.7"/>
		<path d="M563.9,51.9l-0.2-1.7c3.4-0.5,6.2-0.8,8.3-0.8c1.9,0,3.2,0.4,4.2,1.2c0.9,0.8,1.4,2.2,1.4,4.1v12.4h-1.8l-0.3-3
			c-0.9,0.9-2,1.6-3.3,2.3c-1.4,0.7-2.8,1-4.2,1c-1.5,0-2.7-0.4-3.6-1.2c-0.9-0.8-1.3-2-1.3-3.5v-2c0-1.3,0.4-2.4,1.2-3.1
			c0.8-0.7,1.9-1.1,3.3-1.1h7.7v-1.8c0-1.1-0.3-2-0.8-2.5s-1.5-0.8-2.9-0.8C569.5,51.4,567,51.5,563.9,51.9 M565.3,61v1.5
			c0,1.9,1,2.9,3,2.9c1,0,2.2-0.2,3.5-0.8c1.3-0.5,2.4-1.3,3.4-2.2v-4.1h-7.4C566.2,58.4,565.3,59.3,565.3,61"/>
		<path fill="#891A1C" d="M396.3,25.1c0.6,0.3,1.3,0.3,2,0.2c1.3-0.2,2.6-0.6,3.9-0.8c0.9-0.2,1.5-0.1,2.2-0.1
			c-3.8-1.3-7.8-2-12.1-1.9c-3,0.1-5.9,0.5-8.6,1.3C387.6,23,392.3,23.4,396.3,25.1"/>
		<path fill="#891A1C" d="M417.2,76.2c-0.4,0.2-1.3,0.4-2,1.1c-0.3,0.3-0.6,0.7-1,1.3c-2.8,4.3-8.8,7.9-8.9,8
			c1.7-0.8,8.6-3.7,14.2-10.7c0.2-0.3,0.5-0.6,0.7-0.9c0.1-0.1,0.2-0.2,0.2-0.3c0.2-0.2,0.3-0.5,0.5-0.7c0.3-0.4,0.6-0.8,0.8-1.2
			C420.8,74,420,75,417.2,76.2"/>
		<path fill="#891A1C" d="M416.7,30.4c-0.1-0.1-0.1-0.1-0.2-0.2c1.9,3.2,1.4,5.1,3.8,8c5.2,6.7,5.8,15.3,5.9,16.9
			C426.6,45.6,422.9,36.8,416.7,30.4"/>
		<path fill="#891A1C" d="M364.2,63.2c0-0.3,0-0.5-0.1-0.6c-2.3-4.1-3.3-9.6-3.4-12.5c0,0.4-1.9,10.9,3.7,20.7
			C364.1,68.9,363.6,66.6,364.2,63.2"/>
		<g>
			<g>
				<defs>
					<path id="SVGID_23_" d="M402.7,79.9c-1.5,0.3-3.1,0.5-5,0.6c-0.9,0-1.7,0.1-2.6,0.1c-1.1,0-2.2,0-3.3-0.1c0,0-0.1,0-0.2,0
						c-0.6,0.7-1.2,1.3-1.9,1.8c-0.5,0.4-1,0.7-1.5,1.1h0.1l0,0c1.7,0.4,3.4,0.7,5.1,0.8c0.4,0,0.7,0,1.1,0c1.2,0,2.4-0.1,3.6-0.2
						h0.2h0.3c2.4-0.4,4.7-1.1,6.9-2.1l-0.1-0.1l-0.7-0.7l-1.2-1.3C403.3,79.7,403.1,79.8,402.7,79.9 M373.4,78.3
						c2,2.1,4.3,3.8,7,5.1c-2.9-3.1-4.9-5.8-5.8-9.5c1.4,2,5.1,6.7,12.6,9.1l0,0c0.7-0.5,1.3-1,2-1.5c0.6-0.5,1.1-1,1.6-1.5
						c0,0-4.1-3.5-6.9-7.6h-0.4l-0.9-0.1c-0.6-0.1-1.2-0.1-1.9-0.2c-1.3-0.2-2.5-0.4-3.7-0.7c-1.4-0.3-2.6-0.6-3.7-1l-0.2-0.1
						c-0.8-0.3-1.5-0.5-2.3-1c-1.7-0.9-3.2-2.6-4-3.7C367.7,70.4,369.9,74.7,373.4,78.3 M385,71.6c0.7,1.1,3.8,5.8,6.6,8
						c1.2,0.1,2.3,0.1,3.5,0.1c0.8,0,1.7,0,2.5-0.1c2.4-0.1,4.3-0.4,6-0.9c3.4-2.6,5.8-6.6,7-8.9c-1.1-4-2.5-7.5-3.2-8.8
						c-0.8,0-1.6,0-2.4,0c-1.7,0-3.3,0-4.9-0.1c-1.4,0-2.7-0.1-4.1-0.1l-2-0.1l-1.2-0.1C392.9,60.7,388.2,67.6,385,71.6 M371.7,45.4
						c-0.1,0.1-0.1,0.2-0.2,0.3c-0.9,1.4-4.5,6.7-5.2,12.4c0.3,0.9,1.9,6.7,4.6,10.3l0,0c1.3,0.7,5,2.1,13,2.6
						c1.3-1.8,2.5-3.8,3.7-5.8c0.6-1.1,1.2-2.1,1.8-3.2l0.8-1.6l0.5-1l-0.1-0.1c-0.2-0.3-0.4-0.7-0.6-1c-0.1-0.2-0.3-0.4-0.4-0.7
						c-0.2-0.4-0.4-0.8-0.6-1.2c-0.6-1.1-1.2-2.3-1.9-3.9c-0.6-1.3-1.2-2.6-1.8-3.9l-0.9-1.9l-0.6-1.4c-2-0.1-4-0.2-6-0.2
						C374.3,45.1,372,45.3,371.7,45.4 M364.8,53.9c0,0.2,0,0.4,0,0.6c1-2,2.8-5.6,6.2-9.8c-0.5-3.4-0.6-6.3-0.6-7.8
						C366.6,41.9,364.7,47.7,364.8,53.9 M393.7,34l-0.2,0.3l-0.6,0.7l-1.1,1.3c-0.7,0.9-1.5,1.9-2.2,2.8c-1.4,1.8-2.5,3.5-3.5,5.1
						l0.6,1.3l0.9,1.9c0.6,1.3,1.2,2.5,1.9,3.8c0.7,1.5,1.4,2.7,2,3.7c0.4,0.7,0.7,1.3,1,1.8c0.2,0.3,0.4,0.6,0.5,0.8
						c0.1,0.1,0.2,0.2,0.2,0.3l1,0.1l2,0.1c1.3,0.1,2.7,0.1,4,0.2c2.3,0.1,4.7,0.1,7.3,0.1c0.4-0.6,0.8-1.4,1.2-2.2
						c0.5-1,1.1-2.1,1.6-3.2c0.5-1.2,1-2.2,1.3-3.3c0.4-1.2,0.8-2.4,1-3.2c-0.6-1.7-1.4-3.5-2.7-5.6c-0.5-0.9-1.1-1.8-1.8-2.8
						c-0.6-0.9-1.3-1.7-1.8-2.5c-1.2-0.3-5.9-1.6-12.4-1.6h-0.2V34z M407.7,35c0.6,0.8,1.2,1.5,1.8,2.3c0.7,1,1.4,1.9,1.9,2.8
						c0.9,1.4,2.1,3.4,3,5.6c0.2,0.1,0.3,0.1,0.5,0.2c0.9,0.4,2.7,1.3,4.1,2c0.8,0.4,1.4,0.8,1.6,1c-3.3-1.1-5.6-1.4-6.1-1.5
						c-0.2,1.1-0.5,2.1-0.8,3c-0.3,1.1-0.7,2.2-1.2,3.5c-0.5,1.2-1,2.3-1.5,3.4c-0.4,0.9-0.9,1.8-1.3,2.5c0.4,1.4,0.8,2.9,1.2,4.6
						c0.3,1.6,0.6,3.1,0.8,4.6v0.1c0.3,0,0.7,0,1.2-0.1c0.5,0,0.9-0.1,1.3-0.1c0,0,0,0,0.1,0l0,0c0.4,0,0.7-0.1,0.9-0.2
						c0.1,0,0.2-0.1,0.2-0.1c-0.5,0.4-1.7,1-3.8,1.7l0,0c0,0-1.1,2.1-3,4.5c-1.2,1.5-2.6,3-4.2,4.3l0,0l0,0l1,1.2l0.6,0.8l0.3,0.3
						c0.1-0.1,0.2-0.1,0.3-0.2L407,81c0.4-0.3,0.9-0.5,1.3-0.8l0.1-0.1c0.3-0.2,0.7-0.5,1-0.7c0.2-0.1,0.4-0.3,0.6-0.4
						c0.1-0.1,0.3-0.2,0.3-0.2c4-3.4,5.7-7.7,6.4-10.7c0.1-0.3,0.1-0.7,0.2-1c0.2-1.3,0.4-2.4,0.4-4.3c0-0.5,0-1.6-0.1-2.1l0.1,0.2
						c1,3.2,0.9,6.2,0.7,8.3c0,0.1,0,0.2,0,0.3c0,0,0,0,0,0.1c-0.1,0.5-0.2,1-0.3,1.5c2.8-4.4,4.4-9.5,4.6-14.8
						c0.4-10.2-4.8-20-13.4-25.6C408.8,30.5,408.9,31.8,407.7,35 M394,27.3c-1.7,0.1-3.4,0.4-5,0.8c-0.1,0-0.4,0.1-0.6,0.1
						c0.6,0.4,1.1,0.8,1.7,1.2c0.6,0.5,1.3,1.1,1.9,1.6c0.5,0.4,0.9,0.9,1.3,1.3c1,0,2.4,0.1,3.3,0.1c1.2,0.1,2.3,0.2,3.5,0.4
						c1.1,0.1,2.2,0.3,3.5,0.6c0.9,0.2,1.8,0.4,3,0.7c1.1-1.5,1.5-3.5,1.5-4.2c-2-1.2-4-2.1-6.2-2.8c0.1,0.1,0.2,0.2,0.4,0.3
						c0.9,0.8,1.8,1.8,2.5,2.6c0.5,0.7,0.9,1.3,1.1,1.5c-0.2-0.2-0.3-0.2-0.5-0.4c-0.2-0.2-0.5-0.4-0.7-0.5
						c-1.7-1.2-3.6-2.1-5.2-2.8c-1.3-0.5-2.5-0.7-3.8-0.7C395.1,27.3,394.6,27.3,394,27.3 M375.7,31.7c-1.8,1.3-3.4,2.9-4.8,4.6
						c0.3,3.8,0.8,6.4,1.1,7.9c0.3,0,0.6-0.1,0.9-0.1c1.9-0.3,4.5-0.6,10.9-0.9c1.2-1.8,2.5-3.5,4.2-5.5c0.7-0.9,1.4-1.6,2.3-2.6
						l1.2-1.3l0.8-0.8c-0.3-0.4-0.7-0.8-1-1.2c-0.5-0.6-1.1-1.1-1.7-1.6s-1.2-1-1.8-1.4c-0.1-0.1-0.2-0.1-0.3-0.2
						c-2.7,0.9-5.2,2.3-7.5,4.1c-0.2,0.2-0.7,0.6-1.1,0.9c-0.3,0.2-0.8,0.6-0.8,0.6s0.3-0.5,1.1-1.4c1.1-1.2,3.2-3.1,6.5-5.4
						c0.5-0.3,1.3-0.8,1.8-1.1C383.2,27.3,379.2,29.1,375.7,31.7"/>
				</defs>
				<clipPath id="SVGID_24_">
					<use xlink:href="#SVGID_23_"  overflow="visible"/>
				</clipPath>
				
					<radialGradient id="SVGID_25_" cx="10.6297" cy="-359.8918" r="1.2335" gradientTransform="matrix(23.3266 0 0 -23.3266 145.5318 -8339.8008)" gradientUnits="userSpaceOnUse">
					<stop  offset="0" style="stop-color:#ED1C24"/>
					<stop  offset="0.15" style="stop-color:#ED1C24"/>
					<stop  offset="1" style="stop-color:#94070A"/>
				</radialGradient>
				<rect x="364.7" y="26.4" clip-path="url(#SVGID_24_)" fill="url(#SVGID_25_)" width="57.9" height="57.7"/>
			</g>
		</g>
	</g>
</g>
</svg>
