<?xml version="1.0" encoding="UTF-8"?>
<svg xmlns="http://www.w3.org/2000/svg" xmlns:xlink="http://www.w3.org/1999/xlink" width="300pt" height="300pt" viewBox="0 0 300 300" version="1.1">
<g id="surface1">
<path style=" stroke:none;fill-rule:nonzero;fill:rgb(100%,100%,100%);fill-opacity:1;" d="M 137.003906 232.328125 C 135.078125 229.882813 135.285156 224.976563 137.402344 222.859375 C 138.980469 221.28125 140.210938 221.28125 141.789063 222.859375 C 143.988281 225.058594 144.105469 230.316406 142 232.421875 C 140.527344 233.898438 138.203125 233.851563 137.003906 232.328125 "/>
<path style="fill:none;stroke-width:3.294;stroke-linecap:square;stroke-linejoin:miter;stroke:rgb(100%,100%,100%);stroke-opacity:1;stroke-miterlimit:4;" d="M 0.00050625 0.000375 C -1.925275 2.445688 -1.718244 7.351938 0.398944 9.469125 C 1.977069 11.04725 3.207538 11.04725 4.785663 9.469125 C 6.984881 7.269906 7.102069 2.012094 4.9966 -0.093375 C 3.523944 -1.569937 1.199725 -1.523062 0.00050625 0.000375 Z M 0.00050625 0.000375 " transform="matrix(1,0,0,-1,137.0034,232.3285)"/>
<path style=" stroke:none;fill-rule:nonzero;fill:rgb(100%,100%,100%);fill-opacity:1;" d="M 173.90625 232.34375 C 171.003906 228.648438 173.554688 220.554688 177.210938 221.855469 C 179.375 222.625 180.222656 224.367188 180.222656 228.050781 C 180.222656 231.121094 180.136719 231.425781 178.988281 232.410156 C 177.292969 233.867188 175.085938 233.839844 173.90625 232.34375 "/>
<path style="fill:none;stroke-width:3.294;stroke-linecap:square;stroke-linejoin:miter;stroke:rgb(100%,100%,100%);stroke-opacity:1;stroke-miterlimit:4;" d="M -0.00195 -0.00165 C -2.904294 3.693663 -0.353513 11.787413 3.302737 10.486631 C 5.4668 9.7171 6.314456 7.974913 6.314456 4.291319 C 6.314456 1.221006 6.228519 0.916319 5.080081 -0.0680562 C 3.384769 -1.525087 1.177737 -1.497744 -0.00195 -0.00165 Z M -0.00195 -0.00165 " transform="matrix(1,0,0,-1,173.9082,232.3421)"/>
<path style=" stroke:none;fill-rule:nonzero;fill:rgb(100%,100%,100%);fill-opacity:1;" d="M 159.867188 141.257813 C 159.21875 139.472656 158.722656 137.972656 158.765625 137.929688 C 158.859375 137.835938 164.71875 140.394531 164.960938 140.632813 C 165.140625 140.808594 161.605469 144.503906 161.261719 144.503906 C 161.140625 144.503906 160.515625 143.042969 159.867188 141.257813 "/>
<path style="fill:none;stroke-width:2.793;stroke-linecap:square;stroke-linejoin:miter;stroke:rgb(100%,100%,100%);stroke-opacity:1;stroke-miterlimit:4;" d="M 0.0009875 -0.0016125 C -0.64745 1.783544 -1.143544 3.283544 -1.100575 3.326513 C -1.006825 3.420263 4.85255 0.861669 5.094737 0.623388 C 5.274425 0.447606 1.739269 -3.247706 1.395519 -3.247706 C 1.274425 -3.247706 0.649425 -1.786769 0.0009875 -0.0016125 Z M 0.0009875 -0.0016125 " transform="matrix(1,0,0,-1,159.8662,141.2562)"/>
<path style=" stroke:none;fill-rule:nonzero;fill:rgb(100%,100%,100%);fill-opacity:1;" d="M 122.382813 183.808594 C 121.589844 183.523438 120.378906 182.746094 119.691406 182.082031 C 116.367188 178.859375 117.3125 173.246094 121.605469 170.734375 C 123.992188 169.335938 126.015625 169.191406 128.089844 170.269531 C 131.4375 172.015625 132.96875 175.527344 131.851563 178.910156 C 131.191406 180.90625 128.496094 183.425781 126.476563 183.933594 C 124.40625 184.453125 124.175781 184.445313 122.382813 183.808594 "/>
<path style="fill:none;stroke-width:2.793;stroke-linecap:square;stroke-linejoin:miter;stroke:rgb(100%,100%,100%);stroke-opacity:1;stroke-miterlimit:4;" d="M -0.0009875 -0.00159375 C -0.793956 0.283563 -2.004894 1.060906 -2.692394 1.724969 C -6.016612 4.947625 -5.0713 10.560906 -0.778331 13.072625 C 1.608388 14.471063 3.631825 14.615594 5.706044 13.537469 C 9.0537 11.791375 10.58495 8.279656 9.467763 4.896844 C 8.807606 2.90075 6.112294 0.381219 4.092763 -0.126594 C 2.02245 -0.646125 1.791981 -0.638312 -0.0009875 -0.00159375 Z M -0.0009875 -0.00159375 " transform="matrix(1,0,0,-1,122.3838,183.807)"/>
<path style=" stroke:none;fill-rule:nonzero;fill:rgb(100%,100%,100%);fill-opacity:1;" d="M 109.492188 107.3125 C 108.132813 106.582031 106.507813 104.023438 106.507813 102.609375 C 106.507813 101.320313 107.582031 98.601563 108.566406 97.390625 L 109.472656 96.273438 L 110.371094 97.203125 C 110.863281 97.714844 112.800781 99.777344 114.671875 101.792969 L 118.082031 105.453125 L 117.15625 106.179688 C 114.785156 108.042969 111.707031 108.5 109.492188 107.3125 "/>
<path style="fill:none;stroke-width:2.793;stroke-linecap:square;stroke-linejoin:miter;stroke:rgb(100%,100%,100%);stroke-opacity:1;stroke-miterlimit:4;" d="M 0.0009875 -0.0016 C -1.358388 0.728869 -2.983388 3.287463 -2.983388 4.701525 C -2.983388 5.990588 -1.909169 8.709338 -0.924794 9.920275 L -0.0185438 11.037463 L 0.879894 10.107775 C 1.372081 9.596056 3.309581 7.533556 5.180675 5.517931 L 8.590831 1.857775 L 7.66505 1.131213 C 5.293956 -0.732069 2.215831 -1.1891 0.0009875 -0.0016 Z M 0.0009875 -0.0016 " transform="matrix(1,0,0,-1,109.4912,107.3109)"/>
<path style=" stroke:none;fill-rule:nonzero;fill:rgb(100%,100%,100%);fill-opacity:1;" d="M 116.46875 98.472656 C 114.269531 96.101563 112.46875 94.007813 112.46875 93.824219 C 112.46875 93.027344 115.546875 91.480469 117.457031 91.324219 C 119.914063 91.117188 121.421875 91.839844 122.757813 93.855469 C 124.082031 95.859375 123.902344 98.738281 122.304688 101.003906 C 121.707031 101.847656 121.050781 102.597656 120.84375 102.664063 C 120.640625 102.734375 118.671875 100.847656 116.46875 98.472656 "/>
<path style="fill:none;stroke-width:2.793;stroke-linecap:square;stroke-linejoin:miter;stroke:rgb(100%,100%,100%);stroke-opacity:1;stroke-miterlimit:4;" d="M -0.00095 0.00184375 C -2.200169 2.372938 -4.00095 4.466688 -4.00095 4.650281 C -4.00095 5.447156 -0.922825 6.994031 0.987331 7.150281 C 3.444362 7.357313 4.952175 6.634656 6.288112 4.619031 C 7.612331 2.615125 7.432644 -0.263781 5.834987 -2.529406 C 5.237331 -3.373156 4.581081 -4.123156 4.37405 -4.189562 C 4.170925 -4.259875 2.202175 -2.373156 -0.00095 0.00184375 Z M -0.00095 0.00184375 " transform="matrix(1,0,0,-1,116.4697,98.4745)"/>
<path style=" stroke:none;fill-rule:nonzero;fill:rgb(100%,100%,100%);fill-opacity:1;" d="M 110.039063 82.058594 C 114.386719 80.753906 119.65625 76.285156 122.226563 71.726563 C 124.308594 68.03125 124.535156 67.007813 124.527344 61.296875 C 124.515625 54.34375 123.324219 51.125 118.894531 46.078125 C 111.300781 37.429688 96.359375 37.183594 87.757813 45.5625 C 73.828125 59.128906 83.15625 82.898438 102.40625 82.898438 C 105.058594 82.898438 108.492188 82.519531 110.039063 82.058594 M 116.488281 109.296875 L 119.75 107.386719 L 121.042969 108.980469 L 122.335938 110.578125 L 123.738281 109.027344 C 125.089844 107.535156 125.089844 107.429688 123.789063 105.992188 C 122.546875 104.617188 122.535156 104.398438 123.644531 103.171875 C 125.703125 100.898438 127.261719 96.308594 126.757813 94.015625 C 126.5 92.839844 125.238281 90.996094 123.957031 89.914063 C 122.023438 88.289063 121.089844 88.015625 118.492188 88.308594 C 116.769531 88.5 114.304688 89.410156 113.015625 90.328125 C 110.859375 91.863281 110.570313 91.902344 109.359375 90.804688 C 108.21875 89.773438 107.851563 89.753906 106.613281 90.660156 C 105.214844 91.683594 105.214844 91.730469 106.597656 93.261719 C 107.871094 94.667969 107.894531 94.941406 106.863281 96.121094 C 103.542969 99.90625 102.582031 104.21875 104.34375 107.398438 C 106.605469 111.476563 111.472656 112.234375 116.488281 109.296875 M 147.238281 125.746094 C 147.996094 124.835938 147.25 123.660156 142.878906 118.871094 L 137.609375 113.09375 L 140.230469 110.40625 C 142.558594 108.019531 142.722656 107.609375 141.683594 106.746094 C 140.675781 105.910156 139.707031 106.539063 134.757813 111.242188 C 131.59375 114.246094 128.511719 117.144531 127.914063 117.679688 C 126.957031 118.535156 126.957031 118.789063 127.9375 119.765625 C 128.921875 120.753906 129.371094 120.613281 131.921875 118.511719 L 134.796875 116.140625 L 139.609375 121.492188 C 144.574219 127.015625 145.675781 127.632813 147.238281 125.746094 M 126.800781 144.070313 C 132.316406 141.5625 135.507813 136.058594 133.894531 131.820313 C 132.5625 128.3125 129.789063 130.210938 130.566406 134.097656 C 130.925781 135.890625 130.582031 136.824219 128.867188 138.746094 C 125.855469 142.117188 121.753906 142.148438 118.789063 138.828125 C 115.992188 135.703125 116.039063 132.625 118.914063 129.746094 C 120.644531 128.015625 121.6875 127.578125 123.765625 127.71875 C 125.402344 127.828125 126.867188 127.441406 127.609375 126.699219 C 128.707031 125.601563 128.667969 125.429688 127.125 124.605469 C 123.265625 122.539063 117.042969 125.542969 114.378906 130.765625 C 111.613281 136.1875 113.683594 141.914063 119.320313 144.417969 C 122.28125 145.734375 123.234375 145.691406 126.800781 144.070313 M 162.96875 153.972656 C 164.136719 152.914063 164.167969 152.488281 163.273438 149.949219 C 162.339844 147.304688 162.382813 147.011719 163.886719 145.695313 C 167.664063 142.398438 167.910156 142.308594 170.71875 143.234375 C 172.785156 143.917969 173.628906 143.914063 174.472656 143.210938 C 175.070313 142.714844 175.5625 142.054688 175.5625 141.742188 C 175.5625 141.429688 171.496094 139.429688 166.523438 137.296875 L 157.488281 133.417969 L 155.984375 134.917969 L 154.484375 136.421875 L 157.722656 145.785156 C 159.503906 150.9375 161.121094 155.15625 161.3125 155.15625 C 161.503906 155.15625 162.25 154.621094 162.96875 153.972656 M 106.378906 163.636719 C 107.644531 162.488281 107.605469 162.304688 105.527344 159.722656 C 103.957031 157.765625 103.476563 156.527344 103.800781 155.277344 C 104.242188 153.59375 104.410156 153.5625 110.300781 154.050781 C 115.8125 154.511719 116.472656 154.417969 117.734375 153.027344 C 119.085938 151.53125 119.082031 151.492188 117.355469 151.140625 C 116.386719 150.941406 113.285156 150.597656 110.460938 150.378906 C 107.636719 150.15625 105.171875 149.820313 104.976563 149.625 C 104.785156 149.433594 105.015625 147.039063 105.492188 144.308594 C 105.96875 141.574219 106.175781 139.15625 105.953125 138.933594 C 105.730469 138.710938 104.902344 139.113281 104.113281 139.828125 C 103.070313 140.769531 102.421875 142.976563 101.757813 147.816406 L 100.847656 154.5 L 97.742188 151.453125 C 94.660156 148.429688 94.625 148.417969 93.285156 149.898438 C 91.960938 151.363281 92.058594 151.527344 98.175781 158.066406 C 101.613281 161.738281 104.5625 164.761719 104.738281 164.789063 C 104.910156 164.816406 105.648438 164.296875 106.378906 163.636719 M 146.503906 169.683594 L 149.027344 167.078125 L 150.726563 168.675781 C 152.132813 169.996094 152.621094 170.109375 153.566406 169.324219 C 155.027344 168.113281 155.003906 167.148438 153.464844 165.453125 C 152.300781 164.160156 152.394531 163.945313 155.125 161.578125 L 158.023438 159.078125 L 151.8125 152.273438 C 148.398438 148.53125 145.355469 145.472656 145.054688 145.472656 C 144.753906 145.472656 143.949219 146.085938 143.265625 146.839844 C 142.105469 148.121094 142.128906 148.296875 143.609375 149.632813 C 144.476563 150.414063 146.875 153.003906 148.941406 155.386719 L 152.695313 159.714844 L 149.070313 163.394531 C 147.078125 165.417969 145.046875 167.074219 144.554688 167.074219 C 144.066406 167.074219 141.398438 164.539063 138.628906 161.445313 L 133.59375 155.820313 L 130.554688 158.859375 L 133.121094 161.660156 C 138.902344 167.976563 143.132813 172.285156 143.542969 172.285156 C 143.785156 172.285156 145.117188 171.117188 146.503906 169.683594 M 95.042969 174.519531 C 100.507813 169.386719 101.183594 168.480469 100.320313 167.441406 C 99.441406 166.378906 98.804688 166.769531 94.613281 170.921875 L 89.890625 175.601563 L 87.847656 173.511719 L 85.800781 171.425781 L 90.214844 167.4375 C 94.011719 164.011719 94.496094 163.285156 93.664063 162.285156 C 92.8125 161.257813 92.160156 161.617188 88.210938 165.273438 L 83.722656 169.425781 L 82.175781 167.878906 L 80.628906 166.328125 L 85.417969 161.496094 C 89.046875 157.835938 90 156.449219 89.347656 155.796875 C 88.699219 155.148438 87.4375 155.851563 84.164063 158.699219 C 81.785156 160.769531 78.890625 163.464844 77.726563 164.691406 L 75.613281 166.917969 L 81.824219 173.625 C 85.238281 177.3125 88.203125 180.347656 88.40625 180.371094 C 88.613281 180.390625 91.597656 177.757813 95.042969 174.519531 M 130.148438 185.304688 C 136.121094 181.164063 137.621094 173.632813 133.359375 169.1875 C 129.207031 164.851563 123.394531 165.078125 118.191406 169.777344 C 107.679688 179.277344 118.527344 193.359375 130.148438 185.304688 M 79.730469 188.796875 C 80.890625 187.511719 80.871094 187.335938 79.390625 186.003906 C 78.523438 185.21875 76.097656 182.605469 74.007813 180.191406 L 70.203125 175.808594 L 72.699219 173.726563 C 75.089844 171.730469 75.511719 169.308594 73.472656 169.308594 C 72.328125 169.308594 60.285156 180.632813 60.183594 181.808594 C 60.003906 183.890625 62.480469 183.613281 64.886719 181.28125 L 67.335938 178.90625 L 72.375 184.535156 C 75.148438 187.632813 77.660156 190.164063 77.953125 190.164063 C 78.25 190.164063 79.050781 189.550781 79.730469 188.796875 M 165.875 244.171875 C 165.875 243.425781 165.132813 243.054688 163.644531 243.054688 L 161.40625 243.054688 L 161.40625 231.453125 C 161.40625 222.519531 161.195313 219.914063 160.476563 220.128906 C 159.964844 220.28125 157.953125 220.878906 156.007813 221.457031 C 152.023438 222.636719 151.234375 224.429688 154.703125 224.429688 L 156.9375 224.429688 L 156.9375 242.957031 L 154.574219 243.191406 C 153.273438 243.320313 152.074219 243.84375 151.90625 244.355469 C 151.675781 245.058594 153.363281 245.285156 158.738281 245.285156 C 164.585938 245.285156 165.875 245.085938 165.875 244.171875 M 128.632813 244.171875 C 128.632813 243.425781 127.886719 243.054688 126.398438 243.054688 L 124.164063 243.054688 L 124.164063 231.507813 C 124.164063 219.144531 124.105469 218.980469 120.4375 221.078125 C 119.414063 221.664063 117.820313 222.15625 116.898438 222.167969 C 114.21875 222.210938 114.867188 224.300781 117.644531 224.570313 L 120.066406 224.804688 L 120.066406 242.679688 L 117.644531 242.914063 C 116.144531 243.058594 115.222656 243.554688 115.222656 244.21875 C 115.222656 245.070313 116.597656 245.289063 121.925781 245.289063 C 127.390625 245.289063 128.632813 245.082031 128.632813 244.171875 M 180.167969 244.046875 C 183.089844 241.40625 184.628906 237.199219 184.628906 231.871094 C 184.628906 224.15625 181.753906 219.960938 176.464844 219.960938 C 171.621094 219.960938 168.855469 223.21875 168.855469 228.921875 C 168.855469 234.308594 174.171875 237.941406 178.589844 235.578125 C 179.839844 234.90625 180.03125 235.058594 180.03125 236.734375 C 180.03125 239.183594 178.210938 242.734375 176.644531 243.335938 C 174.273438 244.246094 173.414063 243.832031 173.558594 241.855469 C 173.757813 239.105469 171.398438 237.679688 169.929688 239.65625 C 168.472656 241.617188 168.554688 242.074219 170.777344 244.296875 C 172.390625 245.910156 173.164063 246.152344 175.675781 245.8125 C 177.316406 245.59375 179.335938 244.800781 180.167969 244.046875 M 141.648438 244.972656 C 148.242188 242.214844 150.09375 227.472656 144.542969 221.921875 C 141.644531 219.023438 137.125 219.160156 134.171875 222.242188 C 132.3125 224.1875 131.984375 225.121094 131.984375 228.496094 C 131.984375 233.183594 133.5 235.332031 137.304688 236.046875 C 139.058594 236.375 140.398438 236.132813 141.769531 235.234375 L 143.726563 233.953125 L 143.214844 236.828125 C 142.582031 240.414063 140.523438 243.351563 138.425781 243.664063 C 137.089844 243.863281 136.824219 243.53125 136.824219 241.660156 C 136.824219 239.066406 135.949219 238.289063 133.796875 238.972656 C 131.546875 239.6875 132.085938 243.8125 134.589844 245.074219 C 137.011719 246.289063 138.542969 246.269531 141.648438 244.972656 M 146.882813 285.609375 C 142.964844 281.246094 137.023438 277.429688 125.652344 271.960938 C 91.460938 255.519531 82.40625 249.804688 70.015625 236.84375 C 60.039063 226.410156 54.441406 217.351563 49.761719 204.085938 C 42.457031 183.375 41.941406 161.414063 48.335938 143.285156 C 51.339844 134.769531 53.582031 130.417969 63.167969 114.507813 C 74.8125 95.1875 77.902344 85.488281 75.742188 75.054688 C 74.160156 67.394531 71.066406 62.375 62.992188 54.355469 C 58.945313 50.332031 55.632813 46.886719 55.632813 46.699219 C 55.632813 46.109375 67.609375 30.394531 68.226563 30.171875 C 68.546875 30.058594 72.078125 33.492188 76.074219 37.804688 L 83.335938 45.648438 L 86.375 43.046875 C 91.289063 38.839844 95.511719 37.144531 101.816406 36.847656 C 112.222656 36.355469 120.402344 41.230469 125.058594 50.691406 C 127.191406 55.019531 127.496094 56.375 127.457031 61.28125 C 127.402344 67.882813 125.261719 73.40625 120.882813 78.25 L 118.175781 81.246094 L 156.316406 120.621094 C 177.289063 142.277344 206.160156 171.980469 220.46875 186.628906 C 238.789063 205.382813 246.351563 213.605469 246.039063 214.425781 C 244.683594 217.953125 238.828125 226.816406 234.101563 232.496094 C 223.132813 245.675781 211.300781 253.847656 183.152344 267.6875 C 162.382813 277.898438 156.40625 281.46875 152.363281 286.074219 L 149.863281 288.925781 Z M 146.882813 285.609375 "/>
<path style="fill:none;stroke-width:5.587;stroke-linecap:square;stroke-linejoin:miter;stroke:rgb(100%,100%,100%);stroke-opacity:1;stroke-miterlimit:4;" d="M 0.0014625 -0.00159375 C 4.349119 1.303094 9.61865 5.771844 12.188962 10.330438 C 14.270994 14.02575 14.497556 15.049188 14.489744 20.760125 C 14.478025 27.71325 13.286619 30.932 8.856931 35.978875 C 1.263181 44.627313 -13.678225 44.873406 -22.279788 36.4945 C -36.209475 22.928094 -26.88135 -0.841437 -7.63135 -0.841437 C -4.979006 -0.841437 -1.545413 -0.462531 0.0014625 -0.00159375 Z M 6.450681 -27.239875 L 9.7124 -25.329719 L 11.005369 -26.923469 L 12.298337 -28.521125 L 13.700681 -26.970344 C 15.052244 -25.478156 15.052244 -25.372687 13.751462 -23.935187 C 12.509275 -22.560187 12.497556 -22.341437 13.606931 -21.114875 C 15.665525 -18.841437 17.224119 -14.251594 16.720212 -11.958625 C 16.4624 -10.782844 15.200681 -8.939094 13.919431 -7.857062 C 11.985837 -6.232062 11.052244 -5.958625 8.454587 -6.251594 C 6.731931 -6.443 4.267087 -7.353156 2.978025 -8.271125 C 0.821775 -9.806281 0.532712 -9.845344 -0.678225 -8.747687 C -1.81885 -7.716437 -2.186038 -7.696906 -3.424319 -8.603156 C -4.822756 -9.626594 -4.822756 -9.673469 -3.439944 -11.204719 C -2.166506 -12.610969 -2.143069 -12.884406 -3.174319 -14.064094 C -6.494631 -17.84925 -7.455569 -22.16175 -5.69385 -25.341437 C -3.432131 -29.419562 1.435056 -30.177375 6.450681 -27.239875 Z M 37.200681 -43.689094 C 37.958494 -42.778937 37.2124 -41.603156 32.841306 -36.814094 L 27.571775 -31.03675 L 30.192869 -28.34925 C 32.520994 -25.962531 32.685056 -25.552375 31.645994 -24.689094 C 30.638181 -23.853156 29.669431 -24.482062 24.720212 -29.185187 C 21.55615 -32.189094 18.474119 -35.087531 17.876462 -35.622687 C 16.919431 -36.478156 16.919431 -36.732062 17.8999 -37.708625 C 18.884275 -38.696906 19.333494 -38.556281 21.884275 -36.454719 L 24.759275 -34.083625 L 29.571775 -39.435187 C 34.536619 -44.958625 35.638181 -45.575812 37.200681 -43.689094 Z M 16.763181 -62.013312 C 22.278806 -59.5055 25.470212 -54.001594 23.856931 -49.763312 C 22.5249 -46.2555 19.751462 -48.153937 20.528806 -52.040656 C 20.888181 -53.833625 20.544431 -54.767219 18.829587 -56.689094 C 15.817869 -60.060187 11.716306 -60.091437 8.751462 -56.771125 C 5.954587 -53.646125 6.001462 -50.568 8.876462 -47.689094 C 10.606931 -45.958625 11.6499 -45.521125 13.728025 -45.66175 C 15.364744 -45.771125 16.829587 -45.384406 17.571775 -44.642219 C 18.669431 -43.544562 18.630369 -43.372687 17.0874 -42.548469 C 13.228025 -40.482062 7.005369 -43.485969 4.341306 -48.708625 C 1.575681 -54.1305 3.645994 -59.857062 9.282712 -62.360969 C 12.24365 -63.677375 13.196775 -63.634406 16.763181 -62.013312 Z M 52.93115 -71.915656 C 54.099119 -70.857062 54.130369 -70.431281 53.235837 -67.892219 C 52.302244 -65.247687 52.345212 -64.954719 53.849119 -63.638312 C 57.626462 -60.341437 57.872556 -60.251594 60.68115 -61.177375 C 62.747556 -61.860969 63.591306 -61.857062 64.435056 -61.153937 C 65.032712 -60.657844 65.5249 -59.997687 65.5249 -59.685187 C 65.5249 -59.372687 61.458494 -57.372687 56.485837 -55.239875 L 47.450681 -51.360969 L 45.946775 -52.860969 L 44.446775 -54.364875 L 47.685056 -63.728156 C 49.466306 -68.8805 51.083494 -73.09925 51.2749 -73.09925 C 51.466306 -73.09925 52.2124 -72.564094 52.93115 -71.915656 Z M -3.658694 -81.579719 C -2.393069 -80.431281 -2.432131 -80.247687 -4.510256 -77.665656 C -6.080569 -75.708625 -6.561038 -74.470344 -6.236819 -73.220344 C -5.795413 -71.53675 -5.627444 -71.5055 0.263181 -71.993781 C 5.7749 -72.454719 6.435056 -72.360969 7.696775 -70.970344 C 9.048337 -69.47425 9.044431 -69.435187 7.317869 -69.083625 C 6.349119 -68.884406 3.247556 -68.540656 0.423337 -68.321906 C -2.400881 -68.09925 -4.865725 -67.763312 -5.061038 -67.568 C -5.252444 -67.376594 -5.021975 -64.982062 -4.545413 -62.251594 C -4.06885 -59.517219 -3.861819 -57.09925 -4.084475 -56.876594 C -4.307131 -56.653937 -5.135256 -57.056281 -5.924319 -57.771125 C -6.967288 -58.712531 -7.615725 -60.919562 -8.279788 -65.759406 L -9.189944 -72.443 L -12.295413 -69.396125 C -15.377444 -66.372687 -15.4126 -66.360969 -16.752444 -67.841437 C -18.076663 -69.306281 -17.979006 -69.470344 -11.861819 -76.009406 C -8.424319 -79.681281 -5.4751 -82.704719 -5.299319 -82.732062 C -5.127444 -82.759406 -4.389163 -82.239875 -3.658694 -81.579719 Z M 36.466306 -87.626594 L 38.989744 -85.021125 L 40.688962 -86.618781 C 42.095212 -87.939094 42.583494 -88.052375 43.528806 -87.267219 C 44.989744 -86.056281 44.966306 -85.091437 43.427244 -83.396125 C 42.263181 -82.103156 42.356931 -81.888312 45.0874 -79.521125 L 47.985837 -77.021125 L 41.7749 -70.216437 C 38.360837 -66.47425 35.317869 -63.415656 35.017087 -63.415656 C 34.716306 -63.415656 33.911619 -64.028937 33.228025 -64.782844 C 32.067869 -66.064094 32.091306 -66.239875 33.571775 -67.575812 C 34.438962 -68.357062 36.8374 -70.946906 38.903806 -73.329719 L 42.657712 -77.657844 L 39.032712 -81.337531 C 37.040525 -83.360969 35.009275 -85.017219 34.517087 -85.017219 C 34.028806 -85.017219 31.360837 -82.482062 28.591306 -79.388312 L 23.55615 -73.763312 L 20.517087 -76.802375 L 23.083494 -79.603156 C 28.864744 -85.919562 33.095212 -90.228156 33.505369 -90.228156 C 33.747556 -90.228156 35.079587 -89.060187 36.466306 -87.626594 Z M -14.994631 -92.462531 C -9.529788 -87.329719 -8.854006 -86.423469 -9.717288 -85.384406 C -10.596194 -84.321906 -11.232913 -84.712531 -15.424319 -88.864875 L -20.146975 -93.544562 L -22.189944 -91.454719 L -24.236819 -89.368781 L -19.822756 -85.3805 C -16.025881 -81.954719 -15.541506 -81.228156 -16.373538 -80.228156 C -17.2251 -79.200812 -17.877444 -79.560187 -21.826663 -83.216437 L -26.314944 -87.368781 L -27.861819 -85.821906 L -29.408694 -84.271125 L -24.619631 -79.439094 C -20.990725 -75.778937 -20.0376 -74.392219 -20.689944 -73.739875 C -21.338381 -73.091437 -22.6001 -73.794562 -25.873538 -76.642219 C -28.252444 -78.712531 -31.146975 -81.407844 -32.311038 -82.634406 L -34.424319 -84.860969 L -28.213381 -91.568 C -24.799319 -95.2555 -21.834475 -98.290656 -21.63135 -98.314094 C -21.424319 -98.333625 -18.439944 -95.700812 -14.994631 -92.462531 Z M 20.110837 -103.247687 C 26.083494 -99.107062 27.583494 -91.575812 23.321775 -87.1305 C 19.169431 -82.794562 13.356931 -83.021125 8.153806 -87.720344 C -2.357913 -97.220344 8.489744 -111.302375 20.110837 -103.247687 Z M -30.307131 -106.739875 C -29.146975 -105.454719 -29.166506 -105.278937 -30.646975 -103.946906 C -31.514163 -103.16175 -33.939944 -100.548469 -36.029788 -98.134406 L -39.834475 -93.751594 L -37.338381 -91.669562 C -34.947756 -89.673469 -34.525881 -87.251594 -36.564944 -87.251594 C -37.709475 -87.251594 -49.752444 -98.575812 -49.854006 -99.751594 C -50.033694 -101.833625 -47.557131 -101.556281 -45.150881 -99.22425 L -42.701663 -96.84925 L -37.6626 -102.478156 C -34.889163 -105.575812 -32.377444 -108.107062 -32.084475 -108.107062 C -31.7876 -108.107062 -30.986819 -107.493781 -30.307131 -106.739875 Z M 55.8374 -162.114875 C 55.8374 -161.368781 55.095212 -160.997687 53.606931 -160.997687 L 51.36865 -160.997687 L 51.36865 -149.396125 C 51.36865 -140.462531 51.157712 -137.857062 50.438962 -138.071906 C 49.927244 -138.22425 47.915525 -138.821906 45.970212 -139.400031 C 41.985837 -140.579719 41.196775 -142.372687 44.665525 -142.372687 L 46.8999 -142.372687 L 46.8999 -160.900031 L 44.536619 -161.134406 C 43.235837 -161.263312 42.036619 -161.78675 41.86865 -162.298469 C 41.638181 -163.001594 43.325681 -163.228156 48.700681 -163.228156 C 54.548337 -163.228156 55.8374 -163.028937 55.8374 -162.114875 Z M 18.595212 -162.114875 C 18.595212 -161.368781 17.849119 -160.997687 16.360837 -160.997687 L 14.126462 -160.997687 L 14.126462 -149.450812 C 14.126462 -137.087531 14.067869 -136.923469 10.3999 -139.021125 C 9.376462 -139.607062 7.782712 -140.09925 6.860837 -140.110969 C 4.18115 -140.153937 4.829587 -142.243781 7.606931 -142.513312 L 10.028806 -142.747687 L 10.028806 -160.622687 L 7.606931 -160.857062 C 6.106931 -161.001594 5.185056 -161.497687 5.185056 -162.16175 C 5.185056 -163.013312 6.560056 -163.232062 11.888181 -163.232062 C 17.353025 -163.232062 18.595212 -163.025031 18.595212 -162.114875 Z M 70.130369 -161.989875 C 73.052244 -159.34925 74.591306 -155.142219 74.591306 -149.814094 C 74.591306 -142.09925 71.716306 -137.903937 66.427244 -137.903937 C 61.583494 -137.903937 58.817869 -141.16175 58.817869 -146.864875 C 58.817869 -152.251594 64.134275 -155.884406 68.552244 -153.521125 C 69.802244 -152.84925 69.99365 -153.001594 69.99365 -154.677375 C 69.99365 -157.126594 68.173337 -160.677375 66.606931 -161.278937 C 64.235837 -162.189094 63.376462 -161.775031 63.520994 -159.798469 C 63.720212 -157.048469 61.360837 -155.622687 59.892087 -157.59925 C 58.435056 -159.560187 58.517087 -160.017219 60.739744 -162.239875 C 62.353025 -163.853156 63.126462 -164.095344 65.638181 -163.7555 C 67.278806 -163.53675 69.298337 -162.743781 70.130369 -161.989875 Z M 31.610837 -162.915656 C 38.204587 -160.157844 40.05615 -145.415656 34.505369 -139.864875 C 31.606931 -136.966437 27.0874 -137.103156 24.134275 -140.185187 C 22.2749 -142.1305 21.946775 -143.064094 21.946775 -146.439094 C 21.946775 -151.126594 23.4624 -153.275031 27.267087 -153.989875 C 29.020994 -154.318 30.360837 -154.075812 31.731931 -153.177375 L 33.688962 -151.896125 L 33.177244 -154.771125 C 32.544431 -158.357062 30.485837 -161.294562 28.388181 -161.607062 C 27.052244 -161.806281 26.786619 -161.47425 26.786619 -159.603156 C 26.786619 -157.009406 25.911619 -156.232062 23.759275 -156.915656 C 21.509275 -157.6305 22.048337 -161.7555 24.552244 -163.017219 C 26.974119 -164.232062 28.505369 -164.212531 31.610837 -162.915656 Z M 36.845212 -203.552375 C 32.927244 -199.189094 26.985837 -195.372687 15.614744 -189.903937 C -18.576663 -173.462531 -27.63135 -167.747687 -40.021975 -154.78675 C -49.998538 -144.353156 -55.596194 -135.294562 -60.275881 -122.028937 C -67.580569 -101.318 -68.096194 -79.357062 -61.701663 -61.228156 C -58.697756 -52.712531 -56.455569 -48.360969 -46.869631 -32.450812 C -35.2251 -13.1305 -32.135256 -3.431281 -34.295413 7.002313 C -35.877444 14.662469 -38.971194 19.682 -47.045413 27.701531 C -51.092288 31.724969 -54.404788 35.170281 -54.404788 35.357781 C -54.404788 35.947625 -42.428225 51.662469 -41.811038 51.885125 C -41.490725 51.998406 -37.959475 48.564813 -33.963381 44.252313 L -26.701663 36.408563 L -23.6626 39.010125 C -18.748538 43.217156 -14.525881 44.912469 -8.221194 45.209344 C 2.185056 45.701531 10.364744 40.826531 15.020994 31.365594 C 17.153806 27.037469 17.458494 25.682 17.419431 20.77575 C 17.364744 14.174188 15.224119 8.65075 10.845212 3.807 L 8.138181 0.810906 L 46.278806 -38.564094 C 67.251462 -60.220344 96.122556 -89.923469 110.43115 -104.571906 C 128.751463 -123.325812 136.313963 -131.548469 136.001463 -132.368781 C 134.645994 -135.896125 128.790525 -144.759406 124.063962 -150.439094 C 113.095212 -163.618781 101.263181 -171.790656 73.114744 -185.6305 C 52.345212 -195.841437 46.36865 -199.41175 42.325681 -204.017219 L 39.825681 -206.868781 Z M 36.845212 -203.552375 " transform="matrix(1,0,0,-1,110.0376,82.057)"/>
<path style=" stroke:none;fill-rule:nonzero;fill:rgb(5.099487%,54.098511%,72.198486%);fill-opacity:1;" d="M 123.367188 220.921875 L 123.367188 242.679688 C 123.367188 243.003906 123.472656 243.253906 123.691406 243.429688 C 124.003906 243.671875 124.386719 243.796875 124.84375 243.796875 L 127.988281 243.796875 L 127.988281 245.101563 L 116.308594 245.101563 L 116.308594 243.796875 L 119.003906 243.796875 C 119.5625 243.796875 119.980469 243.652344 120.25 243.367188 C 120.519531 243.082031 120.65625 242.703125 120.65625 242.226563 L 120.65625 225.785156 C 120.65625 225.449219 120.53125 225.164063 120.285156 224.933594 C 120.035156 224.699219 119.714844 224.582031 119.328125 224.582031 L 115.722656 224.582031 L 115.722656 223.382813 C 117.414063 223.148438 118.785156 222.839844 119.835938 222.449219 C 120.886719 222.058594 121.8125 221.550781 122.613281 220.921875 Z M 123.367188 220.921875 "/>
<path style=" stroke:none;fill-rule:nonzero;fill:rgb(5.099487%,54.098511%,72.198486%);fill-opacity:1;" d="M 139.964844 221.726563 C 138.75 221.726563 137.757813 222.269531 136.976563 223.355469 C 136.199219 224.441406 135.808594 226.078125 135.808594 228.261719 C 135.808594 230.261719 136.199219 231.75 136.976563 232.734375 C 137.757813 233.714844 138.773438 234.207031 140.027344 234.207031 C 141.269531 234.207031 142.316406 233.679688 143.167969 232.621094 C 144.015625 231.5625 144.441406 230.082031 144.441406 228.175781 C 144.441406 226.199219 144 224.628906 143.117188 223.46875 C 142.234375 222.304688 141.183594 221.726563 139.964844 221.726563 M 144.503906 232.585938 C 143.800781 233.722656 142.980469 234.582031 142.039063 235.15625 C 141.097656 235.734375 140.042969 236.019531 138.875 236.019531 C 137.253906 236.019531 135.78125 235.410156 134.453125 234.1875 C 133.128906 232.96875 132.46875 231.171875 132.46875 228.800781 C 132.46875 226.488281 133.199219 224.523438 134.664063 222.902344 C 136.132813 221.28125 137.878906 220.46875 139.914063 220.46875 C 142.152344 220.46875 144.019531 221.46875 145.511719 223.46875 C 147.003906 225.46875 147.75 228.273438 147.75 231.886719 C 147.75 234.886719 147.335938 237.417969 146.507813 239.480469 C 145.679688 241.542969 144.585938 243.078125 143.222656 244.082031 C 141.859375 245.085938 140.324219 245.589844 138.617188 245.589844 C 136.960938 245.589844 135.664063 245.199219 134.730469 244.414063 C 133.796875 243.628906 133.328125 242.691406 133.328125 241.597656 C 133.328125 240.878906 133.519531 240.296875 133.90625 239.855469 C 134.289063 239.414063 134.777344 239.191406 135.363281 239.191406 C 135.894531 239.191406 136.347656 239.382813 136.714844 239.769531 C 137.085938 240.152344 137.269531 240.609375 137.269531 241.144531 C 137.269531 241.527344 137.097656 241.953125 136.757813 242.417969 C 136.546875 242.707031 136.441406 242.957031 136.441406 243.167969 C 136.441406 243.492188 136.621094 243.773438 136.976563 244.011719 C 137.332031 244.25 137.90625 244.371094 138.695313 244.371094 C 139.820313 244.371094 140.8125 244.035156 141.664063 243.367188 C 142.519531 242.699219 143.210938 241.601563 143.742188 240.074219 C 144.273438 238.546875 144.535156 236.566406 144.535156 234.136719 Z M 144.503906 232.585938 "/>
<path style=" stroke:none;fill-rule:nonzero;fill:rgb(5.099487%,54.098511%,72.198486%);fill-opacity:1;" d="M 160.324219 220.921875 L 160.324219 242.679688 C 160.324219 243.003906 160.429688 243.253906 160.648438 243.429688 C 160.960938 243.671875 161.34375 243.796875 161.800781 243.796875 L 164.945313 243.796875 L 164.945313 245.101563 L 153.265625 245.101563 L 153.265625 243.796875 L 155.957031 243.796875 C 156.519531 243.796875 156.9375 243.652344 157.207031 243.367188 C 157.476563 243.082031 157.613281 242.703125 157.613281 242.226563 L 157.613281 225.785156 C 157.613281 225.449219 157.488281 225.164063 157.238281 224.933594 C 156.992188 224.699219 156.671875 224.582031 156.28125 224.582031 L 152.679688 224.582031 L 152.679688 223.382813 C 154.371094 223.148438 155.742188 222.839844 156.792969 222.449219 C 157.84375 222.058594 158.769531 221.550781 159.570313 220.921875 Z M 160.324219 220.921875 "/>
<path style=" stroke:none;fill-rule:nonzero;fill:rgb(5.099487%,54.098511%,72.198486%);fill-opacity:1;" d="M 176.917969 221.726563 C 175.707031 221.726563 174.710938 222.269531 173.933594 223.355469 C 173.152344 224.441406 172.765625 226.078125 172.765625 228.261719 C 172.765625 230.261719 173.152344 231.75 173.933594 232.734375 C 174.710938 233.714844 175.730469 234.207031 176.984375 234.207031 C 178.226563 234.207031 179.273438 233.679688 180.121094 232.621094 C 180.972656 231.5625 181.398438 230.082031 181.398438 228.175781 C 181.398438 226.199219 180.957031 224.628906 180.074219 223.46875 C 179.191406 222.304688 178.140625 221.726563 176.917969 221.726563 M 181.460938 232.585938 C 180.757813 233.722656 179.9375 234.582031 178.996094 235.15625 C 178.054688 235.734375 177 236.019531 175.832031 236.019531 C 174.210938 236.019531 172.734375 235.410156 171.410156 234.1875 C 170.085938 232.96875 169.425781 231.171875 169.425781 228.800781 C 169.425781 226.488281 170.15625 224.523438 171.621094 222.902344 C 173.085938 221.28125 174.835938 220.46875 176.871094 220.46875 C 179.109375 220.46875 180.976563 221.46875 182.46875 223.46875 C 183.960938 225.46875 184.707031 228.273438 184.707031 231.886719 C 184.707031 234.886719 184.292969 237.417969 183.464844 239.480469 C 182.636719 241.542969 181.542969 243.078125 180.179688 244.082031 C 178.816406 245.085938 177.28125 245.589844 175.570313 245.589844 C 173.917969 245.589844 172.621094 245.199219 171.6875 244.414063 C 170.75 243.628906 170.28125 242.691406 170.28125 241.597656 C 170.28125 240.878906 170.476563 240.296875 170.863281 239.855469 C 171.246094 239.414063 171.734375 239.191406 172.320313 239.191406 C 172.851563 239.191406 173.304688 239.382813 173.671875 239.769531 C 174.039063 240.152344 174.226563 240.609375 174.226563 241.144531 C 174.226563 241.527344 174.054688 241.953125 173.714844 242.417969 C 173.503906 242.707031 173.398438 242.957031 173.398438 243.167969 C 173.398438 243.492188 173.574219 243.773438 173.933594 244.011719 C 174.289063 244.25 174.863281 244.371094 175.652344 244.371094 C 176.777344 244.371094 177.769531 244.035156 178.621094 243.367188 C 179.476563 242.699219 180.167969 241.601563 180.699219 240.074219 C 181.230469 238.546875 181.492188 236.566406 181.492188 234.136719 Z M 181.460938 232.585938 "/>
<path style=" stroke:none;fill-rule:nonzero;fill:rgb(5.099487%,54.098511%,72.198486%);fill-opacity:1;" d="M 182.8125 146.484375 L 118.9375 80.550781 L 121.460938 77.859375 C 125.796875 73.230469 128.101563 67.363281 128.101563 60.957031 C 128.101563 56.808594 127.363281 53.65625 125.488281 49.84375 C 122.25 43.253906 115.941406 38.148438 109.015625 36.515625 C 106.007813 35.804688 100.699219 35.730469 97.71875 36.355469 C 93.363281 37.273438 87.542969 40.550781 84.980469 43.539063 L 84.074219 44.59375 L 82.53125 42.976563 C 81.679688 42.089844 78.207031 38.515625 74.8125 35.035156 L 68.640625 28.710938 L 74.796875 20.492188 C 78.183594 15.96875 81.003906 12.207031 81.066406 12.132813 C 81.125 12.058594 83.449219 13.292969 86.230469 14.878906 C 99.445313 22.429688 112.425781 26.695313 129.53125 29.105469 C 138.351563 30.347656 160.28125 30.460938 169.113281 29.3125 C 186.789063 27.007813 202.261719 21.886719 215.242188 14.046875 C 218.125 12.304688 218.761719 12.058594 219.199219 12.523438 C 219.484375 12.828125 225.457031 20.746094 232.472656 30.117188 L 245.230469 47.152344 L 241.433594 50.238281 C 225.070313 63.535156 220.339844 77.386719 226.351563 94.421875 C 228.359375 100.113281 230.214844 103.550781 238.523438 116.984375 C 244.054688 125.929688 246.550781 130.433594 248.949219 135.800781 C 256.804688 153.390625 258.410156 171.558594 253.90625 191.820313 C 252.269531 199.167969 247.773438 212.515625 246.957031 212.441406 C 246.808594 212.425781 217.941406 182.746094 182.8125 146.484375 "/>
<path style="fill:none;stroke-width:4.119;stroke-linecap:butt;stroke-linejoin:miter;stroke:rgb(5.099487%,54.098511%,72.198486%);stroke-opacity:1;stroke-miterlimit:4;" d="M 0 -0.000675 L -63.875 65.932919 L -61.351563 68.624325 C -57.015625 73.253231 -54.710938 79.120419 -54.710938 85.526669 C -54.710938 89.675106 -55.449219 92.82745 -57.324219 96.63995 C -60.5625 103.229794 -66.871094 108.335263 -73.796875 109.968075 C -76.804688 110.679013 -82.113281 110.753231 -85.09375 110.128231 C -89.449219 109.210263 -95.269531 105.932919 -97.832031 102.944638 L -98.738281 101.88995 L -100.28125 103.507138 C -101.132813 104.393856 -104.605469 107.968075 -108 111.448544 L -114.171875 117.772763 L -108.015625 125.991513 C -104.628906 130.51495 -101.808594 134.276669 -101.746094 134.350888 C -101.6875 134.425106 -99.363281 133.190731 -96.582031 131.604794 C -83.367188 124.054013 -70.386719 119.788388 -53.28125 117.378231 C -44.460938 116.136044 -22.53125 116.022763 -13.699219 117.1712 C 3.976563 119.475888 19.449219 124.596981 32.429688 132.436825 C 35.3125 134.179013 35.949219 134.425106 36.386719 133.960263 C 36.671875 133.655575 42.644531 125.737606 49.660156 116.366513 L 62.417969 99.331356 L 58.621094 96.245419 C 42.257813 82.948544 37.527344 69.096981 43.539063 52.061825 C 45.546875 46.370419 47.402344 42.932919 55.710938 29.499325 C 61.242188 20.554012 63.738281 16.050106 66.136719 10.682919 C 73.992188 -6.906925 75.597656 -25.074894 71.09375 -45.336613 C 69.457031 -52.684269 64.960938 -66.031925 64.144531 -65.957706 C 63.996094 -65.942081 35.128906 -36.262394 0 -0.000675 Z M 0 -0.000675 " transform="matrix(1,0,0,-1,182.8125,146.4837)"/>
<path style="fill:none;stroke-width:9.548;stroke-linecap:butt;stroke-linejoin:miter;stroke:rgb(5.099487%,54.098511%,72.198486%);stroke-opacity:1;stroke-miterlimit:4;" d="M -0.00193125 0.00085 L -28.548806 -38.06165 C -9.63865 -51.463994 -4.787088 -63.796025 -6.642556 -76.167119 C -10.587869 -102.428837 -41.099588 -119.354619 -38.927713 -166.0929 C -30.810525 -261.276494 64.013694 -255.815556 69.2051 -285.471806 C 74.396506 -255.815556 169.220725 -261.276494 177.337912 -166.0929 C 179.509787 -119.354619 148.998069 -102.428837 145.056662 -76.167119 C 143.197287 -63.796025 148.04885 -51.463994 166.959006 -38.06165 L 138.408225 0.00085 C 120.419944 -11.885869 98.716819 -19.163212 69.2051 -19.0304 C 39.693381 -19.163212 17.990256 -11.885869 -0.00193125 0.00085 Z M -0.00193125 0.00085 " transform="matrix(1,0,0,-1,80.7949,9.5321)"/>
<path style=" stroke:none;fill-rule:nonzero;fill:rgb(100%,100%,100%);fill-opacity:1;" d="M 102.96875 36.25 C 116.777344 36.25 127.972656 47.449219 127.972656 61.257813 C 127.972656 75.070313 116.777344 86.265625 102.96875 86.265625 C 89.15625 86.265625 77.960938 75.070313 77.960938 61.257813 C 77.960938 47.449219 89.15625 36.25 102.96875 36.25 "/>
<path style=" stroke:none;fill-rule:nonzero;fill:rgb(5.099487%,54.098511%,72.198486%);fill-opacity:1;" d="M 120.699219 103.214844 C 121.824219 102.09375 122.609375 101.074219 123.050781 100.15625 L 123.25 99.730469 C 124.1875 97.773438 124.164063 95.90625 123.175781 94.125 C 122.925781 93.675781 122.617188 93.253906 122.25 92.863281 C 120.03125 90.492188 117.328125 90.257813 114.136719 92.167969 C 113.40625 92.597656 112.664063 93.144531 111.902344 93.8125 Z M 109.488281 96.039063 C 107.40625 98.257813 106.390625 100.480469 106.4375 102.707031 C 106.492188 104.121094 106.996094 105.34375 107.957031 106.371094 L 107.976563 106.390625 C 109.367188 107.878906 111.160156 108.449219 113.347656 108.097656 C 113.914063 108.007813 114.492188 107.839844 115.089844 107.605469 C 115.992188 107.238281 116.988281 106.609375 118.070313 105.710938 L 118.335938 105.496094 Z M 105.730469 92.023438 L 108.128906 89.78125 L 110.683594 92.511719 C 114.804688 88.90625 118.410156 87.59375 121.503906 88.574219 C 122.652344 88.921875 123.695313 89.597656 124.628906 90.601563 L 124.648438 90.617188 C 126.5 92.597656 127.027344 95.003906 126.226563 97.839844 C 125.566406 100.152344 124.121094 102.375 121.898438 104.5 L 124.882813 107.691406 L 122.484375 109.933594 L 119.519531 106.761719 C 116.101563 109.84375 112.945313 111.25 110.058594 110.972656 C 108.402344 110.804688 106.945313 110.046875 105.6875 108.703125 L 105.667969 108.683594 C 103.746094 106.632813 103.253906 104.125 104.191406 101.164063 C 104.871094 98.992188 106.246094 96.867188 108.320313 94.789063 Z M 105.730469 92.023438 "/>
<path style=" stroke:none;fill-rule:nonzero;fill:rgb(100%,100%,100%);fill-opacity:1;" d="M 121.570313 81.035156 L 124.125 78.644531 L 129.972656 84.898438 L 132.199219 71.09375 L 135.183594 68.300781 L 133.328125 80.003906 L 148.164063 81.21875 L 145.289063 83.90625 L 132.871094 82.871094 L 132.167969 87.242188 L 136.628906 92.011719 L 134.070313 94.402344 Z M 121.570313 81.035156 "/>
<path style=" stroke:none;fill-rule:nonzero;fill:rgb(5.099487%,54.098511%,72.198486%);fill-opacity:1;" d="M 60.144531 181.574219 L 73.242188 169.320313 L 74.992188 171.191406 L 69.71875 176.121094 L 80.472656 187.613281 L 77.917969 190.003906 L 67.164063 178.511719 L 61.894531 183.441406 Z M 60.144531 181.574219 "/>
<path style=" stroke:none;fill-rule:nonzero;fill:rgb(5.099487%,54.098511%,72.198486%);fill-opacity:1;" d="M 89.546875 176.03125 L 99.40625 166.808594 L 100.949219 168.457031 L 88.488281 180.117188 L 75.984375 166.753906 L 88.449219 155.09375 L 89.992188 156.742188 L 80.132813 165.96875 L 83.734375 169.820313 L 92.507813 161.609375 L 94.101563 163.3125 L 85.328125 171.523438 Z M 89.546875 176.03125 "/>
<path style=" stroke:none;fill-rule:nonzero;fill:rgb(5.099487%,54.098511%,72.198486%);fill-opacity:1;" d="M 92.464844 151.339844 L 95.019531 148.945313 L 100.867188 155.195313 L 103.09375 141.394531 L 106.078125 138.601563 L 104.222656 150.304688 L 119.054688 151.519531 L 116.183594 154.207031 L 103.765625 153.171875 L 103.0625 157.542969 L 107.519531 162.308594 L 104.964844 164.703125 Z M 92.464844 151.339844 "/>
<path style=" stroke:none;fill-rule:nonzero;fill:rgb(5.099487%,54.098511%,72.198486%);fill-opacity:1;" d="M 128.113281 125.546875 L 125.648438 127.855469 C 125.046875 127.179688 124.078125 126.917969 122.746094 127.0625 C 121.359375 127.214844 120.082031 127.828125 118.90625 128.902344 C 116.769531 130.878906 115.941406 133.0625 116.425781 135.453125 C 116.710938 136.8125 117.421875 138.117188 118.5625 139.363281 C 119.988281 140.921875 121.714844 141.710938 123.746094 141.734375 C 125.59375 141.746094 127.269531 141.058594 128.777344 139.675781 C 130.296875 138.277344 131.058594 136.660156 131.0625 134.820313 C 131.042969 133.625 130.699219 132.648438 130.03125 131.902344 L 132.449219 129.640625 C 133.613281 130.914063 134.164063 132.515625 134.105469 134.445313 C 134.035156 136.941406 132.867188 139.242188 130.59375 141.34375 C 127.6875 144.015625 124.695313 145.167969 121.609375 144.800781 C 119.300781 144.507813 117.285156 143.425781 115.5625 141.554688 C 113.855469 139.667969 113.117188 137.414063 113.347656 134.789063 C 113.605469 131.980469 114.921875 129.476563 117.300781 127.273438 C 119.269531 125.480469 121.398438 124.460938 123.691406 124.21875 C 125.648438 124.015625 127.121094 124.460938 128.113281 125.546875 "/>
<path style=" stroke:none;fill-rule:nonzero;fill:rgb(5.099487%,54.098511%,72.198486%);fill-opacity:1;" d="M 127.464844 118.589844 L 140.5625 106.339844 L 142.3125 108.210938 L 137.042969 113.140625 L 147.792969 124.632813 L 145.238281 127.023438 L 134.484375 115.53125 L 129.214844 120.460938 Z M 127.464844 118.589844 "/>
<path style=" stroke:none;fill-rule:nonzero;fill:rgb(100%,100%,100%);fill-opacity:1;" d="M 143.339844 103.808594 L 145.898438 101.417969 L 154.523438 110.636719 C 155.648438 112.082031 156.296875 112.941406 156.46875 113.21875 C 156.15625 111.609375 155.980469 110.292969 155.953125 109.265625 L 155.261719 92.65625 L 157.972656 90.117188 L 170.441406 103.445313 L 167.910156 105.8125 L 160.347656 97.730469 C 159.15625 96.460938 158.167969 95.21875 157.378906 94.011719 C 157.660156 95.671875 157.8125 97.0625 157.84375 98.183594 L 158.5 114.617188 L 155.808594 117.136719 Z M 143.339844 103.808594 "/>
<path style=" stroke:none;fill-rule:nonzero;fill:rgb(100%,100%,100%);fill-opacity:1;" d="M 174.800781 99.367188 L 168.90625 79.824219 L 171.617188 77.285156 L 190.160156 85 L 187.941406 87.074219 L 175.792969 81.972656 L 174.765625 81.558594 C 173.027344 80.847656 171.859375 80.28125 171.261719 79.851563 C 171.820313 80.84375 172.351563 82.074219 172.859375 83.550781 L 173.179688 84.488281 L 177.019531 97.292969 Z M 174.800781 99.367188 "/>
<path style=" stroke:none;fill-rule:nonzero;fill:rgb(100%,100%,100%);fill-opacity:1;" d="M 188.796875 61.214844 L 207.15625 69.097656 L 204.621094 71.46875 L 199.222656 69.09375 L 193.25 74.679688 L 195.257813 80.226563 L 192.726563 82.597656 L 186.082031 63.753906 Z M 196.960938 68.082031 L 189.667969 64.867188 L 192.390625 72.355469 Z M 196.960938 68.082031 "/>
<path style=" stroke:none;fill-rule:nonzero;fill:rgb(100%,100%,100%);fill-opacity:1;" d="M 211.980469 39.589844 L 223.179688 51.5625 L 225.210938 49.695313 L 229.5 54.28125 L 227.394531 56.246094 L 224.359375 53.003906 L 210.539063 65.929688 L 198.074219 52.605469 L 200.628906 50.214844 L 211.757813 62.109375 L 220.578125 53.859375 L 209.449219 41.960938 Z M 211.980469 39.589844 "/>
<path style=" stroke:none;fill-rule:nonzero;fill:rgb(5.099487%,54.098511%,72.198486%);fill-opacity:1;" d="M 116.023438 183.988281 C 114 181.824219 113.191406 179.3125 113.601563 176.457031 C 113.964844 173.824219 115.324219 171.40625 117.675781 169.207031 C 120.269531 166.78125 123.023438 165.566406 125.9375 165.570313 C 128.507813 165.566406 130.703125 166.539063 132.523438 168.484375 L 132.539063 168.5 C 134.5625 170.664063 135.371094 173.171875 134.960938 176.03125 C 134.597656 178.664063 133.238281 181.082031 130.886719 183.28125 C 128.292969 185.707031 125.539063 186.921875 122.625 186.917969 C 120.054688 186.917969 117.859375 185.949219 116.039063 184.003906 Z M 129.207031 181.484375 C 130.972656 179.835938 131.832031 177.929688 131.789063 175.769531 C 131.761719 173.984375 131.113281 172.414063 129.84375 171.058594 L 129.824219 171.039063 C 128.269531 169.378906 126.402344 168.617188 124.214844 168.757813 C 122.4375 168.886719 120.820313 169.632813 119.355469 171.003906 C 117.652344 172.59375 116.808594 174.488281 116.820313 176.675781 C 116.839844 178.511719 117.476563 180.097656 118.722656 181.429688 L 118.738281 181.449219 C 120.121094 182.925781 121.828125 183.691406 123.855469 183.742188 C 125.957031 183.816406 127.742188 183.0625 129.207031 181.484375 "/>
<path style=" stroke:none;fill-rule:nonzero;fill:rgb(5.099487%,54.098511%,72.198486%);fill-opacity:1;" d="M 130.167969 158.140625 L 132.746094 155.726563 L 143.738281 167.476563 L 152.761719 159.035156 L 141.769531 147.285156 L 144.371094 144.851563 L 156.839844 158.179688 L 151.117188 163.53125 L 154.167969 166.792969 L 151.636719 169.164063 L 148.582031 165.902344 L 142.636719 171.464844 Z M 130.167969 158.140625 "/>
<path style=" stroke:none;fill-rule:nonzero;fill:rgb(5.099487%,54.098511%,72.198486%);fill-opacity:1;" d="M 156.804688 133.152344 L 175.164063 141.035156 L 172.628906 143.402344 L 167.230469 141.03125 L 161.257813 146.617188 L 163.265625 152.164063 L 160.734375 154.53125 L 154.089844 135.691406 Z M 164.96875 140.019531 L 157.675781 136.804688 L 160.398438 144.292969 Z M 164.96875 140.019531 "/>
<path style=" stroke:none;fill-rule:nonzero;fill:rgb(100%,100%,100%);fill-opacity:1;" d="M 178.921875 112.628906 L 190.121094 124.601563 L 192.148438 122.734375 L 196.4375 127.316406 L 194.332031 129.285156 L 191.300781 126.039063 L 177.480469 138.96875 L 165.011719 125.640625 L 167.566406 123.25 L 178.695313 135.148438 L 187.519531 126.894531 L 176.390625 115 Z M 178.921875 112.628906 "/>
<path style=" stroke:none;fill-rule:nonzero;fill:rgb(100%,100%,100%);fill-opacity:1;" d="M 184.933594 107.003906 L 187.492188 104.613281 L 196.117188 113.832031 C 197.242188 115.277344 197.890625 116.136719 198.0625 116.414063 C 197.746094 114.804688 197.574219 113.488281 197.546875 112.460938 L 196.855469 95.851563 L 199.566406 93.3125 L 212.035156 106.640625 L 209.5 109.011719 L 201.941406 100.925781 C 200.75 99.65625 199.757813 98.414063 198.96875 97.207031 C 199.25 98.867188 199.40625 100.257813 199.4375 101.378906 L 200.09375 117.8125 L 197.402344 120.332031 Z M 184.933594 107.003906 "/>
<path style="fill:none;stroke-width:2.413;stroke-linecap:butt;stroke-linejoin:miter;stroke:rgb(5.099487%,54.098511%,72.198486%);stroke-opacity:1;stroke-miterlimit:4;" d="M -0.00143125 0.001375 C 11.79935 0.200594 21.529819 -9.205656 21.729038 -21.006438 C 21.928256 -32.807219 12.522006 -42.533781 0.721225 -42.733 C -11.079556 -42.932219 -20.806119 -33.529875 -21.005337 -21.729094 C -21.204556 -9.928313 -11.802212 -0.197844 -0.00143125 0.001375 Z M -0.00143125 0.001375 " transform="matrix(1,0,0,-1,102.6069,39.892)"/>
<path style="fill:none;stroke-width:2.413;stroke-linecap:butt;stroke-linejoin:miter;stroke:rgb(5.099487%,54.098511%,72.198486%);stroke-opacity:1;stroke-miterlimit:4;" d="M -0.0000375 -0.000125 C 9.937462 0.167844 18.128869 -7.750125 18.296837 -17.691531 C 18.464806 -27.625125 10.542931 -35.820437 0.605431 -35.988406 C -9.332069 -36.156375 -17.523475 -28.2345 -17.691444 -18.297 C -17.859413 -8.3595 -9.937538 -0.168094 -0.0000375 -0.000125 Z M -0.0000375 -0.000125 " transform="matrix(1,0,0,-1,102.6641,43.2655)"/>
<path style=" stroke:none;fill-rule:nonzero;fill:rgb(5.099487%,54.098511%,72.198486%);fill-opacity:1;" d="M 98.78125 54.472656 L 107.214844 54.492188 L 109.785156 62.875 L 102.941406 68.035156 L 96.140625 62.84375 Z M 98.78125 54.472656 "/>
<path style=" stroke:none;fill-rule:nonzero;fill:rgb(5.099487%,54.098511%,72.198486%);fill-opacity:1;" d="M 98.71875 82.457031 L 107.152344 82.476563 L 109.753906 77.835938 L 102.925781 74.953125 L 96.109375 77.808594 Z M 98.71875 82.457031 "/>
<path style=" stroke:none;fill-rule:nonzero;fill:rgb(5.099487%,54.098511%,72.198486%);fill-opacity:1;" d="M 122.648438 70.210938 L 124.578125 62.003906 L 120.652344 58.414063 L 116.292969 64.40625 L 117.523438 71.695313 Z M 122.648438 70.210938 "/>
<path style=" stroke:none;fill-rule:nonzero;fill:rgb(5.099487%,54.098511%,72.198486%);fill-opacity:1;" d="M 117.78125 45.511719 L 110.632813 41.039063 L 105.972656 43.601563 L 110.238281 49.65625 L 117.539063 50.839844 Z M 117.78125 45.511719 "/>
<path style=" stroke:none;fill-rule:nonzero;fill:rgb(5.099487%,54.098511%,72.198486%);fill-opacity:1;" d="M 95.386719 41.011719 L 88.214844 45.449219 L 88.453125 50.761719 L 95.773438 49.609375 L 100.058594 43.585938 Z M 95.386719 41.011719 "/>
<path style=" stroke:none;fill-rule:nonzero;fill:rgb(5.099487%,54.098511%,72.198486%);fill-opacity:1;" d="M 81.359375 61.914063 L 83.246094 70.132813 L 88.355469 71.617188 L 89.621094 64.316406 L 85.296875 58.320313 Z M 81.359375 61.914063 "/>
<path style="fill:none;stroke-width:2.399;stroke-linecap:square;stroke-linejoin:miter;stroke:rgb(5.099487%,54.098511%,72.198486%);stroke-opacity:1;stroke-miterlimit:4;" d="M 0.0019125 0.00184375 L -0.0137125 -6.912219 " transform="matrix(1,0,0,-1,102.9434,68.037)"/>
<path style="fill:none;stroke-width:2.399;stroke-linecap:square;stroke-linejoin:miter;stroke:rgb(5.099487%,54.098511%,72.198486%);stroke-opacity:1;stroke-miterlimit:4;" d="M -0.00000625 0.00039375 L 6.519525 1.47305 " transform="matrix(1,0,0,-1,89.6211,64.3168)"/>
<path style="fill:none;stroke-width:2.399;stroke-linecap:square;stroke-linejoin:miter;stroke:rgb(5.099487%,54.098511%,72.198486%);stroke-opacity:1;stroke-miterlimit:4;" d="M 0.0000375 -0.000175 L 3.00785 -4.863456 " transform="matrix(1,0,0,-1,95.7734,49.6092)"/>
<path style="fill:none;stroke-width:2.399;stroke-linecap:square;stroke-linejoin:miter;stroke:rgb(5.099487%,54.098511%,72.198486%);stroke-opacity:1;stroke-miterlimit:4;" d="M 0.00194375 -0.0010875 L 3.025381 4.83485 " transform="matrix(1,0,0,-1,107.2129,54.4911)"/>
<path style="fill:none;stroke-width:2.399;stroke-linecap:square;stroke-linejoin:miter;stroke:rgb(5.099487%,54.098511%,72.198486%);stroke-opacity:1;stroke-miterlimit:4;" d="M -0.00004375 -0.0006 L 6.507769 -1.53185 " transform="matrix(1,0,0,-1,109.7852,62.8744)"/>
</g>
</svg>
