<?xml version="1.0" encoding="utf-8"?>
<!-- Generator: Adobe Illustrator 22.1.0, SVG Export Plug-In . SVG Version: 6.00 Build 0)  -->
<svg version="1.0" id="Layer_1" xmlns="http://www.w3.org/2000/svg" xmlns:xlink="http://www.w3.org/1999/xlink" x="0px" y="0px"
	 viewBox="0 0 300 300" style="enable-background:new 0 0 300 300;" xml:space="preserve">
<style type="text/css">
	.st0{fill-rule:evenodd;clip-rule:evenodd;fill:#4D5254;}
	.st1{fill-rule:evenodd;clip-rule:evenodd;fill:#FFFFFF;}
	.st2{fill-rule:evenodd;clip-rule:evenodd;fill:url(#SVGID_1_);}
</style>
<g>
	<g>
		<path class="st0" d="M148.9,6.1c76.3-0.4,138.5,62,138.9,139.2c0.4,68.5-48,125.9-112.2,138.2c-5.9,7.6-15.1,12.5-25.5,12.5
			c-10.3,0-19.4-4.8-25.3-12.3c-64.2-11.8-113-68.5-113.3-137C11.1,69.5,72.6,6.5,148.9,6.1z"/>
		<path class="st1" d="M148.9,12c73-0.4,132.4,59.3,132.8,133.3c0.3,63.7-43.3,117.3-102.1,131.2c1.6-3.9,2.5-8.1,2.5-12.6
			c0-6.3-1.8-12.2-5-17.2c41.4-12.4,71.6-52.1,71.4-99c-0.3-56.6-44.8-102.3-99.4-102S50.5,92.1,50.8,148.7
			c0.2,46.8,30.7,86.2,72.1,98.2c-3.1,4.9-4.9,10.8-4.9,17c0,4.6,1,8.9,2.7,12.8c-58.8-13.3-102.9-66.4-103.2-130
			C17.1,72.7,76,12.4,148.9,12z"/>
		<g>
			<path class="st1" d="M236.6,182.4c-10.5,29-34.2,51.4-63.4,59.3c-5.8-6-14-9.8-23.1-9.8c-9.2,0-17.4,3.8-23.3,10
				c-29.3-7.7-53-29.8-63.8-58.7c26.3-10.4,53.7-16.3,82-17c3.1-0.1,6.2-0.1,9.3,0C182.8,166.6,210.3,172,236.6,182.4L236.6,182.4z
				 M149.2,51.7c43.7-0.2,80.5,30.9,90.6,73c-28.4-11.9-58.2-18.3-89.1-18.8c-4-0.1-8,0-11.9,0.1c-27.1,0.9-53.4,6.3-78.6,15.9
				C71.2,81.6,106.8,51.9,149.2,51.7z"/>
			<linearGradient id="SVGID_1_" gradientUnits="userSpaceOnUse" x1="150.0253" y1="245.201" x2="150.0253" y2="45.9418">
				<stop  offset="0" style="stop-color:#0078AD"/>
				<stop  offset="0.39" style="stop-color:#0079AE"/>
				<stop  offset="0.76" style="stop-color:#0E8DBD"/>
				<stop  offset="0.92" style="stop-color:#33B8DD"/>
				<stop  offset="1" style="stop-color:#2FB9E0"/>
			</linearGradient>
			<path class="st2" d="M139.5,233.7v-67.3c1.8-0.1,3.7-0.2,5.5-0.2c3.1-0.1,6.2-0.1,9.3,0c2.2,0,4.3,0.1,6.5,0.2v67.4
				c-3.3-1.2-6.9-1.8-10.6-1.8C146.4,231.9,142.9,232.5,139.5,233.7L139.5,233.7z M236.6,182.4c-2.7,7.5-6.4,14.6-10.7,21.1v-25
				C229.5,179.7,233.1,181,236.6,182.4L236.6,182.4z M225.9,119.3V93c6.4,9.5,11.1,20.1,13.9,31.7
				C235.2,122.7,230.6,121,225.9,119.3L225.9,119.3z M204.3,226.4c-6.5,4.9-13.6,9-21.3,12v-70.1c7.2,1,14.3,2.3,21.3,3.9V226.4
				L204.3,226.4z M204.3,70.1v42.8c-7-1.7-14.1-3.2-21.3-4.3V58.1C190.6,61.1,197.8,65.2,204.3,70.1L204.3,70.1z M74.3,204.6
				c-4.6-6.6-8.4-13.8-11.2-21.5c3.7-1.5,7.5-2.8,11.2-4.1V204.6L74.3,204.6z M74.3,91.7v25.3c-4.7,1.5-9.4,3.1-14.1,4.9
				C63.2,111,68,100.8,74.3,91.7L74.3,91.7z M117.5,238.8c-7.6-2.9-14.7-6.9-21.3-11.6v-54.6c7-1.7,14.1-3.1,21.3-4.1V238.8
				L117.5,238.8z M117.5,57.6v50.1c-7.2,0.9-14.2,2.1-21.3,3.6V69.2C102.8,64.4,109.9,60.5,117.5,57.6L117.5,57.6z M160.8,52.3v53.9
				c-3.3-0.2-6.7-0.3-10-0.4c-3.7-0.1-7.5,0-11.2,0.1V52.2c3.2-0.4,6.4-0.6,9.7-0.6C153.1,51.6,157,51.9,160.8,52.3z"/>
			<path class="st1" d="M241.2,131.4c0.9,5.3,1.4,10.7,1.4,16.3c0.1,10.2-1.4,20-4.2,29.2c-26.9-10.6-54.9-16.1-84-16.5
				c-3.2-0.1-6.3,0-9.5,0c-28.9,0.7-56.9,6.7-83.7,17.3c-2.8-9.2-4.4-18.9-4.4-29c0-6.9,0.6-13.6,1.9-20
				c25.7-10.2,52.6-16.1,80.3-17c3.9-0.1,7.8-0.2,11.7-0.1C182.1,112.1,212.4,118.8,241.2,131.4z"/>
		</g>
		
			<ellipse transform="matrix(0.3827 -0.9239 0.9239 0.3827 -151.172 301.6602)" class="st1" cx="150.1" cy="264" rx="27.7" ry="27.7"/>
	</g>
	<g>
		<polygon class="st0" points="197,266.4 191.2,253.1 191.1,253.1 188.5,256 186.6,253.3 190.2,249.3 193.5,247.8 200.8,264.7 		"/>
		<polygon class="st0" points="82.8,255.7 90.6,243.5 90.5,243.4 86.7,242.9 87.8,239.8 93.2,240.5 96.2,242.4 86.3,258 		"/>
		<path class="st0" d="M208.9,259.8l-0.9-3.3c1.8-0.2,3.4-0.7,4.7-1.5c1-0.6,1.6-1.3,1.9-2c0.3-0.7,0.3-1.4-0.1-2
			c-0.4-0.7-1.1-1.1-2-1.1c-0.9,0-1.8,0.3-2.8,0.9l-1.7,1.1l-1.7-2.7l1.7-1c0.8-0.5,1.4-1.1,1.8-1.8c0.4-0.7,0.4-1.3,0-1.9
			c-0.3-0.5-0.8-0.8-1.4-0.8c-0.6,0-1.3,0.2-2.1,0.7c-1.2,0.8-2.2,1.8-3,3.2l-2.5-2.2c1-1.7,2.5-3.2,4.6-4.5
			c1.7-1.1,3.3-1.5,4.8-1.4c1.5,0.1,2.6,0.8,3.3,1.9c1.1,1.8,0.8,3.6-0.8,5.6l0,0c1.2-0.5,2.4-0.6,3.5-0.3c1.1,0.3,1.9,0.9,2.5,1.9
			c0.9,1.4,1,3,0.3,4.7c-0.7,1.7-2.1,3.2-4.2,4.4C212.7,259.1,210.7,259.8,208.9,259.8z"/>
		<path class="st0" d="M96,263.8l1.3-3.1c0.2,0.1,0.5,0.3,0.8,0.4c3.9,1.7,6.8,1.3,8.8-1.2l0,0c-1.2,0.5-2.6,0.4-4.2-0.3
			c-1.6-0.7-2.8-1.8-3.4-3.2c-0.7-1.4-0.7-3,0-4.5c0.7-1.7,2-2.9,3.8-3.5c1.8-0.6,3.7-0.5,5.7,0.3c2.2,0.9,3.6,2.3,4.2,4.2
			c0.6,1.9,0.5,3.9-0.4,6.1c-0.7,1.6-1.5,2.9-2.5,4c-1,1-2.1,1.8-3.3,2.3c-1.2,0.5-2.4,0.7-3.7,0.6c-1.3,0-2.6-0.3-4-0.7
			C98.4,264.8,97.5,264.5,96,263.8L96,263.8z M108.5,256.2c0.5-1.1,0.6-2,0.4-2.9c-0.2-0.9-0.7-1.5-1.6-1.8c-0.7-0.3-1.5-0.3-2.2,0
			c-0.7,0.3-1.3,0.9-1.6,1.8c-0.3,0.8-0.4,1.5-0.1,2.2c0.3,0.7,0.8,1.2,1.6,1.6c0.6,0.2,1.1,0.3,1.6,0.3c0.5,0,0.9-0.1,1.2-0.3
			C108,256.9,108.3,256.6,108.5,256.2z"/>
	</g>
	<g>
		<path class="st0" d="M169.6,145.3c0,3.4-1.3,6.1-3.4,8.1c-2.1,2-5.7,2.9-9.4,2.9h-14.6c-7.6,0-11.7-5.3-11.7-11.2v-3.3h13.5v1.6
			c0,2.7,2.5,3.3,4.7,3.3h3.6c1.8,0,4-0.6,4-2.4v-0.9c0-2.2-2.4-2.5-4-2.9l-12.4-2.5c-4.4-0.9-9.3-2.5-9.3-8.4v-3
			c0-4.4,1.7-6.8,4.2-8.8c2.7-2.2,5.8-2.2,9.1-2.2h14.2c6.6,0,10.6,5.9,10.6,10.3v2.9H155V127c0-2.2-1.4-2.8-3.3-2.8H148
			c-1.7,0-3.9,0.2-3.9,2.5v0.7c0,1.5,1,1.9,3.5,2.4L159,132c7,1.3,10.6,3.7,10.6,9.5V145.3z"/>
		<path class="st0" d="M215,153.7c-0.8,5-5,9.9-13.7,8.5l-15.5-2.5c-6.2-1-11.5-5.1-10.2-13l2.9-17.5c1.1-7,7-9.8,12.6-8.9l18.7,3.1
			c4.4,0.7,9.3,5.7,8.3,11.7l-0.8,4.9l-13.7-2.2l0.5-3c0.4-2.2,0.6-3.8-2.3-4.3l-5.4-0.9c-3-0.5-4,0.3-4.4,3.1l-2.2,13.3
			c-0.6,4-0.1,4.7,3.1,5.2l5,0.8c2.9,0.5,3.6-0.9,3.9-3l0.7-4.6l13.6,2.2L215,153.7z"/>
		<polygon class="st0" points="121.8,126.6 108.7,129.2 114.6,159.2 101.6,161.7 95.7,131.8 82.4,134.4 80.8,126.4 120.2,118.6 		
			"/>
	</g>
	<g>
		<path class="st0" d="M56.3,193.6c-0.1-0.6-0.3-1.4-0.6-2.4c-0.3-1-0.6-2.2-1.1-3.5c-0.5-1.5-1.1-2.8-1.6-4c-0.6-1.1-1.1-2-1.7-2.8
			c-0.6-0.7-1.2-1.3-1.8-1.8c-0.5-0.4-1.1-0.7-1.7-0.9c-0.6-0.2-1.3-0.3-1.9-0.3c-0.7,0-1.3,0.1-2,0.3c-0.7,0.3-1.4,0.6-1.9,1.1
			c-0.5,0.4-0.9,1-1.2,1.5c-0.3,0.6-0.5,1.2-0.7,1.8c-0.1,0.7-0.2,1.3-0.1,2l-0.1,0c-0.6-0.8-1.2-1.3-1.9-1.7
			c-0.7-0.4-1.3-0.6-2-0.7c-0.7-0.1-1.3,0-2,0.2c-0.7,0.3-1.3,0.6-1.8,1.1c-0.5,0.5-0.9,1-1.1,1.6c-0.3,0.6-0.4,1.2-0.5,1.8
			c-0.1,0.6-0.1,1.3-0.1,2c0.1,0.7,0.2,1.5,0.4,2.3c0.2,0.8,0.5,1.8,0.9,2.9c0.2,0.7,0.5,1.4,0.8,2c0.3,0.7,0.5,1.3,0.8,1.9
			c0.3,0.6,0.5,1.2,0.7,1.6c0.2,0.5,0.4,0.9,0.6,1.2L56.3,193.6L56.3,193.6z M36.3,194.8c-0.1-0.2-0.3-0.5-0.4-0.9
			c-0.2-0.4-0.4-0.9-0.6-1.5c-0.3-0.8-0.4-1.5-0.5-2.2c0-0.6,0.1-1.2,0.3-1.6c0.3-0.4,0.7-0.7,1.2-0.9c0.8-0.3,1.6-0.1,2.3,0.4
			c0.7,0.6,1.3,1.6,1.9,3.1l0.6,1.9L36.3,194.8L36.3,194.8z M44.9,191.8l-0.7-2c-0.2-0.7-0.4-1.3-0.5-2c-0.1-0.6-0.1-1.2,0-1.7
			c0.1-0.5,0.3-1,0.6-1.4c0.3-0.4,0.7-0.7,1.3-0.9c0.6-0.2,1.1-0.2,1.6-0.1c0.5,0.1,0.9,0.3,1.3,0.7c0.4,0.3,0.7,0.8,1,1.3
			c0.3,0.5,0.6,1.1,0.8,1.7c0.2,0.5,0.3,0.9,0.4,1.3c0.1,0.4,0.2,0.7,0.2,1L44.9,191.8z"/>
		<path class="st0" d="M41.8,160.9l5.9-2.8l-0.8-6l-22.1,11l0.9,7.3l24.1,4.8l-0.7-5.8l-6.4-1.1L41.8,160.9L41.8,160.9z M38.6,168
			l-5.1-1c-0.7-0.1-1.4-0.2-2.2-0.3c-0.7-0.1-1.5-0.2-2.2-0.3l0-0.1c0.6-0.3,1.3-0.6,2-0.9c0.7-0.3,1.4-0.6,2-0.9l4.7-2.3L38.6,168z
			"/>
		<path class="st0" d="M43.5,132.1c0.1,0.4,0.3,0.9,0.4,1.5c0.1,0.6,0.2,1.2,0.2,1.8c0,0.6,0,1.3,0,1.9c-0.1,1.3-0.4,2.5-0.8,3.5
			c-0.4,1-1,1.8-1.8,2.5c-0.7,0.7-1.6,1.1-2.5,1.4c-0.9,0.3-2,0.4-3.1,0.3c-1.2-0.1-2.3-0.4-3.2-0.9c-0.9-0.5-1.7-1.1-2.2-1.9
			c-0.6-0.8-1-1.7-1.3-2.7c-0.3-1-0.3-2.1-0.2-3.3c0.1-1.1,0.3-2.1,0.5-2.9c0.3-0.9,0.5-1.6,0.9-2.2l-4.2-1.5
			c-0.2,0.3-0.4,0.8-0.7,1.4c-0.2,0.6-0.4,1.4-0.6,2.2c-0.2,0.8-0.3,1.8-0.4,2.8c-0.1,1.6,0,3.1,0.2,4.5c0.3,1.4,0.7,2.7,1.3,3.9
			c0.6,1.2,1.4,2.2,2.3,3.1c0.9,0.9,2,1.6,3.3,2.2c1.3,0.5,2.6,0.9,4.2,1c1.7,0.1,3.2-0.1,4.7-0.5c1.5-0.5,2.8-1.2,3.9-2.3
			c1.1-1,2.1-2.4,2.8-4c0.7-1.6,1.1-3.5,1.3-5.7c0.1-1.1,0.1-2.1,0-3c0-0.9-0.1-1.7-0.3-2.3c-0.1-0.7-0.3-1.2-0.4-1.5L43.5,132.1
			L43.5,132.1z M23.4,135.2l-3.3-3.9l-0.3,3.8l1.7,2.1l0,0.1l-1.9,1.6l-0.3,3.8l3.8-3.3L23.4,135.2z"/>
		<path class="st0" d="M49.3,128.7l1.4-5.3l-7.3-2l-1.9-2.9l11.5-3.6l1.7-6.3l-15.4,5.2L32.2,103l-1.8,6.7l6,7.9
			c0.3,0.4,0.6,0.8,0.9,1.2c0.3,0.4,0.6,0.8,1,1.2l0,0.1l-9.9-2.7l-1.4,5.3L49.3,128.7z"/>
		<path class="st0" d="M56.6,92.2l6.5,1.1l2.9-5.4l-24.4-3.7L38,90.7l16.9,17.8l2.7-5.1l-4.6-4.6L56.6,92.2L56.6,92.2z M49.9,96.2
			l-3.6-3.7c-0.5-0.5-1-1-1.6-1.5c-0.6-0.5-1.1-1-1.6-1.5l0-0.1c0.7,0.1,1.4,0.3,2.2,0.4c0.7,0.2,1.5,0.3,2.2,0.4l5.2,0.9L49.9,96.2
			z"/>
		<polygon class="st0" points="74.3,77.9 78,73.8 64.1,61.2 68.9,55.9 65.6,52.9 52.4,67.4 55.7,70.4 60.4,65.2 		"/>
		<path class="st0" d="M79,41.9c-1.5,1.1-2.7,2.3-3.7,3.7c-0.9,1.4-1.5,2.8-1.8,4.4c-0.3,1.5-0.2,3.1,0.1,4.7
			c0.4,1.6,1.1,3.1,2.1,4.6c1,1.4,2.1,2.5,3.4,3.3c1.3,0.9,2.7,1.4,4.1,1.7c1.5,0.3,3,0.2,4.6-0.2c1.6-0.4,3.1-1.1,4.7-2.2
			c1.6-1.1,2.8-2.3,3.7-3.7c0.9-1.4,1.6-2.8,1.9-4.4c0.3-1.5,0.3-3.1-0.1-4.7C97.7,47.5,97,46,96,44.5c-1-1.4-2.1-2.5-3.4-3.4
			c-1.3-0.9-2.7-1.4-4.2-1.7c-1.5-0.3-3-0.2-4.6,0.2C82.2,40,80.6,40.8,79,41.9L79,41.9z M81.4,45.4c0.9-0.6,1.7-1,2.6-1.1
			c0.9-0.1,1.8-0.1,2.7,0.2c0.9,0.3,1.7,0.7,2.5,1.3c0.8,0.6,1.5,1.3,2.1,2.2c0.6,0.9,1.1,1.9,1.4,2.8c0.3,0.9,0.4,1.9,0.3,2.8
			c-0.1,0.9-0.3,1.7-0.8,2.5c-0.4,0.8-1.1,1.5-1.9,2.1c-0.8,0.6-1.7,0.9-2.6,1.1c-0.9,0.1-1.8,0.1-2.6-0.1c-0.9-0.2-1.7-0.7-2.5-1.2
			c-0.8-0.6-1.5-1.3-2.1-2.2c-0.6-0.9-1.1-1.8-1.4-2.8c-0.3-0.9-0.4-1.9-0.4-2.8c0.1-0.9,0.3-1.8,0.7-2.6
			C79.9,46.7,80.6,46,81.4,45.4z"/>
		<path class="st0" d="M105.3,53l5.1-2.1l-3.1-7.6c0.3-0.1,0.6-0.1,0.9-0.2c0.3-0.1,0.7-0.2,1.1-0.4c1.6-0.7,3-1.4,4.1-2.4
			c1.1-0.9,2-2,2.5-3.1c0.3-0.6,0.5-1.2,0.6-1.8c0.1-0.7,0.1-1.3,0-2c-0.1-0.7-0.3-1.4-0.6-2.1c-0.3-0.7-0.7-1.4-1.2-1.9
			c-0.5-0.6-1-1-1.6-1.4c-0.6-0.4-1.2-0.6-1.8-0.8c-1-0.3-2.1-0.3-3.3-0.2c-1.2,0.2-2.7,0.6-4.2,1.2c-1.7,0.7-3.1,1.3-4.3,1.9
			c-1.2,0.6-2.1,1.1-2.8,1.6L105.3,53L105.3,53z M103.1,33.2c0.2-0.1,0.5-0.3,0.8-0.5c0.4-0.2,0.8-0.4,1.4-0.6
			c0.9-0.4,1.7-0.5,2.4-0.6c0.7,0,1.3,0.1,1.9,0.5c0.5,0.3,0.9,0.8,1.2,1.5c0.3,0.7,0.4,1.5,0.2,2.1c-0.2,0.7-0.5,1.3-1.1,1.8
			c-0.6,0.5-1.3,1-2.2,1.4c-0.4,0.2-0.8,0.3-1.1,0.4c-0.3,0.1-0.6,0.2-0.9,0.2L103.1,33.2z"/>
		<path class="st0" d="M132,19.9c-1.8,0.3-3.5,0.8-4.9,1.6c-1.4,0.8-2.6,1.8-3.6,3.1c-0.9,1.2-1.6,2.6-2,4.2c-0.4,1.6-0.5,3.2-0.2,5
			c0.2,1.7,0.7,3.2,1.5,4.5c0.8,1.3,1.7,2.5,2.9,3.4c1.2,0.9,2.6,1.6,4.1,1.9c1.6,0.4,3.3,0.4,5.1,0.2c1.9-0.3,3.6-0.8,5-1.6
			c1.5-0.8,2.7-1.8,3.6-3c1-1.2,1.6-2.6,2-4.2c0.4-1.6,0.5-3.2,0.2-5.1c-0.2-1.7-0.7-3.2-1.5-4.6c-0.8-1.4-1.7-2.5-2.9-3.4
			c-1.2-0.9-2.6-1.6-4.2-1.9C135.6,19.7,133.9,19.6,132,19.9L132,19.9z M132.5,24.1c1-0.1,2-0.1,2.8,0.2c0.9,0.3,1.6,0.7,2.3,1.4
			c0.7,0.6,1.2,1.4,1.6,2.3c0.4,0.9,0.7,1.9,0.9,2.9c0.2,1.1,0.2,2.2,0,3.1c-0.2,1-0.5,1.9-1,2.6c-0.5,0.8-1.1,1.4-1.8,1.9
			c-0.8,0.5-1.6,0.8-2.7,1c-1,0.1-1.9,0.1-2.8-0.2c-0.9-0.3-1.6-0.7-2.3-1.3c-0.7-0.6-1.2-1.4-1.7-2.2c-0.4-0.9-0.7-1.9-0.9-2.9
			c-0.2-1.1-0.1-2.1,0-3.1c0.2-1,0.5-1.9,0.9-2.7c0.5-0.8,1.1-1.4,1.8-1.9C130.5,24.6,131.4,24.3,132.5,24.1z"/>
		<polygon class="st0" points="150.4,41.9 166.2,43 166.5,38.4 156.2,37.7 157.5,19 152,18.6 		"/>
		<path class="st0" d="M183.7,40.9l0.2,6.5l5.8,1.7l-1.4-24.6l-7.1-2l-13.9,20.2l5.6,1.6l3.5-5.5L183.7,40.9L183.7,40.9z
			 M178.4,35.2l2.9-4.3c0.4-0.6,0.8-1.2,1.1-1.9c0.4-0.7,0.7-1.3,1.1-1.9l0.1,0c0,0.7,0,1.4,0,2.2c0,0.8,0,1.5,0.1,2.2l0.2,5.2
			L178.4,35.2z"/>
		<polygon class="st0" points="199.5,56.2 218.3,38.1 215.1,36.2 196.3,54.3 		"/>
		<polygon class="st0" points="216.4,66.3 220.4,70 233.1,56.1 238.3,60.8 241.4,57.5 226.8,44.3 223.8,47.6 229,52.4 		"/>
		<path class="st0" d="M252.2,71c-1.1-1.5-2.3-2.7-3.7-3.7c-1.4-0.9-2.8-1.5-4.4-1.8c-1.5-0.3-3.1-0.2-4.7,0.1
			c-1.6,0.4-3.1,1.1-4.6,2.1c-1.4,1-2.5,2.1-3.3,3.4c-0.9,1.3-1.4,2.7-1.7,4.1c-0.3,1.5-0.2,3,0.2,4.6c0.4,1.6,1.1,3.1,2.2,4.7
			c1.1,1.6,2.3,2.8,3.7,3.7c1.4,0.9,2.8,1.6,4.4,1.9c1.5,0.3,3.1,0.3,4.7-0.1c1.6-0.4,3.1-1.1,4.6-2.1c1.4-1,2.5-2.1,3.4-3.4
			c0.9-1.3,1.4-2.7,1.7-4.2c0.3-1.5,0.2-3-0.2-4.6C254.1,74.1,253.3,72.6,252.2,71L252.2,71z M248.7,73.3c0.6,0.9,1,1.7,1.1,2.6
			c0.1,0.9,0.1,1.8-0.2,2.7c-0.3,0.9-0.7,1.7-1.3,2.5c-0.6,0.8-1.3,1.5-2.2,2.1c-0.9,0.6-1.9,1.1-2.8,1.4c-0.9,0.3-1.9,0.4-2.8,0.3
			c-0.9-0.1-1.7-0.3-2.5-0.8c-0.8-0.4-1.5-1.1-2.1-1.9c-0.6-0.8-0.9-1.7-1.1-2.6c-0.1-0.9-0.1-1.8,0.1-2.6c0.2-0.9,0.7-1.7,1.2-2.5
			c0.6-0.8,1.3-1.5,2.2-2.1c0.9-0.6,1.8-1.1,2.8-1.4c0.9-0.3,1.9-0.4,2.8-0.4c0.9,0.1,1.8,0.3,2.6,0.7
			C247.4,71.9,248.1,72.5,248.7,73.3z"/>
		<path class="st0" d="M241,97.3l2.1,5l7.6-3.2c0.1,0.3,0.1,0.6,0.2,0.9c0.1,0.3,0.2,0.7,0.4,1.1c0.7,1.6,1.5,3,2.4,4.1
			c0.9,1.1,2,2,3.2,2.5c0.6,0.3,1.2,0.5,1.8,0.6c0.7,0.1,1.3,0.1,2,0c0.7-0.1,1.4-0.3,2.1-0.6c0.7-0.3,1.4-0.7,1.9-1.2
			c0.6-0.5,1-1,1.4-1.6c0.4-0.6,0.6-1.2,0.8-1.8c0.3-1,0.3-2.1,0.1-3.3c-0.2-1.2-0.6-2.7-1.2-4.2c-0.7-1.7-1.4-3.1-1.9-4.3
			c-0.6-1.2-1.1-2.1-1.6-2.8L241,97.3L241,97.3z M260.9,95c0.1,0.2,0.3,0.5,0.5,0.8c0.2,0.4,0.4,0.8,0.7,1.4
			c0.4,0.9,0.6,1.7,0.6,2.4c0,0.7-0.1,1.3-0.4,1.9c-0.3,0.5-0.8,0.9-1.5,1.2c-0.7,0.3-1.5,0.4-2.1,0.2c-0.7-0.2-1.3-0.5-1.8-1.1
			c-0.5-0.6-1-1.3-1.4-2.2c-0.2-0.4-0.3-0.8-0.4-1.1c-0.1-0.3-0.2-0.6-0.2-0.9L260.9,95z"/>
		<path class="st0" d="M274,123.7c-0.3-1.8-0.9-3.5-1.8-4.9c-0.9-1.4-1.9-2.6-3.2-3.5c-1.3-0.9-2.7-1.5-4.3-1.9
			c-1.6-0.3-3.3-0.3-5,0c-1.7,0.3-3.1,0.8-4.5,1.7c-1.3,0.8-2.4,1.8-3.3,3c-0.9,1.2-1.5,2.6-1.8,4.2c-0.3,1.6-0.3,3.3,0,5.1
			c0.3,1.9,0.9,3.5,1.8,5c0.8,1.4,1.9,2.6,3.2,3.5c1.3,0.9,2.7,1.5,4.3,1.9c1.6,0.3,3.3,0.3,5.1,0c1.7-0.3,3.2-0.9,4.5-1.7
			c1.3-0.8,2.4-1.8,3.3-3.1c0.9-1.2,1.5-2.7,1.8-4.3C274.3,127.4,274.3,125.6,274,123.7L274,123.7z M269.8,124.4
			c0.2,1,0.1,2-0.1,2.8c-0.3,0.9-0.7,1.7-1.3,2.3c-0.6,0.7-1.3,1.3-2.2,1.7c-0.9,0.5-1.8,0.8-2.9,1c-1.1,0.2-2.1,0.2-3.1,0.1
			c-1-0.1-1.9-0.4-2.7-0.9c-0.8-0.4-1.4-1-2-1.8c-0.5-0.7-0.9-1.6-1.1-2.6c-0.2-1-0.1-1.9,0.1-2.8c0.2-0.9,0.7-1.6,1.3-2.3
			c0.6-0.7,1.3-1.3,2.2-1.7c0.9-0.5,1.8-0.8,2.9-1c1.1-0.2,2.1-0.2,3.1-0.1c1,0.1,1.9,0.4,2.7,0.8c0.8,0.4,1.5,1,2,1.8
			C269.2,122.5,269.6,123.4,269.8,124.4z"/>
		<polygon class="st0" points="252.6,142.7 252,158.6 256.6,158.8 257,148.4 275.6,149.1 275.8,143.6 		"/>
		<path class="st0" d="M249.9,169.3l9.8,1.8l11.5,10.8l1.2-6.3l-5.1-3.7c-0.5-0.3-0.9-0.7-1.4-1c-0.4-0.3-0.8-0.6-1.2-0.9
			c-0.4-0.3-0.8-0.6-1.2-0.8l0-0.1c0.5-0.1,1-0.2,1.5-0.3c0.5-0.1,0.9-0.2,1.4-0.4c0.5-0.1,1-0.3,1.7-0.4l6-1.5l1.2-6.3l-14.8,5.4
			l-9.6-1.8L249.9,169.3z"/>
		<path class="st0" d="M249.9,190.7l-6.5-0.3l-2.1,5.7l24.7,0.5l2.6-6.9l-19.1-15.4l-2,5.4l5.2,3.9L249.9,190.7L249.9,190.7z
			 M256,185.8l4.1,3.2c0.6,0.4,1.2,0.9,1.8,1.3c0.6,0.4,1.2,0.8,1.8,1.3l0,0.1c-0.7,0-1.4-0.1-2.2-0.1c-0.8-0.1-1.5-0.1-2.2-0.1
			l-5.2-0.2L256,185.8z"/>
	</g>
	<path class="st0" d="M145.9,262.6c0.4,0.5,0.9,0.9,1.3,1c1.2,0.3,2.6,0.2,3.8,0.3c0.8,0.1,1.6,0.4,2.1,0.7c0.6,0.4,1.1,1.2,1.4,2
		c0.4,1.1,0.6,2.5,1.5,3c0.1-0.1,0.1-0.2,0.2-0.3c0-0.1,0-0.4,0-0.5c0-0.2,0.1,0.1,0.2,0.3c0,0.1,0,0.3-0.1,0.4
		c-0.1,0.1-0.2,0.3-0.3,0.4c-0.8,1.3-1.5,2.1-1.5,3.1c-0.1,1.6,0.3,2.6,0.2,2.7c-0.4,0.5-0.8,0.9-1.9,1c0.2,0.2,0.5,0.4,1.3,0.3
		c0.2,0.3,0.5,0.2,0.7,0.2c0.3-0.3,0.7-0.6,0.9-0.8c0.1-0.1,0.2,0.1,0.1,0.2c-0.3,0.2-1,0.9-1.1,1c-0.6,0.4-1.3,1.1-1.4,1.6
		c0.3-0.1,0.7-0.5,1-0.6c-0.9,1.8-0.6,3-1.8,4.3c2.1-0.1,2-2.3,2.9-3.4c0,0.6-0.4,1.9,0.4,2.3c0.1-1,0.6-1.6,1.1-2.1
		c0.3-0.3,0.7-0.7,0.8-1.2c0.1-0.2,0.1-0.5-0.1-0.9c0.5,0.3,0.8,1.5-0.2,2.8c1-0.2,1.2-1.2,1.5-1.8c0.1,0.3,0.2,0.4,0.3,0.5
		c0.3,0.1,0.7-1.3,0.5-2.5c0.3,0.1,0.6,0.5,1,1.1c0.2-0.8,0.6-0.7,0.8-1.6c0.8,0.2,1.7-0.2,2.4-1.3c0.5-0.1-0.1,0.9-1.2,1.5
		c-0.4,0.4-0.6,1-0.7,1.5c-0.1,0.7,0.3,1.4,0,1.9c-0.6,0.8-1.9,1.4-1.9,2.8c-0.9,0.3-3.3-0.3-3.2,0.9c0,0.7,0.5,1.5,1.1,1.5
		c0.1-0.3,0.2-0.5,0.5-0.7c0.3-0.2,0.8-0.1,1-0.3c0.2-0.2,0.4-0.5,0.6-0.7c0.1-0.2,0.2-0.4,0.4-0.5c0.1-0.1,0.2,0.1,0.1,0.2
		c-0.1,0.1-0.2,0.3-0.3,0.4c-0.2,0.3-0.4,0.6-0.6,0.8c-0.3,0.2-0.7,0.1-1,0.3c-0.2,0.1-0.3,0.3-0.4,0.5l0,0c0,0.1-0.1,0.1-0.1,0.2
		l0,0c0.2-0.2,0.4-0.4,0.7-0.2c0.3,0.2,0.2,0.9,0,1.2c-0.1,0.1-0.2,0.2-0.2,0.2c0.3,0.2,0.6,0.3,0.9,0.2c0.2-0.1,0.7-0.2,0.9-1l0,0
		c0-0.3,0.1-0.6,0.4-0.8c0.4-0.3,0.8-0.7,1.1-1.1c0.1-0.2,0.1-0.4,0.2-0.6c0-0.1,0.2-0.1,0.2,0c0,0.3,0,0.5-0.2,0.7
		c-0.3,0.5-0.7,0.8-1.1,1.2c-0.3,0.3-0.4,0.5-0.3,0.8l0,0c0.4-0.4,1.4-0.4,1.1,0.2c-0.1,0.1-0.1,0.3-0.1,0.4
		c0.1,0.1,0.3,0.1,0.5,0.1c0.4,0,1.2-0.3,0.3-1.1c1,0.2,1.6-0.7,1.7-1.7c-0.2-0.4,0-0.5,0.1-0.4c0.1,0.3,0.5,1,1.5,0.2l0,0
		c-0.1,0-0.1-0.1-0.1-0.2l0,0c0-0.1,0-0.1,0-0.2c0-0.2,0.1-0.3,0.4-0.4c0.1-0.1,0.3-0.1,0.4-0.1c0,0,0,0,0.1,0
		c0.2-0.3,0.1-0.8,0-0.9c-0.1-0.2-0.7,0-1.2,0c-0.3,0-0.6-0.1-0.7-0.3c0-0.3,0.5-0.9,0.8-1c0.5-0.3,1.1,0,1.4-0.3
		c0.3-0.3,0.4-0.7,0.2-1.3c0.2-0.1,0.8-0.2,1-0.2c-0.4-0.5-0.7-0.8-0.8-1.3c0.8,0.2,1.6,0.3,2.2,0.2c-0.5-0.4-0.7-1-0.8-1.9
		c0.8-0.1,1.5,0.7,2.5-0.4c-0.4,0-0.7,0-0.9-0.1c-0.6-0.4-0.3-1.2-1-1.7c0.9,0.1,1.5,0.1,2.3-0.5c-0.7-0.2-1.4-0.5-1.6-0.9
		c0.8-0.2,1.4-0.7,1.5-1.1c-2.1,0.3-1.7-0.7-2.3-0.7c0.8-0.3,1-1.2,0.7-1.9c-0.7,1.4-1.9,0.9-2.9,1c-0.7,0.1-1.2,0.7-1.5,1.2
		c-1-0.2-1.5-0.3-2.4-0.3c-0.5,0-1.4,0.2-1.7,0.6c-0.2,0.2-0.5,0.1-0.3-0.2c0.8-0.8,0.4-2.4-0.2-2.7c1.3,0.1,1.9,0.1,2.8-0.2
		c0.7-0.2,1.4-0.7,2-1.2c0.5-0.4,0.8-0.7,1.3-0.9c0.2-0.1,0.5,0,0.8,0.1c0-0.3,0-0.5,0-0.7c0.4-0.1,0.5-0.1,1,0.1
		c0-0.3,0-0.4-0.1-0.6c0.3-0.1,0.6,0,1.1,0.1c-0.2-0.3-0.4-0.9-1.4-1c0.1-0.2,0.2-0.4,0.4-0.6c-0.4-0.1-0.8,0.1-0.9,0.3
		c0,0.1-0.3,0.1-0.2,0c0.2-0.4,0.5-1,0.5-1.6c0.1-1.5-0.6-3.5-1.7-4.7c-0.5-0.6-1.1-1.1-1.5-1.6c-1.3-1.4-2.4-2.9-2.4-4.7
		c0-1.8,1.2-2.9,2.5-3.1c2-0.3,3.9,1.3,3.9,2.3c0,0.2,0,0.3-0.1,0.1c-0.1-0.2-0.2-0.5-0.3-0.6c-0.2-0.2-0.4,0.1-0.4,0.5
		c-0.1,0.6,0,1.6-0.2,2.1c-0.2,0.6-0.7,0.7-1.4,0.7c0.9,0.7,1.5,0.3,1.7,0.3c0.1,0.2,0,0.4,0,0.6c0.4,0,1-0.2,1.5-0.9
		c0.2,1.1-0.8,1.8-0.9,2.4c-0.2,0.5,0.1,1.4,0,1.9c0.9-0.7,0.9-0.8,1.1-1.8c0.3,0.4,0.4,0.8,0.2,1.6c-0.2,0.8-0.6,1.4-0.7,2.1
		c0,0.5,0.2,1.1,0.6,1.4c-0.1-0.9,0-1.6,0.4-2.2c0.2-0.4,0.4-0.7,0.6-0.9c0.1-0.2,0.3-0.4,0.4-0.7c0.1-0.3,0.3-0.2,0.2,0
		c-0.4,1-0.4,1.6-0.3,2.3c0.2,1.5,1.3,2.1,2.1,2.1c0.4,0,1.1-0.1,1.6-0.9c-0.5,0.1-1,0.1-1.2,0c-1.2-0.4-0.7-2.2-0.3-3.3
		c0.4-0.3-0.2,0.7,0.6,1c-0.1-1.3,0.6-1.7,0.5-2.5c0-1.1-0.6-1.9-1-2.5l0,0.2c-0.5,0-1-0.3-1.4-1.4c0-0.1,0.2-0.2,0.3,0
		c0.2,0.4,0.3,0.6,0.5,0.8c0.2,0.2,0.5,0.3,0.5,0.3c0-0.1,0-0.2,0.1-0.4c0.1,0.1,0.2,0.2,0.4,0.2c0.5,0.2,1.2,0.1,1.6-0.1
		c-0.8-0.4-0.7-1-1.9-1.5c0.2,0,0.5-0.1,0.7-0.2c-0.4-0.3-0.7-0.7-1-1.1c-0.6-0.7-1-1.3-1.7-1.4c-0.4,0-0.8-0.2-1.3,0.4
		c-1.2-2-3-2.6-4.1-2.6c-3.2-0.1-4.8,2.8-4.8,4.6c0,1.1,0.2,2.1,0.9,3.3c0.7,1.2,2.1,2.4,3,3.4c1,1.2,1.6,2.9,1.4,4.5
		c-0.2,1.6-1.8,5-5.7,4.4c-0.6-2-1.3-3.4-2.2-4.5c-0.7-0.8-2-1.8-2.6-2.9c-0.2-0.4-0.4-0.9-0.5-1.4c-0.2-0.3-0.4-0.6-0.6-0.8
		c-0.3-0.3-0.7-0.3-0.9-0.7c0.3,0.7,0.7,1.3,1.1,1.8l0.4,0.5l-0.6-0.2c-0.4-0.1-0.7-0.3-0.9-0.5c0.6,1.3,0.8,2.9-0.3,4.1l-0.4,0.5
		l0.1-0.6c0.1-0.8-0.1-1.6-0.5-2.2c-0.1-0.1-0.2-0.3-0.3-0.4c0,0.2,0,0.4-0.1,0.7l-0.1,0.3l-0.2-0.2c-0.3-0.3-0.6-0.7-0.8-1
		c0,0.2,0.1,0.4,0.1,0.6c0.1,0.5,0.1,1.1,0,1.5c-0.3,0.8-1,1.4-1.8,1.6l-0.5,0.1l0.3-0.4c0.5-0.8,0.9-1.6,0.6-2.4
		c0,0.3-0.1,0.5-0.3,0.8l-0.2,0.3l-0.1-0.4c-0.1-0.3-0.4-0.6-0.5-0.9c0,0.1,0,0.2,0,0.3c-0.1,1-1.2,0.9-0.8,2.3l0.1,0.5l-0.4-0.3
		c-0.6-0.5-0.8-1.4-0.7-2.1c0,0,0,0,0,0c-0.1,0.1-0.1,0.2-0.2,0.3c-0.1,0.6,0.1,1.2,0,1.8l-0.1,0.7l-0.1-0.3
		C145.9,262.5,145.9,262.5,145.9,262.6L145.9,262.6z M141.3,245.1c0,1.1,0.8,1.4,1.7,1.4c1.1,0,1.8-0.6,3.8-0.6c0,0,0,0,0,0
		c0.2,0.3,0.4,0.4,0.7,0.5c0-0.4-0.1-0.8-0.1-1.2l0,0c0.2,0.1,0.4,0.2,0.6,0.3c0.2-0.3,0.3-0.5,0.4-0.8c0.2-0.1,0.4-0.1,0.5-0.1
		c0,0,0.1,0,0.1,0c0.2,0.1,0.2,0.5,0.1,0.7c0,0.1,0,0.2,0,0.4c0,0.3,0.1,0.8,0,1.1c-0.2,0.4-0.9-0.4-1.1-0.6L148,246l-0.1,0.3
		c-0.1,0.3-0.4,0.6-0.7,0.6c-0.2,0-0.4,0-0.6,0c0-0.2,0-0.3,0-0.5c-1.6,0-2.3,0.7-3.6,0.8C141.7,247.3,140.8,246.7,141.3,245.1
		L141.3,245.1z M147.2,246.1c-0.3-0.1-0.4-0.4-0.5-0.8c0.1,0,0.3,0,0.4-0.1C147.2,245.5,147.2,245.8,147.2,246.1L147.2,246.1z
		 M147.6,245.1c0.1,0.1,0.2,0.1,0.3,0.2c0.1-0.1,0.2-0.3,0.2-0.4C148,244.9,147.8,245,147.6,245.1L147.6,245.1z M140.9,251.9
		c-1-0.6-1.8-0.9-2.5-0.9c-2.2-0.1-3.2,1.6-5.3,1.4c-0.4,0-0.8-0.7-1.3-0.7c-0.4,0-1.1,0.2-1.4,0c-0.7-0.5-1.3-1-2.1-1.2
		c-0.4-0.1-0.6,0.1-1,0.2c-0.2,0.1-0.4,0-0.7,0.1c-0.2,0-0.1,0.3-0.2,0.4c0,0,0,0,0,0.1c0.1,0.1,0.1,0.2,0.1,0.3
		c0,0.2,0,0.3-0.1,0.4c0,0.1,0,0.2,0,0.3c0.1,0,0.3,0,0.4,0c0.3,0,0.6-0.1,0.9-0.3c0.2-0.1,0.4,0,0.5,0.2c0.3,0,0.6,0,1,0.1l0.1,0
		l0,0.1c-0.1,0.5-0.3,1-0.8,1.2c0,0,0,0.1,0,0.1c0.2-0.1,0.3-0.1,0.6-0.1l0.1,0l0,0.1c0,0.3,0.1,0.7-0.2,0.9c0,0.1-0.1,0.2-0.2,0.4
		c0.1,0,0.3-0.1,0.4-0.1l0.1,0l0,0.1c0,0.2,0,0.5-0.2,0.6c0,0.2-0.2,0.4-0.5,0.6c0.1,0,0.2-0.1,0.3-0.1c0.9-0.3,1.4-0.8,2.2-1
		c0.2-0.1,0.6-0.1,0.9,0c0.2,0,0.2,0.2,0.1,0.3c-0.1,0.2-0.5,0.3-0.6,0.5c0.7,0,1,0,1.7,0c0.1,0,0.2-0.2,0.4-0.3
		c0.2-0.1,0.4,0,0.2,0.2c-0.2,0.3-0.6,0.5-0.4,0.9c0.3,0,0.4-0.2,0.6-0.4c0.3-0.2,0.8-0.2,1.2,0c0.1,0,0.1,0.1,0,0.2
		c-0.2,0.1-0.4,0.3-0.6,0.4c-0.3,0.2-0.6,0.5-0.7,0.7c0.5,0,1.1,0,1.8,0c0.3,0,0.5,0,0.7-0.2c0.1-0.1,0.2-0.2,0.3-0.4
		c0.1-0.1,0.2,0,0.2,0.1c-0.4,0.6-0.8,1.2-1.2,1.8c0.4,0,0.7,0,1.1-0.1c0.4-0.1,0.6-0.2,0.8-0.4c0.2-0.2,0.3-0.4,0.4-0.6
		c0.1-0.1,0.2,0,0.1,0.1c-0.2,0.2-0.3,0.4-0.4,0.6l0,0c-0.4,0.5-0.3,0.6-0.7,1.1c0.9,0.1,1.2,0,1.6-0.4c0.2-0.2,0.3-0.4,0.5-0.7
		c0.1-0.1,0.2,0,0.2,0.1c-0.1,0.2-0.2,0.3-0.3,0.5c0.5,0.1,1-0.4,1.5-0.4c0.1,0,0.2,0,0.3,0c0.3-0.5,0.6-0.9,1.1-1.1l0.1-0.2
		c0-0.1,0-0.3,0-0.4c-0.4,0.5-0.8,0.9-1.4,1c-0.4,0.1-1.1,0-1.5-0.2l-0.7-0.3l0.7-0.1c1.2-0.1,1-0.8,1.5-1.7
		c0.3-0.5,0.9-1.1,1.4-1.5l0-0.1c0-0.2,0-0.3,0-0.5c-0.3,0.1-0.6,0.3-0.8,0.4c-0.2,0.1-0.5,0.3-0.7,0.4c-0.3,0.1-0.6,0.1-0.9,0.1
		l-0.3-0.1l0.3-0.2c0.2-0.2,0.5-0.4,0.7-0.7c0.1-0.2,0.3-0.3,0.4-0.5c0.1-0.1,0.2-0.2,0.3-0.3c-0.1,0-0.2,0-0.3,0l-0.6-0.1l0.6-0.3
		C140.5,252.4,140.6,252.1,140.9,251.9L140.9,251.9z M126.2,251.6c0-0.2-0.1-0.3-0.2-0.2c-0.1,0-0.3,0.1-0.4,0.3
		c-0.1,0.2-0.1,0.5-0.1,0.8c0.3-0.4,0.4-0.4,0.6-0.5C126.2,251.8,126.2,251.7,126.2,251.6L126.2,251.6z M128.3,255.2
		c0.1,0.2,0.3,0.3,0.5,0.3c-0.1,0.2-0.6,0.6-0.8,0.7c-0.8,0.1-1.2-0.1-1.1-0.7c0.4,0,0.7,0.1,1.1-0.1
		C128.1,255.4,128.2,255.3,128.3,255.2L128.3,255.2z M128.9,255.3c-0.1,0-0.3-0.1-0.4-0.2c0.1-0.1,0.4-0.1,0.5-0.2
		C129.1,255.1,129,255.3,128.9,255.3L128.9,255.3L128.9,255.3z M128.2,254c0,0.1,0,0.2,0,0.4c0,0.2,0.3,0.2,0.4,0.2
		c-0.1,0.3-0.5,0.6-0.7,0.7c-0.5,0.2-0.9,0.1-1.4,0c-0.4-0.2-0.5-0.9-0.3-1.2c0.6,0,1.2,0.1,1.7,0C128.1,254,128.1,254,128.2,254
		L128.2,254z M128.8,254.3L128.8,254.3c-0.1,0-0.4,0.1-0.4,0c0-0.1,0-0.3,0-0.5c0.2-0.1,0.3-0.1,0.5-0.1
		C128.9,253.9,128.9,254.2,128.8,254.3L128.8,254.3z M126.1,252.4c0.2,0.1,0.4,0.1,0.6,0.1c0.3,0,0.7-0.2,1-0.3c0.1,0,0.1,0,0.2,0
		l0,0c-0.2,0.4-0.3,0.8-0.2,1.2c0,0.2,0.3,0.2,0.5,0.2c0,0.1,0,0.2-0.2,0.2c-0.5,0.1-1.1,0.1-1.6,0
		C126,253.4,125.9,252.6,126.1,252.4L126.1,252.4z M128.3,253.4L128.3,253.4c-0.1,0-0.4,0.1-0.4,0c-0.1-0.3,0-0.7,0.1-1l0,0
		c0.3,0,0.6,0,0.9,0.1C128.8,252.9,128.7,253.2,128.3,253.4L128.3,253.4z M143,261.5c0-0.1,0-1,0-1.1c0-0.2,0.2-0.2,0.2,0
		c0,0.1,0,1.1,0,1.2C143.2,261.6,143,261.6,143,261.5L143,261.5z M142.5,261.6c0-0.1,0-0.8,0-0.9c0-0.2,0.2-0.2,0.2,0
		c0,0.1,0,0.8,0,0.9C142.7,261.7,142.5,261.7,142.5,261.6L142.5,261.6z M141.9,261.8c0-0.1,0-0.7,0-0.8c0-0.2,0.2-0.2,0.2,0
		c0,0.1,0,0.8,0,0.9C142.1,261.9,141.9,261.9,141.9,261.8L141.9,261.8z M141.4,261.9c0-0.1,0-0.4,0-0.5c0-0.2,0.2-0.2,0.2,0
		c0,0.1,0,0.4,0,0.5C141.6,262.1,141.4,262.1,141.4,261.9L141.4,261.9z M141,261.8c0-0.1,0-0.2,0-0.3c0-0.2,0.2-0.2,0.2,0
		c0,0.1,0,0.3,0,0.4C141.1,262,141,262,141,261.8L141,261.8z M138.9,261.3c0,0.1,0,0.2,0,0.3c0,0.2-0.2,0.2-0.2,0c0-0.1,0-0.3,0-0.4
		C138.7,261.1,138.9,261.1,138.9,261.3L138.9,261.3z M138.5,261.3c0,0.1,0,0.2,0,0.3c0,0.2-0.2,0.2-0.2,0c0-0.1,0-0.3,0-0.4
		C138.3,261.1,138.5,261.1,138.5,261.3L138.5,261.3z M137.6,261.6c0,0.1,0,0.1,0,0.2c0,0.2-0.2,0.2-0.2,0c0-0.1,0-0.2,0-0.3
		C137.5,261.4,137.6,261.4,137.6,261.6L137.6,261.6z M140.5,261.8c0-0.1,0-0.3,0-0.4c0-0.2,0.2-0.2,0.2,0c0,0.1,0,0.3,0,0.4
		C140.7,262,140.5,262,140.5,261.8L140.5,261.8z M139.8,261.6c0-0.1,0-0.2,0.1-0.3c0-0.2,0.2-0.1,0.2,0c0,0.1-0.1,0.2-0.1,0.3
		C140,261.8,139.8,261.7,139.8,261.6L139.8,261.6z M166.6,270.9c0.9,0.1,1.2,1.5,1.2,2.2c0,0.2-0.2,0.2-0.2,0c0-0.6-0.3-2-1-2.1
		C166.4,271.1,166.4,270.9,166.6,270.9L166.6,270.9z M166.8,272c0.2,0.3,0.4,0.6,0.5,1c0.1,0.1-0.1,0.2-0.2,0.1
		c-0.1-0.4-0.3-0.6-0.5-1C166.6,272,166.7,271.9,166.8,272L166.8,272z M164.6,277.3c0-0.3,0-0.6,0-1c0-0.2,0.2-0.2,0.2,0
		c0,0.3,0,0.6,0,0.9C164.8,277.4,164.6,277.5,164.6,277.3L164.6,277.3z M164.3,277.9c-0.1-0.4-0.2-0.8-0.2-1.2c0-0.2,0.2-0.2,0.2,0
		c0,0.3,0,0.8,0.2,1.1C164.5,278,164.3,278,164.3,277.9L164.3,277.9z M164.1,278.6c-0.2-0.3-0.2-0.5-0.2-0.8c0-0.2,0.2-0.1,0.2,0.1
		c-0.1,0.3,0,0.5,0.1,0.7C164.4,278.6,164.2,278.7,164.1,278.6L164.1,278.6z M164,279.1c-0.2-0.2-0.3-0.3-0.3-0.6
		c0-0.2,0.2-0.2,0.2,0c0,0.2,0.1,0.3,0.2,0.4C164.2,279,164.1,279.2,164,279.1L164,279.1z M163.5,279.9c-0.1-0.2-0.1-0.4-0.2-0.6
		c0-0.2,0.2-0.2,0.2,0c0,0.2,0.1,0.4,0.1,0.5C163.7,279.9,163.5,280,163.5,279.9L163.5,279.9z M150.4,262.6c0.3-0.1,0.5-0.2,0.7-0.4
		c0.1-0.1,0.2,0,0.1,0.1c-0.2,0.2-0.5,0.4-0.8,0.4C150.3,262.9,150.3,262.7,150.4,262.6L150.4,262.6z M151.1,263.1
		c0.3-0.1,0.6-0.2,0.8-0.5c0.1-0.1,0.2,0,0.1,0.1c-0.2,0.3-0.6,0.5-0.9,0.5C151,263.3,150.9,263.1,151.1,263.1L151.1,263.1z
		 M152,263.2c0.3-0.1,0.5-0.2,0.7-0.4c0.1-0.1,0.2,0,0.1,0.1c-0.2,0.2-0.5,0.4-0.8,0.4C151.9,263.4,151.9,263.3,152,263.2L152,263.2
		z M152.8,263.5c0.3-0.1,0.5-0.2,0.7-0.5c0.1-0.1,0.2,0,0.2,0.1c-0.2,0.3-0.5,0.5-0.8,0.6C152.7,263.8,152.6,263.6,152.8,263.5
		L152.8,263.5z M153.4,263.7c0.3,0,0.5-0.1,0.7-0.3c0.1-0.1,0.2,0,0.1,0.1c-0.2,0.2-0.5,0.3-0.8,0.4
		C153.2,263.9,153.2,263.7,153.4,263.7L153.4,263.7z M153.8,264.2c0.4-0.1,0.7-0.4,0.9-0.7c0.1-0.1,0.2,0,0.2,0.1
		c-0.2,0.4-0.6,0.7-1.1,0.8C153.7,264.5,153.7,264.3,153.8,264.2L153.8,264.2z M154.3,264.3c0.5,0,0.8-0.1,1.1-0.5
		c0.1-0.1,0.2,0,0.2,0.1c-0.3,0.5-0.6,0.6-1.2,0.6C154.1,264.5,154.1,264.3,154.3,264.3L154.3,264.3z M155,264.6
		c0.3,0,0.6-0.2,0.7-0.4c0.1-0.1,0.2,0,0.2,0.1c-0.2,0.3-0.5,0.5-0.9,0.5C154.9,264.9,154.8,264.7,155,264.6L155,264.6z M156.1,265
		c0.1,0,0.1-0.1,0.2-0.2c0.1-0.1,0.2,0,0.1,0.1c-0.1,0.1-0.1,0.1-0.2,0.2C156.1,265.3,156,265.1,156.1,265L156.1,265z M155.5,264.8
		c0.2,0,0.4-0.2,0.5-0.4c0.1-0.1,0.2,0,0.1,0.1c-0.2,0.2-0.4,0.4-0.6,0.4C155.4,265,155.4,264.9,155.5,264.8L155.5,264.8z
		 M160.3,271.6C160.3,271.5,160.4,271.5,160.3,271.6c-0.2,0.8-0.5,1.4-0.9,2c-0.3,0.5-0.7,1-1.1,1.4l-0.3-0.3c0.6-0.4,1-0.7,1.3-1.2
		C159.6,273,159.9,272.5,160.3,271.6L160.3,271.6z M158,273.9c0.4-0.2,0.7-0.4,1-0.6c0.1-0.1,0.2,0.1,0.1,0.2
		c-0.3,0.2-0.7,0.4-1.1,0.6C157.9,274.1,157.8,274,158,273.9L158,273.9z M157.8,273.2c0.4,0,0.8-0.2,1.2-0.4
		c0.1-0.1,0.2,0.1,0.1,0.2c-0.4,0.3-0.8,0.4-1.3,0.4C157.7,273.4,157.6,273.2,157.8,273.2L157.8,273.2z M158.1,272.5
		c0.3,0,0.5-0.3,0.7-0.5c0.1-0.1,0.2,0,0.1,0.1c-0.2,0.2-0.5,0.5-0.8,0.6C157.9,272.7,157.9,272.5,158.1,272.5L158.1,272.5z
		 M157.9,271c0.3-0.2,0.8-0.6,1.1-0.9c0.1-0.1,0.2,0,0.1,0.1c-0.3,0.3-0.8,0.7-1.1,0.9C157.9,271.3,157.8,271.1,157.9,271L157.9,271
		z M158,270.4c0.4-0.2,0.6-0.4,0.9-0.8c0.1-0.1,0.2,0,0.2,0.1c-0.3,0.4-0.5,0.6-0.9,0.8C157.9,270.6,157.8,270.5,158,270.4
		L158,270.4z M158.1,269.6c0.2-0.2,0.5-0.5,0.6-0.7c0.1-0.1,0.2,0,0.2,0.1c-0.2,0.2-0.4,0.5-0.6,0.7
		C158.1,269.9,158,269.7,158.1,269.6L158.1,269.6z M158.1,268.8l0.4-0.4c0.1-0.1,0.2,0,0.1,0.1l-0.4,0.4
		C158.2,269,158,268.9,158.1,268.8L158.1,268.8z M157.8,272c0.4-0.3,0.9-0.7,1.2-1.1c0.1-0.1,0.2,0,0.1,0.1
		c-0.4,0.4-0.8,0.8-1.3,1.1C157.8,272.3,157.7,272.1,157.8,272L157.8,272z M154.2,266.1c0.1,0.2,0.2,0.4,0.2,0.5
		c0.4,1,0.5,2.5,1.6,3.1c-0.2,0.3-0.4,0.6-0.6,0.8c-0.2-0.7-0.6-1.2-0.8-1.9c-0.2-0.5-0.1-1.1-0.4-1.6c-0.1-0.1-0.2,0-0.2,0.1
		c0.3,0.4,0.2,1.1,0.4,1.6c0.2,0.7,0.7,1.3,0.8,2l0,0c-0.1,0.1-0.1,0.2-0.2,0.3c-0.2,0.4-0.4,0.7-0.5,1.2c-0.6,0.5-1.3,0.9-1.9,1.1
		c-0.7,0.3-1.3,0.7-1.6,1.2c-0.7,0.9-0.1,2.1,0.4,2.8c-0.8-0.1-1.4-0.5-1.7-1c-0.1-0.2-0.3-0.5-0.4-0.7c-0.2,0.1-0.3,0.1-0.5,0.2
		c0-0.6,0.1-0.9-0.2-1.5l-0.1-0.3l-0.1,0.3c-0.1,0.3-0.2,0.5-0.3,0.7c-0.1-0.5-0.2-1,0-1.5c0-0.2-0.2-0.2-0.2,0
		c-0.1,0.6-0.1,1.2,0.1,1.8l0.1,0.2l0.1-0.2c0.2-0.3,0.3-0.4,0.4-0.6c0.1,0.4,0,0.8,0.1,1.3l0,0.1l0.1,0c0.1,0,0.2,0,0.3-0.1
		c-0.1,0.7-0.3,1.7,0,2.6c0.1,0.6,0.7,0.8,0.5,1.2c-0.1,0.3-0.4,0.7-0.8,0.8c-0.8,0.2-1.8,0.4-2.1,0.5c0.2,0.2,0.3,0.4,0.7,0.8
		c-0.9-0.1-1.6-0.1-1.9-0.1c0.5,0.4,0.7,0.7,0.8,1.1c-1.4,0-1.6-0.8-2-1.4c-0.4,0.2-0.5,0.5-0.5,0.8c-0.1,0.6,0.5,1.1,0.3,1.6
		c-0.1,0.2-0.1,0.3-0.3,0.4c-0.1-0.1-0.2-0.2-0.4-0.2c-0.2,0-0.2,0.2-0.3,0.3c-0.1,0-0.2,0.1-0.2,0.2c0,0-0.1,0-0.1,0
		c-1.1-0.3-0.9-1-0.6-1.5c0-0.1-0.1-0.2-0.2-0.2c-0.8,0.8-1.2,1.5-1.9,1.9c-1.1,0.6-2.1,0.5-2.5,0.4c0.1-0.1,0.2-0.2,0.3-0.3
		c0.1-0.1,0-0.3-0.1-0.1c-0.2,0.2-0.3,0.4-0.5,0.6c-0.1,0.2-0.2,0.4-0.3,0.8c-0.3-0.3-0.4-0.7-0.3-1.1c0.1-0.2,0.2-0.3,0.4-0.4
		c0.1-0.1,0.1-0.2-0.1-0.2c-0.2,0.1-0.4,0.2-0.5,0.4c-0.2-0.3-0.3-0.7,0-1c0.1-0.1,0.6-0.3,1.2-0.5c0.4-0.1,0.9-0.2,1.3-0.3
		c0.2-0.1,0.4-0.3,0.5-0.4c0.2-0.2-0.1-0.3-0.2-0.2c-0.1,0.1-0.3,0.3-0.5,0.4c-0.4,0.2-0.8,0.2-1.3,0.3c-0.4,0.1-0.8,0.3-1.2,0.5
		c0-0.1,0-0.2-0.1-0.3c0-0.2-0.2-0.1-0.2,0.1c0,0.1,0,0.2,0.1,0.3l0,0c-0.2,0.2-1,0.2-1,1c-0.8-0.7-0.2-1.1,0.1-1.4
		c0.2-0.2,0.6-0.3,0.9-0.4c0.1,0,0.1-0.2-0.1-0.2c-0.2,0.1-0.5,0.2-0.7,0.3c0-0.3,0-0.5,0.1-0.7c0.2-0.2,0.5-0.3,1-0.3
		c0.9,0,2.3,0,2.3,0c0.7-0.3,1.5-1.3,2.1-2.3c0.2-0.3,0.3-0.9,0.5-1.3c0.2-0.4,0.4-0.5,0.8-0.8c0.4-0.3,1-0.7,1.6-1.2
		c0.5-0.4,0.8-0.8,0.9-1.2c0-0.2-0.2-0.2-0.2-0.1c-0.2,0.4-0.4,0.7-0.7,0.8c-0.4,0.3-0.8,0.3-1.2,0.2c0.1-0.2,0.4-0.3,0.5-0.5
		c-1.1-0.2-1.9,0-2.7,0.7c0-0.9,0.6-1.4,1.3-1.7c0.5-0.2,1-0.1,1.5-0.5c0.5-0.3,0.9-0.9,1.2-1.7c0-0.1-0.1-0.2-0.2-0.1
		c-0.1,0.1-0.2,0.3-0.2,0.3c-0.6,0.3-1.2,0.2-1.7,0.2c-1-0.1-1.6-0.7-2.7-0.6c1.1-0.8,2.3-0.7,3.2-1c0.1,0,0.1-0.3,0-0.2
		c-0.5,0.2-0.9,0.2-1.3,0.3c-1.6,0-2.1-0.9-3-0.9c-1,0.1-1.8,1.8-0.3,2.8c-1.1,0.3-1.8-1-1.7-1.7c0.1-1.2,1-1.9,1.5-2.2
		c0.3-0.2,1-0.4,1.8-0.3c1.5,0.1,3.3,0.7,3.8,0.5c-0.6-0.4-0.7-0.8-0.5-1.5c0.7,0.8,1.7,1.1,2.6,1.1c0.1,0,0.2-0.3,0-0.3
		c-0.6,0-0.7-0.2-0.9-0.5c0.3,0.1,0.6,0,1-0.1c0.7-0.2,1.2-0.6,1.8-0.7c1.2-0.1,2,0,2.9,0.1c0.6,0.1,1.3,0.2,1.8,0
		C153,267.8,153.3,266.9,154.2,266.1L154.2,266.1z M142.3,285.7c0.5,0,1-0.3,1.2-0.9c0.1-0.1,0-0.4-0.2-0.3c-0.1,0-0.2,0.3-0.2,0.3
		c-0.1,0-0.2,0.1-0.2,0.2C142.7,285.3,142.7,285.5,142.3,285.7L142.3,285.7z M139.1,281.7c-0.8-0.4-1.8-0.8-2.8-1.1
		c-0.3-0.1-0.4,0.2-0.6,0.4c-0.9,0-1.3,0.3-1.5,1.2c0.3-0.2,0.8-0.5,1.6-0.8c-0.1-0.2,0.2-0.2,0.2-0.1c0,0.3,0,0.5,0,0.7
		c0.2,0,0.4,0,0.5,0c0.3,0,0.5,0,0.8,0c0.3,0,0.7,0,1,0c0.1,0,0.4,0,0.5,0C138.9,281.9,139,281.8,139.1,281.7L139.1,281.7z
		 M128.3,262.3c0.7-0.4,1.1-0.4,1.5-0.1c0.3,0.3,0.8-0.1,0.5-0.5C130,261.3,128.7,261.2,128.3,262.3L128.3,262.3z M131.4,270.8
		c-0.4-0.7-0.3-1-0.1-1.4c0.4-0.5-0.2-1.1-0.6-0.6C130.5,269.2,130.2,270.3,131.4,270.8L131.4,270.8z M127,268.7c0.1-1,0.9-0.8,1-1
		c0.5-0.8,0-1-0.3-0.8C127.1,267.3,126.8,268.1,127,268.7L127,268.7z M136,268.5c0.5-0.6,0.5-1.2,0.3-1.5c-0.1-0.3-1.1,0-0.9,0.5
		c0.1,0.2,0.2,0.1,0.4,0.3C135.9,267.9,136,268.2,136,268.5L136,268.5z M130.5,268.9c-0.1-0.3-0.1-0.5,0.1-0.8
		c0.3-0.4,0.8-0.7,1.1-1.2c0.4-0.6,0.5-1.1,0.6-1.6c0-0.3-0.3-0.3-0.3-0.1c-0.1,0.8-0.4,1.4-0.5,1.4c-0.1,0-0.3,0-0.5,0.1
		c-0.2,0.1-0.4,0.3-0.5,0.3c-0.2,0-0.3-0.1-0.4-0.2c-0.1,0.4-0.2,0.7-0.4,0.8c0-0.2,0-0.4,0-0.5c0-0.1-0.3-0.1-0.2,0.1
		c0.1,0.6-0.4,1.1-0.9,1c-0.2,0-0.3-0.2-0.4-0.3c0.1,0,0.1-0.1,0.1-0.1c0.2-0.3,0.4-0.9,0-1.1c-0.2-0.1-0.4-0.1-0.5,0
		c-0.1,0.1-0.3,0.2-0.4,0.3c0,0,0,0,0-0.1c-0.1-0.1-0.1-0.4,0-0.5c0.1-0.3,0.6-0.7,1-0.8c0.5-0.1,1.1,0,1.7-0.2
		c0.5-0.2,1.5-0.8,2.4-1.3c0.1-0.1,0-0.3-0.2-0.2l-0.5,0.3c-0.2-0.1-0.2-0.3-0.5-0.4c-0.6-0.3-1.5,0.2-1.7-0.8
		c-0.1-0.2,0-0.5,0.2-0.7c0.5,0.4,1.1-0.1,0.9-0.6c0.7-0.2,1.3,0.6,1.9,1.1c0.4,0.4,0.9,0.6,1.3,0.5c1-0.3,1.6-1.5,2.5-1.9
		c1-0.4,2.4-0.5,3.3-1.2c0.8-0.6,1.2-2,2.1-2.3l0,0c0,0,0,0.1,0,0.1l0.1,0.1l0.1-0.1c0.1-0.1,0.3-0.3,0.4-0.4c0,0.1,0.1,0.3,0.2,0.4
		l0.1,0l0,0c0.4-0.3,0.7-0.7,1.1-1c-0.2,0.4-0.2,0.7-0.2,1.1l0,0.2l0.1-0.1c0,0,0.1-0.1,0.1-0.1c0.3-0.2,0.6-0.2,0.9-0.3
		c0.1,0,0.2-0.1,0.3-0.1c-0.6,0.6-1,1.4-1,2.3l0,0.3l0.2-0.2c0.5-0.6,1.5-1,1.7-1.8c0-0.2-0.1-0.2-0.2-0.1c-0.2,0.6-1,1-1.5,1.5
		c0.1-1,0.7-1.8,1.4-2.4c0,0,0.1-0.1,0.1-0.1c0.1-0.1,0-0.2-0.1-0.1c0,0-0.1,0.1-0.1,0.1c-0.3,0.2-0.5,0.3-0.8,0.4
		c-0.3,0.1-0.6,0.2-0.9,0.3c0-0.5,0.3-0.8,0.3-1.1c0-0.2-0.1-0.1-0.1-0.1c-0.5,0.4-0.9,0.7-1.3,1.1c-0.1-0.1-0.1-0.3-0.1-0.4
		c-0.3,0.2-0.4,0.2-0.6,0.5c-0.1-0.2-0.1-0.5,0-0.7c0.1-0.2,0.2-0.5,0.6-0.9c0.1-0.1,0-0.2-0.1-0.1c-0.6,0.5-1.2,1.7-2.1,1.8
		c-0.3,0.1-1,0-1.4-0.2c1.4-0.1,1.2-1,1.7-1.8c0.3-0.6,0.9-1.1,1.4-1.5c0.1-0.1,0.2-0.1,0.3-0.2c0.2-0.1,0.3-0.2,0.5-0.3
		c0,0,0.1-0.1,0.1-0.2c-0.1,0.4,0,0.7,0,1.1l0,0.3l0.1-0.2c0.4-0.5,0.7-0.9,1.3-1.2c0.1,0,0.2-0.1,0.3-0.1c0.2,0.2,0.5,0.3,0.7,0.3
		c-0.2,0.6,0.1,0.9-0.7,1.4l-0.2,0.1l0.3,0c0.7,0.1,1.3-0.2,1.8-0.7c0.4-0.3,0.6-0.7,0.8-1.1c0,0.2,0,0.4,0,0.7l0,0.2l0.2-0.1
		c0.7-0.2,1.1-0.5,1.5-1.1l0.2,0.4l0.1-0.1c-0.1,0.4-0.1,0.8,0.1,1.2l0.1,0.2l0.1-0.1c0.4-0.7,0.8-1,1.4-1.6
		c0.2-0.2,0.2-0.3,0.1-0.5c0.1,0.1,0.2,0.1,0.4,0.2l0.1,0l0,0c0.2-0.2,0.5-0.7,0.6-1c0.1-0.4,0.1-0.6,0-0.9c0.3,0.2,0.5,0.3,0.8,0.6
		c0.1,0.1,0.3,0,0.4-0.1c0.2-0.1,0.3-0.3,0.4-0.5c0.1-0.3,0.1-0.7,0-1c0-0.3-0.2-0.5-0.4-0.7c-0.1-0.1-0.2,0.1-0.1,0.2
		c0.2,0.1,0.3,0.3,0.3,0.5c0,0.3,0.1,0.7,0,0.9c0,0.2-0.2,0.3-0.3,0.4c0,0-0.2,0.1-0.2,0.1c-0.3-0.3-0.6-0.5-0.9-0.7
		c-0.1-0.1-0.2-0.1-0.2,0.1c0.1,0.4,0.2,0.6,0,1c-0.1,0.3-0.3,0.7-0.5,0.9c-0.2-0.1-0.4-0.2-0.5-0.3c-0.1,0-0.2,0.1-0.1,0.2
		c0.1,0.2,0.1,0.3-0.1,0.5c-0.5,0.5-0.9,0.8-1.3,1.5c-0.2-0.5-0.1-0.9,0.1-1.4c0.2-0.2,0.4-0.3,0.6-0.5c0.1-0.1,0-0.3-0.1-0.1
		c-0.3,0.3-0.6,0.5-0.8,0.8l-0.1-0.3c0-0.1-0.1-0.2-0.2,0c-0.4,0.6-0.7,0.9-1.3,1.1c0-0.3,0-0.7,0-0.9c0-0.2-0.2-0.1-0.2,0
		c0,0,0,0.1,0,0.1c-0.2,0.4-0.5,0.9-0.9,1.2c-0.4,0.3-0.9,0.6-1.4,0.6c0.2-0.2,0.4-0.4,0.5-0.8c0-0.3,0-0.5,0.2-0.7
		c0.1-0.1,0-0.2-0.1-0.1c-0.2,0.1-0.5,0-0.7-0.2c0.3-0.2,0.6-0.4,0.8-0.7c0.1-0.1-0.1-0.2-0.2-0.1c-0.3,0.4-0.7,0.7-1.2,0.9
		c-0.5,0.3-0.9,0.6-1.2,1c0-0.4,0-0.9,0.2-1.2c0-0.1,0.1-0.2,0.1-0.3c0.1-0.2,0.3-0.3,0.4-0.5c0.1-0.1,0-0.3-0.1-0.1
		c-0.2,0.2-0.4,0.5-0.6,0.8c-0.1,0.2-0.3,0.4-0.4,0.6c-0.1,0.1-0.3,0.2-0.4,0.3c-0.1,0.1-0.2,0.1-0.3,0.2c0-0.2,0-0.4,0.2-0.5
		c0.1,0,0-0.2-0.1-0.2c-0.5,0.1-1.3,0.7-1.9,0.9c-0.3,0.1-0.6,0.1-0.8,0c1.2-1,0.9-1.3,2.1-1.8c0,0,0.1-0.3-0.1-0.1
		c-0.2,0.2-0.7,0.2-0.9,0.2c0.4-0.2,0.5-0.7,0.9-0.9c0.3-0.2,0.9,0,1.4,0c0.2,0,0.1-0.2,0-0.2c-1.2-0.1-1.4-0.2-1.6-1
		c0.9,0.2,1,0,1.8,0.1c0.2,0,0.8,0.1,1.4,0.3c0.5,0.2,1.4,0.5,1.9,0.2c0.1-0.1,0.1-0.2-0.1-0.1c-0.4,0.1-0.9,0.1-1.4-0.2
		c-0.1-0.5,0.3-1-0.7-1.2c0.8-0.3,1.3,0.1,2,0.5c0.4,0.2,1,0.4,1.6,0.4c0.8,0,1.6-0.4,2.3-1.2c0.2,0.1,0.2,0.2,0.4,0.2
		c-0.3-0.9,0.2-1.2,0.4-1.6c0.1,0.3,0.2,0.5,0.3,0.8c0.3-0.2,0.6-0.4,0.7-0.8c0-0.1,0-0.2,0-0.3c0.3,0.3,0.5,0.3,0.9,0.2
		c-0.1-0.1-0.1-0.3-0.1-0.4c0.3,0.1,0.5,0,0.8-0.1c-0.2-0.2-0.4-0.4-0.5-0.7c0.2,0,0.5,0,0.7,0c0.5-0.3,0.8-0.8,1-1.3
		c0.1-0.1-0.1-0.2-0.2-0.1c-0.2,0.4-0.6,0.9-0.9,1.2c-0.2,0-0.4,0-0.6,0c-0.2,0-0.3-0.1-0.2,0.2c0.1,0.2,0.2,0.4,0.3,0.6
		c-0.2,0-0.3,0-0.5-0.1c-0.1,0-0.1,0-0.1,0.1c0,0.1,0,0.3,0,0.4c-0.3,0-0.4-0.1-0.6-0.3c-0.1-0.1-0.1,0-0.2,0c0,0.2,0,0.4,0,0.6
		c0,0.2-0.2,0.4-0.3,0.5c0-0.2-0.1-0.3-0.1-0.5c0-0.1-0.1-0.3-0.1-0.4c0-0.1-0.1-0.2-0.2-0.1c0,0.1-0.1,0.2-0.1,0.2
		c-0.3,0.4-0.7,0.8-0.6,1.3c-0.4-0.2-0.5-0.6-0.5-1.2c-0.5,0.3-0.5,0.5-0.6,0.8c-0.3-0.1-0.5-0.3-0.6-0.6c0,0.4-0.3,1-1.6,1
		c0.3-0.5-0.1-1.2-0.3-1.8c-0.1-0.3,0.5-0.1,0.9-0.2c0.4-0.1,0.8-0.5,0.9-0.8c0.4,0.6,1.2,1.1,1.4,0.6c0.2-0.4,0.1-0.8,0-1.2
		c0-0.5,0.1-1-0.3-1.2c-0.7-0.4-1.7,0.7-2.6,0.6c-0.5-0.6-0.8-1.3-0.9-2c0.1-0.1,0.2-0.2,0.3-0.3c0.1-0.1,0.3-0.3,0.1-0.3
		c-0.1-0.1-0.7,0-1.1,0c0-0.1,0-0.2,0-0.3c0.8-0.4,1.2-0.6,2-1.1c0.2-0.1,0.6,0,0.8-0.1c0.3-0.2,0.2-0.7,0.2-0.9
		c0.1-0.5,2.1-1.1,3.8-1c0.4,0,0.7,0.2,1,0.5c-0.1,0.2-0.2,0.3-0.1,0.5c0,0.1,0.1,0.2,0.1,0.1c0.1-0.1,0.1-0.3,0.2-0.3
		c0.2-0.2,0.3-0.3,0.9-0.5c0.3-0.2,0.6,0,1-0.1c0.2-0.1,0.4-0.3,0.9-0.7c0.7,1.8,0.2,2.7-0.7,3.3c-0.1,0.1-0.1,0.2,0.1,0.2
		c0.2,0,0.4-0.2,0.5-0.3c0.4,0.9,1,0.9,2-0.1c0,0.3-0.1,0.7-0.3,0.9c0.3,0.1,0.4,0.2,0.5,0.3c-0.6,0.8-1.1,1-1.8,1.2
		c0,0,0,0.2,0.1,0.2c0.1,0,0.4,0,0.7-0.2c0.9,0.7,1.8,2,1.9,2.8c-0.6-0.7-1.1-1-1.4-1.1c0,0.3,0.1,0.6,0,0.9
		c-0.8-0.4-0.9-0.7-1.4-0.9c-0.1,0-0.2,0.1-0.1,0.2c0.2,0.2,0.4,0.3,0.5,0.4c0.8,1,0,1.2,0.6,1.8c0.4,0.4,1,0.7,1.7,0.9
		c-0.1,0.2-0.4,0.2-0.6,0.2c0.7,0.4,0.8,0.9,0.8,1.8c-0.3-0.7-1.9-1.8-2.5-1.8c0.4,0.5,0.7,0.9,1.2,1.4c-0.2,0-0.4,0-0.6,0.1
		c0.3,0.6,0.7,0.7,0.9,1.4c0.1,0.3,0.1,0.8,0,1.2c-0.3-0.5-0.8-1.1-1.1-1.6l-0.4,0.6l-1.2-2c-0.1-0.1-0.3-0.1-0.2,0.2l1,1.7
		c-0.1,0.3-0.5,0.3-0.7,0.1c0.3,0.7,0,1,0.5,1.9c-0.7-0.2-1-0.7-1.3-1.2c-0.1,1.3,1.1,1.8,1.2,2.7c-0.2,0.1-0.4,0-0.5,0
		c0.3,0.6,0.3,1.2,0.2,1.7c-0.3-0.6-0.6-1-0.8-1.2c-0.4-0.3-0.8-0.4-1.1-0.8c-0.2-0.3-0.2-0.8-0.2-1.4c0-0.2-0.2-0.1-0.2,0
		c0,0.5,0,0.9,0.1,1.3c0.2,0.9,0.8,1.7,1.3,2.5c-0.6-0.2-0.9-0.4-1.3-0.8c-0.1-0.1-0.2,0.1-0.2,0.1c1,1.6,0.9,3.3,0,4.3
		c0.1-0.8-0.1-1.7-0.6-2.4c-0.2-0.3-0.5-0.7-0.7-1.1c0.1,0.5,0.2,0.9,0,1.4c-0.7-0.7-0.9-1.3-1-1.9c-0.1-0.5,0-1,0.1-1.4
		c0.1-0.2-0.1-0.3-0.2-0.1c-0.1,0.5-0.2,0.9-0.2,1.3c0.1,1.3,0.5,2.4,0.2,3.2c-0.3,0.7-0.9,1.3-1.6,1.5c1-1.5,0.9-2.4,0.1-3.3
		c0.1,0.4,0.3,0.9-0.1,1.5c-0.2-0.6-0.8-1-0.9-1.7c0-0.3,0-0.6,0.3-1c0.1-0.2,0-0.3-0.1-0.2c-0.4,0.6-0.4,1.1-0.3,1.5
		c0.1,0.3,0.2,0.5,0.1,0.9c-0.1,0.8-1.2,0.8-0.8,2.4c-0.5-0.4-0.9-1.3-0.5-2.3c0-0.1,0-0.2-0.1-0.2c-0.1,0-0.2,0.3-0.4,0.5
		c-0.1,0.1-0.2,0.2-0.2,0.4c-0.1,0.5,0.1,1.3,0,1.8c-0.2-0.6-0.4-1.3-0.5-2.3c0-0.1-0.1,0.2-0.1,0.4c-0.1,0.8,0.2,1.4,0.4,2.1
		c-0.1,0.5-0.6,0.9-0.8,1.4c-0.2,0.4-0.2,0.8-0.1,1.2c-0.8-0.5-0.3-1.1-0.4-1.6c0-0.1-0.1,0-0.2,0c-0.2,0.4-0.4,0.8-0.4,1.3
		c0.1,0.8,0.6,1.6-0.5,2.2c0.4-0.7,0.2-1.1,0.1-1.4c-0.1-0.5-0.3-0.8-0.1-1.6c0-0.1-0.1-0.2-0.1-0.1c-0.4,0.5-0.1,1-0.6,1.4
		c0-0.8-1-0.7-0.4-1.9c0-0.1-0.1-0.2-0.1-0.2c-0.5,0.4-0.8,1.3-0.8,2.1c0,1,0.1,2-0.5,2.5c0.2-0.9-0.5-1.9-0.5-2.5
		c0-0.1-0.2-0.2-0.2,0c0.1,0.7-0.2,1.2-0.6,1.4c0.1-0.8-0.5-0.9-0.8-1.3c-0.2,0.4-0.2,0.7-0.1,1.2c-1-0.3-1.1-0.9-1.4-1.1
		c-0.2-0.2-0.7-0.1-1.2-0.1c-0.3,0-0.6,0-0.9-0.4c-0.1,0.3,0.1,0.7,0.4,0.8c0.6,0.3,1.4,0.5,0.9,1.3c-0.3-0.5-1.5-0.1-1.3,0.7
		c0.1,0.2,0.2,0.2,0.3,0.3c-0.7,0.2-1-0.1-1.1-0.4c-0.1-0.3,0-0.7-0.1-1.1c0-0.1-0.3-0.3-0.2,0.1c0,0.2,0,0.2,0,0.3
		c-0.1,0.2-0.2,0.3-0.3,0.3c-0.2-0.1-0.2-0.2-0.3-0.3c0-0.2-0.2-0.5-0.3-0.2c-0.1,0.2,0.3,0.5-0.1,0.8c-0.1-0.1-0.3-0.2-0.4-0.2
		c-0.1,0-0.2,0.2-0.1,0.2c0.2,0.1,0.3,0.2,0.3,0.3c0.1,0.5-0.4,1.4-0.6,1.7c-0.2,0.2-0.5,0.2-0.8,0c0.4-0.7-0.5-1.4-1-0.7
		C130.6,268.8,130.5,268.8,130.5,268.9L130.5,268.9z M148.7,241.6c-0.4,0-0.4-0.3-0.4-0.7c0-0.2-0.1-0.2-0.1,0c0,0.4,0,0.8,0.4,0.9
		c0,0.7,0.8,1.1,1.1,0.6c0.4,0,0.8,0,1.4,0c0.2,0,0.1-0.2,0-0.2c-0.2,0-0.5,0-0.7-0.1c-0.3-0.1-0.4-0.5-0.8-0.7
		c-0.2-0.1-0.4-0.2-0.4-0.1C149,241.4,148.9,241.5,148.7,241.6L148.7,241.6z M149.3,242.4v-0.9c0,0-0.1,0-0.1,0
		c-0.2,0.2-0.3,0.2-0.4,0.3v0C148.8,242.1,149.1,242.5,149.3,242.4L149.3,242.4z M149.3,240.7c-0.2,0-0.2,0.2,0,0.2
		c0.4,0,1,0.4,1.3,0.7c0.1,0.1,0.2-0.1,0.1-0.2C150.3,241.2,149.7,240.8,149.3,240.7L149.3,240.7z M145.5,243.2c-0.1,0-0.2,0-0.3,0
		c0.1,0.7,0,1.2,0.7,2.2c0.1,0.2,0.4,0.1,0.5-0.2C145.9,244.6,145.6,243.9,145.5,243.2L145.5,243.2z M150,243.9
		c0.3,0.2,0.4,0.4,0.5,0.8c0,0.2,0,0.4,0,0.6c0,0.2,0.2,0.4,0.3,0.6c0.1,0.3,0,0.6,0,0.8c0,0.2-0.2,0.1-0.2-0.1
		c0.1-0.2,0.1-0.5,0-0.8c0-0.2-0.3-0.4-0.3-0.6c0-0.2,0-0.4,0-0.6c0-0.3-0.1-0.5-0.4-0.7C149.7,244,149.8,243.8,150,243.9L150,243.9
		z M152,243.6c0.6,0.2,0.8,0.7,1.2,0.9c0.1-0.1,0.2-0.2,0.3-0.3c0.1-0.1,0.2,0.1,0.1,0.2c-0.2,0.1-0.3,0.3-0.5,0.4
		c-0.2,0.2-0.3,0.3-0.5,0.4c0.3,0.1,0.8,0.2,1.1,0.2c0.2,0,0.1,0.2,0,0.2c-0.4,0-1-0.1-1.3-0.3l-0.1-0.1l0.2-0.1
		c0.2-0.1,0.5-0.3,0.7-0.4l0,0c-0.4-0.2-0.6-0.7-1.1-0.8C151.8,243.8,151.8,243.6,152,243.6L152,243.6z M153.8,241.3
		c0.2-0.2,0.3-0.4,0.4-0.6c0.2-0.4,0.4-0.7,0.7-1.1c0.1-0.1,0-0.2-0.1-0.1c-0.3,0.3-0.7,0.5-1.2,0.7c-0.3,0.1-0.7,0.3-0.8,0.6
		c0,0.1,0,0.2,0,0.2c0,0.2,0.2,0.5,0.4,0.6c0.1,0.1,0.2,0,0.1-0.1c-0.1-0.1-0.3-0.3-0.3-0.5c0,0,0-0.1,0-0.1
		c0.1-0.2,0.5-0.4,0.7-0.5c0.2-0.1,0.5-0.2,0.7-0.4c-0.1,0.2-0.2,0.4-0.3,0.6c-0.1,0.2-0.2,0.5-0.4,0.7c-0.1,0.1,0,0.1,0,0.2
		l0.4,0.4c0.1,0.1,0.2-0.1,0.2-0.2L153.8,241.3L153.8,241.3z M158.3,285.6c0-0.2,0.3-0.8,0.6-0.5c0.2,0.1,0.2,0.6,0,0.9
		c-0.3,0.4-0.4,0.4-0.5,0.9C158.3,286.4,158.2,286,158.3,285.6L158.3,285.6z M166.6,282.7c0.4,0.5,0.2,1.3-0.3,1.6
		c0.1-0.7,0-0.7-0.4-1C165.3,282.9,166.4,282.4,166.6,282.7L166.6,282.7z M160.9,285.9c0-0.4,1.1-0.6,0.9-0.1
		c-0.2,0.4-0.4,0.7,0,1.3C161.2,287.1,160.8,286.6,160.9,285.9L160.9,285.9z M156.9,283.4C156.9,283.4,156.9,283.4,156.9,283.4
		c0,0.3,0.1,0.6,0.2,0.9c-0.3,0-0.6,0.1-1,0.4C156,284,156.3,283.5,156.9,283.4z"/>
</g>
</svg>
