<?xml version="1.0" encoding="utf-8"?>
<!-- Generator: Adobe Illustrator 22.1.0, SVG Export Plug-In . SVG Version: 6.00 Build 0)  -->
<svg version="1.0" id="Layer_1" xmlns="http://www.w3.org/2000/svg" xmlns:xlink="http://www.w3.org/1999/xlink" x="0px" y="0px"
	 viewBox="0 0 300 300" style="enable-background:new 0 0 300 300;" xml:space="preserve">
<style type="text/css">
	.st0{fill:#FFFFFF;}
	.st1{fill:#D2AB67;}
	.st2{fill-rule:evenodd;clip-rule:evenodd;fill:#DF1A22;}
	.st3{fill-rule:evenodd;clip-rule:evenodd;fill:#1D3688;}
</style>
<g>
	<path class="st0" d="M245.4,15.3V9.1h-6.2H150h0H60.8h-6.2v6.2V223v3.3l2.8,1.9l89.2,59.8l3.4,2.3l3.4-2.3l89.2-59.8l2.8-1.9V223
		C245.4,151.8,245.4,82.6,245.4,15.3L245.4,15.3z"/>
	<path class="st1" d="M62.4,5H150h0h87.6h6.1h6.1v6.1v6.1c0,66.8,0,134.9,0,204.4v3.2v3.2l-2.7,1.8l-2.7,1.8l-87.6,58.8l-3.4,2.3
		L150,295l-3.4-2.3l-3.4-2.3l-87.6-58.8l-2.7-1.8l-2.7-1.8v-3.2v-3.2V17.2v-6.1V5h6.1H62.4L62.4,5z M243.7,17.2v-6.1h-6.1H150h0
		H62.4h-6.1v6.1v204.4v3.2l2.7,1.8l87.6,58.8l3.4,2.3l3.4-2.3l87.6-58.8l2.7-1.8v-3.2C243.7,151.5,243.7,83.4,243.7,17.2L243.7,17.2
		z"/>
	<polygon class="st2" points="237.6,17.2 237.6,221.5 150,280.4 62.4,221.5 237.6,17.2 	"/>
	<polygon class="st3" points="96.5,17.2 104.5,42 130.6,41.9 109.4,57.2 117.6,82 96.5,66.6 75.4,82 83.5,57.2 62.4,41.9 88.5,42 
		96.5,17.2 	"/>
	<path class="st1" d="M186.1,221.5h-3.5v-14.4H179v-2.7l7.1-0.6V221.5L186.1,221.5z M194.7,219.1c0.9,0,1.6-0.3,2.1-1
		c0.6-0.6,0.8-1.6,0.8-2.7v-1.1c-0.4,0.5-0.9,0.9-1.4,1.1c-0.5,0.3-1.1,0.4-1.7,0.4c-1.6,0-2.9-0.5-3.8-1.6
		c-0.9-1.1-1.4-2.5-1.4-4.3c0-1.7,0.5-3.2,1.6-4.3c1.1-1.2,2.5-1.7,4.2-1.7c1.8,0,3.2,0.6,4.3,1.8c1.1,1.2,1.7,2.8,1.7,4.9v4.7
		c0,2-0.6,3.6-1.8,4.8c-1.2,1.2-2.7,1.8-4.6,1.8c-0.6,0-1.2-0.1-1.9-0.2c-0.6-0.1-1.2-0.3-1.8-0.6l0.6-2.5c0.5,0.2,1,0.4,1.5,0.5
		C193.6,219.1,194.1,219.1,194.7,219.1L194.7,219.1z M195.1,213.3c0.6,0,1.1-0.1,1.5-0.3c0.4-0.2,0.8-0.5,1-0.9v-2
		c0-1.1-0.2-1.9-0.7-2.5c-0.4-0.6-1-0.9-1.8-0.9c-0.7,0-1.3,0.3-1.7,1c-0.4,0.6-0.6,1.4-0.6,2.4c0,1,0.2,1.8,0.6,2.4
		C193.8,212.9,194.4,213.3,195.1,213.3L195.1,213.3z M209.6,221.5h-3.5v-14.4h-3.6v-2.7l7.1-0.6V221.5L209.6,221.5z M223.3,215.1h2
		v2.7h-2v3.8h-3.5v-3.8h-7.1l-0.2-2.1l7.2-11.5h3.5V215.1L223.3,215.1z M215.7,215.1h4.1v-6.3l-0.1,0l-0.4,0.8L215.7,215.1
		L215.7,215.1z"/>
	<path class="st0" d="M100.2,230.7l-17.4-14.9l4.9-5.7c1.8-2.1,3.5-3.3,5.3-3.8c1.8-0.5,3.5,0,5,1.3c0.8,0.7,1.3,1.5,1.6,2.5
		c0.3,1,0.2,2-0.1,3c1.1-0.9,2.3-1.3,3.5-1.2c1.2,0.1,2.3,0.6,3.3,1.4c1.7,1.4,2.5,3.1,2.4,4.9c-0.1,1.8-1,3.8-2.7,5.8L100.2,230.7
		L100.2,230.7z M95.5,220.6l5,4.3l2.8-3.2c0.8-0.9,1.2-1.8,1.2-2.6c0-0.8-0.4-1.6-1.2-2.3c-0.8-0.7-1.7-1-2.6-1
		c-0.9,0.1-1.7,0.6-2.5,1.6L95.5,220.6L95.5,220.6z M93,218.6l2-2.3c0.8-0.9,1.2-1.8,1.3-2.6c0-0.8-0.3-1.6-1-2.2
		c-0.8-0.7-1.6-0.9-2.4-0.8c-0.8,0.2-1.7,0.8-2.5,1.8l-1.9,2.2L93,218.6L93,218.6z M119.5,193.7c2.1,1.8,3.3,4,3.6,6.6
		c0.2,2.5-0.6,4.9-2.4,7.1c-1.8,2.2-4,3.3-6.6,3.5c-2.5,0.1-4.9-0.7-7-2.5l-3.1-2.7c-2.1-1.8-3.3-4-3.6-6.5c-0.3-2.5,0.5-4.9,2.4-7
		c1.9-2.2,4.1-3.3,6.6-3.5c2.6-0.2,4.9,0.7,7,2.5L119.5,193.7L119.5,193.7z M113.3,194.5c-1.4-1.2-2.8-1.8-4.2-1.8
		c-1.4-0.1-2.7,0.5-3.7,1.7c-1,1.2-1.4,2.5-1.1,3.9c0.3,1.4,1.1,2.7,2.5,3.8l3.2,2.7c1.4,1.2,2.8,1.8,4.2,1.9
		c1.4,0.1,2.7-0.5,3.7-1.7c1-1.2,1.4-2.5,1.1-3.9c-0.3-1.4-1.1-2.7-2.5-3.9L113.3,194.5L113.3,194.5z M118.3,174.6l3-3.5l12,10.3
		c1.7,1.5,2.6,3.2,2.8,5.1c0.1,1.9-0.5,3.7-2,5.4c-1.6,1.8-3.3,2.9-5.1,3.2c-1.8,0.3-3.6-0.3-5.3-1.8l-0.1-0.1l2.9-3.4
		c0.9,0.8,1.8,1.2,2.6,1.1c0.8-0.1,1.6-0.5,2.2-1.3c0.5-0.6,0.7-1.4,0.5-2.2c-0.2-0.9-0.7-1.7-1.6-2.5L118.3,174.6L118.3,174.6z
		 M142.3,181.9l-17.4-14.9l4.9-5.7c1.8-2.1,3.5-3.3,5.3-3.8c1.8-0.5,3.5,0,5,1.3c0.8,0.7,1.3,1.5,1.6,2.5c0.3,1,0.2,2-0.1,3
		c1.1-0.9,2.3-1.3,3.5-1.2c1.2,0.1,2.3,0.6,3.3,1.4c1.7,1.4,2.5,3.1,2.4,4.9c-0.1,1.8-1,3.8-2.7,5.8L142.3,181.9L142.3,181.9z
		 M137.6,171.7l5,4.3l2.8-3.2c0.8-0.9,1.2-1.8,1.2-2.6c0-0.8-0.4-1.6-1.2-2.3c-0.8-0.7-1.7-1-2.6-1c-0.9,0.1-1.7,0.6-2.5,1.6
		L137.6,171.7L137.6,171.7z M135.2,169.7l2-2.3c0.8-0.9,1.2-1.8,1.3-2.6c0-0.8-0.3-1.6-1-2.2c-0.8-0.7-1.6-0.9-2.4-0.8
		c-0.8,0.2-1.7,0.8-2.5,1.8l-1.9,2.2L135.2,169.7L135.2,169.7z M161.6,144.9c2.1,1.8,3.3,4,3.6,6.6c0.2,2.5-0.6,4.9-2.4,7.1
		c-1.8,2.2-4,3.3-6.6,3.5c-2.5,0.1-4.9-0.7-7-2.5l-3.1-2.7c-2.1-1.8-3.3-4-3.6-6.5c-0.3-2.5,0.5-4.9,2.4-7c1.9-2.2,4.1-3.3,6.6-3.5
		c2.6-0.2,4.9,0.7,7,2.5L161.6,144.9L161.6,144.9z M155.4,145.7c-1.4-1.2-2.8-1.8-4.2-1.8c-1.5-0.1-2.7,0.5-3.7,1.7
		c-1,1.2-1.4,2.5-1.1,3.9c0.3,1.4,1.1,2.7,2.5,3.8l3.2,2.7c1.4,1.2,2.8,1.8,4.2,1.9c1.4,0.1,2.7-0.5,3.7-1.7c1-1.2,1.4-2.5,1.1-3.9
		c-0.3-1.4-1.1-2.7-2.5-3.9L155.4,145.7L155.4,145.7z M171.1,148.3l-2.7-2.3l0.9-1c0.8-0.9,0.7-2.1-0.1-3.5
		c-0.9-1.4-2.6-3.4-5.1-5.7l-6.8-6.5l9.6-11.2l14.8,12.6l1.8-2.1l2.7,2.3L171.1,148.3L171.1,148.3z M167,132.2c1.6,1.5,2.9,3,4,4.3
		c1,1.4,1.8,2.7,2.2,3.9l5.5-6.4l-12.1-10.3l-3.8,4.4L167,132.2L167,132.2z M180.6,101.9l3-3.5l17.4,14.9l-3,3.5l-11.7-10l-0.1,0.1
		l5.6,17l-3,3.5l-17.4-14.9l3-3.5l11.6,10l0.1-0.1L180.6,101.9L180.6,101.9z M217.1,94.6l-3,3.5l-7.2-6.2l-6.1,7.1l7.2,6.2l-3,3.5
		l-17.4-14.9l3-3.5l7.5,6.4l6.1-7.1l-7.5-6.4l3-3.5L217.1,94.6L217.1,94.6z M225.1,77.7l-4.8,5.7l2.8,4.4l-3.1,3.6l-12.4-20.8
		l3.1-3.6l22.5,9.1l-3.1,3.7L225.1,77.7L225.1,77.7z M218.2,80.1l3.4-3.9l-7.8-3.3l-0.1,0.1L218.2,80.1L218.2,80.1z"/>
	<path class="st1" d="M109.2,117.4c1.9-1.9,4-3,6.3-3.3c2.3-0.2,4.4,0.4,6.3,2.1c1.9,1.6,2.9,3.6,2.9,5.9c0.1,2.3-0.7,4.5-2.3,6.7
		l2.4,2.1l-3.1,3.6l-2.4-2.1c-1.9,2-4,3.1-6.3,3.4c-2.3,0.3-4.4-0.4-6.2-2c-1.9-1.6-2.9-3.6-3.1-6c-0.1-2.3,0.7-4.6,2.3-6.8
		l-2.5-2.2l3.1-3.6L109.2,117.4L109.2,117.4z M109.9,130.2c1,0.9,2.1,1.3,3.2,1.2c1.1-0.1,2.1-0.6,3.1-1.6l0-0.1l-7-6l-0.1,0.1
		c-0.8,1.1-1.2,2.2-1,3.3C108.2,128.2,108.8,129.2,109.9,130.2L109.9,130.2z M118.8,119.8c-1.1-0.9-2.2-1.4-3.3-1.3
		c-1.1,0.1-2.2,0.5-3.1,1.5l0,0.1l7,6l0.1-0.1c0.8-1.1,1.1-2.1,1-3.3C120.4,121.7,119.8,120.7,118.8,119.8L118.8,119.8z M130,109.5
		l-1.1,1.3l7.6,6.5l-3.1,3.6l-18.2-15.6l3.1-3.6l7.4,6.4l0.9-1l-3.2-11.4l3.9-4.5l3.1,13.5l15.5,1.6l-4,4.6L130,109.5L130,109.5z"/>
</g>
</svg>
