<?xml version="1.0" encoding="utf-8"?>
<!-- Generator: Adobe Illustrator 22.1.0, SVG Export Plug-In . SVG Version: 6.00 Build 0)  -->
<svg version="1.1" id="Layer_1" xmlns="http://www.w3.org/2000/svg" xmlns:xlink="http://www.w3.org/1999/xlink" x="0px" y="0px"
	 viewBox="0 0 300 300" style="enable-background:new 0 0 300 300;" xml:space="preserve">
<style type="text/css">
	.st0{fill-rule:evenodd;clip-rule:evenodd;fill:#344070;}
	.st1{fill-rule:evenodd;clip-rule:evenodd;fill:#A1CEE9;}
	.st2{fill-rule:evenodd;clip-rule:evenodd;}
	.st3{fill-rule:evenodd;clip-rule:evenodd;fill:#F4CE33;}
	.st4{fill-rule:evenodd;clip-rule:evenodd;fill:#C75F2D;}
	.st5{fill:#344070;}
</style>
<g>
	<path class="st0" d="M250.6,11.5c24.6,32.1,37.3,68.1,37.4,108.6c0.1,36.1-13.2,73.1-34.2,102.2c-25.2,34.8-60.9,58.3-102.9,67.6
		l-0.6,0.1l-0.6-0.1C68.3,271.1,15.3,203.3,12.1,120.5c-0.6-15.9,1.7-31.8,6.1-47.1c6.4-22.1,17.3-42.7,30.6-61.4l1.1-1.5l1.8,0.5
		c16.9,4.9,34.4,7.3,52,6.9c15.6-0.4,31.1-3,46.1-7.6l0.7-0.2l0.7,0.2c25.8,7.4,51.4,10.5,77.9,5.3c6.3-1.3,12.5-3,18.6-5l1.7-0.6
		L250.6,11.5z"/>
	<path class="st1" d="M50.9,13.5c36.9,10.7,70.7,8.1,99.5-0.7c38.4,11,68.3,10.3,98,0.2c27.5,36,36.8,72.8,36.9,107
		c0.2,65.4-45.1,147.4-135.1,167.3C69.2,268.7,17.8,201.2,14.7,120.4C13.8,95.4,19.7,57.8,50.9,13.5"/>
	<path class="st2" d="M95.9,163.3c-1.5,0.9-0.4,9.1,4.8,17.9c4.1,7,10.4,13,12.6,11.8c2.2-1.2,0.4-9.2-3.9-16.4
		C104.1,167.7,97.4,162.3,95.9,163.3 M73.3,168.3c-0.8,1.2,3.1,7.7,10.8,12.8c6.1,4,13.8,5.9,14.9,4.1c1.2-1.8-3.3-8-9.8-12.1
		C81.5,168,74.1,167.1,73.3,168.3z M59.3,146.4c-1,1.3,2.5,8.1,9.7,13.7c5.8,4.5,13.2,6.9,14.5,5.2c1.3-1.7-2.6-8.2-8.7-12.8
		C67.5,146.9,60.3,145.1,59.3,146.4z M61.5,126.9c-1.3,1,0,8.5,5.3,16c4.2,6,10.6,10.4,12.4,9.2c1.7-1.2-0.1-8.6-4.6-14.8
		C69.3,129.8,62.9,126,61.5,126.9z M61.7,100c-1.4,0.6-1.8,8.2,1.1,16.8c2.3,6.8,7,12.7,8.8,11.9c1.8-0.8,1.8-8.3-0.7-15.4
		C67.8,104.7,63,99.4,61.7,100z M72.3,85.6c-1.4,0.4-3.1,7.8-1.6,16.8c1.2,7.1,4.9,13.7,6.7,13.2c1.9-0.5,3.1-7.9,1.7-15.4
		C77.5,91.2,73.7,85.2,72.3,85.6z M106.4,87.3c-1.2-0.8-7.9,2.6-13.4,9.3c-4.4,5.3-6.6,12-5.1,13.1c1.5,1.1,7.7-2.4,12.2-8
		C105.7,94.9,107.6,88.1,106.4,87.3z M86.2,67.3c-1.6,0-5.2,7.1-6,16.5c-0.6,7.5,1.3,15.1,3.4,15.1c2,0,5.2-7.2,5.8-15.1
		C90,74.3,87.7,67.3,86.2,67.3z M107.6,63.1c-1.4-0.7-7.3,4.6-12.3,12.9c-3.6,6.2-5.8,14.5-4,15.4c1.8,0.9,8.7-4.1,12.8-11.1
		C109.1,71.8,109.1,63.7,107.6,63.1z M93,109.4c-1.4-0.5-7,4.7-10.7,13c-3,6.6-3.6,14-1.8,14.7c1.8,0.7,7-4.8,10.1-11.7
		C94.2,117,94.4,109.9,93,109.4z M85.1,138.6c-1.8,0.2-3.7,7.4-2.1,16.4c1.2,7.2,4.8,14.3,7.4,13.9c2.6-0.4,3.4-7.9,2.1-15.5
		C90.8,144.3,87,138.5,85.1,138.6z M74.3,189.9c-0.3,1.9,6.7,6.1,17,7.7c8.2,1.3,17,0,17.2-2.4c0.3-2.4-7.1-6-15.7-7.3
		C82.4,186.4,74.6,188,74.3,189.9z M92.1,204.5c0.1,2.3,8.4,4.3,18.8,3.7c8.3-0.5,16.3-3.5,16.1-6c-0.2-2.4-8-4.5-16.7-3.8
		C99.8,199.2,92,202.1,92.1,204.5z M112.1,213.8c0.2,1.1,6.4,3.2,15.3,1.8c5-0.8,11-3.4,15-6.5c0.6-0.4-1.7,4.9-11,11.8
		c-0.7,0.5,3.2,2.3,3.5,2.1c2.3-1.3,6.6-6.4,10.1-11.7c1.2-1.8,3-1.3,2.9-2.8c-0.1-2.1-4.9-1.5-5.6-1.9c-2.5-1.4-9-1.9-15.2-0.7
		C117.5,207.9,111.8,212.3,112.1,213.8z M115.5,184.6c-0.8,1.1,3.6,8.4,11.9,14.2c6.6,4.6,14.8,7.2,16,5.3
		c1.2-1.9-3.4-8.4-10.4-13.2C124.5,185.1,116.3,183.4,115.5,184.6z"/>
	<path class="st3" d="M96.3,163.9c-0.2,0.3-0.2,1.3-0.2,1.6c0,1.3,0.3,2.7,0.6,3.9c0.9,3.9,2.7,7.9,4.7,11.4
		c1.8,3.1,4.2,6.3,6.9,8.8c0.7,0.6,3.7,3.3,4.7,2.7c1-0.5,0.3-4.2,0.1-5.1c-0.8-3.5-2.5-7.2-4.3-10.3c-2.1-3.5-4.8-7-7.7-9.9
		c-0.9-0.9-2-1.8-3.2-2.5C97.6,164.4,96.7,163.9,96.3,163.9 M74,168.7c-0.1,0.9,1.9,3.7,2.4,4.4c2.2,2.8,5.1,5.4,8.1,7.3
		c2.7,1.8,6,3.3,9.1,4.1c1.1,0.3,2.3,0.5,3.4,0.5c0.3,0,1.2-0.1,1.3-0.3c0.2-0.3-0.1-1.1-0.2-1.4c-0.4-1-1.1-2.1-1.8-2.9
		c-2-2.6-4.8-5-7.5-6.8c-3-1.9-6.5-3.6-10-4.5C78.1,169,74.8,168.3,74,168.7z M59.9,146.9c-0.1,0.3,0.2,1.2,0.3,1.4
		c0.4,1.1,1,2.2,1.7,3.2c2,3,4.8,5.8,7.6,8.1c2.5,2,5.7,3.7,8.7,4.8c1,0.4,2.3,0.7,3.4,0.8c0.3,0,1.2,0,1.4-0.2
		c0.2-0.3,0-1.1-0.1-1.4c-0.3-1-0.9-2.1-1.5-3c-1.8-2.7-4.3-5.3-6.9-7.3c-2.9-2.2-6.3-4.2-9.7-5.4c-1.1-0.4-2.3-0.7-3.4-0.9
		C61,146.8,60.1,146.7,59.9,146.9z M62,127.5c-0.2,0.3-0.2,1.2-0.1,1.4c0.1,1.2,0.4,2.4,0.7,3.5c1,3.5,2.9,7,5,9.9
		c1.9,2.6,4.3,5.2,6.9,7.1c0.9,0.6,2,1.3,3,1.7c0.3,0.1,1.1,0.4,1.4,0.2c0.3-0.2,0.3-1,0.3-1.3c0-1.1-0.3-2.3-0.6-3.3
		c-0.9-3.2-2.6-6.4-4.5-9c-2.1-2.9-4.8-5.9-7.7-8c-0.9-0.7-2-1.4-3-1.8C63.1,127.8,62.3,127.5,62,127.5z M62,100.8
		c-0.6,0.7-0.6,4.2-0.6,5c0.1,3.6,1,7.4,2.1,10.8c1,3,2.6,6.1,4.5,8.6c0.6,0.8,1.4,1.8,2.2,2.4c0.1,0.1,0.8,0.6,1,0.5
		c0.3-0.1,0.5-1,0.5-1.2c0.2-1.1,0.3-2.3,0.2-3.4c-0.1-3.3-0.8-6.8-1.9-9.9c-1.2-3.3-2.8-6.7-4.8-9.5
		C64.8,103.4,62.8,100.9,62,100.8z M72.4,86.4c-0.7,0.6-1.3,4.1-1.4,4.8c-0.4,3.6-0.2,7.4,0.4,11c0.5,3.1,1.6,6.4,3.1,9.2
		c0.5,0.9,1.1,2,1.8,2.7c0.1,0.1,0.7,0.7,0.9,0.6c0.3-0.1,0.6-0.9,0.7-1.1c0.4-1,0.6-2.2,0.8-3.3c0.4-3.2,0.3-6.8-0.3-10.1
		c-0.6-3.4-1.7-7.1-3.3-10.2C74.8,89.5,73.3,86.7,72.4,86.4z M106,88c-0.9-0.1-3.8,1.6-4.5,2c-2.9,1.9-5.7,4.4-7.9,7.1
		c-1.9,2.3-3.6,5.1-4.6,7.9c-0.3,0.9-0.7,2-0.8,3c0,0.2,0,1,0.1,1.1c0.2,0.2,1,0,1.2-0.1c1-0.3,2-0.9,2.9-1.4
		c2.6-1.6,5.1-3.9,7.1-6.3c2.1-2.6,4.1-5.7,5.4-8.8C105.2,91.8,106.3,88.8,106,88z M86.2,68.1c-0.9,0.4-2.4,3.8-2.7,4.5
		c-1.4,3.5-2.2,7.5-2.5,11.3c-0.3,3.3-0.1,6.9,0.7,10.1c0.2,1.1,0.6,2.3,1.1,3.2c0.1,0.2,0.6,0.9,0.8,0.9c0.3,0,0.9-0.7,1-0.9
		c0.7-0.9,1.2-2.1,1.7-3.2c1.3-3.2,2.1-6.9,2.3-10.3c0.3-3.7,0.1-7.6-0.6-11.2C87.8,71.9,86.9,68.5,86.2,68.1z M107.3,63.8
		c-0.9,0-3.6,2.6-4.2,3.2c-2.7,2.8-5.1,6.1-7,9.4c-0.5,0.8-0.9,1.7-1.3,2.5c-1.2,2.5-2.3,5.3-2.8,8c-0.2,0.9-0.4,1.9-0.3,2.8
		c0,0.2,0.1,0.9,0.2,1c0.3,0.2,1.3-0.2,1.5-0.4c1.1-0.5,2.2-1.3,3.2-2.1c2.7-2.2,5.3-5.2,7-8.3c1.9-3.3,3.4-7.1,4-10.9
		c0.2-1.2,0.3-2.5,0.2-3.7C107.6,65,107.5,64,107.3,63.8z M92.7,110.1c-0.9,0.1-3.3,2.6-3.9,3.2c-2.4,2.7-4.4,6-5.9,9.3
		c-1.3,2.9-2.3,6.2-2.6,9.3c-0.1,1-0.2,2.2,0,3.3c0,0.2,0.2,1,0.4,1.1c0.3,0.1,1-0.4,1.2-0.5c0.9-0.6,1.8-1.5,2.5-2.3
		c2.2-2.5,4-5.5,5.4-8.5c1.4-3.2,2.6-6.8,3-10.3C92.9,114.1,93.2,110.8,92.7,110.1z M85.2,139.4c-0.3,0.1-0.7,0.8-0.8,1
		c-0.5,1-0.7,2.2-0.9,3.3c-0.6,3.6-0.4,7.6,0.2,11.1c0.6,3.2,1.6,6.7,3.1,9.6c0.4,0.9,2.2,3.9,3.4,3.7c1.2-0.2,1.7-3.5,1.9-4.4
		c0.4-3.3,0.1-7-0.5-10.2c-0.7-3.6-1.8-7.5-3.5-10.7c-0.5-1-1.2-2-1.9-2.8C86.1,139.9,85.5,139.4,85.2,139.4z M75.1,190
		c0,0.3,0.7,0.9,0.8,1.1c0.9,0.8,2.2,1.5,3.3,2.1c3.7,1.8,8.2,3,12.3,3.6c3.6,0.6,7.7,0.7,11.4,0.2c1.2-0.2,2.6-0.5,3.8-1
		c0.3-0.1,1.2-0.6,1.2-0.9c0.1-1.1-3.3-2.9-4.1-3.3c-3.4-1.6-7.3-2.6-11-3.1c-4.1-0.6-8.7-0.9-12.9-0.3c-1.2,0.2-2.6,0.4-3.7,0.9
		C76,189.4,75.1,189.8,75.1,190z M92.9,204.4c0,0.4,0.8,0.9,1.1,1c1.1,0.6,2.6,1,3.8,1.2c4.2,0.9,8.9,1,13.1,0.7
		c3.6-0.2,7.6-1,11-2.2c0.8-0.3,4.5-1.8,4.4-2.9c-0.1-1.1-3.7-2.2-4.6-2.4c-3.6-0.9-7.7-1-11.3-0.7c-4.2,0.3-8.9,1-13,2.4
		c-1.2,0.4-2.6,1-3.6,1.7C93.6,203.5,92.9,204.1,92.9,204.4z M112.8,213.6c0.6,0.6,3.4,1.2,4.2,1.4c3.3,0.5,6.9,0.4,10.2-0.2
		c4.9-0.8,10.7-3.3,14.7-6.3c0.1,0,0.4-0.4,0.9-0.1c0.8,0.4,0.2,1.5-0.1,2c-0.5,0.9-1.2,1.8-1.8,2.6c-2.4,3-5.5,5.7-8.5,8
		c0.6,0.4,1.8,1,2.4,1.1c2.7-1.7,7-7.5,8.8-10c0.3-0.4,0.6-0.8,0.9-1.3c0.5-0.7,1-1.2,1.8-1.5c0.2-0.1,0.8-0.4,0.9-0.5
		c0.1-0.1,0-0.2,0-0.3c-0.1-1.2-4.4-0.9-5.2-1.3c-1.5-0.8-4.2-1.1-5.9-1.2c-2.9-0.2-6,0.1-8.8,0.7c-3.7,0.7-7.5,2-10.8,3.9
		c-1,0.6-2,1.2-2.9,2C113.5,212.7,113,213.3,112.8,213.6z M116.2,185c0,1.1,2.2,4.1,2.8,4.8c2.5,3.2,5.6,6,8.9,8.3
		c2.9,2,6.4,3.9,9.8,5c1.1,0.4,2.5,0.7,3.7,0.8c0.3,0,1.2,0,1.4-0.3c0.6-0.9-1.6-4-2.1-4.6c-2.2-2.8-5.2-5.5-8.1-7.5
		c-3.3-2.3-7.1-4.3-11-5.5C120.8,185.8,117.2,184.7,116.2,185z"/>
	<path class="st2" d="M223.3,171.2c0.8,1.2-3.2,7.6-11,12.4c-6.2,3.8-13.9,5.4-15,3.6c-1.1-1.8,3.4-7.9,9.9-11.8
		C215.2,170.6,222.6,169.9,223.3,171.2 M237.7,149.8c1,1.3-2.6,8-9.9,13.4c-5.8,4.3-13.3,6.4-14.6,4.7c-1.3-1.7,2.7-8.1,8.8-12.5
		C229.5,150,236.7,148.5,237.7,149.8z M235.7,130.2c1.3,1-0.2,8.5-5.6,15.8c-4.3,5.8-10.8,10-12.5,8.7c-1.7-1.3,0.2-8.5,4.8-14.6
		C228,132.8,234.4,129.2,235.7,130.2z M236,103.4c1.4,0.7,1.7,8.3-1.4,16.7c-2.4,6.7-7.2,12.4-8.9,11.6c-1.8-0.8-1.7-8.4,0.9-15.4
		C229.8,107.8,234.6,102.7,236,103.4z M225.6,88.6c1.4,0.4,3,7.9,1.3,16.8c-1.3,7.1-5.1,13.5-6.9,12.9c-1.9-0.5-3-8-1.5-15.4
		C220.2,93.9,224.1,88.1,225.6,88.6z M191.4,89c1.2-1.1,9.3,4.4,14.5,10.3c2.7,3.1,5,6.6,5.7,8c1.8,3.3,2.7,6.6,1.4,7.4
		c-2.2,1.4-11.2-5.6-15.6-11.4C191.9,96.3,190.1,90.1,191.4,89z M211.9,69.7c1.6,0.1,5.1,7.3,5.7,16.7c0.5,7.5-1.6,15-3.6,15
		c-2-0.1-5.1-7.4-5.6-15.3C207.9,76.6,210.4,69.7,211.9,69.7z M190.5,64.7c1.4-0.6,7.3,4.9,12.1,13.4c3.5,6.3,5.6,14.7,3.7,15.5
		c-1.9,0.9-8.7-4.4-12.6-11.5C188.9,73.5,189.1,65.4,190.5,64.7z M203.4,111.9c1.4-0.5,7.1,4.7,11.1,12.9c3.2,6.5,4,14,2.2,14.7
		c-1.8,0.7-7.2-4.8-10.4-11.7C202.4,119.4,202,112.4,203.4,111.9z M211.9,141.1c1.8,0.2,3.6,7.5,1.9,16.5c-1.3,7.1-5,14.1-7.6,13.6
		c-2.6-0.5-3.3-8.1-1.8-15.6C206.3,146.6,210.1,140.8,211.9,141.1z M222,192.7c0.3,2-6.7,5.8-17.1,7c-8.2,1-17-0.7-17.2-3
		c-0.3-2.4,7.2-5.7,15.8-6.7C214,188.9,221.8,190.8,222,192.7z M204,206.6c-0.2,2.3-8.5,4-18.9,3c-8.3-0.9-16.3-4.1-16.1-6.6
		c0.2-2.4,8.1-4.2,16.8-3.2C196.4,201.1,204.2,204.3,204,206.6z M184,215.2c-0.2,1.1-6.4,3-15.4,1.2c-5-1-10.9-3.8-14.9-7
		c-0.6-0.5,1.6,5,10.8,12.2c0.7,0.6-3.2,2.2-3.6,2c-2.2-1.4-6.5-6.7-9.9-12c-1.2-1.8-3-1.4-2.9-2.9c0.2-2.1,4.9-1.4,5.6-1.7
		c2.5-1.3,9-1.6,15.2-0.1C178.6,209.1,184.3,213.8,184,215.2z M181,185.9c0.8,1.2-3.7,8.3-12.1,13.8c-6.7,4.4-14.9,6.7-16.1,4.7
		c-1.2-2,3.5-8.3,10.6-12.8C172,186.1,180.2,184.7,181,185.9z M200.8,165.3c1.5,1,0.2,9.1-5,17.7c-4.2,6.8-10.6,12.6-12.8,11.3
		c-2.2-1.3-0.3-9.2,4.1-16.3C192.6,169.4,199.3,164.3,200.8,165.3z"/>
	<path class="st3" d="M222.7,171.6c0.1,1-2,3.7-2.5,4.3c-2.3,2.8-5.2,5.2-8.2,7c-2.7,1.7-6,3.1-9.1,3.8c-1.1,0.2-2.3,0.5-3.4,0.4
		c-0.3,0-1.2-0.1-1.3-0.4c-0.2-0.3,0.1-1.1,0.2-1.3c0.4-1,1.1-2,1.8-2.9c2.1-2.5,4.8-4.8,7.6-6.5c3.1-1.8,6.6-3.4,10.1-4.1
		C218.5,171.7,221.8,171.1,222.7,171.6 M237.1,150.3c0.1,0.3-0.2,1.2-0.3,1.4c-0.4,1.1-1.1,2.2-1.7,3.1c-2.1,3-4.8,5.7-7.7,7.8
		c-2.6,1.9-5.7,3.5-8.8,4.5c-1.1,0.3-2.3,0.6-3.4,0.6c-0.3,0-1.2,0-1.3-0.3c-0.2-0.3,0-1.1,0.1-1.4c0.3-1,1-2.1,1.6-3
		c1.8-2.7,4.4-5.2,7-7.1c2.9-2.1,6.3-4,9.8-5.1c1.1-0.3,2.3-0.7,3.4-0.8C236,150.1,236.8,150.1,237.1,150.3z M235.2,130.9
		c0.2,0.3,0.1,1.2,0.1,1.4c-0.1,1.2-0.4,2.4-0.7,3.5c-1.1,3.5-3,6.9-5.1,9.8c-1.9,2.6-4.4,5.1-7,6.8c-0.9,0.6-2,1.3-3,1.6
		c-0.3,0.1-1.1,0.3-1.4,0.1c-0.3-0.2-0.3-1-0.3-1.3c0-1.1,0.3-2.3,0.6-3.3c1-3.1,2.7-6.3,4.6-8.9c2.2-2.9,4.9-5.7,7.8-7.7
		c0.9-0.6,2-1.3,3-1.7C234.1,131.1,235,130.8,235.2,130.9z M235.6,104.1c0.6,0.7,0.5,4.2,0.5,5c-0.2,3.6-1.1,7.4-2.3,10.7
		c-1.1,2.9-2.7,6-4.6,8.4c-0.6,0.8-1.4,1.7-2.3,2.3c-0.1,0.1-0.8,0.5-1,0.5c-0.2-0.1-0.5-1-0.5-1.2c-0.2-1.1-0.2-2.3-0.2-3.4
		c0.1-3.3,0.9-6.8,2.1-9.8c1.2-3.2,2.9-6.6,5-9.4C232.7,106.7,234.8,104.2,235.6,104.1z M225.4,89.3c0.7,0.6,1.2,4.1,1.3,4.9
		c0.4,3.6,0.1,7.5-0.5,11c-0.6,3.1-1.7,6.4-3.2,9.1c-0.5,0.9-1.1,1.9-1.9,2.7c-0.1,0.1-0.7,0.7-0.9,0.6c-0.3-0.1-0.6-0.9-0.7-1.1
		c-0.4-1-0.6-2.3-0.7-3.4c-0.4-3.3-0.2-6.8,0.5-10c0.7-3.4,1.8-7,3.4-10.1C222.9,92.3,224.5,89.6,225.4,89.3z M191.8,89.7
		c0.9-0.1,3.8,1.7,4.5,2.2c5.2,3.6,13.7,12.5,15.8,18.3c0.3,0.9,0.6,2,0.7,3c0.1,0.9-0.5,1.3-1.4,1c-1-0.3-2-0.9-2.9-1.5
		c-2.6-1.7-8.6-7-10.5-9.5c-2.1-2.7-4-5.8-5.2-9C192.6,93.5,191.5,90.5,191.8,89.7z M211.9,70.5c0.9,0.4,2.3,3.9,2.6,4.6
		c1.3,3.6,2.1,7.6,2.4,11.3c0.2,3.3,0,6.9-0.8,10.1c-0.3,1-0.6,2.3-1.2,3.2c-0.1,0.2-0.6,0.9-0.8,0.9c-0.3,0-0.9-0.7-1-1
		c-0.7-0.9-1.2-2.1-1.6-3.2c-1.2-3.2-2-6.9-2.2-10.3c-0.2-3.7,0-7.6,0.8-11.2C210.2,74.2,211.1,71,211.9,70.5z M190.9,65.4
		c0.9,0,3.6,2.8,4.2,3.4c2.6,2.9,5,6.3,6.9,9.7c0.5,0.8,0.9,1.7,1.3,2.6c1.2,2.5,2.2,5.4,2.7,8.1c0.2,0.9,0.3,1.9,0.3,2.9
		c0,0.2-0.1,0.9-0.3,1c-0.3,0.1-1.3-0.3-1.5-0.4c-1.1-0.6-2.2-1.4-3.2-2.2c-2.7-2.3-5.2-5.4-6.9-8.5c-1.9-3.4-3.3-7.3-3.8-11.1
		c-0.2-1.2-0.3-2.5-0.1-3.8C190.5,66.6,190.6,65.7,190.9,65.4z M203.7,112.6c0.9,0.1,3.4,2.6,4,3.2c2.5,2.7,4.6,6,6.1,9.3
		c1.4,2.9,2.5,6.2,2.9,9.3c0.1,1,0.3,2.2,0.1,3.3c0,0.2-0.2,1-0.4,1.1c-0.3,0.1-1-0.4-1.2-0.5c-0.9-0.6-1.8-1.5-2.6-2.3
		c-2.2-2.4-4.2-5.5-5.6-8.5c-1.5-3.2-2.8-6.8-3.3-10.2C203.6,116.5,203.2,113.3,203.7,112.6z M211.9,141.8c0.3,0.1,0.6,0.9,0.7,1.1
		c0.5,1,0.7,2.3,0.9,3.4c0.5,3.6,0.3,7.6-0.4,11.1c-0.6,3.2-1.7,6.6-3.2,9.4c-0.5,0.8-2.2,3.8-3.5,3.6c-1.2-0.2-1.7-3.6-1.8-4.4
		c-0.4-3.3,0-7,0.6-10.2c0.7-3.6,1.9-7.4,3.7-10.6c0.5-0.9,1.2-2,1.9-2.7C211,142.4,211.6,141.8,211.9,141.8z M221.3,192.8
		c0,0.3-0.7,0.9-0.8,1.1c-0.9,0.8-2.2,1.4-3.3,1.9c-3.8,1.7-8.2,2.7-12.3,3.2c-3.6,0.4-7.7,0.4-11.4-0.3c-1.2-0.2-2.6-0.6-3.8-1.1
		c-0.3-0.1-1.2-0.6-1.2-1c-0.1-1.1,3.3-2.8,4.1-3.1c3.4-1.5,7.4-2.3,11-2.7c4.1-0.4,8.7-0.5,12.9,0.2c1.2,0.2,2.6,0.5,3.7,1
		C220.4,192.1,221.2,192.6,221.3,192.8z M203.3,206.6c0,0.4-0.8,0.8-1.1,1c-1.1,0.6-2.6,0.9-3.8,1.1c-4.2,0.7-8.9,0.6-13.1,0.2
		c-3.6-0.4-7.6-1.2-11-2.6c-0.8-0.3-4.5-2-4.3-3.1c0.1-1.1,3.8-2,4.6-2.2c3.6-0.7,7.7-0.7,11.3-0.3c4.2,0.5,8.9,1.4,12.9,2.9
		c1.2,0.5,2.6,1.1,3.6,1.8C202.6,205.6,203.3,206.2,203.3,206.6z M183.2,215c-0.6,0.6-3.5,1.1-4.2,1.2c-3.3,0.4-6.9,0.1-10.2-0.5
		c-4.9-1-10.6-3.7-14.6-6.9c-0.1,0-0.4-0.4-0.9-0.1c-0.8,0.4-0.3,1.5,0,2c0.5,0.9,1.1,1.9,1.8,2.7c2.4,3.1,5.4,5.9,8.4,8.3
		c-0.6,0.4-1.8,0.9-2.4,1c-2.7-1.8-6.9-7.8-8.7-10.4c-0.3-0.4-0.6-0.9-0.8-1.3c-0.5-0.7-1-1.2-1.8-1.6c-0.2-0.1-0.8-0.4-0.9-0.6
		c-0.1-0.1,0-0.2,0-0.3c0.1-1.2,4.4-0.7,5.2-1.1c1.5-0.8,4.2-1,5.9-1c2.9-0.1,6,0.3,8.8,1c3.7,0.9,7.5,2.3,10.7,4.3
		c1,0.6,2,1.3,2.8,2.1C182.5,214.1,183.1,214.7,183.2,215z M180.3,186.3c-0.1,1.1-2.3,4-2.8,4.7c-2.5,3.1-5.7,5.8-9,8
		c-3,1.9-6.5,3.7-9.9,4.6c-1.1,0.3-2.5,0.6-3.7,0.6c-0.3,0-1.2,0-1.4-0.3c-0.6-0.9,1.6-3.9,2.2-4.6c2.2-2.8,5.2-5.3,8.2-7.2
		c3.4-2.2,7.2-4,11-5.1C175.7,186.9,179.3,186,180.3,186.3z M200.4,166c0.2,0.3,0.2,1.3,0.2,1.6c0,1.3-0.3,2.6-0.6,3.9
		c-1,3.9-2.8,7.8-4.9,11.2c-1.9,3.1-4.3,6.2-7,8.5c-0.7,0.6-3.7,3.1-4.8,2.6c-1-0.6-0.3-4.3,0-5.1c0.9-3.5,2.6-7.1,4.5-10.1
		c2.2-3.4,4.9-6.9,7.9-9.6c1-0.9,2.1-1.8,3.2-2.4C199.1,166.4,200.1,165.9,200.4,166z"/>
	<polygon class="st2" points="24.4,95.8 115.8,95.8 144.1,132.4 144.1,110.9 147.8,110.9 147.8,115.6 153.1,115.6 153.1,132.9 
		182,95.8 273.1,95.8 273.1,104.9 268,109.3 211.6,109.2 207.2,114 254.3,114 250.1,119.7 189.5,119.7 186,123.5 238.8,123.5 
		234.5,129.2 175.3,129.2 171.3,133.9 220.7,133.9 216.5,139.6 166.5,139.6 162.9,143.9 200,143.9 195.8,149.6 162.3,149.6 
		159.2,143.7 153.1,143.7 153.1,153.1 147.8,153.1 147.8,157.8 144.1,157.8 144.1,143.7 138.3,143.7 135.3,149.6 101.7,149.6 
		97.5,143.9 134.6,143.9 131,139.6 81,139.6 76.8,133.9 126.2,133.9 122.2,129.2 63,129.2 58.8,123.5 111.5,123.5 108,119.7 
		47.4,119.7 43.2,114 90.3,114 86,109.2 29.5,109.3 24.4,104.9 	"/>
	<path class="st2" d="M150.4,48.3c13.5,0,24.5,9.3,24.5,20.8c0,11.5-11,20.8-24.5,20.8c-13.5,0-24.5-9.3-24.5-20.8
		C125.8,57.6,136.8,48.3,150.4,48.3"/>
	<path class="st4" d="M127.2,64.7c0.9-3.3,2.8-6.4,5.4-8.8c5.8-1.5,11.9-2,17.8-0.7c4.9,1,9.8,3.3,13.4,6.9l0.1,0.1
		c0.3,1.9-0.1,3.9-1.3,5.4c-1.9,2.5-5.2,2.9-8.1,2.2c-1.2-2.1-3.4-3.6-5.7-4.5c-2.8-1-5.8-1.2-8.7-0.6c-1.4-0.9-3.5-1.2-5-1.2
		c-2.3-0.1-4.8,0.2-7,1C127.7,64.4,127.5,64.5,127.2,64.7 M137.8,86.1c-6.7-3.5-11.2-9.8-11.2-17c0-1.2,0.1-2.4,0.4-3.5
		c0.4-0.2,0.8-0.4,1.3-0.5c2.1-0.7,4.5-1,6.8-0.9c1.3,0.1,3.1,0.3,4.4,0.9C133.9,71.3,134.8,79.1,137.8,86.1z M149.7,89.1
		c-3.9-0.1-7.6-1-10.8-2.5c-3.2-7.1-4.4-15,1.2-21.3l0,0c2.7-0.6,5.7-0.4,8.3,0.5c2,0.8,4,2.1,5.2,4c-4.1,2.6-5,7.9-3.5,12.2
		C149.1,84.5,149.1,86.8,149.7,89.1z M173.5,64.9c0.3,1.4,0.5,2.8,0.5,4.2c0,11-10.6,20-23.6,20c-0.6-2.2-0.6-4.5,0.4-6.8
		c6.1-0.1,12.4-2,16.9-6.2C171.1,73,172.9,69.1,173.5,64.9z M166,54.1c3.2,2.4,5.6,5.5,6.9,9c-0.3,4.7-2.1,9.1-5.7,12.5
		c-4.4,4.1-10.5,5.9-16.4,6c-1.3-4-0.4-8.8,3.5-11.2l0,0c3.2,0.7,6.8,0.3,8.9-2.5c1.3-1.7,1.7-3.9,1.4-6
		C167.3,59.6,167.2,56.8,166,54.1z M150.4,49.1c5.4,0,10.3,1.5,14.3,4.1c0.9,1.6,1.5,3.3,1.3,4.9c-0.2,1.3-0.9,2.4-1.8,3.2
		c-3.7-3.6-8.6-5.9-13.6-6.9c-5.5-1.1-11.2-0.9-16.7,0.4C138.1,51.2,143.9,49.1,150.4,49.1z"/>
	<path d="M136.5,162.9h2.1l2.1,7.5l-2.8,0.8c-0.9-1.8-1.8-3.1-2.6-3.8c-1.1-1-2.4-1.5-3.7-1.5c-1,0-1.9,0.3-2.7,0.8
		c-0.8,0.5-1.5,1.3-2,2.4c-0.5,1.1-0.7,2.3-0.7,3.7c0,2.2,0.6,4,1.7,5.6c1.1,1.6,2.6,2.3,4.5,2.3c1.2,0,2.3-0.3,3.4-1
		c1.4-0.8,2.5-1.9,3.5-3.4l2.3,1.7c-1.5,2.1-2.9,3.5-4.2,4.3c-1.9,1.3-4.1,1.9-6.5,1.9c-2,0-3.8-0.5-5.4-1.4c-1.6-0.9-2.9-2.3-3.8-4
		c-0.9-1.7-1.4-3.6-1.4-5.6c0-2,0.5-3.8,1.4-5.5c0.9-1.7,2.2-2.9,3.8-3.9c1.6-0.9,3.4-1.4,5.3-1.4c2,0,3.7,0.4,5.2,1.3L136.5,162.9z
		"/>
	<path d="M154.3,183.8v-2.9h0.7c0.8,0,1.3-0.1,1.4-0.3c0.2-0.2,0.3-0.7,0.3-1.3v-2.1l-3.3-3.1l-2.7,5.6c-0.1,0.3-0.2,0.5-0.2,0.6
		c0,0.2,0.1,0.4,0.3,0.5c0.2,0.1,0.6,0.1,1.3,0.1h0.4v2.9h-10.2v-2.9h0.4c0.7,0,1.3-0.1,1.7-0.4c0.4-0.3,0.8-0.6,1-1l4.3-8.3
		l-3.7-4.3c-0.3-0.3-0.6-0.6-1-0.8c-0.4-0.2-0.9-0.3-1.5-0.3h-0.3v-2.9h9.3v2.9h-0.7c-0.5,0-0.8,0-0.9,0.1c-0.1,0.1-0.2,0.2-0.2,0.4
		c0,0.2,0.2,0.5,0.5,0.9l5.4,5.8v-5.5c0-0.5-0.1-0.9-0.2-1.1c-0.1-0.2-0.3-0.4-0.5-0.4c-0.2-0.1-0.6-0.1-1.3-0.1h-0.5v-2.9h9.8v2.9
		h-0.5c-0.8,0-1.2,0-1.3,0.1c-0.1,0.1-0.2,0.2-0.4,0.3c-0.1,0.2-0.2,0.6-0.2,1.2v5.5l5.4-5.8c0.3-0.3,0.5-0.6,0.5-0.9
		c0-0.2-0.1-0.3-0.2-0.4c-0.1-0.1-0.4-0.1-0.9-0.1h-0.7v-2.9h9.3v2.9h-0.3c-0.6,0-1.1,0.1-1.5,0.3c-0.4,0.2-0.7,0.5-1,0.8l-3.7,4.3
		l4.3,8.3c0.2,0.4,0.5,0.7,0.9,1c0.4,0.3,1,0.5,1.7,0.5h0.4v2.9h-10.3v-2.9h0.4c0.7,0,1.1,0,1.3-0.1c0.2-0.1,0.3-0.2,0.3-0.5
		c0-0.2-0.1-0.4-0.2-0.7l-2.7-5.6l-3.3,3.1v2.1c0,0.6,0.1,1.1,0.3,1.3c0.2,0.2,0.6,0.3,1.4,0.3h0.7v2.9H154.3z"/>
	<path class="st5" d="M121.1,236.1c-0.3,3.9-0.7,7.9-1,11.8c-0.3,3.9-0.7,7.9-1,11.8c-0.1,1-0.1,1.6-0.1,1.9c0.1,0.4,0.2,0.8,0.4,1
		c0.2,0.3,0.6,0.6,1.1,1c0.6,0.4,1.2,0.8,1.8,1.2c-0.1,1.5-0.3,3-0.4,4.5c-1.9-1.4-3.7-2.8-5.6-4.3c-1.9-1.4-3.7-2.8-5.6-4.3
		c0.1-1.1,0.2-2.3,0.3-3.4c0.6,0.4,1.2,0.8,1.9,1.2c0.6,0.4,1.1,0.6,1.3,0.6c0.2,0,0.3-0.1,0.5-0.3c0.1-0.2,0.2-0.8,0.3-1.7
		c0.2-2.5,0.4-5.1,0.6-7.7c0.2-2.6,0.4-5.1,0.6-7.7c-1.3-0.3-2.6-0.6-3.9-0.8c0.1-1.2,0.2-2.3,0.3-3.5c1.1,0,2-0.1,2.6-0.1
		c0.9-0.1,1.9-0.4,2.9-0.7c0.6-0.2,1.1-0.5,1.6-0.8C120.1,236,120.6,236,121.1,236.1"/>
	<path class="st5" d="M137.5,255.9c0.8,0.1,1.5-0.1,2.2-0.6c0.6-0.5,1.2-1.3,1.6-2.4c0.4-1.1,0.6-2.3,0.7-3.7
		c0.1-2.1-0.1-3.8-0.8-5.2c-0.7-1.4-1.5-2.1-2.7-2.2c-1.1-0.1-2.1,0.5-2.9,1.7c-0.8,1.2-1.3,2.9-1.4,4.9c-0.1,2.1,0.1,3.8,0.8,5.2
		C135.5,255,136.4,255.8,137.5,255.9 M129.1,273.3c0.1-1.7,0.2-3.4,0.3-5.1c2.1,0.2,3.8,0.2,5.1,0c1.3-0.3,2.4-0.8,3.3-1.6
		c0.9-0.8,1.6-1.7,2.2-2.9c0.6-1.2,1-2.6,1.3-4.1c-1,1-2,1.6-2.9,2c-0.9,0.3-1.8,0.4-2.8,0.3c-1.6-0.3-3-1-4.2-2.3
		c-1.2-1.2-2-2.8-2.6-4.7c-0.5-1.8-0.7-3.9-0.5-6.3c0.1-1.9,0.5-3.7,1-5.2c0.5-1.6,1.3-2.9,2.2-4.1c0.9-1.2,2-2.1,3.2-2.7
		c1.2-0.6,2.5-0.8,3.9-0.8c1.5,0.1,2.8,0.5,3.9,1.2c1.1,0.7,2.1,1.8,2.8,3.3c0.9,1.7,1.5,3.6,1.9,5.9c0.4,2.3,0.5,4.8,0.3,7.7
		c-0.2,3.8-0.7,7-1.5,9.6c-0.8,2.6-2,4.8-3.5,6.5c-1.5,1.8-3.3,2.9-5.3,3.5c-1,0.3-2.2,0.4-3.5,0.3
		C132.3,273.9,130.8,273.7,129.1,273.3z"/>
	<path class="st5" d="M160.6,244.6c-1,2.1-2.1,4.2-3.1,6.4c-1.1,2.2-2.1,4.4-3.2,6.7c1.1-0.1,2.3-0.3,3.4-0.5
		c1.1-0.2,2.3-0.3,3.4-0.5c-0.1-2-0.2-4-0.3-6.1C160.7,248.7,160.6,246.6,160.6,244.6 M160.2,235.6c1.6,0.1,3.3,0.1,4.9,0.1
		c0.2,3.4,0.4,6.8,0.7,10.1c0.2,3.4,0.4,6.8,0.7,10.1c1.5-0.2,2.9-0.4,4.4-0.6c0.2,2.2,0.4,4.4,0.5,6.6c-1.5,0.3-3,0.5-4.5,0.8
		c0.1,1.7,0.2,3.4,0.3,5.2c0.1,1.7,0.2,3.4,0.3,5.2c-1.9,0.5-3.7,0.9-5.6,1.4c-0.1-1.8-0.2-3.6-0.2-5.4c-0.1-1.8-0.2-3.6-0.2-5.4
		c-1.9,0.3-3.7,0.7-5.6,1c-1.9,0.3-3.7,0.7-5.6,1c0-3.1,0-6.3-0.1-9.4c1.8-3.7,3.5-7.3,5.2-10.8C157,242.2,158.6,238.9,160.2,235.6z
		"/>
	<path class="st5" d="M173.2,235.8c0.6,0,1.3,0,1.9-0.1c0.1,0.3,0.2,0.6,0.3,1c2.2-0.1,4.5-0.2,6.7-0.3c2.2-0.1,4.5-0.2,6.7-0.3
		c0.1,1.1,0.3,2.3,0.4,3.4c-1.1,1.7-2,3.3-2.6,4.9c-0.6,1.6-1.2,3.5-1.7,5.6c-0.5,2.2-0.8,4.2-1,6.1c-0.1,1-0.1,2.1-0.1,3.6
		c0,1.4,0,3.1,0,5c-0.9,0.5-1.8,0.9-2.7,1.4c-0.9,0.5-1.8,0.9-2.7,1.4c0-1.9,0-3.6,0.1-5.2c0.1-1.6,0.2-3,0.4-4.3
		c0.4-2.6,1-5.4,2.1-8.4c1-2.9,2.1-5.3,3.2-7.3c-1.1,0.2-2.2,0.3-3.3,0.5c-1.1,0.2-2.2,0.3-3.3,0.5c-0.8,0.1-1.4,0.3-1.6,0.5
		c-0.3,0.2-0.4,0.5-0.6,0.8c-0.1,0.4-0.2,1.1-0.4,2.3c-0.1,0.6-0.1,1.3-0.2,1.9c-1-0.1-1.9-0.3-2.9-0.4c0.2-2.1,0.4-4.2,0.6-6.3
		C172.8,239.8,173,237.8,173.2,235.8"/>
	<path class="st5" d="M217.7,28.6c0.4,0.7,0.9,1.4,1.3,2.1c0.4,0.7,0.8,1.4,1.3,2.1c0.4,0,0.8,0,1.2,0c0.7,0,1.2-0.1,1.5-0.2
		c0.2-0.2,0.4-0.4,0.4-0.7c0-0.3-0.2-0.7-0.4-1.2c-0.4-0.7-1-1.2-1.8-1.6c-0.6-0.3-1.2-0.4-1.9-0.4
		C218.7,28.6,218.2,28.6,217.7,28.6 M211.3,26.2c2.4,0,4.7,0,7.1,0c0.9,0,1.7,0.1,2.4,0.3c0.7,0.2,1.4,0.5,2.2,0.9
		c0.7,0.4,1.4,0.9,2,1.5c0.6,0.6,1.2,1.2,1.6,1.8c0.9,1.3,1.1,2.3,0.7,3.2c-0.4,0.9-1.4,1.3-3.1,1.3c-0.8,0-1.7,0-2.5,0
		c0.6,0.9,1.2,1.8,1.7,2.8c0.2,0.3,0.4,0.6,0.5,0.7c0.1,0.1,0.3,0.2,0.5,0.3c0.2,0.1,0.4,0.1,0.7,0.1c0.2,0,0.5,0,0.8,0
		c0.4,0.7,0.9,1.4,1.3,2.1c-2.4,0-4.9,0-7.4,0c-0.4-0.7-0.8-1.4-1.2-2.1c0.2,0,0.3,0,0.5,0c0.4,0,0.7,0,0.8-0.1
		c0.1-0.1,0.1-0.2,0.1-0.3c0-0.1-0.1-0.4-0.4-0.9c-0.8-1.4-1.6-2.7-2.4-4.1c-0.8-1.4-1.6-2.7-2.4-4.1c-0.3-0.4-0.5-0.7-0.6-0.9
		c-0.1-0.1-0.3-0.2-0.4-0.3c-0.1-0.1-0.4-0.1-0.7-0.1c-0.2,0-0.4,0-0.7,0C212.1,27.5,211.7,26.8,211.3,26.2z M205.4,34.1
		c0.9,0,1.9,0,2.9,0c-0.6-0.7-1.2-1.4-1.7-2c-0.6-0.7-1.2-1.4-1.7-2c0.1,0.7,0.2,1.4,0.3,2C205.3,32.8,205.3,33.5,205.4,34.1z
		 M201.9,26.2c1,0,2,0,3,0c1.7,1.9,3.3,3.8,5.1,5.7c1.7,1.9,3.5,3.8,5.3,5.7c0.6,0.6,1,1,1.3,1.1c0.3,0.1,0.7,0.2,1.1,0.2
		c0.4,0.7,0.8,1.4,1.2,2.1c-2.4,0-4.8,0-7.1,0c-0.3-0.7-0.7-1.4-1-2.1c0.1,0,0.3,0,0.4,0c0.4,0,0.6,0,0.8-0.2c0.1-0.1,0.1-0.2,0-0.4
		c-0.1-0.1-0.3-0.4-0.6-0.8c-0.4-0.4-0.8-0.9-1.1-1.4c-1.5,0-3,0-4.5,0c0.1,0.5,0.1,1,0.2,1.5c0,0.3,0.1,0.5,0.1,0.6
		c0,0.1,0.1,0.2,0.3,0.3c0.1,0.1,0.3,0.2,0.5,0.2c0.1,0,0.5,0,1,0c0.3,0.7,0.7,1.4,1,2.1c-2,0-3.9,0-5.9,0c-0.3-0.7-0.6-1.4-0.9-2.1
		c0.4,0,0.6,0,0.8-0.1c0.2-0.1,0.2-0.2,0.3-0.3c0.1-0.1,0.1-0.4,0.1-0.7c-0.2-1.9-0.3-3.9-0.5-5.8C202.4,30.1,202.2,28.1,201.9,26.2
		z M188.5,28.2c-0.2,0-0.4,0-0.5,0c-0.4,0-0.7,0.1-0.7,0.2c-0.1,0.2,0,0.5,0.2,1.1c0.1,0.3,0.2,0.7,0.4,1c0.3,0.7,0.5,1.2,0.7,1.5
		c0.2,0.3,0.5,0.5,0.9,0.6c0.3,0.1,0.8,0.2,1.6,0.2c0.8,0,1.6,0,2.4,0c-0.5-1.2-0.9-2.3-1.4-3.5c-0.2-0.5-0.4-0.8-0.5-0.9
		c-0.2-0.1-0.5-0.2-1.1-0.2c-0.2,0-0.3,0-0.4,0c-0.3-0.7-0.5-1.4-0.8-2.1c2.2,0,4.3,0,6.5,0c0.3,0.7,0.6,1.4,0.9,2.1
		c-0.2,0-0.4,0-0.6,0c-0.5,0-0.7,0.1-0.8,0.2c-0.1,0.1,0,0.5,0.3,1.1c0.6,1.3,1.1,2.7,1.7,4c0.6,1.3,1.1,2.7,1.7,4
		c0.3,0.6,0.5,1,0.7,1.1c0.2,0.1,0.6,0.2,1.2,0.2c0.1,0,0.3,0,0.4,0c0.3,0.7,0.6,1.4,0.9,2.1c-2.5,0-4.9,0-7.4,0
		c-0.2-0.7-0.5-1.4-0.8-2.1c0.2,0,0.3,0,0.5,0c0.6,0,1-0.1,1-0.2c0.1-0.2,0-0.5-0.2-1.1c-0.3-0.8-0.6-1.6-1-2.4c-1.1,0-2.2,0-3.3,0
		c-1,0-1.8-0.1-2.4-0.2c-0.6-0.1-1.2-0.4-1.8-0.9c-0.6-0.4-1.1-0.9-1.4-1.3c-0.3-0.5-0.6-1.1-0.9-1.9c-0.1-0.4-0.3-0.8-0.4-1.3
		c-0.2-0.6-0.4-1-0.5-1.1c-0.2-0.2-0.5-0.3-1-0.3c-0.2,0-0.4,0-0.5,0c-0.2-0.7-0.4-1.4-0.7-2.1c2.1,0,4.3,0,6.4,0
		C188,26.8,188.3,27.5,188.5,28.2z M165.6,26.2c2.2,0,4.4,0,6.6,0c0.2,0.7,0.3,1.4,0.5,2.1c-0.2,0-0.4,0-0.6,0
		c-0.4,0-0.7,0.1-0.8,0.2c-0.1,0.1-0.1,0.5,0.1,1.1c0.2,0.8,0.4,1.6,0.6,2.5c0.2,0.8,0.4,1.6,0.6,2.5c0.7-0.8,1.3-1.7,2-2.5
		c0.6-0.8,1.3-1.7,1.9-2.5c-0.2-0.6-0.3-0.9-0.5-1c-0.2-0.1-0.5-0.1-0.9-0.1c-0.2,0-0.4,0-0.5,0c-0.2-0.7-0.3-1.4-0.5-2.1
		c2.2,0,4.4,0,6.6,0c0.2,0.7,0.4,1.4,0.6,2.1c-0.2,0-0.4,0-0.6,0c-0.5,0-0.7,0.1-0.8,0.2c-0.1,0.1,0,0.5,0.2,1.1
		c0.4,1.3,0.8,2.7,1.2,4c0.4,1.3,0.8,2.7,1.2,4c0.2,0.6,0.4,1,0.6,1.1c0.2,0.2,0.6,0.2,1.2,0.2c0.1,0,0.3,0,0.4,0
		c0.2,0.7,0.4,1.4,0.6,2.1c-2.5,0-4.9,0-7.4,0c-0.2-0.7-0.3-1.4-0.5-2.1c0.2,0,0.3,0,0.5,0c0.6,0,1-0.1,1.1-0.2
		c0.1-0.2,0.1-0.5-0.1-1.1c-0.2-0.8-0.4-1.7-0.7-2.5c-0.2-0.8-0.4-1.7-0.7-2.5c-0.7,0.8-1.3,1.7-2,2.5c-0.7,0.8-1.4,1.7-2,2.5
		c0.1,0.5,0.2,0.8,0.3,1c0.1,0.1,0.2,0.2,0.3,0.3c0.2,0.1,0.5,0.1,1,0.1c0.2,0,0.3,0,0.5,0c0.2,0.7,0.3,1.4,0.5,2.1
		c-2.5,0-4.9,0-7.4,0c-0.1-0.7-0.2-1.4-0.4-2.1c0.2,0,0.3,0,0.5,0c0.6,0,0.9-0.1,1.1-0.2c0.1-0.2,0.1-0.5,0-1
		c-0.3-1.3-0.5-2.7-0.8-4c-0.3-1.3-0.5-2.7-0.8-4c-0.1-0.6-0.3-1-0.4-1.2c-0.2-0.2-0.5-0.2-0.9-0.2c-0.2,0-0.4,0-0.6,0
		C165.9,27.5,165.8,26.8,165.6,26.2z M149.5,26.2c2.2,0,4.4,0,6.6,0c0.1,0.7,0.1,1.4,0.2,2.1c-0.2,0-0.4,0-0.6,0
		c-0.3,0-0.6,0-0.7,0.1c-0.1,0.1-0.2,0.2-0.2,0.3c0,0.1,0,0.4,0,0.9c0.1,0.9,0.2,1.7,0.2,2.6c1.7,0,3.4,0,5.1,0
		c-0.1-0.9-0.3-1.8-0.4-2.8c0-0.3-0.1-0.6-0.1-0.7c-0.1-0.2-0.2-0.3-0.3-0.4c-0.1-0.1-0.4-0.1-0.8-0.1c-0.2,0-0.3,0-0.5,0
		c-0.1-0.7-0.2-1.4-0.2-2.1c2.2,0,4.4,0,6.6,0c0.1,0.7,0.2,1.4,0.4,2.1c-0.2,0-0.4,0-0.6,0c-0.4,0-0.6,0-0.7,0.1
		c-0.1,0.1-0.2,0.2-0.2,0.3c0,0.1,0,0.4,0.1,0.9c0.2,1.3,0.4,2.7,0.7,4c0.2,1.3,0.4,2.7,0.7,4c0.1,0.5,0.1,0.8,0.2,1
		c0.1,0.1,0.2,0.2,0.4,0.3c0.2,0.1,0.5,0.1,1,0.1c0.1,0,0.3,0,0.4,0c0.1,0.7,0.2,1.4,0.4,2.1c-2.5,0-5,0-7.4,0
		c-0.1-0.7-0.2-1.4-0.2-2.1c0.1,0,0.3,0,0.5,0c0.5,0,0.8,0,0.9-0.1c0.2-0.1,0.2-0.2,0.3-0.3c0.1-0.1,0-0.5,0-0.9
		c-0.2-1-0.3-2.1-0.4-3.1c-1.7,0-3.5,0-5.2,0c0.1,1,0.2,2.1,0.3,3.1c0,0.5,0.1,0.8,0.1,0.9c0.1,0.2,0.2,0.3,0.4,0.4
		c0.2,0.1,0.4,0.1,0.9,0.1c0.2,0,0.3,0,0.5,0c0.1,0.7,0.2,1.4,0.2,2.1c-2.5,0-4.9,0-7.4,0c0-0.7-0.1-1.4-0.1-2.1c0.2,0,0.3,0,0.5,0
		c0.4,0,0.7,0,0.9-0.1c0.2-0.1,0.3-0.2,0.3-0.3c0-0.1,0.1-0.4,0-0.8c-0.1-1.3-0.2-2.7-0.3-4c-0.1-1.3-0.2-2.7-0.2-4
		c0-0.5-0.1-0.8-0.1-1c-0.1-0.2-0.2-0.3-0.3-0.3c-0.1-0.1-0.4-0.1-0.7-0.1c-0.2,0-0.4,0-0.6,0C149.5,27.5,149.5,26.8,149.5,26.2z
		 M137.4,26.2c0.4,0,0.9,0,1.4,0c0.1,0.2,0.2,0.4,0.3,0.6c1.1-0.6,2.2-0.9,3.4-0.9c1.4,0,2.7,0.3,3.6,1c1,0.7,1.5,1.6,1.5,2.8
		c0,1.7-0.8,2.8-2.6,3.4c2.2,0.4,3.3,1.6,3.3,3.6c0,1.4-0.5,2.5-1.7,3.3c-1.2,0.8-2.7,1.2-4.5,1.2c-2,0-3.6-0.4-4.7-1.2
		c-1.1-0.8-1.9-1.9-2.6-3.2c0.6-0.4,1.1-0.8,1.7-1.2c1.3,2.1,3,3.2,5.1,3.2c1,0,1.8-0.2,2.2-0.7c0.5-0.5,0.7-1,0.7-1.6
		c0-0.7-0.2-1.2-0.7-1.6c-0.4-0.4-1.2-0.6-2.4-0.6c-0.6,0-1.2,0-1.9,0c0-0.7,0.1-1.5,0.1-2.2c0.5,0,1,0,1.5,0c1.2,0,1.9-0.2,2.4-0.5
		c0.4-0.3,0.6-0.8,0.6-1.4c0-0.7-0.2-1.2-0.7-1.5c-0.5-0.3-1.1-0.5-1.7-0.5c-1,0-1.8,0.3-2.4,1c-0.7,0.7-1.3,1.6-1.8,2.8
		c-0.6-0.2-1.2-0.4-1.8-0.6c0.3-0.9,0.6-1.8,0.8-2.7C136.8,27.9,137.1,27,137.4,26.2z M121.7,26.2c3.8,0,7.5,0,11.2,0
		c0.2,0.8,0.4,1.6,0.6,2.3c0.2,0.8,0.4,1.6,0.6,2.3c-0.6,0.2-1.2,0.5-1.9,0.7c-0.3-0.8-0.5-1.4-0.9-1.8c-0.4-0.5-0.8-0.8-1.2-0.9
		c-0.5-0.2-1-0.2-1.7-0.2c-0.7,0-1.4,0-2.1,0c-0.2,1.2-0.4,2.5-0.5,3.7c0.2,0,0.5,0,0.7,0c0.5,0,0.9,0,1.1-0.1
		c0.2-0.1,0.4-0.2,0.5-0.4c0.1-0.2,0.2-0.5,0.2-1c0-0.2,0.1-0.4,0.1-0.6c0.6,0,1.2,0,1.8,0c-0.1,1-0.2,2.1-0.3,3.1
		c-0.1,1-0.2,2.1-0.3,3.1c-0.6,0-1.3,0-1.9,0c0-0.2,0.1-0.4,0.1-0.6c0.1-0.4,0-0.7,0-0.9c-0.1-0.2-0.2-0.3-0.3-0.4
		c-0.2-0.1-0.6-0.1-1.1-0.1c-0.2,0-0.4,0-0.7,0c-0.2,1.1-0.3,2.3-0.5,3.4c0,0.4-0.1,0.6,0,0.7c0,0.1,0.1,0.1,0.2,0.2
		c0.1,0,0.3,0.1,0.7,0.1c0.4,0,0.8,0,1.2,0c0.9,0,1.7-0.1,2.4-0.4c0.6-0.3,1.3-0.7,1.8-1.3c0.6-0.6,1-1.3,1.3-2.1
		c0.6,0.2,1.2,0.4,1.8,0.7c-0.4,0.9-0.8,1.8-1.2,2.8c-0.4,0.9-0.8,1.8-1.2,2.8c-4.4,0-8.7,0-13.1,0c0.1-0.7,0.3-1.4,0.4-2.1
		c0.1,0,0.2,0,0.4,0c0.5,0,0.9,0,1-0.1c0.2-0.1,0.3-0.2,0.4-0.4c0.1-0.1,0.1-0.4,0.2-0.9c0.2-1.3,0.5-2.7,0.7-4
		c0.2-1.3,0.5-2.7,0.7-4c0.1-0.4,0.1-0.7,0.1-0.9c0-0.1-0.1-0.2-0.2-0.3c-0.1-0.1-0.3-0.1-0.7-0.1c-0.2,0-0.4,0-0.6,0
		C121.5,27.5,121.6,26.8,121.7,26.2z M112.4,30.1c-0.8,1.3-1.6,2.6-2.4,3.9c-0.8,1.3-1.6,2.6-2.4,3.9c-0.2,0.3-0.3,0.5-0.4,0.6
		c-0.1,0.2,0,0.4,0.2,0.4c0.2,0.1,0.6,0.1,1.2,0.1c-0.2,0.7-0.4,1.4-0.6,2.1c-1.9,0-3.9,0-5.8,0c0.2-0.7,0.4-1.4,0.6-2.1
		c0.5,0,0.9-0.1,1.1-0.2c0.2-0.1,0.5-0.4,0.8-0.9c1.3-1.9,2.6-3.9,3.9-5.8c1.3-1.9,2.5-3.9,3.7-5.8c1,0,2,0,3,0
		c0.2,1.9,0.4,3.8,0.7,5.7c0.3,1.9,0.6,3.8,1,5.7c0.1,0.5,0.2,0.9,0.4,1.1c0.1,0.2,0.5,0.3,1,0.3c-0.1,0.7-0.3,1.4-0.4,2.1
		c-2.4,0-4.8,0-7.2,0c0.2-0.7,0.3-1.4,0.5-2.1c0.1,0,0.3,0,0.4,0c0.7,0,1.1-0.2,1.2-0.5c0-0.1,0-0.4,0-0.8c-0.1-1.3-0.3-2.5-0.4-3.8
		C112.6,32.6,112.5,31.3,112.4,30.1z M93.3,26.2c3.7,0,7.5,0,11.2,0c0,0.8,0,1.6,0,2.3c0,0.8,0,1.6,0.1,2.3c-0.7,0.2-1.3,0.5-2,0.7
		c-0.1-0.8-0.2-1.4-0.4-1.8c-0.2-0.5-0.6-0.8-1-0.9c-0.4-0.2-1-0.2-1.6-0.2c-0.7,0-1.4,0-2.1,0c-0.5,1.2-0.9,2.5-1.4,3.7
		c0.2,0,0.5,0,0.7,0c0.5,0,0.9,0,1.1-0.1c0.2-0.1,0.4-0.2,0.6-0.4c0.1-0.2,0.3-0.5,0.5-1c0.1-0.2,0.1-0.4,0.2-0.6c0.6,0,1.2,0,1.8,0
		c-0.4,1-0.7,2.1-1.1,3.1c-0.4,1-0.7,2.1-1.1,3.1c-0.6,0-1.3,0-1.9,0c0.1-0.2,0.1-0.4,0.2-0.6c0.2-0.4,0.2-0.7,0.2-0.9
		c0-0.2-0.1-0.3-0.3-0.4c-0.2-0.1-0.5-0.1-1.1-0.1c-0.2,0-0.4,0-0.6,0c-0.4,1.1-0.9,2.3-1.3,3.4c-0.1,0.4-0.2,0.6-0.2,0.7
		c0,0.1,0.1,0.1,0.1,0.2c0.1,0,0.3,0.1,0.6,0.1c0.4,0,0.8,0,1.2,0c0.9,0,1.8-0.1,2.5-0.4c0.7-0.3,1.4-0.7,2.1-1.3
		c0.7-0.6,1.3-1.3,1.8-2.1c0.5,0.2,1.1,0.4,1.7,0.7c-0.6,0.9-1.2,1.8-1.8,2.8c-0.6,0.9-1.3,1.8-1.9,2.8c-4.4,0-8.7,0-13.1,0
		c0.3-0.7,0.6-1.4,0.9-2.1c0.1,0,0.2,0,0.4,0c0.5,0,0.9,0,1.1-0.1c0.2-0.1,0.4-0.2,0.5-0.4c0.1-0.1,0.2-0.4,0.4-0.9
		c0.6-1.3,1.1-2.7,1.7-4c0.6-1.3,1.1-2.7,1.7-4c0.2-0.4,0.3-0.7,0.3-0.9c0-0.1,0-0.2-0.1-0.3c-0.1-0.1-0.3-0.1-0.7-0.1
		c-0.2,0-0.4,0-0.6,0C92.8,27.5,93,26.8,93.3,26.2z M70.4,41c0.4-0.7,0.8-1.4,1.1-2.1c0.2,0,0.3,0,0.5,0c0.6,0,1-0.1,1.2-0.2
		c0.2-0.1,0.5-0.5,0.7-0.9c0.3-0.5,0.5-1,0.8-1.5c-0.4-0.7-0.7-1.4-1.1-2.2c-0.7,0.7-1.4,1.3-2,2c-0.7,0.7-1.4,1.3-2,2
		c-0.2,0.2-0.4,0.3-0.4,0.4c-0.1,0.2-0.1,0.3,0,0.4c0.1,0.1,0.4,0.1,0.9,0.1c0.1,0,0.2,0,0.3,0c-0.4,0.7-0.8,1.4-1.1,2.1
		c-2.5,0-4.9,0-7.4,0c0.4-0.7,0.8-1.4,1.3-2.1c0.1,0,0.2,0,0.3,0c0.5,0,1-0.1,1.4-0.3c0.4-0.2,0.8-0.5,1.1-0.7c1.1-1,2.2-2,3.3-2.9
		c1.1-1,2.1-2,3.2-2.9c-0.2-1-0.4-2-0.6-3c0-0.2-0.2-0.4-0.3-0.6c-0.2-0.1-0.5-0.2-0.8-0.2c-0.1,0-0.1,0-0.2,0
		c0.4-0.7,0.8-1.4,1.3-2.1c2,0,4,0,6,0c-0.4,0.7-0.8,1.4-1.2,2.1c-0.2,0-0.3,0-0.4,0c-0.3,0-0.5,0-0.6,0.1c-0.1,0.1-0.2,0.1-0.3,0.3
		c-0.1,0.2-0.1,0.4,0,0.6c0.2,0.7,0.4,1.4,0.6,2.1c0.2,0.7,0.5,1.4,0.7,2.1c0.4-0.7,0.7-1.3,1.1-2c0.4-0.7,0.7-1.3,1.1-2
		c0.2-0.4,0.3-0.7,0.3-0.8c0-0.2,0-0.3-0.1-0.3c-0.1-0.1-0.4-0.1-0.8-0.1c-0.1,0-0.3,0-0.4,0c0.4-0.7,0.8-1.4,1.1-2.1
		c2.1,0,4.2,0,6.3,0c-0.3,0.7-0.7,1.4-1,2.1c-0.1,0-0.3,0-0.4,0c-0.5,0-0.8,0-0.9,0.1c-0.1,0.1-0.2,0.1-0.4,0.2
		c-0.2,0.1-0.3,0.4-0.6,0.9c-0.3,0.7-0.7,1.3-1,2c-0.3,0.7-0.7,1.3-1,2c0.9-0.7,1.9-1.4,2.9-2.1c0.9-0.7,1.9-1.4,2.8-2.1
		c0.4-0.3,0.6-0.4,0.7-0.6c0.1-0.1,0.1-0.2,0-0.3c0-0.1-0.2-0.1-0.6-0.1c-0.2,0-0.3,0-0.5,0c0.3-0.7,0.7-1.4,1-2.1c2,0,4,0,6,0
		c-0.3,0.7-0.6,1.4-0.9,2.1c-0.1,0-0.1,0-0.2,0c-0.4,0-0.7,0.1-1.1,0.2c-0.3,0.1-0.6,0.3-0.9,0.6c-1.3,1-2.5,2-3.9,3
		c0,1,0.1,2,0.1,2.9c0,1,0.1,2,0.2,2.9c0,0.3,0.1,0.5,0.3,0.7c0.2,0.2,0.6,0.3,1.1,0.3c0.1,0,0.2,0,0.3,0c-0.3,0.7-0.6,1.4-0.9,2.1
		c-2.5,0-4.9,0-7.4,0c0.3-0.7,0.7-1.4,1-2.1c0.1,0,0.2,0,0.3,0c0.5,0,0.8,0,1-0.1c0.2-0.1,0.3-0.2,0.3-0.3c0-0.1,0.1-0.3,0.1-0.5
		c0-0.7,0-1.3,0-2c0-0.7,0-1.3,0.1-2c-1.1,0.7-2.2,1.4-3.3,2.2c-0.3,0.5-0.5,1-0.8,1.5c-0.2,0.4-0.3,0.8-0.3,0.9
		c0,0.2,0.3,0.2,0.9,0.2c0.2,0,0.3,0,0.5,0c-0.3,0.7-0.7,1.4-1,2.1C75.1,41,72.8,41,70.4,41z"/>
</g>
</svg>
